<svg width="588" height="447" viewBox="0 0 588 447" fill="none" xmlns="http://www.w3.org/2000/svg">
<path d="M295.759 127.878C273.5 136 250.855 167.335 239.472 184.356C229.508 181.812 219.117 181.414 208.987 183.19C198.858 184.965 189.222 188.873 180.72 194.653C172.218 200.433 165.043 207.954 159.673 216.717C154.303 225.479 150.859 235.282 149.571 245.476C148.283 255.669 149.18 266.02 152.202 275.841C155.224 285.662 160.302 294.728 167.1 302.438C173.898 310.148 182.259 316.325 191.629 320.56C200.999 324.795 211.163 326.99 221.447 327H335.403C355.893 327 375.922 320.93 392.959 309.557C409.995 298.184 423.273 282.02 431.114 263.108C438.955 244.196 441.007 223.385 437.009 203.308C433.012 183.231 423.145 164.789 408.657 150.314C394.169 135.84 375.71 125.982 355.614 121.989C335.518 117.995 315 120.858 295.759 127.878Z" fill="#5846D3" stroke="white" stroke-width="4" stroke-linecap="round" stroke-linejoin="round"/>
<path d="M249.961 216.8C249.961 214.603 250.451 212.64 251.433 210.912C252.435 209.163 253.79 207.808 255.497 206.848C257.225 205.867 259.155 205.376 261.289 205.376C263.785 205.376 265.971 206.016 267.849 207.296C269.726 208.576 271.038 210.347 271.785 212.608H266.633C266.121 211.541 265.395 210.741 264.457 210.208C263.539 209.675 262.473 209.408 261.257 209.408C259.955 209.408 258.793 209.717 257.769 210.336C256.766 210.933 255.977 211.787 255.401 212.896C254.846 214.005 254.569 215.307 254.569 216.8C254.569 218.272 254.846 219.573 255.401 220.704C255.977 221.813 256.766 222.677 257.769 223.296C258.793 223.893 259.955 224.192 261.257 224.192C262.473 224.192 263.539 223.925 264.457 223.392C265.395 222.837 266.121 222.027 266.633 220.96H271.785C271.038 223.243 269.726 225.024 267.849 226.304C265.993 227.563 263.806 228.192 261.289 228.192C259.155 228.192 257.225 227.712 255.497 226.752C253.79 225.771 252.435 224.416 251.433 222.688C250.451 220.96 249.961 218.997 249.961 216.8ZM278.811 204.32V228H274.331V204.32H278.811ZM289.829 228.288C288.123 228.288 286.587 227.915 285.221 227.168C283.856 226.4 282.779 225.323 281.989 223.936C281.221 222.549 280.837 220.949 280.837 219.136C280.837 217.323 281.232 215.723 282.021 214.336C282.832 212.949 283.931 211.883 285.317 211.136C286.704 210.368 288.251 209.984 289.957 209.984C291.664 209.984 293.211 210.368 294.597 211.136C295.984 211.883 297.072 212.949 297.861 214.336C298.672 215.723 299.077 217.323 299.077 219.136C299.077 220.949 298.661 222.549 297.829 223.936C297.019 225.323 295.909 226.4 294.501 227.168C293.115 227.915 291.557 228.288 289.829 228.288ZM289.829 224.384C290.64 224.384 291.397 224.192 292.101 223.808C292.827 223.403 293.403 222.805 293.829 222.016C294.256 221.227 294.469 220.267 294.469 219.136C294.469 217.451 294.021 216.16 293.125 215.264C292.251 214.347 291.173 213.888 289.893 213.888C288.613 213.888 287.536 214.347 286.661 215.264C285.808 216.16 285.381 217.451 285.381 219.136C285.381 220.821 285.797 222.123 286.629 223.04C287.483 223.936 288.549 224.384 289.829 224.384ZM317.82 210.272V228H313.308V225.76C312.732 226.528 311.974 227.136 311.036 227.584C310.118 228.011 309.116 228.224 308.028 228.224C306.641 228.224 305.414 227.936 304.348 227.36C303.281 226.763 302.438 225.899 301.82 224.768C301.222 223.616 300.924 222.251 300.924 220.672V210.272H305.404V220.032C305.404 221.44 305.756 222.528 306.46 223.296C307.164 224.043 308.124 224.416 309.34 224.416C310.577 224.416 311.548 224.043 312.252 223.296C312.956 222.528 313.308 221.44 313.308 220.032V210.272H317.82ZM319.808 219.072C319.808 217.28 320.16 215.691 320.864 214.304C321.589 212.917 322.571 211.851 323.808 211.104C325.045 210.357 326.421 209.984 327.936 209.984C329.088 209.984 330.187 210.24 331.232 210.752C332.277 211.243 333.109 211.904 333.728 212.736V204.32H338.272V228H333.728V225.376C333.173 226.251 332.395 226.955 331.392 227.488C330.389 228.021 329.227 228.288 327.904 228.288C326.411 228.288 325.045 227.904 323.808 227.136C322.571 226.368 321.589 225.291 320.864 223.904C320.16 222.496 319.808 220.885 319.808 219.072ZM333.76 219.136C333.76 218.048 333.547 217.12 333.12 216.352C332.693 215.563 332.117 214.965 331.392 214.56C330.667 214.133 329.888 213.92 329.056 213.92C328.224 213.92 327.456 214.123 326.752 214.528C326.048 214.933 325.472 215.531 325.024 216.32C324.597 217.088 324.384 218.005 324.384 219.072C324.384 220.139 324.597 221.077 325.024 221.888C325.472 222.677 326.048 223.285 326.752 223.712C327.477 224.139 328.245 224.352 329.056 224.352C329.888 224.352 330.667 224.149 331.392 223.744C332.117 223.317 332.693 222.72 333.12 221.952C333.547 221.163 333.76 220.224 333.76 219.136ZM214.582 259.136C214.582 257.301 214.955 255.701 215.702 254.336C216.448 252.949 217.483 251.883 218.806 251.136C220.128 250.368 221.643 249.984 223.35 249.984C225.547 249.984 227.36 250.539 228.79 251.648C230.24 252.736 231.211 254.272 231.702 256.256H226.87C226.614 255.488 226.176 254.891 225.558 254.464C224.96 254.016 224.214 253.792 223.318 253.792C222.038 253.792 221.024 254.261 220.278 255.2C219.531 256.117 219.158 257.429 219.158 259.136C219.158 260.821 219.531 262.133 220.278 263.072C221.024 263.989 222.038 264.448 223.318 264.448C225.131 264.448 226.315 263.637 226.87 262.016H231.702C231.211 263.936 230.24 265.461 228.79 266.592C227.339 267.723 225.526 268.288 223.35 268.288C221.643 268.288 220.128 267.915 218.806 267.168C217.483 266.4 216.448 265.333 215.702 263.968C214.955 262.581 214.582 260.971 214.582 259.136ZM241.576 268.288C239.869 268.288 238.333 267.915 236.968 267.168C235.602 266.4 234.525 265.323 233.736 263.936C232.968 262.549 232.584 260.949 232.584 259.136C232.584 257.323 232.978 255.723 233.768 254.336C234.578 252.949 235.677 251.883 237.064 251.136C238.45 250.368 239.997 249.984 241.704 249.984C243.41 249.984 244.957 250.368 246.344 251.136C247.73 251.883 248.818 252.949 249.608 254.336C250.418 255.723 250.824 257.323 250.824 259.136C250.824 260.949 250.408 262.549 249.576 263.936C248.765 265.323 247.656 266.4 246.248 267.168C244.861 267.915 243.304 268.288 241.576 268.288ZM241.576 264.384C242.386 264.384 243.144 264.192 243.848 263.808C244.573 263.403 245.149 262.805 245.576 262.016C246.002 261.227 246.216 260.267 246.216 259.136C246.216 257.451 245.768 256.16 244.872 255.264C243.997 254.347 242.92 253.888 241.64 253.888C240.36 253.888 239.282 254.347 238.408 255.264C237.554 256.16 237.128 257.451 237.128 259.136C237.128 260.821 237.544 262.123 238.376 263.04C239.229 263.936 240.296 264.384 241.576 264.384ZM262.654 250.016C264.766 250.016 266.473 250.688 267.774 252.032C269.075 253.355 269.726 255.211 269.726 257.6V268H265.246V258.208C265.246 256.8 264.894 255.723 264.19 254.976C263.486 254.208 262.526 253.824 261.31 253.824C260.073 253.824 259.091 254.208 258.366 254.976C257.662 255.723 257.31 256.8 257.31 258.208V268H252.83V250.272H257.31V252.48C257.907 251.712 258.665 251.115 259.582 250.688C260.521 250.24 261.545 250.016 262.654 250.016ZM279.49 268.288C278.039 268.288 276.738 268.032 275.586 267.52C274.434 266.987 273.517 266.272 272.834 265.376C272.173 264.48 271.81 263.488 271.746 262.4H276.258C276.343 263.083 276.674 263.648 277.25 264.096C277.847 264.544 278.583 264.768 279.458 264.768C280.311 264.768 280.973 264.597 281.442 264.256C281.933 263.915 282.178 263.477 282.178 262.944C282.178 262.368 281.879 261.941 281.282 261.664C280.706 261.365 279.778 261.045 278.498 260.704C277.175 260.384 276.087 260.053 275.234 259.712C274.402 259.371 273.677 258.848 273.058 258.144C272.461 257.44 272.162 256.491 272.162 255.296C272.162 254.315 272.439 253.419 272.994 252.608C273.57 251.797 274.381 251.157 275.426 250.688C276.493 250.219 277.741 249.984 279.17 249.984C281.282 249.984 282.967 250.517 284.226 251.584C285.485 252.629 286.178 254.048 286.306 255.84H282.018C281.954 255.136 281.655 254.581 281.122 254.176C280.61 253.749 279.917 253.536 279.042 253.536C278.231 253.536 277.602 253.685 277.154 253.984C276.727 254.283 276.514 254.699 276.514 255.232C276.514 255.829 276.813 256.288 277.41 256.608C278.007 256.907 278.935 257.216 280.194 257.536C281.474 257.856 282.53 258.187 283.362 258.528C284.194 258.869 284.909 259.403 285.506 260.128C286.125 260.832 286.445 261.771 286.466 262.944C286.466 263.968 286.178 264.885 285.602 265.696C285.047 266.507 284.237 267.147 283.17 267.616C282.125 268.064 280.898 268.288 279.49 268.288ZM305.6 250.272V268H301.088V265.76C300.512 266.528 299.754 267.136 298.816 267.584C297.898 268.011 296.896 268.224 295.808 268.224C294.421 268.224 293.194 267.936 292.128 267.36C291.061 266.763 290.218 265.899 289.6 264.768C289.002 263.616 288.704 262.251 288.704 260.672V250.272H293.184V260.032C293.184 261.44 293.536 262.528 294.24 263.296C294.944 264.043 295.904 264.416 297.12 264.416C298.357 264.416 299.328 264.043 300.032 263.296C300.736 262.528 301.088 261.44 301.088 260.032V250.272H305.6ZM313.22 244.32V268H308.74V244.32H313.22ZM321.582 253.952V262.528C321.582 263.125 321.721 263.563 321.998 263.84C322.297 264.096 322.787 264.224 323.47 264.224H325.55V268H322.734C318.958 268 317.07 266.165 317.07 262.496V253.952H314.958V250.272H317.07V245.888H321.582V250.272H325.55V253.952H321.582ZM329.764 248.16C328.975 248.16 328.314 247.915 327.78 247.424C327.268 246.912 327.012 246.283 327.012 245.536C327.012 244.789 327.268 244.171 327.78 243.68C328.314 243.168 328.975 242.912 329.764 242.912C330.554 242.912 331.204 243.168 331.716 243.68C332.25 244.171 332.516 244.789 332.516 245.536C332.516 246.283 332.25 246.912 331.716 247.424C331.204 247.915 330.554 248.16 329.764 248.16ZM331.972 250.272V268H327.492V250.272H331.972ZM344.943 250.016C347.055 250.016 348.761 250.688 350.063 252.032C351.364 253.355 352.015 255.211 352.015 257.6V268H347.535V258.208C347.535 256.8 347.183 255.723 346.479 254.976C345.775 254.208 344.815 253.824 343.599 253.824C342.361 253.824 341.38 254.208 340.655 254.976C339.951 255.723 339.599 256.8 339.599 258.208V268H335.119V250.272H339.599V252.48C340.196 251.712 340.953 251.115 341.871 250.688C342.809 250.24 343.833 250.016 344.943 250.016ZM361.939 249.984C363.262 249.984 364.424 250.251 365.427 250.784C366.43 251.296 367.219 251.968 367.795 252.8V250.272H372.307V268.128C372.307 269.771 371.976 271.232 371.315 272.512C370.654 273.813 369.662 274.837 368.339 275.584C367.016 276.352 365.416 276.736 363.539 276.736C361.022 276.736 358.952 276.149 357.331 274.976C355.731 273.803 354.824 272.203 354.611 270.176H359.059C359.294 270.987 359.795 271.627 360.563 272.096C361.352 272.587 362.302 272.832 363.411 272.832C364.712 272.832 365.768 272.437 366.579 271.648C367.39 270.88 367.795 269.707 367.795 268.128V265.376C367.219 266.208 366.419 266.901 365.395 267.456C364.392 268.011 363.24 268.288 361.939 268.288C360.446 268.288 359.08 267.904 357.843 267.136C356.606 266.368 355.624 265.291 354.899 263.904C354.195 262.496 353.843 260.885 353.843 259.072C353.843 257.28 354.195 255.691 354.899 254.304C355.624 252.917 356.595 251.851 357.811 251.104C359.048 250.357 360.424 249.984 361.939 249.984ZM367.795 259.136C367.795 258.048 367.582 257.12 367.155 256.352C366.728 255.563 366.152 254.965 365.427 254.56C364.702 254.133 363.923 253.92 363.091 253.92C362.259 253.92 361.491 254.123 360.787 254.528C360.083 254.933 359.507 255.531 359.059 256.32C358.632 257.088 358.419 258.005 358.419 259.072C358.419 260.139 358.632 261.077 359.059 261.888C359.507 262.677 360.083 263.285 360.787 263.712C361.512 264.139 362.28 264.352 363.091 264.352C363.923 264.352 364.702 264.149 365.427 263.744C366.152 263.317 366.728 262.72 367.155 261.952C367.582 261.163 367.795 260.224 367.795 259.136Z" fill="white"/>
<rect y="391" width="588" height="56" rx="28" fill="#5846D3"/>
<path d="M37.28 413.832V425H35.04V417.736L32.048 425H30.352L27.344 417.736V425H25.104V413.832H27.648L31.2 422.136L34.752 413.832H37.28ZM43.4306 425.144C42.5773 425.144 41.8093 424.957 41.1266 424.584C40.444 424.2 39.9053 423.661 39.5106 422.968C39.1266 422.275 38.9346 421.475 38.9346 420.568C38.9346 419.661 39.132 418.861 39.5266 418.168C39.932 417.475 40.4813 416.941 41.1746 416.568C41.868 416.184 42.6413 415.992 43.4946 415.992C44.348 415.992 45.1213 416.184 45.8146 416.568C46.508 416.941 47.052 417.475 47.4466 418.168C47.852 418.861 48.0546 419.661 48.0546 420.568C48.0546 421.475 47.8466 422.275 47.4306 422.968C47.0253 423.661 46.4706 424.2 45.7666 424.584C45.0733 424.957 44.2946 425.144 43.4306 425.144ZM43.4306 423.192C43.836 423.192 44.2146 423.096 44.5666 422.904C44.9293 422.701 45.2173 422.403 45.4306 422.008C45.644 421.613 45.7506 421.133 45.7506 420.568C45.7506 419.725 45.5266 419.08 45.0786 418.632C44.6413 418.173 44.1026 417.944 43.4626 417.944C42.8226 417.944 42.284 418.173 41.8466 418.632C41.42 419.08 41.2066 419.725 41.2066 420.568C41.2066 421.411 41.4146 422.061 41.8306 422.52C42.2573 422.968 42.7906 423.192 43.4306 423.192ZM51.9378 417.432C52.2258 417.005 52.6204 416.659 53.1218 416.392C53.6338 416.125 54.2151 415.992 54.8658 415.992C55.6231 415.992 56.3058 416.179 56.9138 416.552C57.5324 416.925 58.0178 417.459 58.3698 418.152C58.7324 418.835 58.9138 419.629 58.9138 420.536C58.9138 421.443 58.7324 422.248 58.3698 422.952C58.0178 423.645 57.5324 424.184 56.9138 424.568C56.3058 424.952 55.6231 425.144 54.8658 425.144C54.2044 425.144 53.6231 425.016 53.1218 424.76C52.6311 424.493 52.2364 424.152 51.9378 423.736V425H49.6978V413.16H51.9378V417.432ZM56.6258 420.536C56.6258 420.003 56.5138 419.544 56.2898 419.16C56.0764 418.765 55.7884 418.467 55.4258 418.264C55.0738 418.061 54.6898 417.96 54.2738 417.96C53.8684 417.96 53.4844 418.067 53.1218 418.28C52.7698 418.483 52.4818 418.781 52.2578 419.176C52.0444 419.571 51.9378 420.035 51.9378 420.568C51.9378 421.101 52.0444 421.565 52.2578 421.96C52.4818 422.355 52.7698 422.659 53.1218 422.872C53.4844 423.075 53.8684 423.176 54.2738 423.176C54.6898 423.176 55.0738 423.069 55.4258 422.856C55.7884 422.643 56.0764 422.339 56.2898 421.944C56.5138 421.549 56.6258 421.08 56.6258 420.536ZM61.6775 415.08C61.2828 415.08 60.9522 414.957 60.6855 414.712C60.4295 414.456 60.3015 414.141 60.3015 413.768C60.3015 413.395 60.4295 413.085 60.6855 412.84C60.9522 412.584 61.2828 412.456 61.6775 412.456C62.0722 412.456 62.3975 412.584 62.6535 412.84C62.9202 413.085 63.0535 413.395 63.0535 413.768C63.0535 414.141 62.9202 414.456 62.6535 414.712C62.3975 414.957 62.0722 415.08 61.6775 415.08ZM62.7815 416.136V425H60.5415V416.136H62.7815ZM67.2346 413.16V425H64.9946V413.16H67.2346ZM77.6878 420.376C77.6878 420.696 77.6664 420.984 77.6238 421.24H71.1438C71.1971 421.88 71.4211 422.381 71.8158 422.744C72.2104 423.107 72.6958 423.288 73.2718 423.288C74.1038 423.288 74.6958 422.931 75.0478 422.216H77.4638C77.2078 423.069 76.7171 423.773 75.9918 424.328C75.2664 424.872 74.3758 425.144 73.3198 425.144C72.4664 425.144 71.6984 424.957 71.0158 424.584C70.3438 424.2 69.8158 423.661 69.4318 422.968C69.0584 422.275 68.8717 421.475 68.8717 420.568C68.8717 419.651 69.0584 418.845 69.4318 418.152C69.8051 417.459 70.3278 416.925 70.9998 416.552C71.6718 416.179 72.4451 415.992 73.3198 415.992C74.1624 415.992 74.9144 416.173 75.5758 416.536C76.2478 416.899 76.7651 417.416 77.1278 418.088C77.5011 418.749 77.6878 419.512 77.6878 420.376ZM75.3678 419.736C75.3571 419.16 75.1491 418.701 74.7438 418.36C74.3384 418.008 73.8424 417.832 73.2558 417.832C72.7011 417.832 72.2318 418.003 71.8478 418.344C71.4744 418.675 71.2451 419.139 71.1598 419.736H75.3678ZM82.5592 420.568C82.5592 419.651 82.7459 418.851 83.1193 418.168C83.4926 417.475 84.0099 416.941 84.6713 416.568C85.3326 416.184 86.0899 415.992 86.9433 415.992C88.0419 415.992 88.9486 416.269 89.6633 416.824C90.3886 417.368 90.8739 418.136 91.1193 419.128H88.7033C88.5753 418.744 88.3566 418.445 88.0473 418.232C87.7486 418.008 87.3753 417.896 86.9273 417.896C86.2873 417.896 85.7806 418.131 85.4073 418.6C85.0339 419.059 84.8473 419.715 84.8473 420.568C84.8473 421.411 85.0339 422.067 85.4073 422.536C85.7806 422.995 86.2873 423.224 86.9273 423.224C87.8339 423.224 88.4259 422.819 88.7033 422.008H91.1193C90.8739 422.968 90.3886 423.731 89.6633 424.296C88.9379 424.861 88.0313 425.144 86.9433 425.144C86.0899 425.144 85.3326 424.957 84.6713 424.584C84.0099 424.2 83.4926 423.667 83.1193 422.984C82.7459 422.291 82.5592 421.485 82.5592 420.568ZM95.0003 413.16V425H92.7603V413.16H95.0003ZM101.149 425.144C100.296 425.144 99.528 424.957 98.8454 424.584C98.1627 424.2 97.624 423.661 97.2294 422.968C96.8454 422.275 96.6534 421.475 96.6534 420.568C96.6534 419.661 96.8507 418.861 97.2454 418.168C97.6507 417.475 98.2 416.941 98.8934 416.568C99.5867 416.184 100.36 415.992 101.213 415.992C102.067 415.992 102.84 416.184 103.533 416.568C104.227 416.941 104.771 417.475 105.165 418.168C105.571 418.861 105.773 419.661 105.773 420.568C105.773 421.475 105.565 422.275 105.149 422.968C104.744 423.661 104.189 424.2 103.485 424.584C102.792 424.957 102.013 425.144 101.149 425.144ZM101.149 423.192C101.555 423.192 101.933 423.096 102.285 422.904C102.648 422.701 102.936 422.403 103.149 422.008C103.363 421.613 103.469 421.133 103.469 420.568C103.469 419.725 103.245 419.08 102.797 418.632C102.36 418.173 101.821 417.944 101.181 417.944C100.541 417.944 100.003 418.173 99.5654 418.632C99.1387 419.08 98.9254 419.725 98.9254 420.568C98.9254 421.411 99.1334 422.061 99.5494 422.52C99.976 422.968 100.509 423.192 101.149 423.192ZM115.785 416.136V425H113.529V423.88C113.241 424.264 112.862 424.568 112.393 424.792C111.934 425.005 111.433 425.112 110.889 425.112C110.195 425.112 109.582 424.968 109.049 424.68C108.515 424.381 108.094 423.949 107.785 423.384C107.486 422.808 107.337 422.125 107.337 421.336V416.136H109.577V421.016C109.577 421.72 109.753 422.264 110.105 422.648C110.457 423.021 110.937 423.208 111.545 423.208C112.163 423.208 112.649 423.021 113.001 422.648C113.353 422.264 113.529 421.72 113.529 421.016V416.136H115.785ZM117.419 420.536C117.419 419.64 117.595 418.845 117.947 418.152C118.309 417.459 118.8 416.925 119.419 416.552C120.037 416.179 120.725 415.992 121.483 415.992C122.059 415.992 122.608 416.12 123.131 416.376C123.653 416.621 124.069 416.952 124.379 417.368V413.16H126.651V425H124.379V423.688C124.101 424.125 123.712 424.477 123.211 424.744C122.709 425.011 122.128 425.144 121.467 425.144C120.72 425.144 120.037 424.952 119.419 424.568C118.8 424.184 118.309 423.645 117.947 422.952C117.595 422.248 117.419 421.443 117.419 420.536ZM124.395 420.568C124.395 420.024 124.288 419.56 124.075 419.176C123.861 418.781 123.573 418.483 123.211 418.28C122.848 418.067 122.459 417.96 122.043 417.96C121.627 417.96 121.243 418.061 120.891 418.264C120.539 418.467 120.251 418.765 120.027 419.16C119.813 419.544 119.707 420.003 119.707 420.536C119.707 421.069 119.813 421.539 120.027 421.944C120.251 422.339 120.539 422.643 120.891 422.856C121.253 423.069 121.637 423.176 122.043 423.176C122.459 423.176 122.848 423.075 123.211 422.872C123.573 422.659 123.861 422.36 124.075 421.976C124.288 421.581 124.395 421.112 124.395 420.568Z" fill="white"/>
<path d="M164.28 413.832V425H162.04V417.736L159.048 425H157.352L154.344 417.736V425H152.104V413.832H154.648L158.2 422.136L161.752 413.832H164.28ZM167.631 415.08C167.236 415.08 166.905 414.957 166.639 414.712C166.383 414.456 166.255 414.141 166.255 413.768C166.255 413.395 166.383 413.085 166.639 412.84C166.905 412.584 167.236 412.456 167.631 412.456C168.025 412.456 168.351 412.584 168.607 412.84C168.873 413.085 169.007 413.395 169.007 413.768C169.007 414.141 168.873 414.456 168.607 414.712C168.351 414.957 168.025 415.08 167.631 415.08ZM168.735 416.136V425H166.495V416.136H168.735ZM170.372 420.568C170.372 419.651 170.558 418.851 170.932 418.168C171.305 417.475 171.822 416.941 172.484 416.568C173.145 416.184 173.902 415.992 174.756 415.992C175.854 415.992 176.761 416.269 177.476 416.824C178.201 417.368 178.686 418.136 178.932 419.128H176.516C176.388 418.744 176.169 418.445 175.86 418.232C175.561 418.008 175.188 417.896 174.74 417.896C174.1 417.896 173.593 418.131 173.22 418.6C172.846 419.059 172.66 419.715 172.66 420.568C172.66 421.411 172.846 422.067 173.22 422.536C173.593 422.995 174.1 423.224 174.74 423.224C175.646 423.224 176.238 422.819 176.516 422.008H178.932C178.686 422.968 178.201 423.731 177.476 424.296C176.75 424.861 175.844 425.144 174.756 425.144C173.902 425.144 173.145 424.957 172.484 424.584C171.822 424.2 171.305 423.667 170.932 422.984C170.558 422.291 170.372 421.485 170.372 420.568ZM182.813 417.512C183.101 417.043 183.474 416.675 183.933 416.408C184.402 416.141 184.935 416.008 185.533 416.008V418.36H184.941C184.237 418.36 183.703 418.525 183.341 418.856C182.989 419.187 182.813 419.763 182.813 420.584V425H180.573V416.136H182.813V417.512ZM190.978 425.144C190.124 425.144 189.356 424.957 188.674 424.584C187.991 424.2 187.452 423.661 187.058 422.968C186.674 422.275 186.482 421.475 186.482 420.568C186.482 419.661 186.679 418.861 187.074 418.168C187.479 417.475 188.028 416.941 188.722 416.568C189.415 416.184 190.188 415.992 191.042 415.992C191.895 415.992 192.668 416.184 193.362 416.568C194.055 416.941 194.599 417.475 194.994 418.168C195.399 418.861 195.602 419.661 195.602 420.568C195.602 421.475 195.394 422.275 194.977 422.968C194.572 423.661 194.018 424.2 193.314 424.584C192.62 424.957 191.842 425.144 190.978 425.144ZM190.978 423.192C191.383 423.192 191.762 423.096 192.114 422.904C192.476 422.701 192.764 422.403 192.978 422.008C193.191 421.613 193.298 421.133 193.298 420.568C193.298 419.725 193.074 419.08 192.626 418.632C192.188 418.173 191.65 417.944 191.01 417.944C190.37 417.944 189.831 418.173 189.394 418.632C188.967 419.08 188.754 419.725 188.754 420.568C188.754 421.411 188.962 422.061 189.378 422.52C189.804 422.968 190.338 423.192 190.978 423.192ZM200.637 425.144C199.911 425.144 199.261 425.016 198.685 424.76C198.109 424.493 197.65 424.136 197.309 423.688C196.978 423.24 196.797 422.744 196.765 422.2H199.021C199.063 422.541 199.229 422.824 199.517 423.048C199.815 423.272 200.183 423.384 200.621 423.384C201.047 423.384 201.378 423.299 201.613 423.128C201.858 422.957 201.981 422.739 201.981 422.472C201.981 422.184 201.831 421.971 201.533 421.832C201.245 421.683 200.781 421.523 200.141 421.352C199.479 421.192 198.935 421.027 198.509 420.856C198.093 420.685 197.73 420.424 197.421 420.072C197.122 419.72 196.973 419.245 196.973 418.648C196.973 418.157 197.111 417.709 197.389 417.304C197.677 416.899 198.082 416.579 198.605 416.344C199.138 416.109 199.762 415.992 200.477 415.992C201.533 415.992 202.375 416.259 203.005 416.792C203.634 417.315 203.981 418.024 204.045 418.92H201.901C201.869 418.568 201.719 418.291 201.453 418.088C201.197 417.875 200.85 417.768 200.413 417.768C200.007 417.768 199.693 417.843 199.469 417.992C199.255 418.141 199.149 418.349 199.149 418.616C199.149 418.915 199.298 419.144 199.597 419.304C199.895 419.453 200.359 419.608 200.989 419.768C201.629 419.928 202.157 420.093 202.573 420.264C202.989 420.435 203.346 420.701 203.645 421.064C203.954 421.416 204.114 421.885 204.125 422.472C204.125 422.984 203.981 423.443 203.693 423.848C203.415 424.253 203.01 424.573 202.477 424.808C201.954 425.032 201.341 425.144 200.637 425.144ZM214.203 420.376C214.203 420.696 214.182 420.984 214.139 421.24H207.659C207.713 421.88 207.937 422.381 208.331 422.744C208.726 423.107 209.211 423.288 209.787 423.288C210.619 423.288 211.211 422.931 211.563 422.216H213.979C213.723 423.069 213.233 423.773 212.507 424.328C211.782 424.872 210.891 425.144 209.835 425.144C208.982 425.144 208.214 424.957 207.531 424.584C206.859 424.2 206.331 423.661 205.947 422.968C205.574 422.275 205.387 421.475 205.387 420.568C205.387 419.651 205.574 418.845 205.947 418.152C206.321 417.459 206.843 416.925 207.515 416.552C208.187 416.179 208.961 415.992 209.835 415.992C210.678 415.992 211.43 416.173 212.091 416.536C212.763 416.899 213.281 417.416 213.643 418.088C214.017 418.749 214.203 419.512 214.203 420.376ZM211.883 419.736C211.873 419.16 211.665 418.701 211.259 418.36C210.854 418.008 210.358 417.832 209.771 417.832C209.217 417.832 208.747 418.003 208.363 418.344C207.99 418.675 207.761 419.139 207.675 419.736H211.883ZM218.078 417.512C218.366 417.043 218.74 416.675 219.198 416.408C219.668 416.141 220.201 416.008 220.798 416.008V418.36H220.206C219.502 418.36 218.969 418.525 218.606 418.856C218.254 419.187 218.078 419.763 218.078 420.584V425H215.838V416.136H218.078V417.512ZM226.003 422.936L228.243 416.136H230.627L227.347 425H224.627L221.363 416.136H223.763L226.003 422.936ZM233.021 415.08C232.627 415.08 232.296 414.957 232.029 414.712C231.773 414.456 231.645 414.141 231.645 413.768C231.645 413.395 231.773 413.085 232.029 412.84C232.296 412.584 232.627 412.456 233.021 412.456C233.416 412.456 233.741 412.584 233.997 412.84C234.264 413.085 234.397 413.395 234.397 413.768C234.397 414.141 234.264 414.456 233.997 414.712C233.741 414.957 233.416 415.08 233.021 415.08ZM234.125 416.136V425H231.885V416.136H234.125ZM235.762 420.568C235.762 419.651 235.949 418.851 236.322 418.168C236.696 417.475 237.213 416.941 237.874 416.568C238.536 416.184 239.293 415.992 240.146 415.992C241.245 415.992 242.152 416.269 242.866 416.824C243.592 417.368 244.077 418.136 244.322 419.128H241.906C241.778 418.744 241.56 418.445 241.25 418.232C240.952 418.008 240.578 417.896 240.13 417.896C239.49 417.896 238.984 418.131 238.61 418.6C238.237 419.059 238.05 419.715 238.05 420.568C238.05 421.411 238.237 422.067 238.61 422.536C238.984 422.995 239.49 423.224 240.13 423.224C241.037 423.224 241.629 422.819 241.906 422.008H244.322C244.077 422.968 243.592 423.731 242.866 424.296C242.141 424.861 241.234 425.144 240.146 425.144C239.293 425.144 238.536 424.957 237.874 424.584C237.213 424.2 236.696 423.667 236.322 422.984C235.949 422.291 235.762 421.485 235.762 420.568ZM254.203 420.376C254.203 420.696 254.182 420.984 254.139 421.24H247.659C247.713 421.88 247.937 422.381 248.331 422.744C248.726 423.107 249.211 423.288 249.787 423.288C250.619 423.288 251.211 422.931 251.563 422.216H253.979C253.723 423.069 253.233 423.773 252.507 424.328C251.782 424.872 250.891 425.144 249.835 425.144C248.982 425.144 248.214 424.957 247.531 424.584C246.859 424.2 246.331 423.661 245.947 422.968C245.574 422.275 245.387 421.475 245.387 420.568C245.387 419.651 245.574 418.845 245.947 418.152C246.321 417.459 246.843 416.925 247.515 416.552C248.187 416.179 248.961 415.992 249.835 415.992C250.678 415.992 251.43 416.173 252.091 416.536C252.763 416.899 253.281 417.416 253.643 418.088C254.017 418.749 254.203 419.512 254.203 420.376ZM251.883 419.736C251.873 419.16 251.665 418.701 251.259 418.36C250.854 418.008 250.358 417.832 249.771 417.832C249.217 417.832 248.747 418.003 248.363 418.344C247.99 418.675 247.761 419.139 247.675 419.736H251.883ZM259.23 425.144C258.505 425.144 257.854 425.016 257.278 424.76C256.702 424.493 256.244 424.136 255.902 423.688C255.572 423.24 255.39 422.744 255.358 422.2H257.614C257.657 422.541 257.822 422.824 258.11 423.048C258.409 423.272 258.777 423.384 259.214 423.384C259.641 423.384 259.972 423.299 260.206 423.128C260.452 422.957 260.574 422.739 260.574 422.472C260.574 422.184 260.425 421.971 260.126 421.832C259.838 421.683 259.374 421.523 258.734 421.352C258.073 421.192 257.529 421.027 257.102 420.856C256.686 420.685 256.324 420.424 256.014 420.072C255.716 419.72 255.566 419.245 255.566 418.648C255.566 418.157 255.705 417.709 255.982 417.304C256.27 416.899 256.676 416.579 257.198 416.344C257.732 416.109 258.356 415.992 259.07 415.992C260.126 415.992 260.969 416.259 261.598 416.792C262.228 417.315 262.574 418.024 262.638 418.92H260.494C260.462 418.568 260.313 418.291 260.046 418.088C259.79 417.875 259.444 417.768 259.006 417.768C258.601 417.768 258.286 417.843 258.062 417.992C257.849 418.141 257.742 418.349 257.742 418.616C257.742 418.915 257.892 419.144 258.19 419.304C258.489 419.453 258.953 419.608 259.582 419.768C260.222 419.928 260.75 420.093 261.166 420.264C261.582 420.435 261.94 420.701 262.238 421.064C262.548 421.416 262.708 421.885 262.718 422.472C262.718 422.984 262.574 423.443 262.286 423.848C262.009 424.253 261.604 424.573 261.07 424.808C260.548 425.032 259.934 425.144 259.23 425.144Z" fill="white"/>
<path d="M287.56 419.4C287.56 418.301 287.805 417.32 288.296 416.456C288.797 415.581 289.475 414.904 290.328 414.424C291.192 413.933 292.157 413.688 293.224 413.688C294.472 413.688 295.565 414.008 296.504 414.648C297.443 415.288 298.099 416.173 298.472 417.304H295.896C295.64 416.771 295.277 416.371 294.808 416.104C294.349 415.837 293.816 415.704 293.208 415.704C292.557 415.704 291.976 415.859 291.464 416.168C290.963 416.467 290.568 416.893 290.28 417.448C290.003 418.003 289.864 418.653 289.864 419.4C289.864 420.136 290.003 420.787 290.28 421.352C290.568 421.907 290.963 422.339 291.464 422.648C291.976 422.947 292.557 423.096 293.208 423.096C293.816 423.096 294.349 422.963 294.808 422.696C295.277 422.419 295.64 422.013 295.896 421.48H298.472C298.099 422.621 297.443 423.512 296.504 424.152C295.576 424.781 294.483 425.096 293.224 425.096C292.157 425.096 291.192 424.856 290.328 424.376C289.475 423.885 288.797 423.208 288.296 422.344C287.805 421.48 287.56 420.499 287.56 419.4ZM304.321 425.144C303.468 425.144 302.7 424.957 302.017 424.584C301.335 424.2 300.796 423.661 300.401 422.968C300.017 422.275 299.825 421.475 299.825 420.568C299.825 419.661 300.023 418.861 300.417 418.168C300.823 417.475 301.372 416.941 302.065 416.568C302.759 416.184 303.532 415.992 304.385 415.992C305.239 415.992 306.012 416.184 306.705 416.568C307.399 416.941 307.943 417.475 308.337 418.168C308.743 418.861 308.945 419.661 308.945 420.568C308.945 421.475 308.737 422.275 308.321 422.968C307.916 423.661 307.361 424.2 306.657 424.584C305.964 424.957 305.185 425.144 304.321 425.144ZM304.321 423.192C304.727 423.192 305.105 423.096 305.457 422.904C305.82 422.701 306.108 422.403 306.321 422.008C306.535 421.613 306.641 421.133 306.641 420.568C306.641 419.725 306.417 419.08 305.969 418.632C305.532 418.173 304.993 417.944 304.353 417.944C303.713 417.944 303.175 418.173 302.737 418.632C302.311 419.08 302.097 419.725 302.097 420.568C302.097 421.411 302.305 422.061 302.721 422.52C303.148 422.968 303.681 423.192 304.321 423.192ZM315.5 416.008C316.556 416.008 317.41 416.344 318.06 417.016C318.711 417.677 319.036 418.605 319.036 419.8V425H316.796V420.104C316.796 419.4 316.62 418.861 316.268 418.488C315.916 418.104 315.436 417.912 314.828 417.912C314.21 417.912 313.719 418.104 313.356 418.488C313.004 418.861 312.828 419.4 312.828 420.104V425H310.588V416.136H312.828V417.24C313.127 416.856 313.506 416.557 313.964 416.344C314.434 416.12 314.946 416.008 315.5 416.008ZM323.775 417.976V422.264C323.775 422.563 323.844 422.781 323.983 422.92C324.132 423.048 324.377 423.112 324.719 423.112H325.759V425H324.351C322.463 425 321.519 424.083 321.519 422.248V417.976H320.463V416.136H321.519V413.944H323.775V416.136H325.759V417.976H323.775ZM326.794 420.536C326.794 419.64 326.97 418.845 327.322 418.152C327.684 417.459 328.17 416.925 328.778 416.552C329.396 416.179 330.084 415.992 330.842 415.992C331.503 415.992 332.079 416.125 332.57 416.392C333.071 416.659 333.471 416.995 333.77 417.4V416.136H336.026V425H333.77V423.704C333.482 424.12 333.082 424.467 332.57 424.744C332.068 425.011 331.487 425.144 330.826 425.144C330.079 425.144 329.396 424.952 328.778 424.568C328.17 424.184 327.684 423.645 327.322 422.952C326.97 422.248 326.794 421.443 326.794 420.536ZM333.77 420.568C333.77 420.024 333.663 419.56 333.45 419.176C333.236 418.781 332.948 418.483 332.586 418.28C332.223 418.067 331.834 417.96 331.418 417.96C331.002 417.96 330.618 418.061 330.266 418.264C329.914 418.467 329.626 418.765 329.402 419.16C329.188 419.544 329.082 420.003 329.082 420.536C329.082 421.069 329.188 421.539 329.402 421.944C329.626 422.339 329.914 422.643 330.266 422.856C330.628 423.069 331.012 423.176 331.418 423.176C331.834 423.176 332.223 423.075 332.586 422.872C332.948 422.659 333.236 422.36 333.45 421.976C333.663 421.581 333.77 421.112 333.77 420.568ZM339.349 415.08C338.955 415.08 338.624 414.957 338.357 414.712C338.101 414.456 337.973 414.141 337.973 413.768C337.973 413.395 338.101 413.085 338.357 412.84C338.624 412.584 338.955 412.456 339.349 412.456C339.744 412.456 340.069 412.584 340.325 412.84C340.592 413.085 340.725 413.395 340.725 413.768C340.725 414.141 340.592 414.456 340.325 414.712C340.069 414.957 339.744 415.08 339.349 415.08ZM340.453 416.136V425H338.213V416.136H340.453ZM347.579 416.008C348.635 416.008 349.488 416.344 350.139 417.016C350.789 417.677 351.115 418.605 351.115 419.8V425H348.875V420.104C348.875 419.4 348.699 418.861 348.347 418.488C347.995 418.104 347.515 417.912 346.907 417.912C346.288 417.912 345.797 418.104 345.435 418.488C345.083 418.861 344.907 419.4 344.907 420.104V425H342.667V416.136H344.907V417.24C345.205 416.856 345.584 416.557 346.043 416.344C346.512 416.12 347.024 416.008 347.579 416.008ZM361.485 420.376C361.485 420.696 361.463 420.984 361.421 421.24H354.941C354.994 421.88 355.218 422.381 355.613 422.744C356.007 423.107 356.493 423.288 357.069 423.288C357.901 423.288 358.493 422.931 358.845 422.216H361.261C361.005 423.069 360.514 423.773 359.789 424.328C359.063 424.872 358.173 425.144 357.117 425.144C356.263 425.144 355.495 424.957 354.813 424.584C354.141 424.2 353.613 423.661 353.229 422.968C352.855 422.275 352.669 421.475 352.669 420.568C352.669 419.651 352.855 418.845 353.229 418.152C353.602 417.459 354.125 416.925 354.797 416.552C355.469 416.179 356.242 415.992 357.117 415.992C357.959 415.992 358.711 416.173 359.373 416.536C360.045 416.899 360.562 417.416 360.925 418.088C361.298 418.749 361.485 419.512 361.485 420.376ZM359.165 419.736C359.154 419.16 358.946 418.701 358.541 418.36C358.135 418.008 357.639 417.832 357.053 417.832C356.498 417.832 356.029 418.003 355.645 418.344C355.271 418.675 355.042 419.139 354.957 419.736H359.165ZM365.36 417.512C365.648 417.043 366.021 416.675 366.48 416.408C366.949 416.141 367.482 416.008 368.08 416.008V418.36H367.488C366.784 418.36 366.25 418.525 365.888 418.856C365.536 419.187 365.36 419.763 365.36 420.584V425H363.12V416.136H365.36V417.512ZM370.724 415.08C370.33 415.08 369.999 414.957 369.732 414.712C369.476 414.456 369.348 414.141 369.348 413.768C369.348 413.395 369.476 413.085 369.732 412.84C369.999 412.584 370.33 412.456 370.724 412.456C371.119 412.456 371.444 412.584 371.7 412.84C371.967 413.085 372.1 413.395 372.1 413.768C372.1 414.141 371.967 414.456 371.7 414.712C371.444 414.957 371.119 415.08 370.724 415.08ZM371.828 416.136V425H369.588V416.136H371.828ZM376.09 423.16H380.042V425H373.546V423.192L377.418 417.976H373.562V416.136H379.994V417.944L376.09 423.16ZM381.2 420.536C381.2 419.64 381.376 418.845 381.728 418.152C382.091 417.459 382.576 416.925 383.184 416.552C383.803 416.179 384.491 415.992 385.248 415.992C385.909 415.992 386.485 416.125 386.976 416.392C387.477 416.659 387.877 416.995 388.176 417.4V416.136H390.432V425H388.176V423.704C387.888 424.12 387.488 424.467 386.976 424.744C386.475 425.011 385.893 425.144 385.232 425.144C384.485 425.144 383.803 424.952 383.184 424.568C382.576 424.184 382.091 423.645 381.728 422.952C381.376 422.248 381.2 421.443 381.2 420.536ZM388.176 420.568C388.176 420.024 388.069 419.56 387.856 419.176C387.643 418.781 387.355 418.483 386.992 418.28C386.629 418.067 386.24 417.96 385.824 417.96C385.408 417.96 385.024 418.061 384.672 418.264C384.32 418.467 384.032 418.765 383.808 419.16C383.595 419.544 383.488 420.003 383.488 420.536C383.488 421.069 383.595 421.539 383.808 421.944C384.032 422.339 384.32 422.643 384.672 422.856C385.035 423.069 385.419 423.176 385.824 423.176C386.24 423.176 386.629 423.075 386.992 422.872C387.355 422.659 387.643 422.36 387.856 421.976C388.069 421.581 388.176 421.112 388.176 420.568ZM395.228 417.976V422.264C395.228 422.563 395.297 422.781 395.436 422.92C395.585 423.048 395.83 423.112 396.172 423.112H397.212V425H395.804C393.916 425 392.972 424.083 392.972 422.248V417.976H391.916V416.136H392.972V413.944H395.228V416.136H397.212V417.976H395.228ZM399.959 415.08C399.564 415.08 399.233 414.957 398.967 414.712C398.711 414.456 398.583 414.141 398.583 413.768C398.583 413.395 398.711 413.085 398.967 412.84C399.233 412.584 399.564 412.456 399.959 412.456C400.353 412.456 400.679 412.584 400.935 412.84C401.201 413.085 401.335 413.395 401.335 413.768C401.335 414.141 401.201 414.456 400.935 414.712C400.679 414.957 400.353 415.08 399.959 415.08ZM401.063 416.136V425H398.823V416.136H401.063ZM407.212 425.144C406.359 425.144 405.591 424.957 404.908 424.584C404.225 424.2 403.687 423.661 403.292 422.968C402.908 422.275 402.716 421.475 402.716 420.568C402.716 419.661 402.913 418.861 403.308 418.168C403.713 417.475 404.263 416.941 404.956 416.568C405.649 416.184 406.423 415.992 407.276 415.992C408.129 415.992 408.903 416.184 409.596 416.568C410.289 416.941 410.833 417.475 411.228 418.168C411.633 418.861 411.836 419.661 411.836 420.568C411.836 421.475 411.628 422.275 411.212 422.968C410.807 423.661 410.252 424.2 409.548 424.584C408.855 424.957 408.076 425.144 407.212 425.144ZM407.212 423.192C407.617 423.192 407.996 423.096 408.348 422.904C408.711 422.701 408.999 422.403 409.212 422.008C409.425 421.613 409.532 421.133 409.532 420.568C409.532 419.725 409.308 419.08 408.86 418.632C408.423 418.173 407.884 417.944 407.244 417.944C406.604 417.944 406.065 418.173 405.628 418.632C405.201 419.08 404.988 419.725 404.988 420.568C404.988 421.411 405.196 422.061 405.612 422.52C406.039 422.968 406.572 423.192 407.212 423.192ZM418.391 416.008C419.447 416.008 420.3 416.344 420.951 417.016C421.602 417.677 421.927 418.605 421.927 419.8V425H419.687V420.104C419.687 419.4 419.511 418.861 419.159 418.488C418.807 418.104 418.327 417.912 417.719 417.912C417.1 417.912 416.61 418.104 416.247 418.488C415.895 418.861 415.719 419.4 415.719 420.104V425H413.479V416.136H415.719V417.24C416.018 416.856 416.396 416.557 416.855 416.344C417.324 416.12 417.836 416.008 418.391 416.008Z" fill="white"/>
<path d="M446.56 419.4C446.56 418.301 446.805 417.32 447.296 416.456C447.797 415.581 448.475 414.904 449.328 414.424C450.192 413.933 451.157 413.688 452.224 413.688C453.472 413.688 454.565 414.008 455.504 414.648C456.443 415.288 457.099 416.173 457.472 417.304H454.896C454.64 416.771 454.277 416.371 453.808 416.104C453.349 415.837 452.816 415.704 452.208 415.704C451.557 415.704 450.976 415.859 450.464 416.168C449.963 416.467 449.568 416.893 449.28 417.448C449.003 418.003 448.864 418.653 448.864 419.4C448.864 420.136 449.003 420.787 449.28 421.352C449.568 421.907 449.963 422.339 450.464 422.648C450.976 422.947 451.557 423.096 452.208 423.096C452.816 423.096 453.349 422.963 453.808 422.696C454.277 422.419 454.64 422.013 454.896 421.48H457.472C457.099 422.621 456.443 423.512 455.504 424.152C454.576 424.781 453.483 425.096 452.224 425.096C451.157 425.096 450.192 424.856 449.328 424.376C448.475 423.885 447.797 423.208 447.296 422.344C446.805 421.48 446.56 420.499 446.56 419.4ZM461.625 413.16V425H459.385V413.16H461.625ZM467.774 425.144C466.921 425.144 466.153 424.957 465.47 424.584C464.788 424.2 464.249 423.661 463.854 422.968C463.47 422.275 463.278 421.475 463.278 420.568C463.278 419.661 463.476 418.861 463.87 418.168C464.276 417.475 464.825 416.941 465.518 416.568C466.212 416.184 466.985 415.992 467.838 415.992C468.692 415.992 469.465 416.184 470.158 416.568C470.852 416.941 471.396 417.475 471.79 418.168C472.196 418.861 472.398 419.661 472.398 420.568C472.398 421.475 472.19 422.275 471.774 422.968C471.369 423.661 470.814 424.2 470.11 424.584C469.417 424.957 468.638 425.144 467.774 425.144ZM467.774 423.192C468.18 423.192 468.558 423.096 468.91 422.904C469.273 422.701 469.561 422.403 469.774 422.008C469.988 421.613 470.094 421.133 470.094 420.568C470.094 419.725 469.87 419.08 469.422 418.632C468.985 418.173 468.446 417.944 467.806 417.944C467.166 417.944 466.628 418.173 466.19 418.632C465.764 419.08 465.55 419.725 465.55 420.568C465.55 421.411 465.758 422.061 466.174 422.52C466.601 422.968 467.134 423.192 467.774 423.192ZM482.41 416.136V425H480.154V423.88C479.866 424.264 479.487 424.568 479.018 424.792C478.559 425.005 478.058 425.112 477.514 425.112C476.82 425.112 476.207 424.968 475.674 424.68C475.14 424.381 474.719 423.949 474.41 423.384C474.111 422.808 473.962 422.125 473.962 421.336V416.136H476.202V421.016C476.202 421.72 476.378 422.264 476.73 422.648C477.082 423.021 477.562 423.208 478.17 423.208C478.788 423.208 479.274 423.021 479.626 422.648C479.978 422.264 480.154 421.72 480.154 421.016V416.136H482.41ZM484.044 420.536C484.044 419.64 484.22 418.845 484.572 418.152C484.934 417.459 485.425 416.925 486.044 416.552C486.662 416.179 487.35 415.992 488.108 415.992C488.684 415.992 489.233 416.12 489.756 416.376C490.278 416.621 490.694 416.952 491.004 417.368V413.16H493.276V425H491.004V423.688C490.726 424.125 490.337 424.477 489.836 424.744C489.334 425.011 488.753 425.144 488.092 425.144C487.345 425.144 486.662 424.952 486.044 424.568C485.425 424.184 484.934 423.645 484.572 422.952C484.22 422.248 484.044 421.443 484.044 420.536ZM491.02 420.568C491.02 420.024 490.913 419.56 490.7 419.176C490.486 418.781 490.198 418.483 489.836 418.28C489.473 418.067 489.084 417.96 488.668 417.96C488.252 417.96 487.868 418.061 487.516 418.264C487.164 418.467 486.876 418.765 486.652 419.16C486.438 419.544 486.332 420.003 486.332 420.536C486.332 421.069 486.438 421.539 486.652 421.944C486.876 422.339 487.164 422.643 487.516 422.856C487.878 423.069 488.262 423.176 488.668 423.176C489.084 423.176 489.473 423.075 489.836 422.872C490.198 422.659 490.486 422.36 490.7 421.976C490.913 421.581 491.02 421.112 491.02 420.568ZM502.668 425.144C501.943 425.144 501.292 425.016 500.716 424.76C500.14 424.493 499.681 424.136 499.34 423.688C499.009 423.24 498.828 422.744 498.796 422.2H501.052C501.095 422.541 501.26 422.824 501.548 423.048C501.847 423.272 502.215 423.384 502.652 423.384C503.079 423.384 503.409 423.299 503.644 423.128C503.889 422.957 504.012 422.739 504.012 422.472C504.012 422.184 503.863 421.971 503.564 421.832C503.276 421.683 502.812 421.523 502.172 421.352C501.511 421.192 500.967 421.027 500.54 420.856C500.124 420.685 499.761 420.424 499.452 420.072C499.153 419.72 499.004 419.245 499.004 418.648C499.004 418.157 499.143 417.709 499.42 417.304C499.708 416.899 500.113 416.579 500.636 416.344C501.169 416.109 501.793 415.992 502.508 415.992C503.564 415.992 504.407 416.259 505.036 416.792C505.665 417.315 506.012 418.024 506.076 418.92H503.932C503.9 418.568 503.751 418.291 503.484 418.088C503.228 417.875 502.881 417.768 502.444 417.768C502.039 417.768 501.724 417.843 501.5 417.992C501.287 418.141 501.18 418.349 501.18 418.616C501.18 418.915 501.329 419.144 501.628 419.304C501.927 419.453 502.391 419.608 503.02 419.768C503.66 419.928 504.188 420.093 504.604 420.264C505.02 420.435 505.377 420.701 505.676 421.064C505.985 421.416 506.145 421.885 506.156 422.472C506.156 422.984 506.012 423.443 505.724 423.848C505.447 424.253 505.041 424.573 504.508 424.808C503.985 425.032 503.372 425.144 502.668 425.144ZM516.235 420.376C516.235 420.696 516.213 420.984 516.171 421.24H509.691C509.744 421.88 509.968 422.381 510.363 422.744C510.757 423.107 511.243 423.288 511.819 423.288C512.651 423.288 513.243 422.931 513.595 422.216H516.011C515.755 423.069 515.264 423.773 514.539 424.328C513.813 424.872 512.923 425.144 511.867 425.144C511.013 425.144 510.245 424.957 509.563 424.584C508.891 424.2 508.363 423.661 507.979 422.968C507.605 422.275 507.419 421.475 507.419 420.568C507.419 419.651 507.605 418.845 507.979 418.152C508.352 417.459 508.875 416.925 509.547 416.552C510.219 416.179 510.992 415.992 511.867 415.992C512.709 415.992 513.461 416.173 514.123 416.536C514.795 416.899 515.312 417.416 515.675 418.088C516.048 418.749 516.235 419.512 516.235 420.376ZM513.915 419.736C513.904 419.16 513.696 418.701 513.291 418.36C512.885 418.008 512.389 417.832 511.803 417.832C511.248 417.832 510.779 418.003 510.395 418.344C510.021 418.675 509.792 419.139 509.707 419.736H513.915ZM517.294 420.568C517.294 419.651 517.48 418.851 517.854 418.168C518.227 417.475 518.744 416.941 519.406 416.568C520.067 416.184 520.824 415.992 521.678 415.992C522.776 415.992 523.683 416.269 524.398 416.824C525.123 417.368 525.608 418.136 525.854 419.128H523.438C523.31 418.744 523.091 418.445 522.782 418.232C522.483 418.008 522.11 417.896 521.662 417.896C521.022 417.896 520.515 418.131 520.142 418.6C519.768 419.059 519.582 419.715 519.582 420.568C519.582 421.411 519.768 422.067 520.142 422.536C520.515 422.995 521.022 423.224 521.662 423.224C522.568 423.224 523.16 422.819 523.438 422.008H525.854C525.608 422.968 525.123 423.731 524.398 424.296C523.672 424.861 522.766 425.144 521.678 425.144C520.824 425.144 520.067 424.957 519.406 424.584C518.744 424.2 518.227 423.667 517.854 422.984C517.48 422.291 517.294 421.485 517.294 420.568ZM535.863 416.136V425H533.607V423.88C533.319 424.264 532.94 424.568 532.471 424.792C532.012 425.005 531.511 425.112 530.967 425.112C530.273 425.112 529.66 424.968 529.127 424.68C528.593 424.381 528.172 423.949 527.863 423.384C527.564 422.808 527.415 422.125 527.415 421.336V416.136H529.655V421.016C529.655 421.72 529.831 422.264 530.183 422.648C530.535 423.021 531.015 423.208 531.623 423.208C532.241 423.208 532.727 423.021 533.079 422.648C533.431 422.264 533.607 421.72 533.607 421.016V416.136H535.863ZM540.313 417.512C540.601 417.043 540.974 416.675 541.433 416.408C541.902 416.141 542.435 416.008 543.033 416.008V418.36H542.441C541.737 418.36 541.203 418.525 540.841 418.856C540.489 419.187 540.313 419.763 540.313 420.584V425H538.073V416.136H540.313V417.512ZM545.678 415.08C545.283 415.08 544.952 414.957 544.686 414.712C544.43 414.456 544.302 414.141 544.302 413.768C544.302 413.395 544.43 413.085 544.686 412.84C544.952 412.584 545.283 412.456 545.678 412.456C546.072 412.456 546.398 412.584 546.654 412.84C546.92 413.085 547.054 413.395 547.054 413.768C547.054 414.141 546.92 414.456 546.654 414.712C546.398 414.957 546.072 415.08 545.678 415.08ZM546.782 416.136V425H544.542V416.136H546.782ZM551.603 417.976V422.264C551.603 422.563 551.672 422.781 551.811 422.92C551.96 423.048 552.205 423.112 552.547 423.112H553.587V425H552.179C550.291 425 549.347 424.083 549.347 422.248V417.976H548.291V416.136H549.347V413.944H551.603V416.136H553.587V417.976H551.603ZM563.678 416.136L558.19 429.192H555.806L557.726 424.776L554.174 416.136H556.686L558.974 422.328L561.294 416.136H563.678Z" fill="white"/>
<path d="M39.248 190.288C39.248 190.885 39.104 191.445 38.816 191.968C38.5387 192.491 38.096 192.912 37.488 193.232C36.8907 193.552 36.1333 193.712 35.216 193.712H33.344V198H31.104V186.832H35.216C36.08 186.832 36.816 186.981 37.424 187.28C38.032 187.579 38.4853 187.989 38.784 188.512C39.0933 189.035 39.248 189.627 39.248 190.288ZM35.12 191.904C35.7387 191.904 36.1973 191.765 36.496 191.488C36.7947 191.2 36.944 190.8 36.944 190.288C36.944 189.2 36.336 188.656 35.12 188.656H33.344V191.904H35.12ZM49.2064 189.136V198H46.9504V196.88C46.6624 197.264 46.2837 197.568 45.8144 197.792C45.3557 198.005 44.8544 198.112 44.3104 198.112C43.617 198.112 43.0037 197.968 42.4704 197.68C41.937 197.381 41.5157 196.949 41.2064 196.384C40.9077 195.808 40.7584 195.125 40.7584 194.336V189.136H42.9984V194.016C42.9984 194.72 43.1744 195.264 43.5264 195.648C43.8784 196.021 44.3584 196.208 44.9664 196.208C45.585 196.208 46.0704 196.021 46.4224 195.648C46.7744 195.264 46.9504 194.72 46.9504 194.016V189.136H49.2064ZM53.6565 190.432C53.9445 190.005 54.3392 189.659 54.8405 189.392C55.3525 189.125 55.9338 188.992 56.5845 188.992C57.3418 188.992 58.0245 189.179 58.6325 189.552C59.2512 189.925 59.7365 190.459 60.0885 191.152C60.4512 191.835 60.6325 192.629 60.6325 193.536C60.6325 194.443 60.4512 195.248 60.0885 195.952C59.7365 196.645 59.2512 197.184 58.6325 197.568C58.0245 197.952 57.3418 198.144 56.5845 198.144C55.9232 198.144 55.3418 198.016 54.8405 197.76C54.3498 197.493 53.9552 197.152 53.6565 196.736V198H51.4165V186.16H53.6565V190.432ZM58.3445 193.536C58.3445 193.003 58.2325 192.544 58.0085 192.16C57.7952 191.765 57.5072 191.467 57.1445 191.264C56.7925 191.061 56.4085 190.96 55.9925 190.96C55.5872 190.96 55.2032 191.067 54.8405 191.28C54.4885 191.483 54.2005 191.781 53.9765 192.176C53.7632 192.571 53.6565 193.035 53.6565 193.568C53.6565 194.101 53.7632 194.565 53.9765 194.96C54.2005 195.355 54.4885 195.659 54.8405 195.872C55.2032 196.075 55.5872 196.176 55.9925 196.176C56.4085 196.176 56.7925 196.069 57.1445 195.856C57.5072 195.643 57.7952 195.339 58.0085 194.944C58.2325 194.549 58.3445 194.08 58.3445 193.536ZM64.5003 186.16V198H62.2603V186.16H64.5003ZM67.8494 188.08C67.4547 188.08 67.124 187.957 66.8574 187.712C66.6014 187.456 66.4734 187.141 66.4734 186.768C66.4734 186.395 66.6014 186.085 66.8574 185.84C67.124 185.584 67.4547 185.456 67.8494 185.456C68.244 185.456 68.5694 185.584 68.8254 185.84C69.092 186.085 69.2254 186.395 69.2254 186.768C69.2254 187.141 69.092 187.456 68.8254 187.712C68.5694 187.957 68.244 188.08 67.8494 188.08ZM68.9534 189.136V198H66.7134V189.136H68.9534ZM70.5905 193.568C70.5905 192.651 70.7772 191.851 71.1505 191.168C71.5238 190.475 72.0412 189.941 72.7025 189.568C73.3638 189.184 74.1212 188.992 74.9745 188.992C76.0732 188.992 76.9798 189.269 77.6945 189.824C78.4198 190.368 78.9052 191.136 79.1505 192.128H76.7345C76.6065 191.744 76.3878 191.445 76.0785 191.232C75.7798 191.008 75.4065 190.896 74.9585 190.896C74.3185 190.896 73.8118 191.131 73.4385 191.6C73.0652 192.059 72.8785 192.715 72.8785 193.568C72.8785 194.411 73.0652 195.067 73.4385 195.536C73.8118 195.995 74.3185 196.224 74.9585 196.224C75.8652 196.224 76.4572 195.819 76.7345 195.008H79.1505C78.9052 195.968 78.4198 196.731 77.6945 197.296C76.9692 197.861 76.0625 198.144 74.9745 198.144C74.1212 198.144 73.3638 197.957 72.7025 197.584C72.0412 197.2 71.5238 196.667 71.1505 195.984C70.7772 195.291 70.5905 194.485 70.5905 193.568Z" fill="white"/>
<path d="M39.248 254.288C39.248 254.885 39.104 255.445 38.816 255.968C38.5387 256.491 38.096 256.912 37.488 257.232C36.8907 257.552 36.1333 257.712 35.216 257.712H33.344V262H31.104V250.832H35.216C36.08 250.832 36.816 250.981 37.424 251.28C38.032 251.579 38.4853 251.989 38.784 252.512C39.0933 253.035 39.248 253.627 39.248 254.288ZM35.12 255.904C35.7387 255.904 36.1973 255.765 36.496 255.488C36.7947 255.2 36.944 254.8 36.944 254.288C36.944 253.2 36.336 252.656 35.12 252.656H33.344V255.904H35.12ZM43.0784 254.512C43.3664 254.043 43.7397 253.675 44.1984 253.408C44.6677 253.141 45.201 253.008 45.7984 253.008V255.36H45.2064C44.5024 255.36 43.969 255.525 43.6064 255.856C43.2544 256.187 43.0784 256.763 43.0784 257.584V262H40.8384V253.136H43.0784V254.512ZM48.4431 252.08C48.0485 252.08 47.7178 251.957 47.4511 251.712C47.1951 251.456 47.0671 251.141 47.0671 250.768C47.0671 250.395 47.1951 250.085 47.4511 249.84C47.7178 249.584 48.0485 249.456 48.4431 249.456C48.8378 249.456 49.1631 249.584 49.4191 249.84C49.6858 250.085 49.8191 250.395 49.8191 250.768C49.8191 251.141 49.6858 251.456 49.4191 251.712C49.1631 251.957 48.8378 252.08 48.4431 252.08ZM49.5471 253.136V262H47.3071V253.136H49.5471ZM55.4563 259.936L57.6963 253.136H60.0803L56.8003 262H54.0803L50.8163 253.136H53.2163L55.4563 259.936ZM60.7624 257.536C60.7624 256.64 60.9384 255.845 61.2904 255.152C61.653 254.459 62.1384 253.925 62.7464 253.552C63.365 253.179 64.053 252.992 64.8104 252.992C65.4717 252.992 66.0477 253.125 66.5384 253.392C67.0397 253.659 67.4397 253.995 67.7384 254.4V253.136H69.9944V262H67.7384V260.704C67.4504 261.12 67.0504 261.467 66.5384 261.744C66.037 262.011 65.4557 262.144 64.7944 262.144C64.0477 262.144 63.365 261.952 62.7464 261.568C62.1384 261.184 61.653 260.645 61.2904 259.952C60.9384 259.248 60.7624 258.443 60.7624 257.536ZM67.7384 257.568C67.7384 257.024 67.6317 256.56 67.4184 256.176C67.205 255.781 66.917 255.483 66.5544 255.28C66.1917 255.067 65.8024 254.96 65.3864 254.96C64.9704 254.96 64.5864 255.061 64.2344 255.264C63.8824 255.467 63.5944 255.765 63.3704 256.16C63.157 256.544 63.0504 257.003 63.0504 257.536C63.0504 258.069 63.157 258.539 63.3704 258.944C63.5944 259.339 63.8824 259.643 64.2344 259.856C64.597 260.069 64.981 260.176 65.3864 260.176C65.8024 260.176 66.1917 260.075 66.5544 259.872C66.917 259.659 67.205 259.36 67.4184 258.976C67.6317 258.581 67.7384 258.112 67.7384 257.568ZM74.7901 254.976V259.264C74.7901 259.563 74.8595 259.781 74.9981 259.92C75.1475 260.048 75.3928 260.112 75.7341 260.112H76.7741V262H75.3661C73.4781 262 72.5341 261.083 72.5341 259.248V254.976H71.4781V253.136H72.5341V250.944H74.7901V253.136H76.7741V254.976H74.7901ZM86.6253 257.376C86.6253 257.696 86.6039 257.984 86.5613 258.24H80.0813C80.1346 258.88 80.3586 259.381 80.7533 259.744C81.1479 260.107 81.6333 260.288 82.2093 260.288C83.0413 260.288 83.6333 259.931 83.9853 259.216H86.4013C86.1453 260.069 85.6546 260.773 84.9293 261.328C84.2039 261.872 83.3133 262.144 82.2573 262.144C81.4039 262.144 80.6359 261.957 79.9533 261.584C79.2813 261.2 78.7533 260.661 78.3693 259.968C77.9959 259.275 77.8092 258.475 77.8092 257.568C77.8092 256.651 77.9959 255.845 78.3693 255.152C78.7426 254.459 79.2653 253.925 79.9373 253.552C80.6093 253.179 81.3826 252.992 82.2573 252.992C83.0999 252.992 83.8519 253.173 84.5133 253.536C85.1853 253.899 85.7026 254.416 86.0653 255.088C86.4386 255.749 86.6253 256.512 86.6253 257.376ZM84.3053 256.736C84.2946 256.16 84.0866 255.701 83.6813 255.36C83.2759 255.008 82.7799 254.832 82.1933 254.832C81.6386 254.832 81.1693 255.003 80.7853 255.344C80.4119 255.675 80.1826 256.139 80.0973 256.736H84.3053Z" fill="white"/>
<path d="M496.368 186.832V198H494.128V193.248H489.344V198H487.104V186.832H489.344V191.424H494.128V186.832H496.368ZM506.941 189.136V198H504.685V196.88C504.397 197.264 504.018 197.568 503.549 197.792C503.09 198.005 502.589 198.112 502.045 198.112C501.351 198.112 500.738 197.968 500.205 197.68C499.671 197.381 499.25 196.949 498.941 196.384C498.642 195.808 498.493 195.125 498.493 194.336V189.136H500.733V194.016C500.733 194.72 500.909 195.264 501.261 195.648C501.613 196.021 502.093 196.208 502.701 196.208C503.319 196.208 503.805 196.021 504.157 195.648C504.509 195.264 504.685 194.72 504.685 194.016V189.136H506.941ZM511.391 190.432C511.679 190.005 512.074 189.659 512.575 189.392C513.087 189.125 513.668 188.992 514.319 188.992C515.076 188.992 515.759 189.179 516.367 189.552C516.986 189.925 517.471 190.459 517.823 191.152C518.186 191.835 518.367 192.629 518.367 193.536C518.367 194.443 518.186 195.248 517.823 195.952C517.471 196.645 516.986 197.184 516.367 197.568C515.759 197.952 515.076 198.144 514.319 198.144C513.658 198.144 513.076 198.016 512.575 197.76C512.084 197.493 511.69 197.152 511.391 196.736V198H509.151V186.16H511.391V190.432ZM516.079 193.536C516.079 193.003 515.967 192.544 515.743 192.16C515.53 191.765 515.242 191.467 514.879 191.264C514.527 191.061 514.143 190.96 513.727 190.96C513.322 190.96 512.938 191.067 512.575 191.28C512.223 191.483 511.935 191.781 511.711 192.176C511.498 192.571 511.391 193.035 511.391 193.568C511.391 194.101 511.498 194.565 511.711 194.96C511.935 195.355 512.223 195.659 512.575 195.872C512.938 196.075 513.322 196.176 513.727 196.176C514.143 196.176 514.527 196.069 514.879 195.856C515.242 195.643 515.53 195.339 515.743 194.944C515.967 194.549 516.079 194.08 516.079 193.536ZM522.235 190.512C522.523 190.043 522.896 189.675 523.355 189.408C523.824 189.141 524.357 189.008 524.955 189.008V191.36H524.363C523.659 191.36 523.125 191.525 522.763 191.856C522.411 192.187 522.235 192.763 522.235 193.584V198H519.995V189.136H522.235V190.512ZM527.599 188.08C527.205 188.08 526.874 187.957 526.607 187.712C526.351 187.456 526.223 187.141 526.223 186.768C526.223 186.395 526.351 186.085 526.607 185.84C526.874 185.584 527.205 185.456 527.599 185.456C527.994 185.456 528.319 185.584 528.575 185.84C528.842 186.085 528.975 186.395 528.975 186.768C528.975 187.141 528.842 187.456 528.575 187.712C528.319 187.957 527.994 188.08 527.599 188.08ZM528.703 189.136V198H526.463V189.136H528.703ZM530.34 193.536C530.34 192.64 530.516 191.845 530.868 191.152C531.231 190.459 531.722 189.925 532.341 189.552C532.959 189.179 533.647 188.992 534.405 188.992C534.981 188.992 535.53 189.12 536.053 189.376C536.575 189.621 536.991 189.952 537.301 190.368V186.16H539.573V198H537.301V196.688C537.023 197.125 536.634 197.477 536.133 197.744C535.631 198.011 535.05 198.144 534.389 198.144C533.642 198.144 532.959 197.952 532.341 197.568C531.722 197.184 531.231 196.645 530.868 195.952C530.516 195.248 530.34 194.443 530.34 193.536ZM537.317 193.568C537.317 193.024 537.21 192.56 536.997 192.176C536.783 191.781 536.495 191.483 536.133 191.28C535.77 191.067 535.381 190.96 534.965 190.96C534.549 190.96 534.165 191.061 533.812 191.264C533.461 191.467 533.173 191.765 532.949 192.16C532.735 192.544 532.629 193.003 532.629 193.536C532.629 194.069 532.735 194.539 532.949 194.944C533.173 195.339 533.461 195.643 533.812 195.856C534.175 196.069 534.559 196.176 534.965 196.176C535.381 196.176 535.77 196.075 536.133 195.872C536.495 195.659 536.783 195.36 536.997 194.976C537.21 194.581 537.317 194.112 537.317 193.568Z" fill="white"/>
<path d="M499.28 250.832V262H497.04V254.736L494.048 262H492.352L489.344 254.736V262H487.104V250.832H489.648L493.2 259.136L496.752 250.832H499.28ZM509.863 253.136V262H507.607V260.88C507.319 261.264 506.94 261.568 506.471 261.792C506.012 262.005 505.511 262.112 504.967 262.112C504.273 262.112 503.66 261.968 503.127 261.68C502.593 261.381 502.172 260.949 501.863 260.384C501.564 259.808 501.415 259.125 501.415 258.336V253.136H503.655V258.016C503.655 258.72 503.831 259.264 504.183 259.648C504.535 260.021 505.015 260.208 505.623 260.208C506.241 260.208 506.727 260.021 507.079 259.648C507.431 259.264 507.607 258.72 507.607 258.016V253.136H509.863ZM514.313 250.16V262H512.073V250.16H514.313ZM519.134 254.976V259.264C519.134 259.563 519.203 259.781 519.342 259.92C519.491 260.048 519.737 260.112 520.078 260.112H521.118V262H519.71C517.822 262 516.878 261.083 516.878 259.248V254.976H515.822V253.136H516.878V250.944H519.134V253.136H521.118V254.976H519.134ZM523.865 252.08C523.47 252.08 523.14 251.957 522.873 251.712C522.617 251.456 522.489 251.141 522.489 250.768C522.489 250.395 522.617 250.085 522.873 249.84C523.14 249.584 523.47 249.456 523.865 249.456C524.26 249.456 524.585 249.584 524.841 249.84C525.108 250.085 525.241 250.395 525.241 250.768C525.241 251.141 525.108 251.456 524.841 251.712C524.585 251.957 524.26 252.08 523.865 252.08ZM524.969 253.136V262H522.729V253.136H524.969ZM526.606 257.568C526.606 256.651 526.793 255.851 527.166 255.168C527.539 254.475 528.057 253.941 528.718 253.568C529.379 253.184 530.137 252.992 530.99 252.992C532.089 252.992 532.995 253.269 533.71 253.824C534.435 254.368 534.921 255.136 535.166 256.128H532.75C532.622 255.744 532.403 255.445 532.094 255.232C531.795 255.008 531.422 254.896 530.974 254.896C530.334 254.896 529.827 255.131 529.454 255.6C529.081 256.059 528.894 256.715 528.894 257.568C528.894 258.411 529.081 259.067 529.454 259.536C529.827 259.995 530.334 260.224 530.974 260.224C531.881 260.224 532.473 259.819 532.75 259.008H535.166C534.921 259.968 534.435 260.731 533.71 261.296C532.985 261.861 532.078 262.144 530.99 262.144C530.137 262.144 529.379 261.957 528.718 261.584C528.057 261.2 527.539 260.667 527.166 259.984C526.793 259.291 526.606 258.485 526.606 257.568ZM539.047 250.16V262H536.807V250.16H539.047ZM545.196 262.144C544.343 262.144 543.575 261.957 542.892 261.584C542.21 261.2 541.671 260.661 541.276 259.968C540.892 259.275 540.7 258.475 540.7 257.568C540.7 256.661 540.898 255.861 541.292 255.168C541.698 254.475 542.247 253.941 542.94 253.568C543.634 253.184 544.407 252.992 545.26 252.992C546.114 252.992 546.887 253.184 547.58 253.568C548.274 253.941 548.818 254.475 549.212 255.168C549.618 255.861 549.82 256.661 549.82 257.568C549.82 258.475 549.612 259.275 549.196 259.968C548.791 260.661 548.236 261.2 547.532 261.584C546.839 261.957 546.06 262.144 545.196 262.144ZM545.196 260.192C545.602 260.192 545.98 260.096 546.332 259.904C546.695 259.701 546.983 259.403 547.196 259.008C547.41 258.613 547.516 258.133 547.516 257.568C547.516 256.725 547.292 256.08 546.844 255.632C546.407 255.173 545.868 254.944 545.228 254.944C544.588 254.944 544.05 255.173 543.612 255.632C543.186 256.08 542.972 256.725 542.972 257.568C542.972 258.411 543.18 259.061 543.596 259.52C544.023 259.968 544.556 260.192 545.196 260.192ZM559.831 253.136V262H557.575V260.88C557.287 261.264 556.909 261.568 556.439 261.792C555.981 262.005 555.479 262.112 554.935 262.112C554.242 262.112 553.629 261.968 553.095 261.68C552.562 261.381 552.141 260.949 551.831 260.384C551.533 259.808 551.383 259.125 551.383 258.336V253.136H553.623V258.016C553.623 258.72 553.799 259.264 554.151 259.648C554.503 260.021 554.983 260.208 555.591 260.208C556.21 260.208 556.695 260.021 557.047 259.648C557.399 259.264 557.575 258.72 557.575 258.016V253.136H559.831ZM561.465 257.536C561.465 256.64 561.641 255.845 561.993 255.152C562.356 254.459 562.847 253.925 563.466 253.552C564.084 253.179 564.772 252.992 565.53 252.992C566.106 252.992 566.655 253.12 567.178 253.376C567.7 253.621 568.116 253.952 568.426 254.368V250.16H570.698V262H568.426V260.688C568.148 261.125 567.759 261.477 567.258 261.744C566.756 262.011 566.175 262.144 565.514 262.144C564.767 262.144 564.084 261.952 563.466 261.568C562.847 261.184 562.356 260.645 561.993 259.952C561.641 259.248 561.465 258.443 561.465 257.536ZM568.442 257.568C568.442 257.024 568.335 256.56 568.122 256.176C567.908 255.781 567.62 255.483 567.258 255.28C566.895 255.067 566.506 254.96 566.09 254.96C565.674 254.96 565.29 255.061 564.938 255.264C564.586 255.467 564.298 255.765 564.074 256.16C563.86 256.544 563.754 257.003 563.754 257.536C563.754 258.069 563.86 258.539 564.074 258.944C564.298 259.339 564.586 259.643 564.938 259.856C565.3 260.069 565.684 260.176 566.09 260.176C566.506 260.176 566.895 260.075 567.258 259.872C567.62 259.659 567.908 259.36 568.122 258.976C568.335 258.581 568.442 258.112 568.442 257.568Z" fill="white"/>
<rect width="588" height="56" rx="28" fill="#5846D3"/>
<path d="M24.56 28.4C24.56 27.3013 24.8053 26.32 25.296 25.456C25.7973 24.5813 26.4747 23.904 27.328 23.424C28.192 22.9333 29.1573 22.688 30.224 22.688C31.472 22.688 32.5653 23.008 33.504 23.648C34.4427 24.288 35.0987 25.1733 35.472 26.304H32.896C32.64 25.7707 32.2773 25.3707 31.808 25.104C31.3493 24.8373 30.816 24.704 30.208 24.704C29.5573 24.704 28.976 24.8587 28.464 25.168C27.9627 25.4667 27.568 25.8933 27.28 26.448C27.0027 27.0027 26.864 27.6533 26.864 28.4C26.864 29.136 27.0027 29.7867 27.28 30.352C27.568 30.9067 27.9627 31.3387 28.464 31.648C28.976 31.9467 29.5573 32.096 30.208 32.096C30.816 32.096 31.3493 31.9627 31.808 31.696C32.2773 31.4187 32.64 31.0133 32.896 30.48H35.472C35.0987 31.6213 34.4427 32.512 33.504 33.152C32.576 33.7813 31.4827 34.096 30.224 34.096C29.1573 34.096 28.192 33.856 27.328 33.376C26.4747 32.8853 25.7973 32.208 25.296 31.344C24.8053 30.48 24.56 29.4987 24.56 28.4ZM39.6253 22.16V34H37.3853V22.16H39.6253ZM45.7744 34.144C44.921 34.144 44.153 33.9573 43.4704 33.584C42.7877 33.2 42.249 32.6613 41.8544 31.968C41.4704 31.2747 41.2784 30.4747 41.2784 29.568C41.2784 28.6613 41.4757 27.8613 41.8704 27.168C42.2757 26.4747 42.825 25.9413 43.5184 25.568C44.2117 25.184 44.985 24.992 45.8384 24.992C46.6917 24.992 47.465 25.184 48.1584 25.568C48.8517 25.9413 49.3957 26.4747 49.7904 27.168C50.1957 27.8613 50.3984 28.6613 50.3984 29.568C50.3984 30.4747 50.1904 31.2747 49.7744 31.968C49.369 32.6613 48.8144 33.2 48.1104 33.584C47.417 33.9573 46.6384 34.144 45.7744 34.144ZM45.7744 32.192C46.1797 32.192 46.5584 32.096 46.9104 31.904C47.273 31.7013 47.561 31.4027 47.7744 31.008C47.9877 30.6133 48.0944 30.1333 48.0944 29.568C48.0944 28.7253 47.8704 28.08 47.4224 27.632C46.985 27.1733 46.4464 26.944 45.8064 26.944C45.1664 26.944 44.6277 27.1733 44.1904 27.632C43.7637 28.08 43.5504 28.7253 43.5504 29.568C43.5504 30.4107 43.7584 31.0613 44.1744 31.52C44.601 31.968 45.1344 32.192 45.7744 32.192ZM60.4095 25.136V34H58.1535V32.88C57.8655 33.264 57.4868 33.568 57.0175 33.792C56.5588 34.0053 56.0575 34.112 55.5135 34.112C54.8202 34.112 54.2068 33.968 53.6735 33.68C53.1402 33.3813 52.7188 32.9493 52.4095 32.384C52.1108 31.808 51.9615 31.1253 51.9615 30.336V25.136H54.2015V30.016C54.2015 30.72 54.3775 31.264 54.7295 31.648C55.0815 32.0213 55.5615 32.208 56.1695 32.208C56.7882 32.208 57.2735 32.0213 57.6255 31.648C57.9775 31.264 58.1535 30.72 58.1535 30.016V25.136H60.4095ZM62.0436 29.536C62.0436 28.64 62.2196 27.8453 62.5716 27.152C62.9343 26.4587 63.425 25.9253 64.0436 25.552C64.6623 25.1787 65.3503 24.992 66.1076 24.992C66.6836 24.992 67.233 25.12 67.7556 25.376C68.2783 25.6213 68.6943 25.952 69.0036 26.368V22.16H71.2756V34H69.0036V32.688C68.7263 33.1253 68.337 33.4773 67.8356 33.744C67.3343 34.0107 66.753 34.144 66.0916 34.144C65.345 34.144 64.6623 33.952 64.0436 33.568C63.425 33.184 62.9343 32.6453 62.5716 31.952C62.2196 31.248 62.0436 30.4427 62.0436 29.536ZM69.0196 29.568C69.0196 29.024 68.913 28.56 68.6996 28.176C68.4863 27.7813 68.1983 27.4827 67.8356 27.28C67.473 27.0667 67.0836 26.96 66.6676 26.96C66.2516 26.96 65.8676 27.0613 65.5156 27.264C65.1636 27.4667 64.8756 27.7653 64.6516 28.16C64.4383 28.544 64.3316 29.0027 64.3316 29.536C64.3316 30.0693 64.4383 30.5387 64.6516 30.944C64.8756 31.3387 65.1636 31.6427 65.5156 31.856C65.8783 32.0693 66.2623 32.176 66.6676 32.176C67.0836 32.176 67.473 32.0747 67.8356 31.872C68.1983 31.6587 68.4863 31.36 68.6996 30.976C68.913 30.5813 69.0196 30.112 69.0196 29.568ZM78.4119 24.08C78.0172 24.08 77.6865 23.9573 77.4199 23.712C77.1639 23.456 77.0359 23.1413 77.0359 22.768C77.0359 22.3947 77.1639 22.0853 77.4199 21.84C77.6865 21.584 78.0172 21.456 78.4119 21.456C78.8065 21.456 79.1319 21.584 79.3879 21.84C79.6545 22.0853 79.7879 22.3947 79.7879 22.768C79.7879 23.1413 79.6545 23.456 79.3879 23.712C79.1319 23.9573 78.8065 24.08 78.4119 24.08ZM79.5159 25.136V34H77.2759V25.136H79.5159ZM92.737 25.008C93.825 25.008 94.6997 25.344 95.361 26.016C96.033 26.6773 96.369 27.6053 96.369 28.8V34H94.129V29.104C94.129 28.4107 93.953 27.8827 93.601 27.52C93.249 27.1467 92.769 26.96 92.161 26.96C91.553 26.96 91.0677 27.1467 90.705 27.52C90.353 27.8827 90.177 28.4107 90.177 29.104V34H87.937V29.104C87.937 28.4107 87.761 27.8827 87.409 27.52C87.057 27.1467 86.577 26.96 85.969 26.96C85.3503 26.96 84.8597 27.1467 84.497 27.52C84.145 27.8827 83.969 28.4107 83.969 29.104V34H81.729V25.136H83.969V26.208C84.257 25.8347 84.625 25.5413 85.073 25.328C85.5317 25.1147 86.033 25.008 86.577 25.008C87.2703 25.008 87.889 25.1573 88.433 25.456C88.977 25.744 89.3983 26.16 89.697 26.704C89.985 26.192 90.401 25.7813 90.945 25.472C91.4997 25.1627 92.097 25.008 92.737 25.008ZM100.735 26.416C101.023 26.0107 101.417 25.6747 101.919 25.408C102.431 25.1307 103.012 24.992 103.663 24.992C104.42 24.992 105.103 25.1787 105.711 25.552C106.329 25.9253 106.815 26.4587 107.167 27.152C107.529 27.8347 107.711 28.6293 107.711 29.536C107.711 30.4427 107.529 31.248 107.167 31.952C106.815 32.6453 106.329 33.184 105.711 33.568C105.103 33.952 104.42 34.144 103.663 34.144C103.012 34.144 102.436 34.0107 101.935 33.744C101.444 33.4773 101.044 33.1413 100.735 32.736V38.224H98.4946V25.136H100.735V26.416ZM105.423 29.536C105.423 29.0027 105.311 28.544 105.087 28.16C104.873 27.7653 104.585 27.4667 104.223 27.264C103.871 27.0613 103.487 26.96 103.071 26.96C102.665 26.96 102.281 27.0667 101.919 27.28C101.567 27.4827 101.279 27.7813 101.055 28.176C100.841 28.5707 100.735 29.0347 100.735 29.568C100.735 30.1013 100.841 30.5653 101.055 30.96C101.279 31.3547 101.567 31.6587 101.919 31.872C102.281 32.0747 102.665 32.176 103.071 32.176C103.487 32.176 103.871 32.0693 104.223 31.856C104.585 31.6427 104.873 31.3387 105.087 30.944C105.311 30.5493 105.423 30.08 105.423 29.536ZM111.578 22.16V34H109.338V22.16H111.578ZM122.032 29.376C122.032 29.696 122.01 29.984 121.968 30.24H115.488C115.541 30.88 115.765 31.3813 116.16 31.744C116.554 32.1067 117.04 32.288 117.616 32.288C118.448 32.288 119.04 31.9307 119.392 31.216H121.808C121.552 32.0693 121.061 32.7733 120.336 33.328C119.61 33.872 118.72 34.144 117.664 34.144C116.81 34.144 116.042 33.9573 115.36 33.584C114.688 33.2 114.16 32.6613 113.776 31.968C113.402 31.2747 113.215 30.4747 113.215 29.568C113.215 28.6507 113.402 27.8453 113.776 27.152C114.149 26.4587 114.672 25.9253 115.344 25.552C116.016 25.1787 116.789 24.992 117.664 24.992C118.506 24.992 119.258 25.1733 119.92 25.536C120.592 25.8987 121.109 26.416 121.472 27.088C121.845 27.7493 122.032 28.512 122.032 29.376ZM119.712 28.736C119.701 28.16 119.493 27.7013 119.088 27.36C118.682 27.008 118.186 26.832 117.6 26.832C117.045 26.832 116.576 27.0027 116.192 27.344C115.818 27.6747 115.589 28.1387 115.504 28.736H119.712ZM134.675 25.008C135.763 25.008 136.637 25.344 137.299 26.016C137.971 26.6773 138.307 27.6053 138.307 28.8V34H136.067V29.104C136.067 28.4107 135.891 27.8827 135.539 27.52C135.187 27.1467 134.707 26.96 134.099 26.96C133.491 26.96 133.005 27.1467 132.643 27.52C132.291 27.8827 132.115 28.4107 132.115 29.104V34H129.875V29.104C129.875 28.4107 129.699 27.8827 129.347 27.52C128.995 27.1467 128.515 26.96 127.907 26.96C127.288 26.96 126.797 27.1467 126.435 27.52C126.083 27.8827 125.907 28.4107 125.907 29.104V34H123.667V25.136H125.907V26.208C126.195 25.8347 126.563 25.5413 127.011 25.328C127.469 25.1147 127.971 25.008 128.515 25.008C129.208 25.008 129.827 25.1573 130.371 25.456C130.915 25.744 131.336 26.16 131.635 26.704C131.923 26.192 132.339 25.7813 132.883 25.472C133.437 25.1627 134.035 25.008 134.675 25.008ZM148.672 29.376C148.672 29.696 148.651 29.984 148.608 30.24H142.128C142.181 30.88 142.405 31.3813 142.8 31.744C143.195 32.1067 143.68 32.288 144.256 32.288C145.088 32.288 145.68 31.9307 146.032 31.216H148.448C148.192 32.0693 147.701 32.7733 146.976 33.328C146.251 33.872 145.36 34.144 144.304 34.144C143.451 34.144 142.683 33.9573 142 33.584C141.328 33.2 140.8 32.6613 140.416 31.968C140.043 31.2747 139.856 30.4747 139.856 29.568C139.856 28.6507 140.043 27.8453 140.416 27.152C140.789 26.4587 141.312 25.9253 141.984 25.552C142.656 25.1787 143.429 24.992 144.304 24.992C145.147 24.992 145.899 25.1733 146.56 25.536C147.232 25.8987 147.749 26.416 148.112 27.088C148.485 27.7493 148.672 28.512 148.672 29.376ZM146.352 28.736C146.341 28.16 146.133 27.7013 145.728 27.36C145.323 27.008 144.827 26.832 144.24 26.832C143.685 26.832 143.216 27.0027 142.832 27.344C142.459 27.6747 142.229 28.1387 142.144 28.736H146.352ZM155.219 25.008C156.275 25.008 157.128 25.344 157.779 26.016C158.43 26.6773 158.755 27.6053 158.755 28.8V34H156.515V29.104C156.515 28.4 156.339 27.8613 155.987 27.488C155.635 27.104 155.155 26.912 154.547 26.912C153.928 26.912 153.438 27.104 153.075 27.488C152.723 27.8613 152.547 28.4 152.547 29.104V34H150.307V25.136H152.547V26.24C152.846 25.856 153.224 25.5573 153.683 25.344C154.152 25.12 154.664 25.008 155.219 25.008ZM163.493 26.976V31.264C163.493 31.5627 163.563 31.7813 163.701 31.92C163.851 32.048 164.096 32.112 164.437 32.112H165.477V34H164.069C162.181 34 161.237 33.0827 161.237 31.248V26.976H160.181V25.136H161.237V22.944H163.493V25.136H165.477V26.976H163.493ZM166.512 29.536C166.512 28.64 166.688 27.8453 167.04 27.152C167.403 26.4587 167.888 25.9253 168.496 25.552C169.115 25.1787 169.803 24.992 170.56 24.992C171.222 24.992 171.798 25.1253 172.288 25.392C172.79 25.6587 173.19 25.9947 173.488 26.4V25.136H175.744V34H173.488V32.704C173.2 33.12 172.8 33.4667 172.288 33.744C171.787 34.0107 171.206 34.144 170.544 34.144C169.798 34.144 169.115 33.952 168.496 33.568C167.888 33.184 167.403 32.6453 167.04 31.952C166.688 31.248 166.512 30.4427 166.512 29.536ZM173.488 29.568C173.488 29.024 173.382 28.56 173.168 28.176C172.955 27.7813 172.667 27.4827 172.304 27.28C171.942 27.0667 171.552 26.96 171.136 26.96C170.72 26.96 170.336 27.0613 169.984 27.264C169.632 27.4667 169.344 27.7653 169.12 28.16C168.907 28.544 168.8 29.0027 168.8 29.536C168.8 30.0693 168.907 30.5387 169.12 30.944C169.344 31.3387 169.632 31.6427 169.984 31.856C170.347 32.0693 170.731 32.176 171.136 32.176C171.552 32.176 171.942 32.0747 172.304 31.872C172.667 31.6587 172.955 31.36 173.168 30.976C173.382 30.5813 173.488 30.112 173.488 29.568ZM180.54 26.976V31.264C180.54 31.5627 180.609 31.7813 180.748 31.92C180.897 32.048 181.143 32.112 181.484 32.112H182.524V34H181.116C179.228 34 178.284 33.0827 178.284 31.248V26.976H177.228V25.136H178.284V22.944H180.54V25.136H182.524V26.976H180.54ZM185.271 24.08C184.877 24.08 184.546 23.9573 184.279 23.712C184.023 23.456 183.895 23.1413 183.895 22.768C183.895 22.3947 184.023 22.0853 184.279 21.84C184.546 21.584 184.877 21.456 185.271 21.456C185.666 21.456 185.991 21.584 186.247 21.84C186.514 22.0853 186.647 22.3947 186.647 22.768C186.647 23.1413 186.514 23.456 186.247 23.712C185.991 23.9573 185.666 24.08 185.271 24.08ZM186.375 25.136V34H184.135V25.136H186.375ZM192.524 34.144C191.671 34.144 190.903 33.9573 190.22 33.584C189.538 33.2 188.999 32.6613 188.604 31.968C188.22 31.2747 188.028 30.4747 188.028 29.568C188.028 28.6613 188.226 27.8613 188.62 27.168C189.026 26.4747 189.575 25.9413 190.268 25.568C190.962 25.184 191.735 24.992 192.588 24.992C193.442 24.992 194.215 25.184 194.908 25.568C195.602 25.9413 196.146 26.4747 196.54 27.168C196.946 27.8613 197.148 28.6613 197.148 29.568C197.148 30.4747 196.94 31.2747 196.524 31.968C196.119 32.6613 195.564 33.2 194.86 33.584C194.167 33.9573 193.388 34.144 192.524 34.144ZM192.524 32.192C192.93 32.192 193.308 32.096 193.66 31.904C194.023 31.7013 194.311 31.4027 194.524 31.008C194.738 30.6133 194.844 30.1333 194.844 29.568C194.844 28.7253 194.62 28.08 194.172 27.632C193.735 27.1733 193.196 26.944 192.556 26.944C191.916 26.944 191.378 27.1733 190.94 27.632C190.514 28.08 190.3 28.7253 190.3 29.568C190.3 30.4107 190.508 31.0613 190.924 31.52C191.351 31.968 191.884 32.192 192.524 32.192ZM203.704 25.008C204.76 25.008 205.613 25.344 206.264 26.016C206.914 26.6773 207.24 27.6053 207.24 28.8V34H205V29.104C205 28.4 204.824 27.8613 204.472 27.488C204.12 27.104 203.64 26.912 203.032 26.912C202.413 26.912 201.922 27.104 201.56 27.488C201.208 27.8613 201.032 28.4 201.032 29.104V34H198.792V25.136H201.032V26.24C201.33 25.856 201.709 25.5573 202.168 25.344C202.637 25.12 203.149 25.008 203.704 25.008Z" fill="white"/>
<path d="M249.06 28.4C249.06 27.3013 249.305 26.32 249.796 25.456C250.297 24.5813 250.975 23.904 251.828 23.424C252.692 22.9333 253.657 22.688 254.724 22.688C255.972 22.688 257.065 23.008 258.004 23.648C258.943 24.288 259.599 25.1733 259.972 26.304H257.396C257.14 25.7707 256.777 25.3707 256.308 25.104C255.849 24.8373 255.316 24.704 254.708 24.704C254.057 24.704 253.476 24.8587 252.964 25.168C252.463 25.4667 252.068 25.8933 251.78 26.448C251.503 27.0027 251.364 27.6533 251.364 28.4C251.364 29.136 251.503 29.7867 251.78 30.352C252.068 30.9067 252.463 31.3387 252.964 31.648C253.476 31.9467 254.057 32.096 254.708 32.096C255.316 32.096 255.849 31.9627 256.308 31.696C256.777 31.4187 257.14 31.0133 257.396 30.48H259.972C259.599 31.6213 258.943 32.512 258.004 33.152C257.076 33.7813 255.983 34.096 254.724 34.096C253.657 34.096 252.692 33.856 251.828 33.376C250.975 32.8853 250.297 32.208 249.796 31.344C249.305 30.48 249.06 29.4987 249.06 28.4ZM264.125 22.16V34H261.885V22.16H264.125ZM270.274 34.144C269.421 34.144 268.653 33.9573 267.97 33.584C267.288 33.2 266.749 32.6613 266.354 31.968C265.97 31.2747 265.778 30.4747 265.778 29.568C265.778 28.6613 265.976 27.8613 266.37 27.168C266.776 26.4747 267.325 25.9413 268.018 25.568C268.712 25.184 269.485 24.992 270.338 24.992C271.192 24.992 271.965 25.184 272.658 25.568C273.352 25.9413 273.896 26.4747 274.29 27.168C274.696 27.8613 274.898 28.6613 274.898 29.568C274.898 30.4747 274.69 31.2747 274.274 31.968C273.869 32.6613 273.314 33.2 272.61 33.584C271.917 33.9573 271.138 34.144 270.274 34.144ZM270.274 32.192C270.68 32.192 271.058 32.096 271.41 31.904C271.773 31.7013 272.061 31.4027 272.274 31.008C272.488 30.6133 272.594 30.1333 272.594 29.568C272.594 28.7253 272.37 28.08 271.922 27.632C271.485 27.1733 270.946 26.944 270.306 26.944C269.666 26.944 269.128 27.1733 268.69 27.632C268.264 28.08 268.05 28.7253 268.05 29.568C268.05 30.4107 268.258 31.0613 268.674 31.52C269.101 31.968 269.634 32.192 270.274 32.192ZM284.91 25.136V34H282.654V32.88C282.366 33.264 281.987 33.568 281.518 33.792C281.059 34.0053 280.558 34.112 280.014 34.112C279.32 34.112 278.707 33.968 278.174 33.68C277.64 33.3813 277.219 32.9493 276.91 32.384C276.611 31.808 276.462 31.1253 276.462 30.336V25.136H278.702V30.016C278.702 30.72 278.878 31.264 279.23 31.648C279.582 32.0213 280.062 32.208 280.67 32.208C281.288 32.208 281.774 32.0213 282.126 31.648C282.478 31.264 282.654 30.72 282.654 30.016V25.136H284.91ZM286.544 29.536C286.544 28.64 286.72 27.8453 287.072 27.152C287.434 26.4587 287.925 25.9253 288.544 25.552C289.162 25.1787 289.85 24.992 290.608 24.992C291.184 24.992 291.733 25.12 292.256 25.376C292.778 25.6213 293.194 25.952 293.504 26.368V22.16H295.776V34H293.504V32.688C293.226 33.1253 292.837 33.4773 292.336 33.744C291.834 34.0107 291.253 34.144 290.592 34.144C289.845 34.144 289.162 33.952 288.544 33.568C287.925 33.184 287.434 32.6453 287.072 31.952C286.72 31.248 286.544 30.4427 286.544 29.536ZM293.52 29.568C293.52 29.024 293.413 28.56 293.2 28.176C292.986 27.7813 292.698 27.4827 292.336 27.28C291.973 27.0667 291.584 26.96 291.168 26.96C290.752 26.96 290.368 27.0613 290.016 27.264C289.664 27.4667 289.376 27.7653 289.152 28.16C288.938 28.544 288.832 29.0027 288.832 29.536C288.832 30.0693 288.938 30.5387 289.152 30.944C289.376 31.3387 289.664 31.6427 290.016 31.856C290.378 32.0693 290.762 32.176 291.168 32.176C291.584 32.176 291.973 32.0747 292.336 31.872C292.698 31.6587 292.986 31.36 293.2 30.976C293.413 30.5813 293.52 30.112 293.52 29.568ZM312.784 25.008C313.872 25.008 314.747 25.344 315.408 26.016C316.08 26.6773 316.416 27.6053 316.416 28.8V34H314.176V29.104C314.176 28.4107 314 27.8827 313.648 27.52C313.296 27.1467 312.816 26.96 312.208 26.96C311.6 26.96 311.115 27.1467 310.752 27.52C310.4 27.8827 310.224 28.4107 310.224 29.104V34H307.984V29.104C307.984 28.4107 307.808 27.8827 307.456 27.52C307.104 27.1467 306.624 26.96 306.016 26.96C305.397 26.96 304.907 27.1467 304.544 27.52C304.192 27.8827 304.016 28.4107 304.016 29.104V34H301.776V25.136H304.016V26.208C304.304 25.8347 304.672 25.5413 305.12 25.328C305.579 25.1147 306.08 25.008 306.624 25.008C307.317 25.008 307.936 25.1573 308.48 25.456C309.024 25.744 309.445 26.16 309.744 26.704C310.032 26.192 310.448 25.7813 310.992 25.472C311.547 25.1627 312.144 25.008 312.784 25.008ZM319.678 24.08C319.283 24.08 318.952 23.9573 318.686 23.712C318.43 23.456 318.302 23.1413 318.302 22.768C318.302 22.3947 318.43 22.0853 318.686 21.84C318.952 21.584 319.283 21.456 319.678 21.456C320.072 21.456 320.398 21.584 320.654 21.84C320.92 22.0853 321.054 22.3947 321.054 22.768C321.054 23.1413 320.92 23.456 320.654 23.712C320.398 23.9573 320.072 24.08 319.678 24.08ZM320.782 25.136V34H318.542V25.136H320.782ZM326.467 24.992C327.128 24.992 327.709 25.1253 328.211 25.392C328.712 25.648 329.107 25.984 329.395 26.4V25.136H331.651V34.064C331.651 34.8853 331.485 35.616 331.155 36.256C330.824 36.9067 330.328 37.4187 329.667 37.792C329.005 38.176 328.205 38.368 327.267 38.368C326.008 38.368 324.973 38.0747 324.163 37.488C323.363 36.9013 322.909 36.1013 322.803 35.088H325.027C325.144 35.4933 325.395 35.8133 325.779 36.048C326.173 36.2933 326.648 36.416 327.203 36.416C327.853 36.416 328.381 36.2187 328.787 35.824C329.192 35.44 329.395 34.8533 329.395 34.064V32.688C329.107 33.104 328.707 33.4507 328.195 33.728C327.693 34.0053 327.117 34.144 326.467 34.144C325.72 34.144 325.037 33.952 324.419 33.568C323.8 33.184 323.309 32.6453 322.947 31.952C322.595 31.248 322.419 30.4427 322.419 29.536C322.419 28.64 322.595 27.8453 322.947 27.152C323.309 26.4587 323.795 25.9253 324.403 25.552C325.021 25.1787 325.709 24.992 326.467 24.992ZM329.395 29.568C329.395 29.024 329.288 28.56 329.075 28.176C328.861 27.7813 328.573 27.4827 328.211 27.28C327.848 27.0667 327.459 26.96 327.043 26.96C326.627 26.96 326.243 27.0613 325.891 27.264C325.539 27.4667 325.251 27.7653 325.027 28.16C324.813 28.544 324.707 29.0027 324.707 29.536C324.707 30.0693 324.813 30.5387 325.027 30.944C325.251 31.3387 325.539 31.6427 325.891 31.856C326.253 32.0693 326.637 32.176 327.043 32.176C327.459 32.176 327.848 32.0747 328.211 31.872C328.573 31.6587 328.861 31.36 329.075 30.976C329.288 30.5813 329.395 30.112 329.395 29.568ZM336.078 26.512C336.366 26.0427 336.74 25.6747 337.198 25.408C337.668 25.1413 338.201 25.008 338.798 25.008V27.36H338.206C337.502 27.36 336.969 27.5253 336.606 27.856C336.254 28.1867 336.078 28.7627 336.078 29.584V34H333.838V25.136H336.078V26.512ZM339.731 29.536C339.731 28.64 339.907 27.8453 340.259 27.152C340.622 26.4587 341.107 25.9253 341.715 25.552C342.334 25.1787 343.022 24.992 343.779 24.992C344.44 24.992 345.016 25.1253 345.507 25.392C346.008 25.6587 346.408 25.9947 346.707 26.4V25.136H348.963V34H346.707V32.704C346.419 33.12 346.019 33.4667 345.507 33.744C345.006 34.0107 344.424 34.144 343.763 34.144C343.016 34.144 342.334 33.952 341.715 33.568C341.107 33.184 340.622 32.6453 340.259 31.952C339.907 31.248 339.731 30.4427 339.731 29.536ZM346.707 29.568C346.707 29.024 346.6 28.56 346.387 28.176C346.174 27.7813 345.886 27.4827 345.523 27.28C345.16 27.0667 344.771 26.96 344.355 26.96C343.939 26.96 343.555 27.0613 343.203 27.264C342.851 27.4667 342.563 27.7653 342.339 28.16C342.126 28.544 342.019 29.0027 342.019 29.536C342.019 30.0693 342.126 30.5387 342.339 30.944C342.563 31.3387 342.851 31.6427 343.203 31.856C343.566 32.0693 343.95 32.176 344.355 32.176C344.771 32.176 345.16 32.0747 345.523 31.872C345.886 31.6587 346.174 31.36 346.387 30.976C346.6 30.5813 346.707 30.112 346.707 29.568ZM353.759 26.976V31.264C353.759 31.5627 353.828 31.7813 353.967 31.92C354.116 32.048 354.362 32.112 354.703 32.112H355.743V34H354.335C352.447 34 351.503 33.0827 351.503 31.248V26.976H350.447V25.136H351.503V22.944H353.759V25.136H355.743V26.976H353.759ZM358.49 24.08C358.095 24.08 357.765 23.9573 357.498 23.712C357.242 23.456 357.114 23.1413 357.114 22.768C357.114 22.3947 357.242 22.0853 357.498 21.84C357.765 21.584 358.095 21.456 358.49 21.456C358.885 21.456 359.21 21.584 359.466 21.84C359.733 22.0853 359.866 22.3947 359.866 22.768C359.866 23.1413 359.733 23.456 359.466 23.712C359.21 23.9573 358.885 24.08 358.49 24.08ZM359.594 25.136V34H357.354V25.136H359.594ZM365.743 34.144C364.89 34.144 364.122 33.9573 363.439 33.584C362.756 33.2 362.218 32.6613 361.823 31.968C361.439 31.2747 361.247 30.4747 361.247 29.568C361.247 28.6613 361.444 27.8613 361.839 27.168C362.244 26.4747 362.794 25.9413 363.487 25.568C364.18 25.184 364.954 24.992 365.807 24.992C366.66 24.992 367.434 25.184 368.127 25.568C368.82 25.9413 369.364 26.4747 369.759 27.168C370.164 27.8613 370.367 28.6613 370.367 29.568C370.367 30.4747 370.159 31.2747 369.743 31.968C369.338 32.6613 368.783 33.2 368.079 33.584C367.386 33.9573 366.607 34.144 365.743 34.144ZM365.743 32.192C366.148 32.192 366.527 32.096 366.879 31.904C367.242 31.7013 367.53 31.4027 367.743 31.008C367.956 30.6133 368.063 30.1333 368.063 29.568C368.063 28.7253 367.839 28.08 367.391 27.632C366.954 27.1733 366.415 26.944 365.775 26.944C365.135 26.944 364.596 27.1733 364.159 27.632C363.732 28.08 363.519 28.7253 363.519 29.568C363.519 30.4107 363.727 31.0613 364.143 31.52C364.57 31.968 365.103 32.192 365.743 32.192ZM376.922 25.008C377.978 25.008 378.832 25.344 379.482 26.016C380.133 26.6773 380.458 27.6053 380.458 28.8V34H378.218V29.104C378.218 28.4 378.042 27.8613 377.69 27.488C377.338 27.104 376.858 26.912 376.25 26.912C375.632 26.912 375.141 27.104 374.778 27.488C374.426 27.8613 374.25 28.4 374.25 29.104V34H372.01V25.136H374.25V26.24C374.549 25.856 374.928 25.5573 375.386 25.344C375.856 25.12 376.368 25.008 376.922 25.008Z" fill="white"/>
<path d="M421.56 28.4C421.56 27.3013 421.805 26.32 422.296 25.456C422.797 24.5813 423.475 23.904 424.328 23.424C425.192 22.9333 426.157 22.688 427.224 22.688C428.472 22.688 429.565 23.008 430.504 23.648C431.443 24.288 432.099 25.1733 432.472 26.304H429.896C429.64 25.7707 429.277 25.3707 428.808 25.104C428.349 24.8373 427.816 24.704 427.208 24.704C426.557 24.704 425.976 24.8587 425.464 25.168C424.963 25.4667 424.568 25.8933 424.28 26.448C424.003 27.0027 423.864 27.6533 423.864 28.4C423.864 29.136 424.003 29.7867 424.28 30.352C424.568 30.9067 424.963 31.3387 425.464 31.648C425.976 31.9467 426.557 32.096 427.208 32.096C427.816 32.096 428.349 31.9627 428.808 31.696C429.277 31.4187 429.64 31.0133 429.896 30.48H432.472C432.099 31.6213 431.443 32.512 430.504 33.152C429.576 33.7813 428.483 34.096 427.224 34.096C426.157 34.096 425.192 33.856 424.328 33.376C423.475 32.8853 422.797 32.208 422.296 31.344C421.805 30.48 421.56 29.4987 421.56 28.4ZM436.625 22.16V34H434.385V22.16H436.625ZM442.774 34.144C441.921 34.144 441.153 33.9573 440.47 33.584C439.788 33.2 439.249 32.6613 438.854 31.968C438.47 31.2747 438.278 30.4747 438.278 29.568C438.278 28.6613 438.476 27.8613 438.87 27.168C439.276 26.4747 439.825 25.9413 440.518 25.568C441.212 25.184 441.985 24.992 442.838 24.992C443.692 24.992 444.465 25.184 445.158 25.568C445.852 25.9413 446.396 26.4747 446.79 27.168C447.196 27.8613 447.398 28.6613 447.398 29.568C447.398 30.4747 447.19 31.2747 446.774 31.968C446.369 32.6613 445.814 33.2 445.11 33.584C444.417 33.9573 443.638 34.144 442.774 34.144ZM442.774 32.192C443.18 32.192 443.558 32.096 443.91 31.904C444.273 31.7013 444.561 31.4027 444.774 31.008C444.988 30.6133 445.094 30.1333 445.094 29.568C445.094 28.7253 444.87 28.08 444.422 27.632C443.985 27.1733 443.446 26.944 442.806 26.944C442.166 26.944 441.628 27.1733 441.19 27.632C440.764 28.08 440.55 28.7253 440.55 29.568C440.55 30.4107 440.758 31.0613 441.174 31.52C441.601 31.968 442.134 32.192 442.774 32.192ZM457.41 25.136V34H455.154V32.88C454.866 33.264 454.487 33.568 454.018 33.792C453.559 34.0053 453.058 34.112 452.514 34.112C451.82 34.112 451.207 33.968 450.674 33.68C450.14 33.3813 449.719 32.9493 449.41 32.384C449.111 31.808 448.962 31.1253 448.962 30.336V25.136H451.202V30.016C451.202 30.72 451.378 31.264 451.73 31.648C452.082 32.0213 452.562 32.208 453.17 32.208C453.788 32.208 454.274 32.0213 454.626 31.648C454.978 31.264 455.154 30.72 455.154 30.016V25.136H457.41ZM459.044 29.536C459.044 28.64 459.22 27.8453 459.572 27.152C459.934 26.4587 460.425 25.9253 461.044 25.552C461.662 25.1787 462.35 24.992 463.108 24.992C463.684 24.992 464.233 25.12 464.756 25.376C465.278 25.6213 465.694 25.952 466.004 26.368V22.16H468.276V34H466.004V32.688C465.726 33.1253 465.337 33.4773 464.836 33.744C464.334 34.0107 463.753 34.144 463.092 34.144C462.345 34.144 461.662 33.952 461.044 33.568C460.425 33.184 459.934 32.6453 459.572 31.952C459.22 31.248 459.044 30.4427 459.044 29.536ZM466.02 29.568C466.02 29.024 465.913 28.56 465.7 28.176C465.486 27.7813 465.198 27.4827 464.836 27.28C464.473 27.0667 464.084 26.96 463.668 26.96C463.252 26.96 462.868 27.0613 462.516 27.264C462.164 27.4667 461.876 27.7653 461.652 28.16C461.438 28.544 461.332 29.0027 461.332 29.536C461.332 30.0693 461.438 30.5387 461.652 30.944C461.876 31.3387 462.164 31.6427 462.516 31.856C462.878 32.0693 463.262 32.176 463.668 32.176C464.084 32.176 464.473 32.0747 464.836 31.872C465.198 31.6587 465.486 31.36 465.7 30.976C465.913 30.5813 466.02 30.112 466.02 29.568ZM475.412 24.08C475.017 24.08 474.687 23.9573 474.42 23.712C474.164 23.456 474.036 23.1413 474.036 22.768C474.036 22.3947 474.164 22.0853 474.42 21.84C474.687 21.584 475.017 21.456 475.412 21.456C475.807 21.456 476.132 21.584 476.388 21.84C476.655 22.0853 476.788 22.3947 476.788 22.768C476.788 23.1413 476.655 23.456 476.388 23.712C476.132 23.9573 475.807 24.08 475.412 24.08ZM476.516 25.136V34H474.276V25.136H476.516ZM483.641 25.008C484.697 25.008 485.55 25.344 486.201 26.016C486.852 26.6773 487.177 27.6053 487.177 28.8V34H484.937V29.104C484.937 28.4 484.761 27.8613 484.409 27.488C484.057 27.104 483.577 26.912 482.969 26.912C482.35 26.912 481.86 27.104 481.497 27.488C481.145 27.8613 480.969 28.4 480.969 29.104V34H478.729V25.136H480.969V26.24C481.268 25.856 481.646 25.5573 482.105 25.344C482.574 25.12 483.086 25.008 483.641 25.008ZM491.915 26.976V31.264C491.915 31.5627 491.984 31.7813 492.123 31.92C492.272 32.048 492.518 32.112 492.859 32.112H493.899V34H492.491C490.603 34 489.659 33.0827 489.659 31.248V26.976H488.603V25.136H489.659V22.944H491.915V25.136H493.899V26.976H491.915ZM503.75 29.376C503.75 29.696 503.729 29.984 503.686 30.24H497.206C497.26 30.88 497.484 31.3813 497.878 31.744C498.273 32.1067 498.758 32.288 499.334 32.288C500.166 32.288 500.758 31.9307 501.11 31.216H503.526C503.27 32.0693 502.78 32.7733 502.054 33.328C501.329 33.872 500.438 34.144 499.382 34.144C498.529 34.144 497.761 33.9573 497.078 33.584C496.406 33.2 495.878 32.6613 495.494 31.968C495.121 31.2747 494.934 30.4747 494.934 29.568C494.934 28.6507 495.121 27.8453 495.494 27.152C495.868 26.4587 496.39 25.9253 497.062 25.552C497.734 25.1787 498.508 24.992 499.382 24.992C500.225 24.992 500.977 25.1733 501.638 25.536C502.31 25.8987 502.828 26.416 503.19 27.088C503.564 27.7493 503.75 28.512 503.75 29.376ZM501.43 28.736C501.42 28.16 501.212 27.7013 500.806 27.36C500.401 27.008 499.905 26.832 499.318 26.832C498.764 26.832 498.294 27.0027 497.91 27.344C497.537 27.6747 497.308 28.1387 497.222 28.736H501.43ZM508.857 24.992C509.519 24.992 510.1 25.1253 510.601 25.392C511.103 25.648 511.497 25.984 511.785 26.4V25.136H514.041V34.064C514.041 34.8853 513.876 35.616 513.545 36.256C513.215 36.9067 512.719 37.4187 512.057 37.792C511.396 38.176 510.596 38.368 509.657 38.368C508.399 38.368 507.364 38.0747 506.553 37.488C505.753 36.9013 505.3 36.1013 505.193 35.088H507.417C507.535 35.4933 507.785 35.8133 508.169 36.048C508.564 36.2933 509.039 36.416 509.593 36.416C510.244 36.416 510.772 36.2187 511.177 35.824C511.583 35.44 511.785 34.8533 511.785 34.064V32.688C511.497 33.104 511.097 33.4507 510.585 33.728C510.084 34.0053 509.508 34.144 508.857 34.144C508.111 34.144 507.428 33.952 506.809 33.568C506.191 33.184 505.7 32.6453 505.337 31.952C504.985 31.248 504.809 30.4427 504.809 29.536C504.809 28.64 504.985 27.8453 505.337 27.152C505.7 26.4587 506.185 25.9253 506.793 25.552C507.412 25.1787 508.1 24.992 508.857 24.992ZM511.785 29.568C511.785 29.024 511.679 28.56 511.465 28.176C511.252 27.7813 510.964 27.4827 510.601 27.28C510.239 27.0667 509.849 26.96 509.433 26.96C509.017 26.96 508.633 27.0613 508.281 27.264C507.929 27.4667 507.641 27.7653 507.417 28.16C507.204 28.544 507.097 29.0027 507.097 29.536C507.097 30.0693 507.204 30.5387 507.417 30.944C507.641 31.3387 507.929 31.6427 508.281 31.856C508.644 32.0693 509.028 32.176 509.433 32.176C509.849 32.176 510.239 32.0747 510.601 31.872C510.964 31.6587 511.252 31.36 511.465 30.976C511.679 30.5813 511.785 30.112 511.785 29.568ZM518.469 26.512C518.757 26.0427 519.13 25.6747 519.589 25.408C520.058 25.1413 520.592 25.008 521.189 25.008V27.36H520.597C519.893 27.36 519.36 27.5253 518.997 27.856C518.645 28.1867 518.469 28.7627 518.469 29.584V34H516.229V25.136H518.469V26.512ZM522.122 29.536C522.122 28.64 522.298 27.8453 522.65 27.152C523.012 26.4587 523.498 25.9253 524.106 25.552C524.724 25.1787 525.412 24.992 526.17 24.992C526.831 24.992 527.407 25.1253 527.898 25.392C528.399 25.6587 528.799 25.9947 529.098 26.4V25.136H531.354V34H529.098V32.704C528.81 33.12 528.41 33.4667 527.898 33.744C527.396 34.0107 526.815 34.144 526.154 34.144C525.407 34.144 524.724 33.952 524.106 33.568C523.498 33.184 523.012 32.6453 522.65 31.952C522.298 31.248 522.122 30.4427 522.122 29.536ZM529.098 29.568C529.098 29.024 528.991 28.56 528.778 28.176C528.564 27.7813 528.276 27.4827 527.914 27.28C527.551 27.0667 527.162 26.96 526.746 26.96C526.33 26.96 525.946 27.0613 525.594 27.264C525.242 27.4667 524.954 27.7653 524.73 28.16C524.516 28.544 524.41 29.0027 524.41 29.536C524.41 30.0693 524.516 30.5387 524.73 30.944C524.954 31.3387 525.242 31.6427 525.594 31.856C525.956 32.0693 526.34 32.176 526.746 32.176C527.162 32.176 527.551 32.0747 527.914 31.872C528.276 31.6587 528.564 31.36 528.778 30.976C528.991 30.5813 529.098 30.112 529.098 29.568ZM536.15 26.976V31.264C536.15 31.5627 536.219 31.7813 536.358 31.92C536.507 32.048 536.752 32.112 537.094 32.112H538.134V34H536.726C534.838 34 533.894 33.0827 533.894 31.248V26.976H532.838V25.136H533.894V22.944H536.15V25.136H538.134V26.976H536.15ZM540.881 24.08C540.486 24.08 540.155 23.9573 539.889 23.712C539.633 23.456 539.505 23.1413 539.505 22.768C539.505 22.3947 539.633 22.0853 539.889 21.84C540.155 21.584 540.486 21.456 540.881 21.456C541.275 21.456 541.601 21.584 541.857 21.84C542.123 22.0853 542.257 22.3947 542.257 22.768C542.257 23.1413 542.123 23.456 541.857 23.712C541.601 23.9573 541.275 24.08 540.881 24.08ZM541.985 25.136V34H539.745V25.136H541.985ZM548.134 34.144C547.28 34.144 546.512 33.9573 545.83 33.584C545.147 33.2 544.608 32.6613 544.214 31.968C543.83 31.2747 543.638 30.4747 543.638 29.568C543.638 28.6613 543.835 27.8613 544.23 27.168C544.635 26.4747 545.184 25.9413 545.878 25.568C546.571 25.184 547.344 24.992 548.198 24.992C549.051 24.992 549.824 25.184 550.518 25.568C551.211 25.9413 551.755 26.4747 552.15 27.168C552.555 27.8613 552.758 28.6613 552.758 29.568C552.758 30.4747 552.55 31.2747 552.134 31.968C551.728 32.6613 551.174 33.2 550.47 33.584C549.776 33.9573 548.998 34.144 548.134 34.144ZM548.134 32.192C548.539 32.192 548.918 32.096 549.27 31.904C549.632 31.7013 549.92 31.4027 550.134 31.008C550.347 30.6133 550.454 30.1333 550.454 29.568C550.454 28.7253 550.23 28.08 549.782 27.632C549.344 27.1733 548.806 26.944 548.166 26.944C547.526 26.944 546.987 27.1733 546.55 27.632C546.123 28.08 545.91 28.7253 545.91 29.568C545.91 30.4107 546.118 31.0613 546.534 31.52C546.96 31.968 547.494 32.192 548.134 32.192ZM559.313 25.008C560.369 25.008 561.222 25.344 561.873 26.016C562.524 26.6773 562.849 27.6053 562.849 28.8V34H560.609V29.104C560.609 28.4 560.433 27.8613 560.081 27.488C559.729 27.104 559.249 26.912 558.641 26.912C558.022 26.912 557.532 27.104 557.169 27.488C556.817 27.8613 556.641 28.4 556.641 29.104V34H554.401V25.136H556.641V26.24C556.94 25.856 557.318 25.5573 557.777 25.344C558.246 25.12 558.758 25.008 559.313 25.008Z" fill="white"/>
</svg>
