<svg width="588" height="588" viewBox="0 0 588 588" fill="none" xmlns="http://www.w3.org/2000/svg">
<rect x="228" y="1" width="132" height="132" rx="63" fill="#5846D3"/>
<path d="M262.713 56.8C262.713 55.976 262.897 55.24 263.265 54.592C263.641 53.936 264.149 53.428 264.789 53.068C265.437 52.7 266.161 52.516 266.961 52.516C267.897 52.516 268.717 52.756 269.421 53.236C270.125 53.716 270.617 54.38 270.897 55.228H268.965C268.773 54.828 268.501 54.528 268.149 54.328C267.805 54.128 267.405 54.028 266.949 54.028C266.461 54.028 266.025 54.144 265.641 54.376C265.265 54.6 264.969 54.92 264.753 55.336C264.545 55.752 264.441 56.24 264.441 56.8C264.441 57.352 264.545 57.84 264.753 58.264C264.969 58.68 265.265 59.004 265.641 59.236C266.025 59.46 266.461 59.572 266.949 59.572C267.405 59.572 267.805 59.472 268.149 59.272C268.501 59.064 268.773 58.76 268.965 58.36H270.897C270.617 59.216 270.125 59.884 269.421 60.364C268.725 60.836 267.905 61.072 266.961 61.072C266.161 61.072 265.437 60.892 264.789 60.532C264.149 60.164 263.641 59.656 263.265 59.008C262.897 58.36 262.713 57.624 262.713 56.8ZM275.284 61.108C274.644 61.108 274.068 60.968 273.556 60.688C273.044 60.4 272.64 59.996 272.344 59.476C272.056 58.956 271.912 58.356 271.912 57.676C271.912 56.996 272.06 56.396 272.356 55.876C272.66 55.356 273.072 54.956 273.592 54.676C274.112 54.388 274.692 54.244 275.332 54.244C275.972 54.244 276.552 54.388 277.072 54.676C277.592 54.956 278 55.356 278.296 55.876C278.6 56.396 278.752 56.996 278.752 57.676C278.752 58.356 278.596 58.956 278.284 59.476C277.98 59.996 277.564 60.4 277.036 60.688C276.516 60.968 275.932 61.108 275.284 61.108ZM275.284 59.644C275.588 59.644 275.872 59.572 276.136 59.428C276.408 59.276 276.624 59.052 276.784 58.756C276.944 58.46 277.024 58.1 277.024 57.676C277.024 57.044 276.856 56.56 276.52 56.224C276.192 55.88 275.788 55.708 275.308 55.708C274.828 55.708 274.424 55.88 274.096 56.224C273.776 56.56 273.616 57.044 273.616 57.676C273.616 58.308 273.772 58.796 274.084 59.14C274.404 59.476 274.804 59.644 275.284 59.644ZM288.24 54.256C289.056 54.256 289.712 54.508 290.208 55.012C290.712 55.508 290.964 56.204 290.964 57.1V61H289.284V57.328C289.284 56.808 289.152 56.412 288.888 56.14C288.624 55.86 288.264 55.72 287.808 55.72C287.352 55.72 286.988 55.86 286.716 56.14C286.452 56.412 286.32 56.808 286.32 57.328V61H284.64V57.328C284.64 56.808 284.508 56.412 284.244 56.14C283.98 55.86 283.62 55.72 283.164 55.72C282.7 55.72 282.332 55.86 282.06 56.14C281.796 56.412 281.664 56.808 281.664 57.328V61H279.984V54.352H281.664V55.156C281.88 54.876 282.156 54.656 282.492 54.496C282.836 54.336 283.212 54.256 283.62 54.256C284.14 54.256 284.604 54.368 285.012 54.592C285.42 54.808 285.736 55.12 285.96 55.528C286.176 55.144 286.488 54.836 286.896 54.604C287.312 54.372 287.76 54.256 288.24 54.256ZM294.238 55.312C294.454 55.008 294.75 54.756 295.126 54.556C295.51 54.348 295.946 54.244 296.434 54.244C297.002 54.244 297.514 54.384 297.97 54.664C298.434 54.944 298.798 55.344 299.062 55.864C299.334 56.376 299.47 56.972 299.47 57.652C299.47 58.332 299.334 58.936 299.062 59.464C298.798 59.984 298.434 60.388 297.97 60.676C297.514 60.964 297.002 61.108 296.434 61.108C295.946 61.108 295.514 61.008 295.138 60.808C294.77 60.608 294.47 60.356 294.238 60.052V64.168H292.558V54.352H294.238V55.312ZM297.754 57.652C297.754 57.252 297.67 56.908 297.502 56.62C297.342 56.324 297.126 56.1 296.854 55.948C296.59 55.796 296.302 55.72 295.99 55.72C295.686 55.72 295.398 55.8 295.126 55.96C294.862 56.112 294.646 56.336 294.478 56.632C294.318 56.928 294.238 57.276 294.238 57.676C294.238 58.076 294.318 58.424 294.478 58.72C294.646 59.016 294.862 59.244 295.126 59.404C295.398 59.556 295.686 59.632 295.99 59.632C296.302 59.632 296.59 59.552 296.854 59.392C297.126 59.232 297.342 59.004 297.502 58.708C297.67 58.412 297.754 58.06 297.754 57.652ZM306.967 54.352V61H305.275V60.16C305.059 60.448 304.775 60.676 304.423 60.844C304.079 61.004 303.703 61.084 303.295 61.084C302.775 61.084 302.315 60.976 301.915 60.76C301.515 60.536 301.199 60.212 300.967 59.788C300.743 59.356 300.631 58.844 300.631 58.252V54.352H302.311V58.012C302.311 58.54 302.443 58.948 302.707 59.236C302.971 59.516 303.331 59.656 303.787 59.656C304.251 59.656 304.615 59.516 304.879 59.236C305.143 58.948 305.275 58.54 305.275 58.012V54.352H306.967ZM310.581 55.732V58.948C310.581 59.172 310.633 59.336 310.737 59.44C310.849 59.536 311.033 59.584 311.289 59.584H312.069V61H311.013C309.597 61 308.889 60.312 308.889 58.936V55.732H308.097V54.352H308.889V52.708H310.581V54.352H312.069V55.732H310.581ZM319.457 57.532C319.457 57.772 319.441 57.988 319.409 58.18H314.549C314.589 58.66 314.757 59.036 315.053 59.308C315.349 59.58 315.713 59.716 316.145 59.716C316.769 59.716 317.213 59.448 317.477 58.912H319.289C319.097 59.552 318.729 60.08 318.185 60.496C317.641 60.904 316.973 61.108 316.181 61.108C315.541 61.108 314.965 60.968 314.453 60.688C313.949 60.4 313.553 59.996 313.265 59.476C312.985 58.956 312.845 58.356 312.845 57.676C312.845 56.988 312.985 56.384 313.265 55.864C313.545 55.344 313.937 54.944 314.441 54.664C314.945 54.384 315.525 54.244 316.181 54.244C316.813 54.244 317.377 54.38 317.873 54.652C318.377 54.924 318.765 55.312 319.037 55.816C319.317 56.312 319.457 56.884 319.457 57.532ZM317.717 57.052C317.709 56.62 317.553 56.276 317.249 56.02C316.945 55.756 316.573 55.624 316.133 55.624C315.717 55.624 315.365 55.752 315.077 56.008C314.797 56.256 314.625 56.604 314.561 57.052H317.717ZM322.363 55.384C322.579 55.032 322.859 54.756 323.203 54.556C323.555 54.356 323.955 54.256 324.403 54.256V56.02H323.959C323.431 56.02 323.031 56.144 322.759 56.392C322.495 56.64 322.363 57.072 322.363 57.688V61H320.683V54.352H322.363V55.384ZM279.106 79.452L280.786 74.352H282.574L280.114 81H278.074L275.626 74.352H277.426L279.106 79.452ZM284.369 73.56C284.073 73.56 283.825 73.468 283.625 73.284C283.433 73.092 283.337 72.856 283.337 72.576C283.337 72.296 283.433 72.064 283.625 71.88C283.825 71.688 284.073 71.592 284.369 71.592C284.665 71.592 284.909 71.688 285.101 71.88C285.301 72.064 285.401 72.296 285.401 72.576C285.401 72.856 285.301 73.092 285.101 73.284C284.909 73.468 284.665 73.56 284.369 73.56ZM285.197 74.352V81H283.517V74.352H285.197ZM289.401 81.108C288.857 81.108 288.369 81.012 287.937 80.82C287.505 80.62 287.161 80.352 286.905 80.016C286.657 79.68 286.521 79.308 286.497 78.9H288.189C288.221 79.156 288.345 79.368 288.561 79.536C288.785 79.704 289.061 79.788 289.389 79.788C289.709 79.788 289.957 79.724 290.133 79.596C290.317 79.468 290.409 79.304 290.409 79.104C290.409 78.888 290.297 78.728 290.073 78.624C289.857 78.512 289.509 78.392 289.029 78.264C288.533 78.144 288.125 78.02 287.805 77.892C287.493 77.764 287.221 77.568 286.989 77.304C286.765 77.04 286.653 76.684 286.653 76.236C286.653 75.868 286.757 75.532 286.965 75.228C287.181 74.924 287.485 74.684 287.877 74.508C288.277 74.332 288.745 74.244 289.281 74.244C290.073 74.244 290.705 74.444 291.177 74.844C291.649 75.236 291.909 75.768 291.957 76.44H290.349C290.325 76.176 290.213 75.968 290.013 75.816C289.821 75.656 289.561 75.576 289.233 75.576C288.929 75.576 288.693 75.632 288.525 75.744C288.365 75.856 288.285 76.012 288.285 76.212C288.285 76.436 288.397 76.608 288.621 76.728C288.845 76.84 289.193 76.956 289.665 77.076C290.145 77.196 290.541 77.32 290.853 77.448C291.165 77.576 291.433 77.776 291.657 78.048C291.889 78.312 292.009 78.664 292.017 79.104C292.017 79.488 291.909 79.832 291.693 80.136C291.485 80.44 291.181 80.68 290.781 80.856C290.389 81.024 289.929 81.108 289.401 81.108ZM294.248 73.56C293.952 73.56 293.704 73.468 293.504 73.284C293.312 73.092 293.216 72.856 293.216 72.576C293.216 72.296 293.312 72.064 293.504 71.88C293.704 71.688 293.952 71.592 294.248 71.592C294.544 71.592 294.788 71.688 294.98 71.88C295.18 72.064 295.28 72.296 295.28 72.576C295.28 72.856 295.18 73.092 294.98 73.284C294.788 73.468 294.544 73.56 294.248 73.56ZM295.076 74.352V81H293.396V74.352H295.076ZM299.688 81.108C299.048 81.108 298.472 80.968 297.96 80.688C297.448 80.4 297.044 79.996 296.748 79.476C296.46 78.956 296.316 78.356 296.316 77.676C296.316 76.996 296.464 76.396 296.76 75.876C297.064 75.356 297.476 74.956 297.996 74.676C298.516 74.388 299.096 74.244 299.736 74.244C300.376 74.244 300.956 74.388 301.476 74.676C301.996 74.956 302.404 75.356 302.7 75.876C303.004 76.396 303.156 76.996 303.156 77.676C303.156 78.356 303 78.956 302.688 79.476C302.384 79.996 301.968 80.4 301.44 80.688C300.92 80.968 300.336 81.108 299.688 81.108ZM299.688 79.644C299.992 79.644 300.276 79.572 300.54 79.428C300.812 79.276 301.028 79.052 301.188 78.756C301.348 78.46 301.428 78.1 301.428 77.676C301.428 77.044 301.26 76.56 300.924 76.224C300.596 75.88 300.192 75.708 299.712 75.708C299.232 75.708 298.828 75.88 298.5 76.224C298.18 76.56 298.02 77.044 298.02 77.676C298.02 78.308 298.176 78.796 298.488 79.14C298.808 79.476 299.208 79.644 299.688 79.644ZM308.073 74.256C308.865 74.256 309.505 74.508 309.993 75.012C310.481 75.508 310.725 76.204 310.725 77.1V81H309.045V77.328C309.045 76.8 308.913 76.396 308.649 76.116C308.385 75.828 308.025 75.684 307.569 75.684C307.105 75.684 306.737 75.828 306.465 76.116C306.201 76.396 306.069 76.8 306.069 77.328V81H304.389V74.352H306.069V75.18C306.293 74.892 306.577 74.668 306.921 74.508C307.273 74.34 307.657 74.256 308.073 74.256Z" fill="white"/>
<rect x="228" y="1" width="132" height="132" rx="63" stroke="white" stroke-width="2" stroke-linecap="round" stroke-dasharray="8 8"/>
<rect x="228" y="455" width="132" height="132" rx="63" fill="#5846D3"/>
<path d="M257.863 517.98V520.08H260.683V521.412H257.863V523.632H261.043V525H256.183V516.612H261.043V517.98H257.863ZM266.254 518.256C267.046 518.256 267.686 518.508 268.174 519.012C268.662 519.508 268.906 520.204 268.906 521.1V525H267.226V521.328C267.226 520.8 267.094 520.396 266.83 520.116C266.566 519.828 266.206 519.684 265.75 519.684C265.286 519.684 264.918 519.828 264.646 520.116C264.382 520.396 264.25 520.8 264.25 521.328V525H262.57V518.352H264.25V519.18C264.474 518.892 264.758 518.668 265.102 518.508C265.454 518.34 265.838 518.256 266.254 518.256ZM272.46 519.732V522.948C272.46 523.172 272.512 523.336 272.616 523.44C272.728 523.536 272.912 523.584 273.168 523.584H273.948V525H272.892C271.476 525 270.768 524.312 270.768 522.936V519.732H269.976V518.352H270.768V516.708H272.46V518.352H273.948V519.732H272.46ZM281.336 521.532C281.336 521.772 281.32 521.988 281.288 522.18H276.428C276.468 522.66 276.636 523.036 276.932 523.308C277.228 523.58 277.592 523.716 278.024 523.716C278.648 523.716 279.092 523.448 279.356 522.912H281.168C280.976 523.552 280.608 524.08 280.064 524.496C279.52 524.904 278.852 525.108 278.06 525.108C277.42 525.108 276.844 524.968 276.332 524.688C275.828 524.4 275.432 523.996 275.144 523.476C274.864 522.956 274.724 522.356 274.724 521.676C274.724 520.988 274.864 520.384 275.144 519.864C275.424 519.344 275.816 518.944 276.32 518.664C276.824 518.384 277.404 518.244 278.06 518.244C278.692 518.244 279.256 518.38 279.752 518.652C280.256 518.924 280.644 519.312 280.916 519.816C281.196 520.312 281.336 520.884 281.336 521.532ZM279.596 521.052C279.588 520.62 279.432 520.276 279.128 520.02C278.824 519.756 278.452 519.624 278.012 519.624C277.596 519.624 277.244 519.752 276.956 520.008C276.676 520.256 276.504 520.604 276.44 521.052H279.596ZM284.242 519.384C284.458 519.032 284.738 518.756 285.082 518.556C285.434 518.356 285.834 518.256 286.282 518.256V520.02H285.838C285.31 520.02 284.91 520.144 284.638 520.392C284.374 520.64 284.242 521.072 284.242 521.688V525H282.562V518.352H284.242V519.384ZM289.094 519.312C289.31 519.008 289.606 518.756 289.982 518.556C290.366 518.348 290.802 518.244 291.29 518.244C291.858 518.244 292.37 518.384 292.826 518.664C293.29 518.944 293.654 519.344 293.918 519.864C294.19 520.376 294.326 520.972 294.326 521.652C294.326 522.332 294.19 522.936 293.918 523.464C293.654 523.984 293.29 524.388 292.826 524.676C292.37 524.964 291.858 525.108 291.29 525.108C290.802 525.108 290.37 525.008 289.994 524.808C289.626 524.608 289.326 524.356 289.094 524.052V528.168H287.414V518.352H289.094V519.312ZM292.61 521.652C292.61 521.252 292.526 520.908 292.358 520.62C292.198 520.324 291.982 520.1 291.71 519.948C291.446 519.796 291.158 519.72 290.846 519.72C290.542 519.72 290.254 519.8 289.982 519.96C289.718 520.112 289.502 520.336 289.334 520.632C289.174 520.928 289.094 521.276 289.094 521.676C289.094 522.076 289.174 522.424 289.334 522.72C289.502 523.016 289.718 523.244 289.982 523.404C290.254 523.556 290.542 523.632 290.846 523.632C291.158 523.632 291.446 523.552 291.71 523.392C291.982 523.232 292.198 523.004 292.358 522.708C292.526 522.412 292.61 522.06 292.61 521.652ZM297.227 519.384C297.443 519.032 297.723 518.756 298.067 518.556C298.419 518.356 298.819 518.256 299.267 518.256V520.02H298.823C298.295 520.02 297.895 520.144 297.623 520.392C297.359 520.64 297.227 521.072 297.227 521.688V525H295.547V518.352H297.227V519.384ZM301.25 517.56C300.954 517.56 300.706 517.468 300.506 517.284C300.314 517.092 300.218 516.856 300.218 516.576C300.218 516.296 300.314 516.064 300.506 515.88C300.706 515.688 300.954 515.592 301.25 515.592C301.546 515.592 301.79 515.688 301.982 515.88C302.182 516.064 302.282 516.296 302.282 516.576C302.282 516.856 302.182 517.092 301.982 517.284C301.79 517.468 301.546 517.56 301.25 517.56ZM302.078 518.352V525H300.398V518.352H302.078ZM306.282 525.108C305.738 525.108 305.25 525.012 304.818 524.82C304.386 524.62 304.042 524.352 303.786 524.016C303.538 523.68 303.402 523.308 303.378 522.9H305.07C305.102 523.156 305.226 523.368 305.442 523.536C305.666 523.704 305.942 523.788 306.27 523.788C306.59 523.788 306.838 523.724 307.014 523.596C307.198 523.468 307.29 523.304 307.29 523.104C307.29 522.888 307.178 522.728 306.954 522.624C306.738 522.512 306.39 522.392 305.91 522.264C305.414 522.144 305.006 522.02 304.686 521.892C304.374 521.764 304.102 521.568 303.87 521.304C303.646 521.04 303.534 520.684 303.534 520.236C303.534 519.868 303.638 519.532 303.846 519.228C304.062 518.924 304.366 518.684 304.758 518.508C305.158 518.332 305.626 518.244 306.162 518.244C306.954 518.244 307.586 518.444 308.058 518.844C308.53 519.236 308.79 519.768 308.838 520.44H307.23C307.206 520.176 307.094 519.968 306.894 519.816C306.702 519.656 306.442 519.576 306.114 519.576C305.81 519.576 305.574 519.632 305.406 519.744C305.246 519.856 305.166 520.012 305.166 520.212C305.166 520.436 305.278 520.608 305.502 520.728C305.726 520.84 306.074 520.956 306.546 521.076C307.026 521.196 307.422 521.32 307.734 521.448C308.046 521.576 308.314 521.776 308.538 522.048C308.77 522.312 308.89 522.664 308.898 523.104C308.898 523.488 308.79 523.832 308.574 524.136C308.366 524.44 308.062 524.68 307.662 524.856C307.27 525.024 306.81 525.108 306.282 525.108ZM316.457 521.532C316.457 521.772 316.441 521.988 316.409 522.18H311.549C311.589 522.66 311.757 523.036 312.053 523.308C312.349 523.58 312.713 523.716 313.145 523.716C313.769 523.716 314.213 523.448 314.477 522.912H316.289C316.097 523.552 315.729 524.08 315.185 524.496C314.641 524.904 313.973 525.108 313.181 525.108C312.541 525.108 311.965 524.968 311.453 524.688C310.949 524.4 310.553 523.996 310.265 523.476C309.985 522.956 309.845 522.356 309.845 521.676C309.845 520.988 309.985 520.384 310.265 519.864C310.545 519.344 310.937 518.944 311.441 518.664C311.945 518.384 312.525 518.244 313.181 518.244C313.813 518.244 314.377 518.38 314.873 518.652C315.377 518.924 315.765 519.312 316.037 519.816C316.317 520.312 316.457 520.884 316.457 521.532ZM314.717 521.052C314.709 520.62 314.553 520.276 314.249 520.02C313.945 519.756 313.573 519.624 313.133 519.624C312.717 519.624 312.365 519.752 312.077 520.008C311.797 520.256 311.625 520.604 311.561 521.052H314.717ZM325.679 523.404H322.343L321.791 525H320.027L323.039 516.612H324.995L328.007 525H326.231L325.679 523.404ZM325.223 522.06L324.011 518.556L322.799 522.06H325.223ZM330.813 516.624V525H329.133V516.624H330.813Z" fill="white"/>
<rect x="228" y="455" width="132" height="132" rx="63" stroke="white" stroke-width="2" stroke-linecap="round" stroke-dasharray="8 8"/>
<rect x="70" y="70" width="132" height="132" rx="63" fill="#5846D3"/>
<path d="M109.934 125.704C110.406 125.792 110.794 126.028 111.098 126.412C111.402 126.796 111.554 127.236 111.554 127.732C111.554 128.18 111.442 128.576 111.218 128.92C111.002 129.256 110.686 129.52 110.27 129.712C109.854 129.904 109.362 130 108.794 130H105.182V121.624H108.638C109.206 121.624 109.694 121.716 110.102 121.9C110.518 122.084 110.83 122.34 111.038 122.668C111.254 122.996 111.362 123.368 111.362 123.784C111.362 124.272 111.23 124.68 110.966 125.008C110.71 125.336 110.366 125.568 109.934 125.704ZM106.862 125.08H108.398C108.798 125.08 109.106 124.992 109.322 124.816C109.538 124.632 109.646 124.372 109.646 124.036C109.646 123.7 109.538 123.44 109.322 123.256C109.106 123.072 108.798 122.98 108.398 122.98H106.862V125.08ZM108.554 128.632C108.962 128.632 109.278 128.536 109.502 128.344C109.734 128.152 109.85 127.88 109.85 127.528C109.85 127.168 109.73 126.888 109.49 126.688C109.25 126.48 108.926 126.376 108.518 126.376H106.862V128.632H108.554ZM113.744 122.56C113.448 122.56 113.2 122.468 113 122.284C112.808 122.092 112.712 121.856 112.712 121.576C112.712 121.296 112.808 121.064 113 120.88C113.2 120.688 113.448 120.592 113.744 120.592C114.04 120.592 114.284 120.688 114.476 120.88C114.676 121.064 114.776 121.296 114.776 121.576C114.776 121.856 114.676 122.092 114.476 122.284C114.284 122.468 114.04 122.56 113.744 122.56ZM114.572 123.352V130H112.892V123.352H114.572ZM118.836 123.244C119.332 123.244 119.768 123.344 120.144 123.544C120.52 123.736 120.816 123.988 121.032 124.3V123.352H122.724V130.048C122.724 130.664 122.6 131.212 122.352 131.692C122.104 132.18 121.732 132.564 121.236 132.844C120.74 133.132 120.14 133.276 119.436 133.276C118.492 133.276 117.716 133.056 117.108 132.616C116.508 132.176 116.168 131.576 116.088 130.816H117.756C117.844 131.12 118.032 131.36 118.32 131.536C118.616 131.72 118.972 131.812 119.388 131.812C119.876 131.812 120.272 131.664 120.576 131.368C120.88 131.08 121.032 130.64 121.032 130.048V129.016C120.816 129.328 120.516 129.588 120.132 129.796C119.756 130.004 119.324 130.108 118.836 130.108C118.276 130.108 117.764 129.964 117.3 129.676C116.836 129.388 116.468 128.984 116.196 128.464C115.932 127.936 115.8 127.332 115.8 126.652C115.8 125.98 115.932 125.384 116.196 124.864C116.468 124.344 116.832 123.944 117.288 123.664C117.752 123.384 118.268 123.244 118.836 123.244ZM121.032 126.676C121.032 126.268 120.952 125.92 120.792 125.632C120.632 125.336 120.416 125.112 120.144 124.96C119.872 124.8 119.58 124.72 119.268 124.72C118.956 124.72 118.668 124.796 118.404 124.948C118.14 125.1 117.924 125.324 117.756 125.62C117.596 125.908 117.516 126.252 117.516 126.652C117.516 127.052 117.596 127.404 117.756 127.708C117.924 128.004 118.14 128.232 118.404 128.392C118.676 128.552 118.964 128.632 119.268 128.632C119.58 128.632 119.872 128.556 120.144 128.404C120.416 128.244 120.632 128.02 120.792 127.732C120.952 127.436 121.032 127.084 121.032 126.676ZM126.792 126.652C126.792 125.98 126.924 125.384 127.188 124.864C127.46 124.344 127.828 123.944 128.292 123.664C128.756 123.384 129.272 123.244 129.84 123.244C130.272 123.244 130.684 123.34 131.076 123.532C131.468 123.716 131.78 123.964 132.012 124.276V121.12H133.716V130H132.012V129.016C131.804 129.344 131.512 129.608 131.136 129.808C130.76 130.008 130.324 130.108 129.828 130.108C129.268 130.108 128.756 129.964 128.292 129.676C127.828 129.388 127.46 128.984 127.188 128.464C126.924 127.936 126.792 127.332 126.792 126.652ZM132.024 126.676C132.024 126.268 131.944 125.92 131.784 125.632C131.624 125.336 131.408 125.112 131.136 124.96C130.864 124.8 130.572 124.72 130.26 124.72C129.948 124.72 129.66 124.796 129.396 124.948C129.132 125.1 128.916 125.324 128.748 125.62C128.588 125.908 128.508 126.252 128.508 126.652C128.508 127.052 128.588 127.404 128.748 127.708C128.916 128.004 129.132 128.232 129.396 128.392C129.668 128.552 129.956 128.632 130.26 128.632C130.572 128.632 130.864 128.556 131.136 128.404C131.408 128.244 131.624 128.02 131.784 127.732C131.944 127.436 132.024 127.084 132.024 126.676ZM134.925 126.652C134.925 125.98 135.057 125.384 135.321 124.864C135.593 124.344 135.957 123.944 136.413 123.664C136.877 123.384 137.393 123.244 137.961 123.244C138.457 123.244 138.889 123.344 139.257 123.544C139.633 123.744 139.933 123.996 140.157 124.3V123.352H141.849V130H140.157V129.028C139.941 129.34 139.641 129.6 139.257 129.808C138.881 130.008 138.445 130.108 137.949 130.108C137.389 130.108 136.877 129.964 136.413 129.676C135.957 129.388 135.593 128.984 135.321 128.464C135.057 127.936 134.925 127.332 134.925 126.652ZM140.157 126.676C140.157 126.268 140.077 125.92 139.917 125.632C139.757 125.336 139.541 125.112 139.269 124.96C138.997 124.8 138.705 124.72 138.393 124.72C138.081 124.72 137.793 124.796 137.529 124.948C137.265 125.1 137.049 125.324 136.881 125.62C136.721 125.908 136.641 126.252 136.641 126.652C136.641 127.052 136.721 127.404 136.881 127.708C137.049 128.004 137.265 128.232 137.529 128.392C137.801 128.552 138.089 128.632 138.393 128.632C138.705 128.632 138.997 128.556 139.269 128.404C139.541 128.244 139.757 128.02 139.917 127.732C140.077 127.436 140.157 127.084 140.157 126.676ZM145.446 124.732V127.948C145.446 128.172 145.498 128.336 145.602 128.44C145.714 128.536 145.898 128.584 146.154 128.584H146.934V130H145.878C144.462 130 143.754 129.312 143.754 127.936V124.732H142.962V123.352H143.754V121.708H145.446V123.352H146.934V124.732H145.446ZM147.71 126.652C147.71 125.98 147.842 125.384 148.106 124.864C148.378 124.344 148.742 123.944 149.198 123.664C149.662 123.384 150.178 123.244 150.746 123.244C151.242 123.244 151.674 123.344 152.042 123.544C152.418 123.744 152.718 123.996 152.942 124.3V123.352H154.634V130H152.942V129.028C152.726 129.34 152.426 129.6 152.042 129.808C151.666 130.008 151.23 130.108 150.734 130.108C150.174 130.108 149.662 129.964 149.198 129.676C148.742 129.388 148.378 128.984 148.106 128.464C147.842 127.936 147.71 127.332 147.71 126.652ZM152.942 126.676C152.942 126.268 152.862 125.92 152.702 125.632C152.542 125.336 152.326 125.112 152.054 124.96C151.782 124.8 151.49 124.72 151.178 124.72C150.866 124.72 150.578 124.796 150.314 124.948C150.05 125.1 149.834 125.324 149.666 125.62C149.506 125.908 149.426 126.252 149.426 126.652C149.426 127.052 149.506 127.404 149.666 127.708C149.834 128.004 150.05 128.232 150.314 128.392C150.586 128.552 150.874 128.632 151.178 128.632C151.49 128.632 151.782 128.556 152.054 128.404C152.326 128.244 152.542 128.02 152.702 127.732C152.862 127.436 152.942 127.084 152.942 126.676ZM165.579 130L164.667 129.1C163.891 129.796 162.943 130.144 161.823 130.144C161.207 130.144 160.663 130.04 160.191 129.832C159.727 129.616 159.367 129.316 159.111 128.932C158.855 128.54 158.727 128.088 158.727 127.576C158.727 127.024 158.883 126.528 159.195 126.088C159.507 125.648 159.967 125.292 160.575 125.02C160.359 124.756 160.203 124.504 160.107 124.264C160.011 124.016 159.963 123.752 159.963 123.472C159.963 123.088 160.063 122.744 160.263 122.44C160.463 122.128 160.747 121.884 161.115 121.708C161.491 121.532 161.927 121.444 162.423 121.444C162.927 121.444 163.359 121.54 163.719 121.732C164.079 121.924 164.347 122.18 164.523 122.5C164.699 122.82 164.775 123.176 164.751 123.568H163.119C163.127 123.304 163.063 123.104 162.927 122.968C162.791 122.824 162.607 122.752 162.375 122.752C162.151 122.752 161.963 122.82 161.811 122.956C161.667 123.084 161.595 123.252 161.595 123.46C161.595 123.66 161.655 123.86 161.775 124.06C161.895 124.252 162.091 124.492 162.363 124.78L164.475 126.868C164.491 126.852 164.503 126.836 164.511 126.82C164.519 126.804 164.527 126.788 164.535 126.772L165.219 125.632H166.971L166.131 127.108C165.971 127.42 165.799 127.716 165.615 127.996L167.643 130H165.579ZM161.871 128.752C162.527 128.752 163.107 128.52 163.611 128.056L161.547 126.016C160.771 126.36 160.383 126.848 160.383 127.48C160.383 127.84 160.519 128.144 160.791 128.392C161.063 128.632 161.423 128.752 161.871 128.752ZM108.119 146.652C108.119 145.98 108.251 145.384 108.515 144.864C108.787 144.344 109.151 143.944 109.607 143.664C110.071 143.384 110.587 143.244 111.155 143.244C111.651 143.244 112.083 143.344 112.451 143.544C112.827 143.744 113.127 143.996 113.351 144.3V143.352H115.043V150H113.351V149.028C113.135 149.34 112.835 149.6 112.451 149.808C112.075 150.008 111.639 150.108 111.143 150.108C110.583 150.108 110.071 149.964 109.607 149.676C109.151 149.388 108.787 148.984 108.515 148.464C108.251 147.936 108.119 147.332 108.119 146.652ZM113.351 146.676C113.351 146.268 113.271 145.92 113.111 145.632C112.951 145.336 112.735 145.112 112.463 144.96C112.191 144.8 111.899 144.72 111.587 144.72C111.275 144.72 110.987 144.796 110.723 144.948C110.459 145.1 110.243 145.324 110.075 145.62C109.915 145.908 109.835 146.252 109.835 146.652C109.835 147.052 109.915 147.404 110.075 147.708C110.243 148.004 110.459 148.232 110.723 148.392C110.995 148.552 111.283 148.632 111.587 148.632C111.899 148.632 112.191 148.556 112.463 148.404C112.735 148.244 112.951 148.02 113.111 147.732C113.271 147.436 113.351 147.084 113.351 146.676ZM120.367 143.256C121.159 143.256 121.799 143.508 122.287 144.012C122.775 144.508 123.019 145.204 123.019 146.1V150H121.339V146.328C121.339 145.8 121.207 145.396 120.943 145.116C120.679 144.828 120.319 144.684 119.863 144.684C119.399 144.684 119.031 144.828 118.759 145.116C118.495 145.396 118.363 145.8 118.363 146.328V150H116.683V143.352H118.363V144.18C118.587 143.892 118.871 143.668 119.215 143.508C119.567 143.34 119.951 143.256 120.367 143.256ZM124.185 146.652C124.185 145.98 124.317 145.384 124.581 144.864C124.853 144.344 125.217 143.944 125.673 143.664C126.137 143.384 126.653 143.244 127.221 143.244C127.717 143.244 128.149 143.344 128.517 143.544C128.893 143.744 129.193 143.996 129.417 144.3V143.352H131.109V150H129.417V149.028C129.201 149.34 128.901 149.6 128.517 149.808C128.141 150.008 127.705 150.108 127.209 150.108C126.649 150.108 126.137 149.964 125.673 149.676C125.217 149.388 124.853 148.984 124.581 148.464C124.317 147.936 124.185 147.332 124.185 146.652ZM129.417 146.676C129.417 146.268 129.337 145.92 129.177 145.632C129.017 145.336 128.801 145.112 128.529 144.96C128.257 144.8 127.965 144.72 127.653 144.72C127.341 144.72 127.053 144.796 126.789 144.948C126.525 145.1 126.309 145.324 126.141 145.62C125.981 145.908 125.901 146.252 125.901 146.652C125.901 147.052 125.981 147.404 126.141 147.708C126.309 148.004 126.525 148.232 126.789 148.392C127.061 148.552 127.349 148.632 127.653 148.632C127.965 148.632 128.257 148.556 128.529 148.404C128.801 148.244 129.017 148.02 129.177 147.732C129.337 147.436 129.417 147.084 129.417 146.676ZM134.43 141.12V150H132.75V141.12H134.43ZM142.45 143.352L138.334 153.144H136.546L137.986 149.832L135.322 143.352H137.206L138.922 147.996L140.662 143.352H142.45ZM145.311 144.732V147.948C145.311 148.172 145.363 148.336 145.467 148.44C145.579 148.536 145.763 148.584 146.019 148.584H146.799V150H145.743C144.327 150 143.619 149.312 143.619 147.936V144.732H142.827V143.352H143.619V141.708H145.311V143.352H146.799V144.732H145.311ZM148.86 142.56C148.564 142.56 148.316 142.468 148.116 142.284C147.924 142.092 147.828 141.856 147.828 141.576C147.828 141.296 147.924 141.064 148.116 140.88C148.316 140.688 148.564 140.592 148.86 140.592C149.156 140.592 149.4 140.688 149.592 140.88C149.792 141.064 149.892 141.296 149.892 141.576C149.892 141.856 149.792 142.092 149.592 142.284C149.4 142.468 149.156 142.56 148.86 142.56ZM149.688 143.352V150H148.008V143.352H149.688ZM150.916 146.676C150.916 145.988 151.056 145.388 151.336 144.876C151.616 144.356 152.004 143.956 152.5 143.676C152.996 143.388 153.564 143.244 154.204 143.244C155.028 143.244 155.708 143.452 156.244 143.868C156.788 144.276 157.152 144.852 157.336 145.596H155.524C155.428 145.308 155.264 145.084 155.032 144.924C154.808 144.756 154.528 144.672 154.192 144.672C153.712 144.672 153.332 144.848 153.052 145.2C152.772 145.544 152.632 146.036 152.632 146.676C152.632 147.308 152.772 147.8 153.052 148.152C153.332 148.496 153.712 148.668 154.192 148.668C154.872 148.668 155.316 148.364 155.524 147.756H157.336C157.152 148.476 156.788 149.048 156.244 149.472C155.7 149.896 155.02 150.108 154.204 150.108C153.564 150.108 152.996 149.968 152.5 149.688C152.004 149.4 151.616 149 151.336 148.488C151.056 147.968 150.916 147.364 150.916 146.676ZM161.11 150.108C160.566 150.108 160.078 150.012 159.646 149.82C159.214 149.62 158.87 149.352 158.614 149.016C158.366 148.68 158.23 148.308 158.206 147.9H159.898C159.93 148.156 160.054 148.368 160.27 148.536C160.494 148.704 160.77 148.788 161.098 148.788C161.418 148.788 161.666 148.724 161.842 148.596C162.026 148.468 162.118 148.304 162.118 148.104C162.118 147.888 162.006 147.728 161.782 147.624C161.566 147.512 161.218 147.392 160.738 147.264C160.242 147.144 159.834 147.02 159.514 146.892C159.202 146.764 158.93 146.568 158.698 146.304C158.474 146.04 158.362 145.684 158.362 145.236C158.362 144.868 158.466 144.532 158.674 144.228C158.89 143.924 159.194 143.684 159.586 143.508C159.986 143.332 160.454 143.244 160.99 143.244C161.782 143.244 162.414 143.444 162.886 143.844C163.358 144.236 163.618 144.768 163.666 145.44H162.058C162.034 145.176 161.922 144.968 161.722 144.816C161.53 144.656 161.27 144.576 160.942 144.576C160.638 144.576 160.402 144.632 160.234 144.744C160.074 144.856 159.994 145.012 159.994 145.212C159.994 145.436 160.106 145.608 160.33 145.728C160.554 145.84 160.902 145.956 161.374 146.076C161.854 146.196 162.25 146.32 162.562 146.448C162.874 146.576 163.142 146.776 163.366 147.048C163.598 147.312 163.718 147.664 163.726 148.104C163.726 148.488 163.618 148.832 163.402 149.136C163.194 149.44 162.89 149.68 162.49 149.856C162.098 150.024 161.638 150.108 161.11 150.108Z" fill="white"/>
<rect x="70" y="70" width="132" height="132" rx="63" stroke="white" stroke-width="2" stroke-linecap="round" stroke-dasharray="8 8"/>
<rect x="70" y="386" width="132" height="132" rx="63" fill="#5846D3"/>
<path d="M107.836 451.704C108.308 451.792 108.696 452.028 109 452.412C109.304 452.796 109.456 453.236 109.456 453.732C109.456 454.18 109.344 454.576 109.12 454.92C108.904 455.256 108.588 455.52 108.172 455.712C107.756 455.904 107.264 456 106.696 456H103.084V447.624H106.54C107.108 447.624 107.596 447.716 108.004 447.9C108.42 448.084 108.732 448.34 108.94 448.668C109.156 448.996 109.264 449.368 109.264 449.784C109.264 450.272 109.132 450.68 108.868 451.008C108.612 451.336 108.268 451.568 107.836 451.704ZM104.764 451.08H106.3C106.7 451.08 107.008 450.992 107.224 450.816C107.44 450.632 107.548 450.372 107.548 450.036C107.548 449.7 107.44 449.44 107.224 449.256C107.008 449.072 106.7 448.98 106.3 448.98H104.764V451.08ZM106.456 454.632C106.864 454.632 107.18 454.536 107.404 454.344C107.636 454.152 107.752 453.88 107.752 453.528C107.752 453.168 107.632 452.888 107.392 452.688C107.152 452.48 106.828 452.376 106.42 452.376H104.764V454.632H106.456ZM112.475 447.12V456H110.795V447.12H112.475ZM117.087 456.108C116.447 456.108 115.871 455.968 115.359 455.688C114.847 455.4 114.443 454.996 114.147 454.476C113.859 453.956 113.715 453.356 113.715 452.676C113.715 451.996 113.863 451.396 114.159 450.876C114.463 450.356 114.875 449.956 115.395 449.676C115.915 449.388 116.495 449.244 117.135 449.244C117.775 449.244 118.355 449.388 118.875 449.676C119.395 449.956 119.803 450.356 120.099 450.876C120.403 451.396 120.555 451.996 120.555 452.676C120.555 453.356 120.399 453.956 120.087 454.476C119.783 454.996 119.367 455.4 118.839 455.688C118.319 455.968 117.735 456.108 117.087 456.108ZM117.087 454.644C117.391 454.644 117.675 454.572 117.939 454.428C118.211 454.276 118.427 454.052 118.587 453.756C118.747 453.46 118.827 453.1 118.827 452.676C118.827 452.044 118.659 451.56 118.323 451.224C117.995 450.88 117.591 450.708 117.111 450.708C116.631 450.708 116.227 450.88 115.899 451.224C115.579 451.56 115.419 452.044 115.419 452.676C115.419 453.308 115.575 453.796 115.887 454.14C116.207 454.476 116.607 454.644 117.087 454.644ZM121.355 452.676C121.355 451.988 121.495 451.388 121.775 450.876C122.055 450.356 122.443 449.956 122.939 449.676C123.435 449.388 124.003 449.244 124.643 449.244C125.467 449.244 126.147 449.452 126.683 449.868C127.227 450.276 127.591 450.852 127.775 451.596H125.963C125.867 451.308 125.703 451.084 125.471 450.924C125.247 450.756 124.967 450.672 124.631 450.672C124.151 450.672 123.771 450.848 123.491 451.2C123.211 451.544 123.071 452.036 123.071 452.676C123.071 453.308 123.211 453.8 123.491 454.152C123.771 454.496 124.151 454.668 124.631 454.668C125.311 454.668 125.755 454.364 125.963 453.756H127.775C127.591 454.476 127.227 455.048 126.683 455.472C126.139 455.896 125.459 456.108 124.643 456.108C124.003 456.108 123.435 455.968 122.939 455.688C122.443 455.4 122.055 455 121.775 454.488C121.495 453.968 121.355 453.364 121.355 452.676ZM132.942 456L130.686 453.168V456H129.006V447.12H130.686V452.172L132.918 449.352H135.102L132.174 452.688L135.126 456H132.942ZM135.582 452.676C135.582 451.988 135.722 451.388 136.002 450.876C136.282 450.356 136.67 449.956 137.166 449.676C137.662 449.388 138.23 449.244 138.87 449.244C139.694 449.244 140.374 449.452 140.91 449.868C141.454 450.276 141.818 450.852 142.002 451.596H140.19C140.094 451.308 139.93 451.084 139.698 450.924C139.474 450.756 139.194 450.672 138.858 450.672C138.378 450.672 137.998 450.848 137.718 451.2C137.438 451.544 137.298 452.036 137.298 452.676C137.298 453.308 137.438 453.8 137.718 454.152C137.998 454.496 138.378 454.668 138.858 454.668C139.538 454.668 139.982 454.364 140.19 453.756H142.002C141.818 454.476 141.454 455.048 140.91 455.472C140.366 455.896 139.686 456.108 138.87 456.108C138.23 456.108 137.662 455.968 137.166 455.688C136.67 455.4 136.282 455 136.002 454.488C135.722 453.968 135.582 453.364 135.582 452.676ZM146.976 449.256C147.48 449.256 147.928 449.368 148.32 449.592C148.712 449.808 149.016 450.132 149.232 450.564C149.456 450.988 149.568 451.5 149.568 452.1V456H147.888V452.328C147.888 451.8 147.756 451.396 147.492 451.116C147.228 450.828 146.868 450.684 146.412 450.684C145.948 450.684 145.58 450.828 145.308 451.116C145.044 451.396 144.912 451.8 144.912 452.328V456H143.232V447.12H144.912V450.18C145.128 449.892 145.416 449.668 145.776 449.508C146.136 449.34 146.536 449.256 146.976 449.256ZM150.734 452.652C150.734 451.98 150.866 451.384 151.13 450.864C151.402 450.344 151.766 449.944 152.222 449.664C152.686 449.384 153.202 449.244 153.77 449.244C154.266 449.244 154.698 449.344 155.066 449.544C155.442 449.744 155.742 449.996 155.966 450.3V449.352H157.658V456H155.966V455.028C155.75 455.34 155.45 455.6 155.066 455.808C154.69 456.008 154.254 456.108 153.758 456.108C153.198 456.108 152.686 455.964 152.222 455.676C151.766 455.388 151.402 454.984 151.13 454.464C150.866 453.936 150.734 453.332 150.734 452.652ZM155.966 452.676C155.966 452.268 155.886 451.92 155.726 451.632C155.566 451.336 155.35 451.112 155.078 450.96C154.806 450.8 154.514 450.72 154.202 450.72C153.89 450.72 153.602 450.796 153.338 450.948C153.074 451.1 152.858 451.324 152.69 451.62C152.53 451.908 152.45 452.252 152.45 452.652C152.45 453.052 152.53 453.404 152.69 453.708C152.858 454.004 153.074 454.232 153.338 454.392C153.61 454.552 153.898 454.632 154.202 454.632C154.514 454.632 154.806 454.556 155.078 454.404C155.35 454.244 155.566 454.02 155.726 453.732C155.886 453.436 155.966 453.084 155.966 452.676ZM160.151 448.56C159.855 448.56 159.607 448.468 159.407 448.284C159.215 448.092 159.119 447.856 159.119 447.576C159.119 447.296 159.215 447.064 159.407 446.88C159.607 446.688 159.855 446.592 160.151 446.592C160.447 446.592 160.691 446.688 160.883 446.88C161.083 447.064 161.183 447.296 161.183 447.576C161.183 447.856 161.083 448.092 160.883 448.284C160.691 448.468 160.447 448.56 160.151 448.56ZM160.979 449.352V456H159.299V449.352H160.979ZM166.323 449.256C167.115 449.256 167.755 449.508 168.243 450.012C168.731 450.508 168.975 451.204 168.975 452.1V456H167.295V452.328C167.295 451.8 167.163 451.396 166.899 451.116C166.635 450.828 166.275 450.684 165.819 450.684C165.355 450.684 164.987 450.828 164.715 451.116C164.451 451.396 164.319 451.8 164.319 452.328V456H162.639V449.352H164.319V450.18C164.543 449.892 164.827 449.668 165.171 449.508C165.523 449.34 165.907 449.256 166.323 449.256Z" fill="white"/>
<rect x="70" y="386" width="132" height="132" rx="63" stroke="white" stroke-width="2" stroke-linecap="round" stroke-dasharray="8 8"/>
<rect x="1" y="228" width="132" height="132" rx="63" fill="#5846D3"/>
<path d="M37.1174 279.12V288H35.4374V279.12H37.1174ZM41.7292 288.108C41.0892 288.108 40.5132 287.968 40.0012 287.688C39.4892 287.4 39.0852 286.996 38.7892 286.476C38.5012 285.956 38.3572 285.356 38.3572 284.676C38.3572 283.996 38.5052 283.396 38.8012 282.876C39.1052 282.356 39.5172 281.956 40.0372 281.676C40.5572 281.388 41.1372 281.244 41.7772 281.244C42.4172 281.244 42.9972 281.388 43.5172 281.676C44.0372 281.956 44.4452 282.356 44.7412 282.876C45.0452 283.396 45.1972 283.996 45.1972 284.676C45.1972 285.356 45.0412 285.956 44.7292 286.476C44.4252 286.996 44.0092 287.4 43.4812 287.688C42.9612 287.968 42.3772 288.108 41.7292 288.108ZM41.7292 286.644C42.0332 286.644 42.3172 286.572 42.5812 286.428C42.8532 286.276 43.0692 286.052 43.2292 285.756C43.3892 285.46 43.4692 285.1 43.4692 284.676C43.4692 284.044 43.3012 283.56 42.9652 283.224C42.6372 282.88 42.2332 282.708 41.7532 282.708C41.2732 282.708 40.8692 282.88 40.5412 283.224C40.2212 283.56 40.0612 284.044 40.0612 284.676C40.0612 285.308 40.2172 285.796 40.5292 286.14C40.8492 286.476 41.2492 286.644 41.7292 286.644ZM52.1296 279.624V280.98H49.8976V288H48.2176V280.98H45.9856V279.624H52.1296ZM62.6587 288L61.7467 287.1C60.9707 287.796 60.0227 288.144 58.9027 288.144C58.2867 288.144 57.7427 288.04 57.2707 287.832C56.8067 287.616 56.4467 287.316 56.1907 286.932C55.9347 286.54 55.8067 286.088 55.8067 285.576C55.8067 285.024 55.9627 284.528 56.2747 284.088C56.5867 283.648 57.0467 283.292 57.6547 283.02C57.4387 282.756 57.2827 282.504 57.1867 282.264C57.0907 282.016 57.0427 281.752 57.0427 281.472C57.0427 281.088 57.1427 280.744 57.3427 280.44C57.5427 280.128 57.8267 279.884 58.1947 279.708C58.5707 279.532 59.0067 279.444 59.5027 279.444C60.0067 279.444 60.4387 279.54 60.7987 279.732C61.1587 279.924 61.4267 280.18 61.6027 280.5C61.7787 280.82 61.8547 281.176 61.8307 281.568H60.1987C60.2067 281.304 60.1427 281.104 60.0067 280.968C59.8707 280.824 59.6867 280.752 59.4547 280.752C59.2307 280.752 59.0427 280.82 58.8907 280.956C58.7467 281.084 58.6747 281.252 58.6747 281.46C58.6747 281.66 58.7347 281.86 58.8547 282.06C58.9747 282.252 59.1707 282.492 59.4427 282.78L61.5547 284.868C61.5707 284.852 61.5827 284.836 61.5907 284.82C61.5987 284.804 61.6067 284.788 61.6147 284.772L62.2987 283.632H64.0507L63.2107 285.108C63.0507 285.42 62.8787 285.716 62.6947 285.996L64.7227 288H62.6587ZM58.9507 286.752C59.6067 286.752 60.1867 286.52 60.6907 286.056L58.6267 284.016C57.8507 284.36 57.4627 284.848 57.4627 285.48C57.4627 285.84 57.5987 286.144 57.8707 286.392C58.1427 286.632 58.5027 286.752 58.9507 286.752ZM67.9819 284.652C67.9819 283.98 68.1139 283.384 68.3779 282.864C68.6499 282.344 69.0139 281.944 69.4699 281.664C69.9339 281.384 70.4499 281.244 71.0179 281.244C71.5139 281.244 71.9459 281.344 72.3139 281.544C72.6899 281.744 72.9899 281.996 73.2139 282.3V281.352H74.9059V288H73.2139V287.028C72.9979 287.34 72.6979 287.6 72.3139 287.808C71.9379 288.008 71.5019 288.108 71.0059 288.108C70.4459 288.108 69.9339 287.964 69.4699 287.676C69.0139 287.388 68.6499 286.984 68.3779 286.464C68.1139 285.936 67.9819 285.332 67.9819 284.652ZM73.2139 284.676C73.2139 284.268 73.1339 283.92 72.9739 283.632C72.8139 283.336 72.5979 283.112 72.3259 282.96C72.0539 282.8 71.7619 282.72 71.4499 282.72C71.1379 282.72 70.8499 282.796 70.5859 282.948C70.3219 283.1 70.1059 283.324 69.9379 283.62C69.7779 283.908 69.6979 284.252 69.6979 284.652C69.6979 285.052 69.7779 285.404 69.9379 285.708C70.1059 286.004 70.3219 286.232 70.5859 286.392C70.8579 286.552 71.1459 286.632 71.4499 286.632C71.7619 286.632 72.0539 286.556 72.3259 286.404C72.5979 286.244 72.8139 286.02 72.9739 285.732C73.1339 285.436 73.2139 285.084 73.2139 284.676ZM76.1147 284.652C76.1147 283.98 76.2467 283.384 76.5107 282.864C76.7828 282.344 77.1508 281.944 77.6148 281.664C78.0788 281.384 78.5948 281.244 79.1628 281.244C79.5948 281.244 80.0068 281.34 80.3988 281.532C80.7908 281.716 81.1028 281.964 81.3348 282.276V279.12H83.0388V288H81.3348V287.016C81.1268 287.344 80.8348 287.608 80.4588 287.808C80.0828 288.008 79.6468 288.108 79.1508 288.108C78.5908 288.108 78.0788 287.964 77.6148 287.676C77.1508 287.388 76.7828 286.984 76.5107 286.464C76.2467 285.936 76.1147 285.332 76.1147 284.652ZM81.3468 284.676C81.3468 284.268 81.2668 283.92 81.1068 283.632C80.9468 283.336 80.7308 283.112 80.4588 282.96C80.1868 282.8 79.8948 282.72 79.5828 282.72C79.2708 282.72 78.9828 282.796 78.7188 282.948C78.4548 283.1 78.2388 283.324 78.0708 283.62C77.9108 283.908 77.8308 284.252 77.8308 284.652C77.8308 285.052 77.9108 285.404 78.0708 285.708C78.2388 286.004 78.4548 286.232 78.7188 286.392C78.9908 286.552 79.2788 286.632 79.5828 286.632C79.8948 286.632 80.1868 286.556 80.4588 286.404C80.7308 286.244 80.9468 286.02 81.1068 285.732C81.2668 285.436 81.3468 285.084 81.3468 284.676ZM87.2836 281.244C87.7796 281.244 88.2156 281.344 88.5916 281.544C88.9676 281.736 89.2636 281.988 89.4796 282.3V281.352H91.1716V288.048C91.1716 288.664 91.0476 289.212 90.7996 289.692C90.5516 290.18 90.1796 290.564 89.6836 290.844C89.1876 291.132 88.5876 291.276 87.8836 291.276C86.9396 291.276 86.1636 291.056 85.5556 290.616C84.9556 290.176 84.6156 289.576 84.5356 288.816H86.2036C86.2916 289.12 86.4796 289.36 86.7676 289.536C87.0636 289.72 87.4196 289.812 87.8356 289.812C88.3236 289.812 88.7196 289.664 89.0236 289.368C89.3276 289.08 89.4796 288.64 89.4796 288.048V287.016C89.2636 287.328 88.9636 287.588 88.5796 287.796C88.2036 288.004 87.7716 288.108 87.2836 288.108C86.7236 288.108 86.2116 287.964 85.7476 287.676C85.2836 287.388 84.9156 286.984 84.6436 286.464C84.3796 285.936 84.2476 285.332 84.2476 284.652C84.2476 283.98 84.3796 283.384 84.6436 282.864C84.9156 282.344 85.2796 281.944 85.7356 281.664C86.1996 281.384 86.7156 281.244 87.2836 281.244ZM89.4796 284.676C89.4796 284.268 89.3996 283.92 89.2396 283.632C89.0796 283.336 88.8636 283.112 88.5916 282.96C88.3196 282.8 88.0276 282.72 87.7156 282.72C87.4036 282.72 87.1156 282.796 86.8516 282.948C86.5876 283.1 86.3716 283.324 86.2036 283.62C86.0436 283.908 85.9636 284.252 85.9636 284.652C85.9636 285.052 86.0436 285.404 86.2036 285.708C86.3716 286.004 86.5876 286.232 86.8516 286.392C87.1236 286.552 87.4116 286.632 87.7156 286.632C88.0276 286.632 88.3196 286.556 88.5916 286.404C88.8636 286.244 89.0796 286.02 89.2396 285.732C89.3996 285.436 89.4796 285.084 89.4796 284.676ZM98.9924 284.532C98.9924 284.772 98.9764 284.988 98.9444 285.18H94.0844C94.1244 285.66 94.2924 286.036 94.5884 286.308C94.8844 286.58 95.2484 286.716 95.6804 286.716C96.3044 286.716 96.7484 286.448 97.0124 285.912H98.8244C98.6324 286.552 98.2644 287.08 97.7204 287.496C97.1764 287.904 96.5084 288.108 95.7164 288.108C95.0764 288.108 94.5004 287.968 93.9884 287.688C93.4844 287.4 93.0884 286.996 92.8004 286.476C92.5204 285.956 92.3804 285.356 92.3804 284.676C92.3804 283.988 92.5204 283.384 92.8004 282.864C93.0804 282.344 93.4724 281.944 93.9764 281.664C94.4804 281.384 95.0604 281.244 95.7164 281.244C96.3484 281.244 96.9124 281.38 97.4084 281.652C97.9124 281.924 98.3004 282.312 98.5724 282.816C98.8524 283.312 98.9924 283.884 98.9924 284.532ZM97.2524 284.052C97.2444 283.62 97.0884 283.276 96.7844 283.02C96.4804 282.756 96.1084 282.624 95.6684 282.624C95.2524 282.624 94.9004 282.752 94.6124 283.008C94.3324 283.256 94.1604 283.604 94.0964 284.052H97.2524ZM33.6108 304.676C33.6108 303.988 33.7508 303.388 34.0308 302.876C34.3108 302.356 34.6988 301.956 35.1948 301.676C35.6908 301.388 36.2588 301.244 36.8988 301.244C37.7228 301.244 38.4028 301.452 38.9388 301.868C39.4828 302.276 39.8468 302.852 40.0308 303.596H38.2188C38.1228 303.308 37.9588 303.084 37.7268 302.924C37.5028 302.756 37.2228 302.672 36.8868 302.672C36.4068 302.672 36.0268 302.848 35.7468 303.2C35.4668 303.544 35.3268 304.036 35.3268 304.676C35.3268 305.308 35.4668 305.8 35.7468 306.152C36.0268 306.496 36.4068 306.668 36.8868 306.668C37.5668 306.668 38.0108 306.364 38.2188 305.756H40.0308C39.8468 306.476 39.4828 307.048 38.9388 307.472C38.3948 307.896 37.7148 308.108 36.8988 308.108C36.2588 308.108 35.6908 307.968 35.1948 307.688C34.6988 307.4 34.3108 307 34.0308 306.488C33.7508 305.968 33.6108 305.364 33.6108 304.676ZM44.2136 308.108C43.5736 308.108 42.9976 307.968 42.4856 307.688C41.9736 307.4 41.5696 306.996 41.2736 306.476C40.9856 305.956 40.8416 305.356 40.8416 304.676C40.8416 303.996 40.9896 303.396 41.2856 302.876C41.5896 302.356 42.0016 301.956 42.5216 301.676C43.0416 301.388 43.6216 301.244 44.2616 301.244C44.9016 301.244 45.4816 301.388 46.0016 301.676C46.5216 301.956 46.9296 302.356 47.2256 302.876C47.5296 303.396 47.6816 303.996 47.6816 304.676C47.6816 305.356 47.5256 305.956 47.2136 306.476C46.9096 306.996 46.4936 307.4 45.9656 307.688C45.4456 307.968 44.8616 308.108 44.2136 308.108ZM44.2136 306.644C44.5176 306.644 44.8016 306.572 45.0656 306.428C45.3376 306.276 45.5536 306.052 45.7136 305.756C45.8736 305.46 45.9536 305.1 45.9536 304.676C45.9536 304.044 45.7856 303.56 45.4496 303.224C45.1216 302.88 44.7176 302.708 44.2376 302.708C43.7576 302.708 43.3536 302.88 43.0256 303.224C42.7056 303.56 42.5456 304.044 42.5456 304.676C42.5456 305.308 42.7016 305.796 43.0136 306.14C43.3336 306.476 43.7336 306.644 44.2136 306.644ZM57.1699 301.256C57.9859 301.256 58.6419 301.508 59.1379 302.012C59.6419 302.508 59.8939 303.204 59.8939 304.1V308H58.2139V304.328C58.2139 303.808 58.0819 303.412 57.8179 303.14C57.5539 302.86 57.1939 302.72 56.7379 302.72C56.2819 302.72 55.9179 302.86 55.6459 303.14C55.3819 303.412 55.2499 303.808 55.2499 304.328V308H53.5699V304.328C53.5699 303.808 53.4379 303.412 53.1739 303.14C52.9099 302.86 52.5499 302.72 52.0939 302.72C51.6299 302.72 51.2619 302.86 50.9899 303.14C50.7259 303.412 50.5939 303.808 50.5939 304.328V308H48.9139V301.352H50.5939V302.156C50.8099 301.876 51.0859 301.656 51.4219 301.496C51.7659 301.336 52.1419 301.256 52.5499 301.256C53.0699 301.256 53.5339 301.368 53.9419 301.592C54.3499 301.808 54.6659 302.12 54.8899 302.528C55.1059 302.144 55.4179 301.836 55.8259 301.604C56.2419 301.372 56.6899 301.256 57.1699 301.256ZM63.1682 302.312C63.3842 302.008 63.6802 301.756 64.0562 301.556C64.4402 301.348 64.8762 301.244 65.3642 301.244C65.9322 301.244 66.4442 301.384 66.9002 301.664C67.3642 301.944 67.7282 302.344 67.9922 302.864C68.2642 303.376 68.4002 303.972 68.4002 304.652C68.4002 305.332 68.2642 305.936 67.9922 306.464C67.7282 306.984 67.3642 307.388 66.9002 307.676C66.4442 307.964 65.9322 308.108 65.3642 308.108C64.8762 308.108 64.4442 308.008 64.0682 307.808C63.7002 307.608 63.4002 307.356 63.1682 307.052V311.168H61.4882V301.352H63.1682V302.312ZM66.6842 304.652C66.6842 304.252 66.6002 303.908 66.4322 303.62C66.2722 303.324 66.0562 303.1 65.7842 302.948C65.5202 302.796 65.2322 302.72 64.9202 302.72C64.6162 302.72 64.3282 302.8 64.0562 302.96C63.7922 303.112 63.5762 303.336 63.4082 303.632C63.2482 303.928 63.1682 304.276 63.1682 304.676C63.1682 305.076 63.2482 305.424 63.4082 305.72C63.5762 306.016 63.7922 306.244 64.0562 306.404C64.3282 306.556 64.6162 306.632 64.9202 306.632C65.2322 306.632 65.5202 306.552 65.7842 306.392C66.0562 306.232 66.2722 306.004 66.4322 305.708C66.6002 305.412 66.6842 305.06 66.6842 304.652ZM75.897 301.352V308H74.205V307.16C73.989 307.448 73.705 307.676 73.353 307.844C73.009 308.004 72.633 308.084 72.225 308.084C71.705 308.084 71.245 307.976 70.845 307.76C70.445 307.536 70.129 307.212 69.897 306.788C69.673 306.356 69.561 305.844 69.561 305.252V301.352H71.241V305.012C71.241 305.54 71.373 305.948 71.637 306.236C71.901 306.516 72.261 306.656 72.717 306.656C73.181 306.656 73.545 306.516 73.809 306.236C74.073 305.948 74.205 305.54 74.205 305.012V301.352H75.897ZM79.5106 302.732V305.948C79.5106 306.172 79.5626 306.336 79.6666 306.44C79.7786 306.536 79.9626 306.584 80.2186 306.584H80.9986V308H79.9426C78.5266 308 77.8186 307.312 77.8186 305.936V302.732H77.0266V301.352H77.8186V299.708H79.5106V301.352H80.9986V302.732H79.5106ZM83.0589 300.56C82.7629 300.56 82.5149 300.468 82.3149 300.284C82.1229 300.092 82.0269 299.856 82.0269 299.576C82.0269 299.296 82.1229 299.064 82.3149 298.88C82.5149 298.688 82.7629 298.592 83.0589 298.592C83.3549 298.592 83.5989 298.688 83.7909 298.88C83.9909 299.064 84.0909 299.296 84.0909 299.576C84.0909 299.856 83.9909 300.092 83.7909 300.284C83.5989 300.468 83.3549 300.56 83.0589 300.56ZM83.8869 301.352V308H82.2069V301.352H83.8869ZM89.2308 301.256C90.0228 301.256 90.6628 301.508 91.1508 302.012C91.6388 302.508 91.8828 303.204 91.8828 304.1V308H90.2028V304.328C90.2028 303.8 90.0708 303.396 89.8068 303.116C89.5428 302.828 89.1828 302.684 88.7268 302.684C88.2628 302.684 87.8948 302.828 87.6228 303.116C87.3588 303.396 87.2268 303.8 87.2268 304.328V308H85.5468V301.352H87.2268V302.18C87.4508 301.892 87.7348 301.668 88.0788 301.508C88.4308 301.34 88.8148 301.256 89.2308 301.256ZM96.0843 301.244C96.5803 301.244 97.0163 301.344 97.3923 301.544C97.7683 301.736 98.0643 301.988 98.2803 302.3V301.352H99.9723V308.048C99.9723 308.664 99.8483 309.212 99.6003 309.692C99.3523 310.18 98.9803 310.564 98.4843 310.844C97.9883 311.132 97.3883 311.276 96.6843 311.276C95.7403 311.276 94.9643 311.056 94.3563 310.616C93.7563 310.176 93.4163 309.576 93.3363 308.816H95.0043C95.0923 309.12 95.2803 309.36 95.5683 309.536C95.8643 309.72 96.2203 309.812 96.6363 309.812C97.1243 309.812 97.5203 309.664 97.8243 309.368C98.1283 309.08 98.2803 308.64 98.2803 308.048V307.016C98.0643 307.328 97.7643 307.588 97.3803 307.796C97.0043 308.004 96.5723 308.108 96.0843 308.108C95.5243 308.108 95.0123 307.964 94.5483 307.676C94.0843 307.388 93.7163 306.984 93.4443 306.464C93.1803 305.936 93.0483 305.332 93.0483 304.652C93.0483 303.98 93.1803 303.384 93.4443 302.864C93.7163 302.344 94.0803 301.944 94.5363 301.664C95.0003 301.384 95.5163 301.244 96.0843 301.244ZM98.2803 304.676C98.2803 304.268 98.2003 303.92 98.0403 303.632C97.8803 303.336 97.6643 303.112 97.3923 302.96C97.1203 302.8 96.8283 302.72 96.5163 302.72C96.2043 302.72 95.9163 302.796 95.6523 302.948C95.3883 303.1 95.1723 303.324 95.0043 303.62C94.8443 303.908 94.7643 304.252 94.7643 304.652C94.7643 305.052 94.8443 305.404 95.0043 305.708C95.1723 306.004 95.3883 306.232 95.6523 306.392C95.9243 306.552 96.2123 306.632 96.5163 306.632C96.8283 306.632 97.1203 306.556 97.3923 306.404C97.6643 306.244 97.8803 306.02 98.0403 305.732C98.2003 305.436 98.2803 305.084 98.2803 304.676Z" fill="white"/>
<rect x="1" y="228" width="132" height="132" rx="63" stroke="white" stroke-width="2" stroke-linecap="round" stroke-dasharray="8 8"/>
<rect x="386" y="70" width="132" height="132" rx="63" fill="#5846D3"/>
<path d="M411.432 124.216C411.432 124.664 411.324 125.084 411.108 125.476C410.9 125.868 410.568 126.184 410.112 126.424C409.664 126.664 409.096 126.784 408.408 126.784H407.004V130H405.324V121.624H408.408C409.056 121.624 409.608 121.736 410.064 121.96C410.52 122.184 410.86 122.492 411.084 122.884C411.316 123.276 411.432 123.72 411.432 124.216ZM408.336 125.428C408.8 125.428 409.144 125.324 409.368 125.116C409.592 124.9 409.704 124.6 409.704 124.216C409.704 123.4 409.248 122.992 408.336 122.992H407.004V125.428H408.336ZM418.805 126.532C418.805 126.772 418.789 126.988 418.757 127.18H413.897C413.937 127.66 414.105 128.036 414.401 128.308C414.697 128.58 415.061 128.716 415.493 128.716C416.117 128.716 416.561 128.448 416.825 127.912H418.637C418.445 128.552 418.077 129.08 417.533 129.496C416.989 129.904 416.321 130.108 415.529 130.108C414.889 130.108 414.313 129.968 413.801 129.688C413.297 129.4 412.901 128.996 412.613 128.476C412.333 127.956 412.193 127.356 412.193 126.676C412.193 125.988 412.333 125.384 412.613 124.864C412.893 124.344 413.285 123.944 413.789 123.664C414.293 123.384 414.873 123.244 415.529 123.244C416.161 123.244 416.725 123.38 417.221 123.652C417.725 123.924 418.113 124.312 418.385 124.816C418.665 125.312 418.805 125.884 418.805 126.532ZM417.065 126.052C417.057 125.62 416.901 125.276 416.597 125.02C416.293 124.756 415.921 124.624 415.481 124.624C415.065 124.624 414.713 124.752 414.425 125.008C414.145 125.256 413.973 125.604 413.909 126.052H417.065ZM421.711 124.384C421.927 124.032 422.207 123.756 422.551 123.556C422.903 123.356 423.303 123.256 423.751 123.256V125.02H423.307C422.779 125.02 422.379 125.144 422.107 125.392C421.843 125.64 421.711 126.072 421.711 126.688V130H420.031V123.352H421.711V124.384ZM427.427 130.108C426.883 130.108 426.395 130.012 425.963 129.82C425.531 129.62 425.187 129.352 424.931 129.016C424.683 128.68 424.547 128.308 424.523 127.9H426.215C426.247 128.156 426.371 128.368 426.587 128.536C426.811 128.704 427.087 128.788 427.415 128.788C427.735 128.788 427.983 128.724 428.159 128.596C428.343 128.468 428.435 128.304 428.435 128.104C428.435 127.888 428.323 127.728 428.099 127.624C427.883 127.512 427.535 127.392 427.055 127.264C426.559 127.144 426.151 127.02 425.831 126.892C425.519 126.764 425.247 126.568 425.015 126.304C424.791 126.04 424.679 125.684 424.679 125.236C424.679 124.868 424.783 124.532 424.991 124.228C425.207 123.924 425.511 123.684 425.903 123.508C426.303 123.332 426.771 123.244 427.307 123.244C428.099 123.244 428.731 123.444 429.203 123.844C429.675 124.236 429.935 124.768 429.983 125.44H428.375C428.351 125.176 428.239 124.968 428.039 124.816C427.847 124.656 427.587 124.576 427.259 124.576C426.955 124.576 426.719 124.632 426.551 124.744C426.391 124.856 426.311 125.012 426.311 125.212C426.311 125.436 426.423 125.608 426.647 125.728C426.871 125.84 427.219 125.956 427.691 126.076C428.171 126.196 428.567 126.32 428.879 126.448C429.191 126.576 429.459 126.776 429.683 127.048C429.915 127.312 430.035 127.664 430.043 128.104C430.043 128.488 429.935 128.832 429.719 129.136C429.511 129.44 429.207 129.68 428.807 129.856C428.415 130.024 427.955 130.108 427.427 130.108ZM434.374 130.108C433.734 130.108 433.158 129.968 432.646 129.688C432.134 129.4 431.73 128.996 431.434 128.476C431.146 127.956 431.002 127.356 431.002 126.676C431.002 125.996 431.15 125.396 431.446 124.876C431.75 124.356 432.162 123.956 432.682 123.676C433.202 123.388 433.782 123.244 434.422 123.244C435.062 123.244 435.642 123.388 436.162 123.676C436.682 123.956 437.09 124.356 437.386 124.876C437.69 125.396 437.842 125.996 437.842 126.676C437.842 127.356 437.686 127.956 437.374 128.476C437.07 128.996 436.654 129.4 436.126 129.688C435.606 129.968 435.022 130.108 434.374 130.108ZM434.374 128.644C434.678 128.644 434.962 128.572 435.226 128.428C435.498 128.276 435.714 128.052 435.874 127.756C436.034 127.46 436.114 127.1 436.114 126.676C436.114 126.044 435.946 125.56 435.61 125.224C435.282 124.88 434.878 124.708 434.398 124.708C433.918 124.708 433.514 124.88 433.186 125.224C432.866 125.56 432.706 126.044 432.706 126.676C432.706 127.308 432.862 127.796 433.174 128.14C433.494 128.476 433.894 128.644 434.374 128.644ZM442.758 123.256C443.55 123.256 444.19 123.508 444.678 124.012C445.166 124.508 445.41 125.204 445.41 126.1V130H443.73V126.328C443.73 125.8 443.598 125.396 443.334 125.116C443.07 124.828 442.71 124.684 442.254 124.684C441.79 124.684 441.422 124.828 441.15 125.116C440.886 125.396 440.754 125.8 440.754 126.328V130H439.074V123.352H440.754V124.18C440.978 123.892 441.262 123.668 441.606 123.508C441.958 123.34 442.342 123.256 442.758 123.256ZM446.576 126.652C446.576 125.98 446.708 125.384 446.972 124.864C447.244 124.344 447.608 123.944 448.064 123.664C448.528 123.384 449.044 123.244 449.612 123.244C450.108 123.244 450.54 123.344 450.908 123.544C451.284 123.744 451.584 123.996 451.808 124.3V123.352H453.5V130H451.808V129.028C451.592 129.34 451.292 129.6 450.908 129.808C450.532 130.008 450.096 130.108 449.6 130.108C449.04 130.108 448.528 129.964 448.064 129.676C447.608 129.388 447.244 128.984 446.972 128.464C446.708 127.936 446.576 127.332 446.576 126.652ZM451.808 126.676C451.808 126.268 451.728 125.92 451.568 125.632C451.408 125.336 451.192 125.112 450.92 124.96C450.648 124.8 450.356 124.72 450.044 124.72C449.732 124.72 449.444 124.796 449.18 124.948C448.916 125.1 448.7 125.324 448.532 125.62C448.372 125.908 448.292 126.252 448.292 126.652C448.292 127.052 448.372 127.404 448.532 127.708C448.7 128.004 448.916 128.232 449.18 128.392C449.452 128.552 449.74 128.632 450.044 128.632C450.356 128.632 450.648 128.556 450.92 128.404C451.192 128.244 451.408 128.02 451.568 127.732C451.728 127.436 451.808 127.084 451.808 126.676ZM456.821 121.12V130H455.141V121.12H456.821ZM459.332 122.56C459.036 122.56 458.788 122.468 458.588 122.284C458.396 122.092 458.3 121.856 458.3 121.576C458.3 121.296 458.396 121.064 458.588 120.88C458.788 120.688 459.036 120.592 459.332 120.592C459.628 120.592 459.872 120.688 460.064 120.88C460.264 121.064 460.364 121.296 460.364 121.576C460.364 121.856 460.264 122.092 460.064 122.284C459.872 122.468 459.628 122.56 459.332 122.56ZM460.16 123.352V130H458.48V123.352H460.16ZM463.356 128.62H466.32V130H461.448V128.644L464.352 124.732H461.46V123.352H466.284V124.708L463.356 128.62ZM467.189 126.652C467.189 125.98 467.321 125.384 467.585 124.864C467.857 124.344 468.221 123.944 468.677 123.664C469.141 123.384 469.657 123.244 470.225 123.244C470.721 123.244 471.153 123.344 471.521 123.544C471.897 123.744 472.197 123.996 472.421 124.3V123.352H474.113V130H472.421V129.028C472.205 129.34 471.905 129.6 471.521 129.808C471.145 130.008 470.709 130.108 470.213 130.108C469.653 130.108 469.141 129.964 468.677 129.676C468.221 129.388 467.857 128.984 467.585 128.464C467.321 127.936 467.189 127.332 467.189 126.652ZM472.421 126.676C472.421 126.268 472.341 125.92 472.181 125.632C472.021 125.336 471.805 125.112 471.533 124.96C471.261 124.8 470.969 124.72 470.657 124.72C470.345 124.72 470.057 124.796 469.793 124.948C469.529 125.1 469.313 125.324 469.145 125.62C468.985 125.908 468.905 126.252 468.905 126.652C468.905 127.052 468.985 127.404 469.145 127.708C469.313 128.004 469.529 128.232 469.793 128.392C470.065 128.552 470.353 128.632 470.657 128.632C470.969 128.632 471.261 128.556 471.533 128.404C471.805 128.244 472.021 128.02 472.181 127.732C472.341 127.436 472.421 127.084 472.421 126.676ZM477.71 124.732V127.948C477.71 128.172 477.762 128.336 477.866 128.44C477.978 128.536 478.162 128.584 478.418 128.584H479.198V130H478.142C476.726 130 476.018 129.312 476.018 127.936V124.732H475.226V123.352H476.018V121.708H477.71V123.352H479.198V124.732H477.71ZM481.258 122.56C480.962 122.56 480.714 122.468 480.514 122.284C480.322 122.092 480.226 121.856 480.226 121.576C480.226 121.296 480.322 121.064 480.514 120.88C480.714 120.688 480.962 120.592 481.258 120.592C481.554 120.592 481.798 120.688 481.99 120.88C482.19 121.064 482.29 121.296 482.29 121.576C482.29 121.856 482.19 122.092 481.99 122.284C481.798 122.468 481.554 122.56 481.258 122.56ZM482.086 123.352V130H480.406V123.352H482.086ZM486.698 130.108C486.058 130.108 485.482 129.968 484.97 129.688C484.458 129.4 484.054 128.996 483.758 128.476C483.47 127.956 483.326 127.356 483.326 126.676C483.326 125.996 483.474 125.396 483.77 124.876C484.074 124.356 484.486 123.956 485.006 123.676C485.526 123.388 486.106 123.244 486.746 123.244C487.386 123.244 487.966 123.388 488.486 123.676C489.006 123.956 489.414 124.356 489.71 124.876C490.014 125.396 490.166 125.996 490.166 126.676C490.166 127.356 490.01 127.956 489.698 128.476C489.394 128.996 488.978 129.4 488.45 129.688C487.93 129.968 487.346 130.108 486.698 130.108ZM486.698 128.644C487.002 128.644 487.286 128.572 487.55 128.428C487.822 128.276 488.038 128.052 488.198 127.756C488.358 127.46 488.438 127.1 488.438 126.676C488.438 126.044 488.27 125.56 487.934 125.224C487.606 124.88 487.202 124.708 486.722 124.708C486.242 124.708 485.838 124.88 485.51 125.224C485.19 125.56 485.03 126.044 485.03 126.676C485.03 127.308 485.186 127.796 485.498 128.14C485.818 128.476 486.218 128.644 486.698 128.644ZM495.082 123.256C495.874 123.256 496.514 123.508 497.002 124.012C497.49 124.508 497.734 125.204 497.734 126.1V130H496.054V126.328C496.054 125.8 495.922 125.396 495.658 125.116C495.394 124.828 495.034 124.684 494.578 124.684C494.114 124.684 493.746 124.828 493.474 125.116C493.21 125.396 493.078 125.8 493.078 126.328V130H491.398V123.352H493.078V124.18C493.302 123.892 493.586 123.668 493.93 123.508C494.282 123.34 494.666 123.256 495.082 123.256ZM427.081 150.108C426.537 150.108 426.049 150.012 425.617 149.82C425.185 149.62 424.841 149.352 424.585 149.016C424.337 148.68 424.201 148.308 424.177 147.9H425.869C425.901 148.156 426.025 148.368 426.241 148.536C426.465 148.704 426.741 148.788 427.069 148.788C427.389 148.788 427.637 148.724 427.813 148.596C427.997 148.468 428.089 148.304 428.089 148.104C428.089 147.888 427.977 147.728 427.753 147.624C427.537 147.512 427.189 147.392 426.709 147.264C426.213 147.144 425.805 147.02 425.485 146.892C425.173 146.764 424.901 146.568 424.669 146.304C424.445 146.04 424.333 145.684 424.333 145.236C424.333 144.868 424.437 144.532 424.645 144.228C424.861 143.924 425.165 143.684 425.557 143.508C425.957 143.332 426.425 143.244 426.961 143.244C427.753 143.244 428.385 143.444 428.857 143.844C429.329 144.236 429.589 144.768 429.637 145.44H428.029C428.005 145.176 427.893 144.968 427.693 144.816C427.501 144.656 427.241 144.576 426.913 144.576C426.609 144.576 426.373 144.632 426.205 144.744C426.045 144.856 425.965 145.012 425.965 145.212C425.965 145.436 426.077 145.608 426.301 145.728C426.525 145.84 426.873 145.956 427.345 146.076C427.825 146.196 428.221 146.32 428.533 146.448C428.845 146.576 429.113 146.776 429.337 147.048C429.569 147.312 429.689 147.664 429.697 148.104C429.697 148.488 429.589 148.832 429.373 149.136C429.165 149.44 428.861 149.68 428.461 149.856C428.069 150.024 427.609 150.108 427.081 150.108ZM434.028 150.108C433.388 150.108 432.812 149.968 432.3 149.688C431.788 149.4 431.384 148.996 431.088 148.476C430.8 147.956 430.656 147.356 430.656 146.676C430.656 145.996 430.804 145.396 431.1 144.876C431.404 144.356 431.816 143.956 432.336 143.676C432.856 143.388 433.436 143.244 434.076 143.244C434.716 143.244 435.296 143.388 435.816 143.676C436.336 143.956 436.744 144.356 437.04 144.876C437.344 145.396 437.496 145.996 437.496 146.676C437.496 147.356 437.34 147.956 437.028 148.476C436.724 148.996 436.308 149.4 435.78 149.688C435.26 149.968 434.676 150.108 434.028 150.108ZM434.028 148.644C434.332 148.644 434.616 148.572 434.88 148.428C435.152 148.276 435.368 148.052 435.528 147.756C435.688 147.46 435.768 147.1 435.768 146.676C435.768 146.044 435.6 145.56 435.264 145.224C434.936 144.88 434.532 144.708 434.052 144.708C433.572 144.708 433.168 144.88 432.84 145.224C432.52 145.56 432.36 146.044 432.36 146.676C432.36 147.308 432.516 147.796 432.828 148.14C433.148 148.476 433.548 148.644 434.028 148.644ZM440.408 141.12V150H438.728V141.12H440.408ZM448.344 143.352V150H446.652V149.16C446.436 149.448 446.152 149.676 445.8 149.844C445.456 150.004 445.08 150.084 444.672 150.084C444.152 150.084 443.692 149.976 443.292 149.76C442.892 149.536 442.576 149.212 442.344 148.788C442.12 148.356 442.008 147.844 442.008 147.252V143.352H443.688V147.012C443.688 147.54 443.82 147.948 444.084 148.236C444.348 148.516 444.708 148.656 445.164 148.656C445.628 148.656 445.992 148.516 446.256 148.236C446.52 147.948 446.652 147.54 446.652 147.012V143.352H448.344ZM451.958 144.732V147.948C451.958 148.172 452.01 148.336 452.114 148.44C452.226 148.536 452.41 148.584 452.666 148.584H453.446V150H452.39C450.974 150 450.266 149.312 450.266 147.936V144.732H449.474V143.352H450.266V141.708H451.958V143.352H453.446V144.732H451.958ZM455.506 142.56C455.21 142.56 454.962 142.468 454.762 142.284C454.57 142.092 454.474 141.856 454.474 141.576C454.474 141.296 454.57 141.064 454.762 140.88C454.962 140.688 455.21 140.592 455.506 140.592C455.802 140.592 456.046 140.688 456.238 140.88C456.438 141.064 456.538 141.296 456.538 141.576C456.538 141.856 456.438 142.092 456.238 142.284C456.046 142.468 455.802 142.56 455.506 142.56ZM456.334 143.352V150H454.654V143.352H456.334ZM460.946 150.108C460.306 150.108 459.73 149.968 459.218 149.688C458.706 149.4 458.302 148.996 458.006 148.476C457.718 147.956 457.574 147.356 457.574 146.676C457.574 145.996 457.722 145.396 458.018 144.876C458.322 144.356 458.734 143.956 459.254 143.676C459.774 143.388 460.354 143.244 460.994 143.244C461.634 143.244 462.214 143.388 462.734 143.676C463.254 143.956 463.662 144.356 463.958 144.876C464.262 145.396 464.414 145.996 464.414 146.676C464.414 147.356 464.258 147.956 463.946 148.476C463.642 148.996 463.226 149.4 462.698 149.688C462.178 149.968 461.594 150.108 460.946 150.108ZM460.946 148.644C461.25 148.644 461.534 148.572 461.798 148.428C462.07 148.276 462.286 148.052 462.446 147.756C462.606 147.46 462.686 147.1 462.686 146.676C462.686 146.044 462.518 145.56 462.182 145.224C461.854 144.88 461.45 144.708 460.97 144.708C460.49 144.708 460.086 144.88 459.758 145.224C459.438 145.56 459.278 146.044 459.278 146.676C459.278 147.308 459.434 147.796 459.746 148.14C460.066 148.476 460.466 148.644 460.946 148.644ZM469.33 143.256C470.122 143.256 470.762 143.508 471.25 144.012C471.738 144.508 471.982 145.204 471.982 146.1V150H470.302V146.328C470.302 145.8 470.17 145.396 469.906 145.116C469.642 144.828 469.282 144.684 468.826 144.684C468.362 144.684 467.994 144.828 467.722 145.116C467.458 145.396 467.326 145.8 467.326 146.328V150H465.646V143.352H467.326V144.18C467.55 143.892 467.834 143.668 468.178 143.508C468.53 143.34 468.914 143.256 469.33 143.256ZM476.124 150.108C475.58 150.108 475.092 150.012 474.66 149.82C474.228 149.62 473.884 149.352 473.628 149.016C473.38 148.68 473.244 148.308 473.22 147.9H474.912C474.944 148.156 475.068 148.368 475.284 148.536C475.508 148.704 475.784 148.788 476.112 148.788C476.432 148.788 476.68 148.724 476.856 148.596C477.04 148.468 477.132 148.304 477.132 148.104C477.132 147.888 477.02 147.728 476.796 147.624C476.58 147.512 476.232 147.392 475.752 147.264C475.256 147.144 474.848 147.02 474.528 146.892C474.216 146.764 473.944 146.568 473.712 146.304C473.488 146.04 473.376 145.684 473.376 145.236C473.376 144.868 473.48 144.532 473.688 144.228C473.904 143.924 474.208 143.684 474.6 143.508C475 143.332 475.468 143.244 476.004 143.244C476.796 143.244 477.428 143.444 477.9 143.844C478.372 144.236 478.632 144.768 478.68 145.44H477.072C477.048 145.176 476.936 144.968 476.736 144.816C476.544 144.656 476.284 144.576 475.956 144.576C475.652 144.576 475.416 144.632 475.248 144.744C475.088 144.856 475.008 145.012 475.008 145.212C475.008 145.436 475.12 145.608 475.344 145.728C475.568 145.84 475.916 145.956 476.388 146.076C476.868 146.196 477.264 146.32 477.576 146.448C477.888 146.576 478.156 146.776 478.38 147.048C478.612 147.312 478.732 147.664 478.74 148.104C478.74 148.488 478.632 148.832 478.416 149.136C478.208 149.44 477.904 149.68 477.504 149.856C477.112 150.024 476.652 150.108 476.124 150.108Z" fill="white"/>
<rect x="386" y="70" width="132" height="132" rx="63" stroke="white" stroke-width="2" stroke-linecap="round" stroke-dasharray="8 8"/>
<rect x="386" y="386" width="132" height="132" rx="63" fill="#5846D3"/>
<path d="M423.27 427.624V436H421.59V427.624H423.27ZM428.614 429.256C429.406 429.256 430.046 429.508 430.534 430.012C431.022 430.508 431.266 431.204 431.266 432.1V436H429.586V432.328C429.586 431.8 429.454 431.396 429.19 431.116C428.926 430.828 428.566 430.684 428.11 430.684C427.646 430.684 427.278 430.828 427.006 431.116C426.742 431.396 426.61 431.8 426.61 432.328V436H424.93V429.352H426.61V430.18C426.834 429.892 427.118 429.668 427.462 429.508C427.814 429.34 428.198 429.256 428.614 429.256ZM434.819 430.732V433.948C434.819 434.172 434.871 434.336 434.975 434.44C435.087 434.536 435.271 434.584 435.527 434.584H436.307V436H435.251C433.835 436 433.127 435.312 433.127 433.936V430.732H432.335V429.352H433.127V427.708H434.819V429.352H436.307V430.732H434.819ZM443.696 432.532C443.696 432.772 443.68 432.988 443.648 433.18H438.788C438.828 433.66 438.996 434.036 439.292 434.308C439.588 434.58 439.952 434.716 440.384 434.716C441.008 434.716 441.452 434.448 441.716 433.912H443.528C443.336 434.552 442.968 435.08 442.424 435.496C441.88 435.904 441.212 436.108 440.42 436.108C439.78 436.108 439.204 435.968 438.692 435.688C438.188 435.4 437.792 434.996 437.504 434.476C437.224 433.956 437.083 433.356 437.083 432.676C437.083 431.988 437.224 431.384 437.504 430.864C437.784 430.344 438.176 429.944 438.68 429.664C439.184 429.384 439.764 429.244 440.42 429.244C441.052 429.244 441.616 429.38 442.112 429.652C442.616 429.924 443.004 430.312 443.276 430.816C443.556 431.312 443.696 431.884 443.696 432.532ZM441.956 432.052C441.948 431.62 441.792 431.276 441.488 431.02C441.184 430.756 440.812 430.624 440.372 430.624C439.956 430.624 439.604 430.752 439.316 431.008C439.036 431.256 438.864 431.604 438.8 432.052H441.956ZM446.602 427.12V436H444.922V427.12H446.602ZM449.942 427.12V436H448.262V427.12H449.942ZM452.453 428.56C452.157 428.56 451.909 428.468 451.709 428.284C451.517 428.092 451.421 427.856 451.421 427.576C451.421 427.296 451.517 427.064 451.709 426.88C451.909 426.688 452.157 426.592 452.453 426.592C452.749 426.592 452.993 426.688 453.185 426.88C453.385 427.064 453.485 427.296 453.485 427.576C453.485 427.856 453.385 428.092 453.185 428.284C452.993 428.468 452.749 428.56 452.453 428.56ZM453.281 429.352V436H451.601V429.352H453.281ZM457.545 429.244C458.041 429.244 458.477 429.344 458.853 429.544C459.229 429.736 459.525 429.988 459.741 430.3V429.352H461.433V436.048C461.433 436.664 461.309 437.212 461.061 437.692C460.813 438.18 460.441 438.564 459.945 438.844C459.449 439.132 458.849 439.276 458.145 439.276C457.201 439.276 456.425 439.056 455.817 438.616C455.217 438.176 454.877 437.576 454.797 436.816H456.465C456.553 437.12 456.741 437.36 457.029 437.536C457.325 437.72 457.681 437.812 458.097 437.812C458.585 437.812 458.981 437.664 459.285 437.368C459.589 437.08 459.741 436.64 459.741 436.048V435.016C459.525 435.328 459.225 435.588 458.841 435.796C458.465 436.004 458.033 436.108 457.545 436.108C456.985 436.108 456.473 435.964 456.009 435.676C455.545 435.388 455.177 434.984 454.905 434.464C454.641 433.936 454.509 433.332 454.509 432.652C454.509 431.98 454.641 431.384 454.905 430.864C455.177 430.344 455.541 429.944 455.997 429.664C456.461 429.384 456.977 429.244 457.545 429.244ZM459.741 432.676C459.741 432.268 459.661 431.92 459.501 431.632C459.341 431.336 459.125 431.112 458.853 430.96C458.581 430.8 458.289 430.72 457.977 430.72C457.665 430.72 457.377 430.796 457.113 430.948C456.849 431.1 456.633 431.324 456.465 431.62C456.305 431.908 456.225 432.252 456.225 432.652C456.225 433.052 456.305 433.404 456.465 433.708C456.633 434.004 456.849 434.232 457.113 434.392C457.385 434.552 457.673 434.632 457.977 434.632C458.289 434.632 458.581 434.556 458.853 434.404C459.125 434.244 459.341 434.02 459.501 433.732C459.661 433.436 459.741 433.084 459.741 432.676ZM469.254 432.532C469.254 432.772 469.238 432.988 469.206 433.18H464.346C464.386 433.66 464.554 434.036 464.85 434.308C465.146 434.58 465.51 434.716 465.942 434.716C466.566 434.716 467.01 434.448 467.274 433.912H469.086C468.894 434.552 468.526 435.08 467.982 435.496C467.438 435.904 466.77 436.108 465.978 436.108C465.338 436.108 464.762 435.968 464.25 435.688C463.746 435.4 463.35 434.996 463.062 434.476C462.782 433.956 462.642 433.356 462.642 432.676C462.642 431.988 462.782 431.384 463.062 430.864C463.342 430.344 463.734 429.944 464.238 429.664C464.742 429.384 465.322 429.244 465.978 429.244C466.61 429.244 467.174 429.38 467.67 429.652C468.174 429.924 468.562 430.312 468.834 430.816C469.114 431.312 469.254 431.884 469.254 432.532ZM467.514 432.052C467.506 431.62 467.35 431.276 467.046 431.02C466.742 430.756 466.37 430.624 465.93 430.624C465.514 430.624 465.162 430.752 464.874 431.008C464.594 431.256 464.422 431.604 464.358 432.052H467.514ZM474.164 429.256C474.956 429.256 475.596 429.508 476.084 430.012C476.572 430.508 476.816 431.204 476.816 432.1V436H475.136V432.328C475.136 431.8 475.004 431.396 474.74 431.116C474.476 430.828 474.116 430.684 473.66 430.684C473.196 430.684 472.828 430.828 472.556 431.116C472.292 431.396 472.16 431.8 472.16 432.328V436H470.48V429.352H472.16V430.18C472.384 429.892 472.668 429.668 473.012 429.508C473.364 429.34 473.748 429.256 474.164 429.256ZM480.37 430.732V433.948C480.37 434.172 480.422 434.336 480.526 434.44C480.638 434.536 480.822 434.584 481.078 434.584H481.858V436H480.802C479.386 436 478.678 435.312 478.678 433.936V430.732H477.886V429.352H478.678V427.708H480.37V429.352H481.858V430.732H480.37ZM429.838 450.312C430.054 450.008 430.35 449.756 430.726 449.556C431.11 449.348 431.546 449.244 432.034 449.244C432.602 449.244 433.114 449.384 433.57 449.664C434.034 449.944 434.398 450.344 434.662 450.864C434.934 451.376 435.07 451.972 435.07 452.652C435.07 453.332 434.934 453.936 434.662 454.464C434.398 454.984 434.034 455.388 433.57 455.676C433.114 455.964 432.602 456.108 432.034 456.108C431.546 456.108 431.114 456.008 430.738 455.808C430.37 455.608 430.07 455.356 429.838 455.052V459.168H428.158V449.352H429.838V450.312ZM433.354 452.652C433.354 452.252 433.27 451.908 433.102 451.62C432.942 451.324 432.726 451.1 432.454 450.948C432.19 450.796 431.902 450.72 431.59 450.72C431.286 450.72 430.998 450.8 430.726 450.96C430.462 451.112 430.246 451.336 430.078 451.632C429.918 451.928 429.838 452.276 429.838 452.676C429.838 453.076 429.918 453.424 430.078 453.72C430.246 454.016 430.462 454.244 430.726 454.404C430.998 454.556 431.286 454.632 431.59 454.632C431.902 454.632 432.19 454.552 432.454 454.392C432.726 454.232 432.942 454.004 433.102 453.708C433.27 453.412 433.354 453.06 433.354 452.652ZM437.971 450.384C438.187 450.032 438.467 449.756 438.811 449.556C439.163 449.356 439.563 449.256 440.011 449.256V451.02H439.567C439.039 451.02 438.639 451.144 438.367 451.392C438.103 451.64 437.971 452.072 437.971 452.688V456H436.291V449.352H437.971V450.384ZM444.094 456.108C443.454 456.108 442.878 455.968 442.366 455.688C441.854 455.4 441.45 454.996 441.154 454.476C440.866 453.956 440.722 453.356 440.722 452.676C440.722 451.996 440.87 451.396 441.166 450.876C441.47 450.356 441.882 449.956 442.402 449.676C442.922 449.388 443.502 449.244 444.142 449.244C444.782 449.244 445.362 449.388 445.882 449.676C446.402 449.956 446.81 450.356 447.106 450.876C447.41 451.396 447.562 451.996 447.562 452.676C447.562 453.356 447.406 453.956 447.094 454.476C446.79 454.996 446.374 455.4 445.846 455.688C445.326 455.968 444.742 456.108 444.094 456.108ZM444.094 454.644C444.398 454.644 444.682 454.572 444.946 454.428C445.218 454.276 445.434 454.052 445.594 453.756C445.754 453.46 445.834 453.1 445.834 452.676C445.834 452.044 445.666 451.56 445.33 451.224C445.002 450.88 444.598 450.708 444.118 450.708C443.638 450.708 443.234 450.88 442.906 451.224C442.586 451.56 442.426 452.044 442.426 452.676C442.426 453.308 442.582 453.796 442.894 454.14C443.214 454.476 443.614 454.644 444.094 454.644ZM448.363 452.676C448.363 451.988 448.503 451.388 448.783 450.876C449.063 450.356 449.451 449.956 449.947 449.676C450.443 449.388 451.011 449.244 451.651 449.244C452.475 449.244 453.155 449.452 453.691 449.868C454.235 450.276 454.599 450.852 454.783 451.596H452.971C452.875 451.308 452.711 451.084 452.479 450.924C452.255 450.756 451.975 450.672 451.639 450.672C451.159 450.672 450.779 450.848 450.499 451.2C450.219 451.544 450.079 452.036 450.079 452.676C450.079 453.308 450.219 453.8 450.499 454.152C450.779 454.496 451.159 454.668 451.639 454.668C452.319 454.668 452.763 454.364 452.971 453.756H454.783C454.599 454.476 454.235 455.048 453.691 455.472C453.147 455.896 452.467 456.108 451.651 456.108C451.011 456.108 450.443 455.968 449.947 455.688C449.451 455.4 449.063 455 448.783 454.488C448.503 453.968 448.363 453.364 448.363 452.676ZM462.194 452.532C462.194 452.772 462.178 452.988 462.146 453.18H457.286C457.326 453.66 457.494 454.036 457.79 454.308C458.086 454.58 458.45 454.716 458.882 454.716C459.506 454.716 459.95 454.448 460.214 453.912H462.026C461.834 454.552 461.466 455.08 460.922 455.496C460.378 455.904 459.71 456.108 458.918 456.108C458.278 456.108 457.702 455.968 457.19 455.688C456.686 455.4 456.29 454.996 456.002 454.476C455.722 453.956 455.582 453.356 455.582 452.676C455.582 451.988 455.722 451.384 456.002 450.864C456.282 450.344 456.674 449.944 457.178 449.664C457.682 449.384 458.262 449.244 458.918 449.244C459.55 449.244 460.114 449.38 460.61 449.652C461.114 449.924 461.502 450.312 461.774 450.816C462.054 451.312 462.194 451.884 462.194 452.532ZM460.454 452.052C460.446 451.62 460.29 451.276 459.986 451.02C459.682 450.756 459.31 450.624 458.87 450.624C458.454 450.624 458.102 450.752 457.814 451.008C457.534 451.256 457.362 451.604 457.298 452.052H460.454ZM465.964 456.108C465.42 456.108 464.932 456.012 464.5 455.82C464.068 455.62 463.724 455.352 463.468 455.016C463.22 454.68 463.084 454.308 463.06 453.9H464.752C464.784 454.156 464.908 454.368 465.124 454.536C465.348 454.704 465.624 454.788 465.952 454.788C466.272 454.788 466.52 454.724 466.696 454.596C466.88 454.468 466.972 454.304 466.972 454.104C466.972 453.888 466.86 453.728 466.636 453.624C466.42 453.512 466.072 453.392 465.592 453.264C465.096 453.144 464.688 453.02 464.368 452.892C464.056 452.764 463.784 452.568 463.552 452.304C463.328 452.04 463.216 451.684 463.216 451.236C463.216 450.868 463.32 450.532 463.528 450.228C463.744 449.924 464.048 449.684 464.44 449.508C464.84 449.332 465.308 449.244 465.844 449.244C466.636 449.244 467.268 449.444 467.74 449.844C468.212 450.236 468.472 450.768 468.52 451.44H466.912C466.888 451.176 466.776 450.968 466.576 450.816C466.384 450.656 466.124 450.576 465.796 450.576C465.492 450.576 465.256 450.632 465.088 450.744C464.928 450.856 464.848 451.012 464.848 451.212C464.848 451.436 464.96 451.608 465.184 451.728C465.408 451.84 465.756 451.956 466.228 452.076C466.708 452.196 467.104 452.32 467.416 452.448C467.728 452.576 467.996 452.776 468.22 453.048C468.452 453.312 468.572 453.664 468.58 454.104C468.58 454.488 468.472 454.832 468.256 455.136C468.048 455.44 467.744 455.68 467.344 455.856C466.952 456.024 466.492 456.108 465.964 456.108ZM472.503 456.108C471.959 456.108 471.471 456.012 471.039 455.82C470.607 455.62 470.263 455.352 470.007 455.016C469.759 454.68 469.623 454.308 469.599 453.9H471.291C471.323 454.156 471.447 454.368 471.663 454.536C471.887 454.704 472.163 454.788 472.491 454.788C472.811 454.788 473.059 454.724 473.235 454.596C473.419 454.468 473.511 454.304 473.511 454.104C473.511 453.888 473.399 453.728 473.175 453.624C472.959 453.512 472.611 453.392 472.131 453.264C471.635 453.144 471.227 453.02 470.907 452.892C470.595 452.764 470.323 452.568 470.091 452.304C469.867 452.04 469.755 451.684 469.755 451.236C469.755 450.868 469.859 450.532 470.067 450.228C470.283 449.924 470.587 449.684 470.979 449.508C471.379 449.332 471.847 449.244 472.383 449.244C473.175 449.244 473.807 449.444 474.279 449.844C474.751 450.236 475.011 450.768 475.059 451.44H473.451C473.427 451.176 473.315 450.968 473.115 450.816C472.923 450.656 472.663 450.576 472.335 450.576C472.031 450.576 471.795 450.632 471.627 450.744C471.467 450.856 471.387 451.012 471.387 451.212C471.387 451.436 471.499 451.608 471.723 451.728C471.947 451.84 472.295 451.956 472.767 452.076C473.247 452.196 473.643 452.32 473.955 452.448C474.267 452.576 474.535 452.776 474.759 453.048C474.991 453.312 475.111 453.664 475.119 454.104C475.119 454.488 475.011 454.832 474.795 455.136C474.587 455.44 474.283 455.68 473.883 455.856C473.491 456.024 473.031 456.108 472.503 456.108ZM415.568 472.652C415.568 471.98 415.7 471.384 415.964 470.864C416.236 470.344 416.6 469.944 417.056 469.664C417.52 469.384 418.036 469.244 418.604 469.244C419.1 469.244 419.532 469.344 419.9 469.544C420.276 469.744 420.576 469.996 420.8 470.3V469.352H422.492V476H420.8V475.028C420.584 475.34 420.284 475.6 419.9 475.808C419.524 476.008 419.088 476.108 418.592 476.108C418.032 476.108 417.52 475.964 417.056 475.676C416.6 475.388 416.236 474.984 415.964 474.464C415.7 473.936 415.568 473.332 415.568 472.652ZM420.8 472.676C420.8 472.268 420.72 471.92 420.56 471.632C420.4 471.336 420.184 471.112 419.912 470.96C419.64 470.8 419.348 470.72 419.036 470.72C418.724 470.72 418.436 470.796 418.172 470.948C417.908 471.1 417.692 471.324 417.524 471.62C417.364 471.908 417.284 472.252 417.284 472.652C417.284 473.052 417.364 473.404 417.524 473.708C417.692 474.004 417.908 474.232 418.172 474.392C418.444 474.552 418.732 474.632 419.036 474.632C419.348 474.632 419.64 474.556 419.912 474.404C420.184 474.244 420.4 474.02 420.56 473.732C420.72 473.436 420.8 473.084 420.8 472.676ZM430.409 469.352V476H428.717V475.16C428.501 475.448 428.217 475.676 427.865 475.844C427.521 476.004 427.145 476.084 426.737 476.084C426.217 476.084 425.757 475.976 425.357 475.76C424.957 475.536 424.641 475.212 424.409 474.788C424.185 474.356 424.073 473.844 424.073 473.252V469.352H425.753V473.012C425.753 473.54 425.885 473.948 426.149 474.236C426.413 474.516 426.773 474.656 427.229 474.656C427.693 474.656 428.057 474.516 428.321 474.236C428.585 473.948 428.717 473.54 428.717 473.012V469.352H430.409ZM434.022 470.732V473.948C434.022 474.172 434.074 474.336 434.178 474.44C434.29 474.536 434.474 474.584 434.73 474.584H435.51V476H434.454C433.038 476 432.33 475.312 432.33 473.936V470.732H431.538V469.352H432.33V467.708H434.022V469.352H435.51V470.732H434.022ZM439.671 476.108C439.031 476.108 438.455 475.968 437.943 475.688C437.431 475.4 437.027 474.996 436.731 474.476C436.443 473.956 436.299 473.356 436.299 472.676C436.299 471.996 436.447 471.396 436.743 470.876C437.047 470.356 437.459 469.956 437.979 469.676C438.499 469.388 439.079 469.244 439.719 469.244C440.359 469.244 440.939 469.388 441.459 469.676C441.979 469.956 442.387 470.356 442.683 470.876C442.987 471.396 443.139 471.996 443.139 472.676C443.139 473.356 442.983 473.956 442.671 474.476C442.367 474.996 441.951 475.4 441.423 475.688C440.903 475.968 440.319 476.108 439.671 476.108ZM439.671 474.644C439.975 474.644 440.259 474.572 440.523 474.428C440.795 474.276 441.011 474.052 441.171 473.756C441.331 473.46 441.411 473.1 441.411 472.676C441.411 472.044 441.243 471.56 440.907 471.224C440.579 470.88 440.175 470.708 439.695 470.708C439.215 470.708 438.811 470.88 438.483 471.224C438.163 471.56 438.003 472.044 438.003 472.676C438.003 473.308 438.159 473.796 438.471 474.14C438.791 474.476 439.191 474.644 439.671 474.644ZM452.627 469.256C453.443 469.256 454.099 469.508 454.595 470.012C455.099 470.508 455.351 471.204 455.351 472.1V476H453.671V472.328C453.671 471.808 453.539 471.412 453.275 471.14C453.011 470.86 452.651 470.72 452.195 470.72C451.739 470.72 451.375 470.86 451.103 471.14C450.839 471.412 450.707 471.808 450.707 472.328V476H449.027V472.328C449.027 471.808 448.895 471.412 448.631 471.14C448.367 470.86 448.007 470.72 447.551 470.72C447.087 470.72 446.719 470.86 446.447 471.14C446.183 471.412 446.051 471.808 446.051 472.328V476H444.371V469.352H446.051V470.156C446.267 469.876 446.543 469.656 446.879 469.496C447.223 469.336 447.599 469.256 448.007 469.256C448.527 469.256 448.991 469.368 449.399 469.592C449.807 469.808 450.123 470.12 450.347 470.528C450.563 470.144 450.875 469.836 451.283 469.604C451.699 469.372 452.147 469.256 452.627 469.256ZM456.513 472.652C456.513 471.98 456.645 471.384 456.909 470.864C457.181 470.344 457.545 469.944 458.001 469.664C458.465 469.384 458.981 469.244 459.549 469.244C460.045 469.244 460.477 469.344 460.845 469.544C461.221 469.744 461.521 469.996 461.745 470.3V469.352H463.437V476H461.745V475.028C461.529 475.34 461.229 475.6 460.845 475.808C460.469 476.008 460.033 476.108 459.537 476.108C458.977 476.108 458.465 475.964 458.001 475.676C457.545 475.388 457.181 474.984 456.909 474.464C456.645 473.936 456.513 473.332 456.513 472.652ZM461.745 472.676C461.745 472.268 461.665 471.92 461.505 471.632C461.345 471.336 461.129 471.112 460.857 470.96C460.585 470.8 460.293 470.72 459.981 470.72C459.669 470.72 459.381 470.796 459.117 470.948C458.853 471.1 458.637 471.324 458.469 471.62C458.309 471.908 458.229 472.252 458.229 472.652C458.229 473.052 458.309 473.404 458.469 473.708C458.637 474.004 458.853 474.232 459.117 474.392C459.389 474.552 459.677 474.632 459.981 474.632C460.293 474.632 460.585 474.556 460.857 474.404C461.129 474.244 461.345 474.02 461.505 473.732C461.665 473.436 461.745 473.084 461.745 472.676ZM467.034 470.732V473.948C467.034 474.172 467.086 474.336 467.19 474.44C467.302 474.536 467.486 474.584 467.742 474.584H468.522V476H467.466C466.05 476 465.342 475.312 465.342 473.936V470.732H464.55V469.352H465.342V467.708H467.034V469.352H468.522V470.732H467.034ZM470.582 468.56C470.286 468.56 470.038 468.468 469.838 468.284C469.646 468.092 469.55 467.856 469.55 467.576C469.55 467.296 469.646 467.064 469.838 466.88C470.038 466.688 470.286 466.592 470.582 466.592C470.878 466.592 471.122 466.688 471.314 466.88C471.514 467.064 471.614 467.296 471.614 467.576C471.614 467.856 471.514 468.092 471.314 468.284C471.122 468.468 470.878 468.56 470.582 468.56ZM471.41 469.352V476H469.73V469.352H471.41ZM476.022 476.108C475.382 476.108 474.806 475.968 474.294 475.688C473.782 475.4 473.378 474.996 473.082 474.476C472.794 473.956 472.65 473.356 472.65 472.676C472.65 471.996 472.798 471.396 473.094 470.876C473.398 470.356 473.81 469.956 474.33 469.676C474.85 469.388 475.43 469.244 476.07 469.244C476.71 469.244 477.29 469.388 477.81 469.676C478.33 469.956 478.738 470.356 479.034 470.876C479.338 471.396 479.49 471.996 479.49 472.676C479.49 473.356 479.334 473.956 479.022 474.476C478.718 474.996 478.302 475.4 477.774 475.688C477.254 475.968 476.67 476.108 476.022 476.108ZM476.022 474.644C476.326 474.644 476.61 474.572 476.874 474.428C477.146 474.276 477.362 474.052 477.522 473.756C477.682 473.46 477.762 473.1 477.762 472.676C477.762 472.044 477.594 471.56 477.258 471.224C476.93 470.88 476.526 470.708 476.046 470.708C475.566 470.708 475.162 470.88 474.834 471.224C474.514 471.56 474.354 472.044 474.354 472.676C474.354 473.308 474.51 473.796 474.822 474.14C475.142 474.476 475.542 474.644 476.022 474.644ZM484.407 469.256C485.199 469.256 485.839 469.508 486.327 470.012C486.815 470.508 487.059 471.204 487.059 472.1V476H485.379V472.328C485.379 471.8 485.247 471.396 484.983 471.116C484.719 470.828 484.359 470.684 483.903 470.684C483.439 470.684 483.071 470.828 482.799 471.116C482.535 471.396 482.403 471.8 482.403 472.328V476H480.723V469.352H482.403V470.18C482.627 469.892 482.911 469.668 483.255 469.508C483.607 469.34 483.991 469.256 484.407 469.256Z" fill="white"/>
<rect x="386" y="386" width="132" height="132" rx="63" stroke="white" stroke-width="2" stroke-linecap="round" stroke-dasharray="8 8"/>
<rect x="455" y="228" width="132" height="132" rx="63" fill="#5846D3"/>
<path d="M495.14 296.404H491.804L491.252 298H489.488L492.5 289.612H494.456L497.468 298H495.692L495.14 296.404ZM494.684 295.06L493.472 291.556L492.26 295.06H494.684ZM502.914 298L501.066 294.736H500.274V298H498.594V289.624H501.738C502.386 289.624 502.938 289.74 503.394 289.972C503.85 290.196 504.19 290.504 504.414 290.896C504.646 291.28 504.762 291.712 504.762 292.192C504.762 292.744 504.602 293.244 504.282 293.692C503.962 294.132 503.486 294.436 502.854 294.604L504.858 298H502.914ZM500.274 293.476H501.678C502.134 293.476 502.474 293.368 502.698 293.152C502.922 292.928 503.034 292.62 503.034 292.228C503.034 291.844 502.922 291.548 502.698 291.34C502.474 291.124 502.134 291.016 501.678 291.016H500.274V293.476ZM510.781 286.636L507.541 300.172H505.897L509.137 286.636H510.781ZM519.641 289.624L516.569 298H514.529L511.457 289.624H513.257L515.561 296.284L517.853 289.624H519.641ZM524.968 298L523.12 294.736H522.328V298H520.648V289.624H523.792C524.44 289.624 524.992 289.74 525.448 289.972C525.904 290.196 526.244 290.504 526.468 290.896C526.7 291.28 526.816 291.712 526.816 292.192C526.816 292.744 526.656 293.244 526.336 293.692C526.016 294.132 525.54 294.436 524.908 294.604L526.912 298H524.968ZM522.328 293.476H523.732C524.188 293.476 524.528 293.368 524.752 293.152C524.976 292.928 525.088 292.62 525.088 292.228C525.088 291.844 524.976 291.548 524.752 291.34C524.528 291.124 524.188 291.016 523.732 291.016H522.328V293.476ZM532.836 286.636L529.596 300.172H527.952L531.192 286.636H532.836ZM543.304 289.624V298H541.624V292.552L539.38 298H538.108L535.852 292.552V298H534.172V289.624H536.08L538.744 295.852L541.408 289.624H543.304ZM549.285 298L547.437 294.736H546.645V298H544.965V289.624H548.109C548.757 289.624 549.309 289.74 549.765 289.972C550.221 290.196 550.561 290.504 550.785 290.896C551.017 291.28 551.133 291.712 551.133 292.192C551.133 292.744 550.973 293.244 550.653 293.692C550.333 294.132 549.857 294.436 549.225 294.604L551.229 298H549.285ZM546.645 293.476H548.049C548.505 293.476 548.845 293.368 549.069 293.152C549.293 292.928 549.405 292.62 549.405 292.228C549.405 291.844 549.293 291.548 549.069 291.34C548.845 291.124 548.505 291.016 548.049 291.016H546.645V293.476Z" fill="white"/>
<rect x="455" y="228" width="132" height="132" rx="63" stroke="white" stroke-width="2" stroke-linecap="round" stroke-dasharray="8 8"/>
<path d="M294 322.75C325.756 322.75 351.5 297.006 351.5 265.25C351.5 233.494 325.756 207.75 294 207.75C262.244 207.75 236.5 233.494 236.5 265.25C236.5 297.006 262.244 322.75 294 322.75Z" fill="#5846D3" stroke="white" stroke-width="3" stroke-miterlimit="10"/>
<path d="M300.738 258.512H288.412V270.838H300.738V258.512Z" stroke="white" stroke-width="3.52187" stroke-linecap="round" stroke-linejoin="round"/>
<path d="M310.423 247.066H278.727C277.754 247.066 276.966 247.854 276.966 248.827V280.523C276.966 281.496 277.754 282.284 278.727 282.284H310.423C311.396 282.284 312.184 281.496 312.184 280.523V248.827C312.184 247.854 311.396 247.066 310.423 247.066Z" stroke="white" stroke-width="3.52187" stroke-linecap="round" stroke-linejoin="round"/>
<path d="M312.184 259.392H317.467" stroke="white" stroke-width="3.52187" stroke-linecap="round" stroke-linejoin="round"/>
<path d="M312.184 269.958H317.467" stroke="white" stroke-width="3.52187" stroke-linecap="round" stroke-linejoin="round"/>
<path d="M271.683 259.392H276.966" stroke="white" stroke-width="3.52187" stroke-linecap="round" stroke-linejoin="round"/>
<path d="M271.683 269.958H276.966" stroke="white" stroke-width="3.52187" stroke-linecap="round" stroke-linejoin="round"/>
<path d="M299.858 282.284V287.567" stroke="white" stroke-width="3.52187" stroke-linecap="round" stroke-linejoin="round"/>
<path d="M289.292 282.284V287.567" stroke="white" stroke-width="3.52187" stroke-linecap="round" stroke-linejoin="round"/>
<path d="M299.858 241.783V247.066" stroke="white" stroke-width="3.52187" stroke-linecap="round" stroke-linejoin="round"/>
<path d="M289.292 241.783V247.066" stroke="white" stroke-width="3.52187" stroke-linecap="round" stroke-linejoin="round"/>
<path d="M206.842 373.054C215.679 357.759 228.385 345.058 243.684 336.228C258.983 327.398 276.337 322.75 294.001 322.75C311.666 322.75 329.019 327.399 344.318 336.229C359.617 345.059 372.323 357.76 381.16 373.056" stroke="white" stroke-width="3" stroke-linecap="round" stroke-linejoin="round"/>
<path d="M385.778 194.151H392.849V201.222" stroke="white" stroke-width="1.5" stroke-linecap="round" stroke-linejoin="round"/>
<path d="M382.243 197.686H389.314V204.757" stroke="white" stroke-width="1.5" stroke-linecap="round" stroke-linejoin="round"/>
<path d="M204.814 201.258L202.984 194.428L209.814 192.598" stroke="white" stroke-width="1.5" stroke-linecap="round" stroke-linejoin="round"/>
<path d="M209.144 203.758L207.314 196.928L214.144 195.098" stroke="white" stroke-width="1.5" stroke-linecap="round" stroke-linejoin="round"/>
<path d="M392.849 384.151V391.222H385.778" stroke="white" stroke-width="1.5" stroke-linecap="round" stroke-linejoin="round"/>
<path d="M389.314 380.615V387.686H382.243" stroke="white" stroke-width="1.5" stroke-linecap="round" stroke-linejoin="round"/>
<path d="M205.849 390.464H198.778V383.393" stroke="white" stroke-width="1.5" stroke-linecap="round" stroke-linejoin="round"/>
<path d="M209.385 386.928H202.314V379.857" stroke="white" stroke-width="1.5" stroke-linecap="round" stroke-linejoin="round"/>
<path d="M299 434L294 439L289 434" stroke="white" stroke-width="1.5" stroke-linecap="round" stroke-linejoin="round"/>
<path d="M299 429L294 434L289 429" stroke="white" stroke-width="1.5" stroke-linecap="round" stroke-linejoin="round"/>
<path d="M299 434L294 439L289 434" stroke="white" stroke-width="1.5" stroke-linecap="round" stroke-linejoin="round"/>
<path d="M299 429L294 434L289 429" stroke="white" stroke-width="1.5" stroke-linecap="round" stroke-linejoin="round"/>
<path d="M289 154L294 149L299 154" stroke="white" stroke-width="1.5" stroke-linecap="round" stroke-linejoin="round"/>
<path d="M289 159L294 154L299 159" stroke="white" stroke-width="1.5" stroke-linecap="round" stroke-linejoin="round"/>
<path d="M154 299L149 294L154 289" stroke="white" stroke-width="1.5" stroke-linecap="round" stroke-linejoin="round"/>
<path d="M159 299L154 294L159 289" stroke="white" stroke-width="1.5" stroke-linecap="round" stroke-linejoin="round"/>
<path d="M434 289L439 294L434 299" stroke="white" stroke-width="1.5" stroke-linecap="round" stroke-linejoin="round"/>
<path d="M429 289L434 294L429 299" stroke="white" stroke-width="1.5" stroke-linecap="round" stroke-linejoin="round"/>
</svg>
