<svg width="24" height="24" viewBox="0 0 24 24" fill="none" xmlns="http://www.w3.org/2000/svg">
<path d="M3.15218 12.7175H1.71741C1.32111 12.7175 1 12.3964 1 12.0001C1 11.6038 1.32111 11.2827 1.71741 11.2827H3.15218C3.54848 11.2827 3.86958 11.6038 3.86958 12.0001C3.86958 12.3964 3.54848 12.7175 3.15218 12.7175Z" fill="#FFB319"/>
<path d="M22.2826 12.7175H20.8478C20.4515 12.7175 20.1304 12.3964 20.1304 12.0001C20.1304 11.6038 20.4515 11.2827 20.8478 11.2827H22.2826C22.6786 11.2827 23 11.6038 23 12.0001C23 12.3964 22.6786 12.7175 22.2826 12.7175Z" fill="#FFB319"/>
<path d="M12.0001 23C11.6038 23 11.2827 22.6789 11.2827 22.2826V20.8478C11.2827 20.4515 11.6038 20.1304 12.0001 20.1304C12.3964 20.1304 12.7175 20.4515 12.7175 20.8478V22.2826C12.7175 22.6789 12.3964 23 12.0001 23Z" fill="#FFB319"/>
<path d="M12.0001 3.86958C11.6038 3.86958 11.2827 3.54848 11.2827 3.15218V1.71741C11.2827 1.32111 11.6038 1 12.0001 1C12.3964 1 12.7175 1.32111 12.7175 1.71741V3.15218C12.7175 3.54848 12.3964 3.86958 12.0001 3.86958Z" fill="#FFB319"/>
<path d="M17.1422 21.6225C16.8941 21.6225 16.6531 21.4939 16.5203 21.2636L15.8029 20.021C15.6046 19.678 15.7223 19.2392 16.0653 19.0412C16.4095 18.8427 16.8474 18.9608 17.0452 19.3036L17.7626 20.5462C17.9609 20.8893 17.8432 21.3281 17.5001 21.5261C17.3871 21.5915 17.2638 21.6225 17.1422 21.6225Z" fill="#FFB319"/>
<path d="M7.57671 5.05501C7.3287 5.05501 7.08769 4.92636 6.95483 4.69609L6.23742 3.45352C6.03917 3.11046 6.15686 2.67166 6.49992 2.47366C6.84388 2.27561 7.28204 2.39309 7.47978 2.73611L8.19718 3.97868C8.39548 4.32175 8.27775 4.76054 7.93473 4.95854C7.82168 5.02398 7.6984 5.05501 7.57671 5.05501Z" fill="#FFB319"/>
<path d="M20.9047 17.8591C20.783 17.8591 20.6597 17.828 20.5467 17.7626L19.3041 17.0452C18.961 16.8472 18.8434 16.4084 19.0417 16.0653C19.2397 15.7223 19.6784 15.6046 20.0215 15.8029L21.2641 16.5203C21.6071 16.7183 21.7248 17.1571 21.5265 17.5002C21.3936 17.7302 21.1526 17.8591 20.9047 17.8591Z" fill="#FFB319"/>
<path d="M4.33678 8.29353C4.21509 8.29353 4.09182 8.26251 3.97881 8.19707L2.73624 7.47966C2.39317 7.28162 2.27548 6.84287 2.47378 6.4998C2.67208 6.15721 3.11041 6.03905 3.45364 6.23735L4.69621 6.95476C5.03928 7.1528 5.15697 7.59155 4.95867 7.93462C4.82576 8.16463 4.58475 8.29353 4.33678 8.29353Z" fill="#FFB319"/>
<path d="M19.663 8.29368C19.415 8.29368 19.174 8.16503 19.0412 7.93476C18.8429 7.5917 18.9606 7.1529 19.3036 6.9549L20.5462 6.23749C20.89 6.03919 21.3283 6.15671 21.526 6.49994C21.7243 6.84301 21.6066 7.28181 21.2636 7.47981L20.021 8.19721C19.908 8.26257 19.7847 8.29368 19.663 8.29368Z" fill="#FFB319"/>
<path d="M3.09566 17.8591C2.84764 17.8591 2.60663 17.7304 2.47377 17.5001C2.27547 17.1571 2.39321 16.7183 2.73623 16.5203L3.97884 15.8029C4.32237 15.6046 4.76096 15.7223 4.9587 16.0653C5.157 16.4084 5.03926 16.8472 4.69625 17.0452L3.45367 17.7626C3.34062 17.828 3.21735 17.8591 3.09566 17.8591Z" fill="#FFB319"/>
<path d="M16.4233 5.05542C16.3016 5.05542 16.1783 5.0244 16.0653 4.95895C15.7223 4.76091 15.6046 4.32216 15.8029 3.97909L16.5203 2.73652C16.7185 2.39393 17.1573 2.27599 17.5001 2.47407C17.8432 2.67211 17.9609 3.11087 17.7626 3.45393L17.0452 4.6965C16.9123 4.92651 16.6713 5.05542 16.4233 5.05542Z" fill="#FFB319"/>
<path d="M6.85788 21.6226C6.73619 21.6226 6.61292 21.5915 6.49991 21.5261C6.15684 21.3281 6.03915 20.8893 6.23745 20.5462L6.95486 19.3037C7.1529 18.9609 7.59192 18.8427 7.93472 19.0412C8.27778 19.2393 8.39548 19.678 8.19718 20.0211L7.47977 21.2636C7.34691 21.4937 7.1059 21.6226 6.85788 21.6226Z" fill="#FFB319"/>
<path fill-rule="evenodd" clip-rule="evenodd" d="M5.3042 11.9998C5.3042 15.6919 8.3078 18.6955 11.9998 18.6955C15.6919 18.6955 18.6955 15.6919 18.6955 11.9998C18.6955 8.3078 15.6919 5.3042 11.9998 5.3042C8.3078 5.3042 5.3042 8.3078 5.3042 11.9998ZM11.2712 8.87984C11.6682 8.87984 11.9886 8.55938 11.9886 8.16243C11.9886 7.76549 11.6682 7.44507 11.2711 7.44507C9.16206 7.44507 7.44507 9.16201 7.44507 11.2711C7.44507 11.6681 7.76549 11.9885 8.16247 11.9885C8.55951 11.9885 8.87988 11.6681 8.87988 11.2711C8.87988 9.95113 9.95118 8.87984 11.2712 8.87984Z" fill="#FFB319"/>
</svg>
