<svg width="234" height="88" viewBox="0 0 234 88" fill="none" xmlns="http://www.w3.org/2000/svg">
<path d="M75.6008 32.2828C71.0207 32.2828 65.9079 34.0494 64.8365 39.8644C64.7223 40.482 65.1309 40.7767 65.5254 40.8669L70.2196 41.4304C70.6542 41.4083 70.9486 40.9351 71.0327 40.49C71.4333 38.4888 73.0775 37.5444 74.9139 37.5444C75.9052 37.5444 77.0187 37.8853 77.6055 38.7976C78.2784 39.8142 78.2303 41.1958 78.2303 42.3688V43.0586C75.4406 43.3794 71.7677 43.5739 69.1562 44.751C66.1422 46.0924 64.0254 48.8214 64.0254 52.8338C64.0254 57.975 67.1716 60.5416 71.223 60.5416C74.6435 60.5416 76.5341 59.7376 79.1716 56.9704C80.0468 58.2738 80.3271 58.8653 81.9253 60.2288C82.1019 60.3297 82.306 60.3721 82.5082 60.3497C82.7104 60.3274 82.9003 60.2416 83.0508 60.1045V60.1667C84.012 59.2884 85.7604 57.6923 86.7437 56.8461C87.1362 56.5173 87.0501 55.9759 86.7437 55.5307C85.8645 54.2835 84.9293 53.2769 84.9293 50.9569V43.2491C84.9293 39.9847 85.2056 36.9749 82.8645 34.7271C81.016 32.9084 77.9399 32.2828 75.6008 32.2828ZM138.685 32.2828C134.103 32.2828 128.994 34.0494 127.921 39.8644C127.806 40.482 128.213 40.7767 128.609 40.8669L133.304 41.4304C133.738 41.4083 134.035 40.9351 134.117 40.49C134.519 38.4888 136.162 37.5444 137.998 37.5444C138.991 37.5444 140.103 37.8853 140.69 38.7976C141.361 39.8142 141.252 41.1958 141.252 42.3688V43.0586C138.463 43.3794 134.854 43.5739 132.24 44.751C129.224 46.0924 127.109 48.8214 127.109 52.8338C127.109 57.975 130.258 60.5416 134.307 60.5416C137.724 60.5416 139.614 59.7376 142.256 56.9704C143.129 58.2738 143.411 58.8653 145.009 60.2288C145.37 60.4213 145.816 60.4013 146.135 60.1045V60.1667C147.096 59.2884 148.844 57.6923 149.828 56.8461C150.218 56.5173 150.128 55.9759 149.828 55.5307C148.949 54.2835 148.013 53.2769 148.013 50.9569V43.2491C148.013 39.9847 148.224 36.9749 145.887 34.7271C144.036 32.9084 141.024 32.2828 138.685 32.2828ZM103.2 32.5335C100.24 32.5335 98.0448 34.0293 96.8792 37.2336H96.8171V33.913C96.8012 33.6853 96.7037 33.4711 96.5425 33.3097C96.3814 33.1483 96.1674 33.0506 95.9399 33.0348H91.4339C91.186 33.0384 90.9492 33.1386 90.7738 33.3142C90.5984 33.4898 90.4983 33.7269 90.4947 33.9752V59.3526C90.516 59.5783 90.6153 59.7895 90.7754 59.9498C90.9355 60.1101 91.1464 60.2095 91.3719 60.2309H96.1903C96.4386 60.2282 96.676 60.1283 96.8515 59.9525C97.0271 59.7767 97.1269 59.539 97.1295 59.2904V45.8177C97.1295 42.8801 96.9873 38.8618 100.446 38.8618C103.861 38.8618 103.388 42.9904 103.388 45.8177V59.2904C103.388 59.7697 103.778 60.1988 104.265 60.2309H109.083C109.332 60.2282 109.569 60.1283 109.745 59.9525C109.92 59.7767 110.02 59.539 110.023 59.2904V45.8177C110.023 44.376 109.965 42.2766 110.461 40.9933C110.956 39.71 112.172 38.8638 113.341 38.8638C114.735 38.8638 115.798 39.351 116.157 41.0574C116.381 42.072 116.281 44.753 116.281 45.8197V59.2924C116.281 59.7717 116.672 60.2008 117.158 60.2329H121.977C122.225 60.2302 122.462 60.1303 122.638 59.9545C122.814 59.7787 122.913 59.541 122.916 59.2924V43.2511C122.916 40.5261 123.19 37.4321 121.664 35.2926C120.316 33.3716 118.114 32.5355 116.095 32.5355C113.263 32.5355 110.63 34.0313 109.462 37.2356C108.112 34.0313 106.21 32.5335 103.2 32.5335ZM185.123 32.5335C178.16 32.5335 174.296 38.6633 174.296 46.5696C174.296 54.4219 178.118 60.7301 185.123 60.7301C191.862 60.7301 196.138 54.5662 196.138 46.8183C196.138 38.8116 192.264 32.5335 185.123 32.5335ZM212.596 32.5335C209.269 32.5335 207.369 34.1998 206.025 37.6707H205.963V33.7847C205.877 33.3917 205.506 33.119 205.085 33.0949H200.642C200.412 33.0897 200.189 33.1702 200.015 33.3207C199.842 33.4711 199.73 33.6808 199.702 33.909V59.2864C199.707 59.5239 199.799 59.7514 199.961 59.925C200.123 60.0986 200.343 60.2061 200.579 60.2268H205.336C205.584 60.2232 205.821 60.123 205.996 59.9474C206.171 59.7718 206.271 59.5347 206.275 59.2864V45.6272C206.275 43.9148 206.419 42.3528 207.088 40.8028C207.629 39.5736 208.672 38.7976 209.842 38.7976C213.162 38.7976 212.846 42.8501 212.846 45.6272V59.4127C212.877 59.6286 212.981 59.8273 213.14 59.9755C213.3 60.1237 213.506 60.2125 213.723 60.2268H218.541C219.014 60.2268 219.425 59.8659 219.481 59.4127V43.4336C219.481 40.9772 219.487 37.5644 218.229 35.5372C216.881 33.3496 214.748 32.5335 212.596 32.5335ZM154.768 32.9726C154.28 32.9726 153.893 33.3616 153.891 33.913V37.5464C153.893 38.0898 154.268 38.4828 154.768 38.4868H163.029L153.579 52.4608C153.002 53.3611 152.954 54.3818 152.954 54.9673V58.6648C152.954 59.1982 153.533 59.7777 154.079 59.4789C159.465 56.5353 165.919 56.796 170.79 59.4167C171.381 59.7396 171.979 59.134 171.979 58.6026V54.7166C171.966 54.4301 171.878 54.1522 171.724 53.9103C171.57 53.6683 171.356 53.4707 171.102 53.3371C168.338 51.745 165.13 51.2577 162.09 51.3319L170.289 39.3009C171.048 38.2201 171.473 37.5684 171.479 37.0451V33.913C171.479 33.3736 171.11 32.9726 170.601 32.9726H154.768ZM185.123 37.7349C186.649 37.7349 187.774 38.4166 188.315 40.1792C188.94 42.2104 189.004 44.7469 189.004 46.8845C189.004 50.1408 188.852 55.5307 185.123 55.5307C181.352 55.5307 181.368 48.8575 181.368 45.7555C181.368 42.6616 181.574 37.7349 185.123 37.7349ZM78.1662 47.0088V48.0735C78.1662 50.0005 78.2363 51.6227 77.2891 53.3371C76.5241 54.7307 75.3225 55.5929 73.9727 55.5929C72.1302 55.5929 71.0307 54.097 71.0307 51.9595C71.0327 47.7447 74.6896 47.0088 78.1662 47.0088ZM141.25 47.0088V48.0735C141.25 50.0005 141.32 51.6227 140.373 53.3371C139.608 54.7307 138.413 55.5929 137.057 55.5929C135.212 55.5929 134.115 54.097 134.115 51.9595C134.117 47.7447 137.77 47.0088 141.25 47.0088Z" fill="white"/>
<path d="M172.48 61.045V64.6783H174.921V61.045H172.48ZM101.698 61.6706V87.5493H103.951V85.2313C104.431 86.1497 104.978 86.8374 105.641 87.2986C106.302 87.7598 107.061 87.9884 107.894 87.9884C109.548 87.9884 110.976 87.1422 112.212 85.4198C113.447 83.6973 114.09 81.2009 114.09 78.0247C114.09 75.9453 113.824 74.2229 113.277 72.7611C112.73 71.3034 111.999 70.2186 111.086 69.5027C110.173 68.7869 109.136 68.3758 108.02 68.3758C107.245 68.3676 106.484 68.585 105.829 69.0015C105.178 69.4185 104.652 70.0983 104.139 70.9445V61.6706H101.698ZM124.855 67.7502C123.156 67.7502 121.808 68.2535 120.849 69.2541C119.89 70.2527 119.409 71.542 119.409 73.1401C119.409 74.0685 119.618 74.8525 119.972 75.5844C120.326 76.3163 120.837 76.9038 121.474 77.3389C122.115 77.7741 123.393 78.3455 125.291 78.9671C126.605 79.3902 127.39 79.7512 127.732 80.0319C128.229 80.4429 128.483 80.9823 128.483 81.7242C128.483 82.5825 128.187 83.2983 127.606 83.8537C127.027 84.4132 126.222 84.6678 125.165 84.6678C124.108 84.6678 123.236 84.3711 122.6 83.7274C121.963 83.0837 121.618 82.1052 121.474 80.7818L119.033 81.2831C119.583 85.3035 121.586 87.3006 125.041 87.2986C126.883 87.2986 128.293 86.7753 129.359 85.6704C130.424 84.5656 130.985 83.0737 130.985 81.2831C130.985 80.3166 130.814 79.4785 130.484 78.7766C130.154 78.0748 129.699 77.5555 129.106 77.1484C128.511 76.7434 127.186 76.202 125.163 75.5203C123.693 75.0049 122.832 74.628 122.535 74.3934C122.037 73.9963 121.784 73.4549 121.784 72.7652C121.784 72.0593 122.017 71.4618 122.535 71.0106C123.054 70.5595 123.853 70.3209 124.915 70.3209C126.781 70.3209 127.824 71.3475 128.043 73.3908L130.422 73.0138C130.258 71.7205 129.975 70.6998 129.545 70.006C129.114 69.3123 128.477 68.7267 127.666 68.3137C126.857 67.9026 125.926 67.7502 124.855 67.7502ZM139.812 67.7502C137.856 67.7502 136.206 68.5563 134.93 70.2567C133.654 71.9571 133.051 74.4194 133.051 77.6518C133.051 80.7658 133.666 83.2061 134.93 84.8583C136.194 86.5086 137.832 87.3026 139.875 87.3026C141.499 87.3026 142.845 86.8154 143.942 85.7987C145.041 84.7821 145.838 83.2863 146.257 81.2871L143.754 80.848C143.035 83.4086 141.709 84.6658 139.873 84.6698C138.703 84.6698 137.748 84.1726 136.931 83.1038C136.114 82.033 135.651 80.4449 135.553 78.3415H146.317V77.4633C146.317 74.3011 145.688 71.927 144.439 70.2567C143.193 68.5864 141.677 67.7502 139.812 67.7502ZM154.644 67.7502C154.059 67.7502 153.549 67.9487 153.08 68.3758C152.612 68.8029 152.079 69.6892 151.516 71.0066V68.1232H149.325V86.8595H151.766V77.0863C151.766 75.7228 151.895 74.4114 152.205 73.2003C152.381 72.5065 152.714 71.9591 153.144 71.5721C153.575 71.1851 154.065 71.0086 154.584 71.0086C155.159 71.0086 155.73 71.2392 156.336 71.6984L157.15 68.7528C156.296 68.0711 155.461 67.7502 154.644 67.7502ZM184.558 67.7502C182.626 67.7502 181.033 68.5643 179.802 70.1945C178.574 71.8227 177.923 74.269 177.923 77.5254C177.923 80.7558 178.58 83.2041 179.802 84.8563C181.021 86.5066 182.547 87.3006 184.432 87.3006C185.988 87.3006 187.326 86.7211 188.437 85.5461C189.549 84.3711 190.226 82.6426 190.502 80.4089L188.123 80.0319C187.947 81.63 187.53 82.779 186.871 83.5409C186.212 84.2989 185.419 84.6678 184.492 84.6678C183.31 84.6678 182.305 84.1164 181.55 82.9755C180.795 81.8345 180.425 80.0098 180.425 77.4613C180.425 74.9909 180.823 73.2083 181.614 72.0714C182.405 70.9344 183.413 70.3168 184.618 70.3168C185.423 70.3168 186.11 70.6296 186.683 71.2573C187.26 71.8829 187.642 72.8774 187.873 74.1407L190.252 73.6394C189.965 71.6663 189.332 70.1765 188.311 69.1899C187.29 68.2014 186.05 67.7502 184.558 67.7502ZM198.515 67.7502C196.558 67.7502 194.908 68.5563 193.632 70.2567C192.357 71.9571 191.754 74.4194 191.754 77.6518C191.754 80.7658 192.369 83.2061 193.632 84.8583C194.898 86.5086 196.534 87.3026 198.577 87.3026C200.197 87.3026 201.545 86.8154 202.644 85.7987C203.742 84.7821 204.539 83.2863 204.959 81.2871L202.456 80.848C201.737 83.4086 200.469 84.6658 198.639 84.6698C197.469 84.6698 196.452 84.1726 195.635 83.1038C194.818 82.033 194.357 80.4449 194.257 78.3415H205.021V77.4633C205.021 74.3011 204.393 71.927 203.143 70.2567C201.901 68.5864 200.381 67.7502 198.515 67.7502ZM212.972 67.7502C211.27 67.7502 209.926 68.2535 208.967 69.2541C208.005 70.2527 207.527 71.542 207.527 73.1401C207.527 74.0685 207.673 74.8525 208.027 75.5844C208.38 76.3143 208.889 76.9038 209.529 77.3389C210.166 77.7741 211.45 78.3455 213.346 78.9671C214.656 79.3902 215.507 79.7512 215.85 80.0319C216.346 80.4429 216.601 80.9823 216.601 81.7242C216.601 82.5825 216.304 83.2983 215.724 83.8537C215.147 84.4132 214.34 84.6678 213.282 84.6678C212.223 84.6678 211.354 84.3711 210.717 83.7274C210.08 83.0837 209.67 82.1052 209.527 80.7818L207.086 81.2831C207.637 85.3035 209.636 87.3006 213.094 87.2986C214.939 87.2986 216.409 86.7753 217.476 85.6704C218.543 84.5656 219.102 83.0737 219.102 81.2831C219.102 80.3166 218.932 79.4785 218.602 78.7766C218.271 78.0748 217.756 77.5555 217.162 77.1484C216.569 76.7434 215.303 76.202 213.28 75.5203C211.81 75.0049 210.887 74.628 210.589 74.3934C210.09 73.9963 209.838 73.4549 209.838 72.7652C209.838 72.0593 210.132 71.4618 210.651 71.0106C211.17 70.5595 211.973 70.3209 213.03 70.3209C214.897 70.3209 215.94 71.3475 216.158 73.3908L218.537 73.0138C218.371 71.7205 218.093 70.6998 217.66 70.006C217.201 69.2802 216.551 68.6948 215.782 68.3137C214.979 67.9026 214.041 67.7502 212.972 67.7502ZM157.148 68.1252L162.593 86.8615H164.908L170.353 68.1252H167.85L164.658 79.5928C164.271 80.9783 163.931 82.1754 163.718 83.164C163.452 81.9187 163.198 80.6114 162.841 79.3421L159.713 68.1252H157.148ZM172.48 68.1252V86.8615H174.921V68.1252H172.48ZM92.249 68.3758C90.3125 68.3758 88.7544 69.2461 87.4927 70.9445C86.229 72.6448 85.5521 75.1072 85.5521 78.3395C85.5521 81.4535 86.1769 83.8317 87.4306 85.4819C88.6843 87.1322 90.3525 87.9884 92.3752 87.9884C93.9813 87.9884 95.2931 87.439 96.3805 86.4223C97.466 85.4057 98.217 83.9099 98.6336 81.9107L96.1923 81.5338C95.4814 84.0943 94.1896 85.3516 92.3752 85.3556C91.2157 85.3556 90.2424 84.8583 89.4333 83.7896C88.6242 82.7188 88.1536 81.1307 88.0555 79.0273H98.6936L98.7557 78.149C98.7557 74.9869 98.1149 72.5506 96.8772 70.8803C95.6396 69.21 94.0935 68.3758 92.249 68.3758ZM64.7744 68.815L69.1563 87.5513H71.7217L74.6015 73.1381L75.1022 76.3344L77.4173 87.5513H79.9206L84.3645 68.815H82.0494L79.6082 79.6549L78.7951 83.2883L78.0441 79.6549L75.9173 68.815H73.4139L71.1609 79.7812L70.4099 83.6673L69.5328 79.6569L67.2798 68.817H64.7744V68.815ZM139.748 70.3189C140.964 70.3189 141.965 70.9084 142.752 72.0734C143.293 72.8714 143.644 74.0866 143.754 75.7067H135.681C135.757 74.0625 136.222 72.7932 136.995 71.8207C137.768 70.8482 138.657 70.3189 139.748 70.3189ZM198.453 70.3189C199.664 70.3189 200.67 70.9084 201.457 72.0734C201.997 72.8714 202.348 74.0866 202.458 75.7067H194.385C194.461 74.0625 194.926 72.7932 195.699 71.8207C196.47 70.8522 197.359 70.3189 198.453 70.3189ZM92.249 71.0086C93.4506 71.0086 94.4159 71.5982 95.191 72.7632C95.7257 73.5612 96.0822 74.7763 96.1923 76.3965H88.2437C88.3198 74.7523 88.7263 73.4208 89.4954 72.4483C90.2584 71.4778 91.1656 71.0086 92.249 71.0086ZM107.77 71.0086C108.855 71.0086 109.778 71.6122 110.523 72.7632C111.268 73.9161 111.587 75.6927 111.587 78.153C111.587 80.5492 111.234 82.3358 110.461 83.5429C109.688 84.75 108.767 85.3596 107.77 85.3596C107.037 85.3596 106.37 85.113 105.767 84.6077C105.162 84.1024 104.72 83.3785 104.389 82.414C104.059 81.4495 103.889 79.9657 103.889 78.0267C103.889 75.7428 104.295 74.0324 105.078 72.8253C105.861 71.6182 106.772 71.0086 107.77 71.0086Z" fill="white"/>
<path d="M29.6956 51.1436L20.3712 55.1539L29.0067 58.8515L39.02 55.1539L29.6956 51.1436ZM15.6769 56.1565L15.3645 74.203L29.0067 80.2185V61.4823L15.6769 56.1565ZM43.7143 56.1565L31.3858 60.8566V78.5262L43.7143 73.5133V56.1565ZM58.4219 0.0118408L49.0334 4.02218L57.733 7.7197L67.7463 4.02218L58.4219 0.0118408ZM45.4045 5.33957V23.3861L57.0441 26.7708L57.4206 10.3525L45.4045 5.33957ZM71.4392 6.34215L60.4246 11.0423V28.776L71.4392 23.763V6.34215ZM14.3311 25.4113L5.00668 29.4216L13.6422 33.1192L23.6555 29.4216L14.3311 25.4113ZM0.312417 30.4242L0 48.4707L13.6422 54.4862V35.7499L0.312417 30.4242ZM28.3498 30.4242L16.0214 35.1243V52.7939L28.3498 47.7809V30.4242ZM44.3712 24.7456L35.0467 28.7559L43.6822 32.4534L53.6956 28.7559L44.3712 24.7456ZM30.3525 29.7585L30.04 47.805L43.6822 53.8205V35.0862L30.3525 29.7585ZM58.3898 29.7585L46.0614 34.4586V52.1281L58.3898 47.1152V29.7585ZM87.763 0.0118408L78.4386 4.02218L87.0741 7.7197L97.0874 4.02218L87.763 0.0118408ZM73.7443 5.02476L73.4319 23.0713L87.0741 29.0868V10.3525L73.7443 5.02476ZM101.782 5.02476L89.4533 9.72487V27.3944L101.782 22.3815V5.02476Z" fill="#F7A80D"/>
</svg>
