<svg width="180" height="196" viewBox="0 0 180 196" fill="none" xmlns="http://www.w3.org/2000/svg">
<path d="M13 183.5L8 188.5L3 183.5" stroke="white" stroke-width="1.5" stroke-linecap="round" stroke-linejoin="round"/>
<path d="M13 188.5L8 193.5L3 188.5" stroke="white" stroke-width="1.5" stroke-linecap="round" stroke-linejoin="round"/>
<path d="M177 183.5L172 188.5L167 183.5" stroke="white" stroke-width="1.5" stroke-linecap="round" stroke-linejoin="round"/>
<path d="M177 188.5L172 193.5L167 188.5" stroke="white" stroke-width="1.5" stroke-linecap="round" stroke-linejoin="round"/>
<rect x="1" y="1" width="178" height="178" rx="89" fill="#010C21"/>
<rect x="1" y="1" width="178" height="178" rx="89" stroke="#7987A4" stroke-width="2"/>
<rect x="16" y="16" width="148" height="148" rx="74" fill="#2B3549"/>
<path d="M73.4395 82.0372C73.8333 81.206 74.2926 80.4185 74.8176 79.6529L74.7301 73.9654C74.7301 73.4404 74.9489 72.9372 75.3645 72.5872C77.3989 70.881 79.7176 69.5029 82.277 68.5841C82.7801 68.4091 83.327 68.4529 83.7645 68.7372L88.6426 71.6685C89.5614 71.6029 90.4801 71.6029 91.3989 71.6685L96.277 68.7372C96.7364 68.4747 97.2833 68.4091 97.7864 68.5841C100.28 69.481 102.621 70.8154 104.699 72.5654C105.093 72.8935 105.333 73.4185 105.311 73.9435L105.224 79.631C105.749 80.3966 106.208 81.1841 106.602 82.0154L111.568 84.7716C112.027 85.0341 112.355 85.4716 112.443 85.9966C112.902 88.5997 112.924 91.3122 112.443 93.9591C112.355 94.4841 112.027 94.9216 111.568 95.1841L106.602 97.9404C106.208 98.7716 105.749 99.5591 105.224 100.325L105.311 106.012C105.311 106.537 105.093 107.04 104.677 107.39C102.643 109.097 100.324 110.475 97.7645 111.393C97.2614 111.568 96.7145 111.525 96.277 111.24L91.3989 108.309C90.4801 108.375 89.5614 108.375 88.6426 108.309L83.7645 111.24C83.3051 111.503 82.7583 111.568 82.2551 111.393C79.7614 110.497 77.4208 109.162 75.3426 107.412C74.9489 107.084 74.7083 106.559 74.7301 106.034L74.8176 100.347C74.2926 99.581 73.8333 98.7935 73.4395 97.9622L68.4739 95.206C68.0145 94.9435 67.6864 94.506 67.5989 93.981C67.1395 91.3779 67.1176 88.6654 67.5989 86.0185C67.6864 85.4935 68.0145 85.056 68.4739 84.7935L73.4395 82.0372Z" stroke="white" stroke-width="3" stroke-miterlimit="10" stroke-linecap="round" stroke-linejoin="round"/>
<path d="M90 100.5C95.799 100.5 100.5 95.799 100.5 90C100.5 84.201 95.799 79.5 90 79.5C84.201 79.5 79.5 84.201 79.5 90C79.5 95.799 84.201 100.5 90 100.5Z" stroke="white" stroke-width="3" stroke-miterlimit="10" stroke-linecap="round" stroke-linejoin="round"/>
</svg>
