<svg width="180" height="196" viewBox="0 0 180 196" fill="none" xmlns="http://www.w3.org/2000/svg">
<rect x="1" y="1" width="178" height="178" rx="89" fill="white"/>
<rect x="1" y="1" width="178" height="178" rx="89" stroke="#BCC5D7" stroke-width="2"/>
<rect x="16" y="16" width="148" height="148" rx="74" fill="#7987A4"/>
<path d="M90 111C101.598 111 111 101.598 111 90C111 78.402 101.598 69 90 69C78.402 69 69 78.402 69 90C69 101.598 78.402 111 90 111Z" stroke="white" stroke-width="3" stroke-linecap="round" stroke-linejoin="round"/>
<path d="M108.848 99.2692L96.9734 91.9654C96.7652 91.8374 96.5325 91.7544 96.2903 91.7218L91.2988 91.0489C90.9239 90.9984 90.5428 91.0706 90.2125 91.2549C89.8822 91.4391 89.6205 91.7254 89.4665 92.0708L86.4699 98.7948C86.3306 99.1075 86.286 99.4543 86.3417 99.792C86.3974 100.13 86.551 100.444 86.7834 100.695L90.8959 105.143C91.0823 105.345 91.2187 105.588 91.2939 105.852C91.3692 106.116 91.3812 106.394 91.329 106.664L90.4914 110.994" stroke="white" stroke-width="3" stroke-linecap="round" stroke-linejoin="round"/>
<path d="M76.208 74.1641L74.2515 78.7906C74.077 79.2031 74.0674 79.6668 74.2245 80.0862L76.7382 86.7949C76.8411 87.0696 77.0114 87.314 77.2335 87.5057C77.4556 87.6974 77.7224 87.8301 78.0092 87.8918L82.697 88.8993C82.9571 88.9552 83.201 89.0697 83.4103 89.2341C83.6195 89.3984 83.7885 89.6083 83.9044 89.8478L84.7369 91.5676C84.8802 91.8636 85.1039 92.1132 85.3825 92.2878C85.6611 92.4625 85.9832 92.5551 86.3121 92.5551H89.2504" stroke="white" stroke-width="3" stroke-linecap="round" stroke-linejoin="round"/>
<path d="M95.3498 69.6885L97.3916 73.3456C97.5846 73.6914 97.6547 74.0923 97.5903 74.483C97.526 74.8737 97.3311 75.231 97.0374 75.4966L91.1507 80.8205C91.0507 80.9108 90.9407 80.9893 90.8228 81.0545L88.1449 82.5333C87.8859 82.6763 87.5948 82.7513 87.2989 82.7513H82.6296C82.2853 82.7513 81.9486 82.8529 81.6618 83.0434C81.3749 83.2338 81.1506 83.5047 81.0169 83.822L79.1953 88.1463" stroke="white" stroke-width="3" stroke-linecap="round" stroke-linejoin="round"/>
<path d="M13 183.5L8 188.5L3 183.5" stroke="#010C21" stroke-width="1.5" stroke-linecap="round" stroke-linejoin="round"/>
<path d="M13 188.5L8 193.5L3 188.5" stroke="#010C21" stroke-width="1.5" stroke-linecap="round" stroke-linejoin="round"/>
<path d="M177 183.5L172 188.5L167 183.5" stroke="#010C21" stroke-width="1.5" stroke-linecap="round" stroke-linejoin="round"/>
<path d="M177 188.5L172 193.5L167 188.5" stroke="#010C21" stroke-width="1.5" stroke-linecap="round" stroke-linejoin="round"/>
</svg>
