<svg width="48" height="48" viewBox="0 0 48 48" fill="none" xmlns="http://www.w3.org/2000/svg">
<ellipse cx="24" cy="16.3478" rx="10" ry="3.34783" stroke="white" stroke-width="1.5"/>
<path d="M34 16V21.625C34 23.489 29.5228 25 24 25C18.4772 25 14 23.489 14 21.625V16" stroke="white" stroke-width="1.5"/>
<path d="M34 22V27C34 28.6569 29.5228 30 24 30C18.4772 30 14 28.6569 14 27V22" stroke="white" stroke-width="1.5"/>
<path d="M34 26V31.625C34 33.489 29.5228 35 24 35C18.4772 35 14 33.489 14 31.625V26" stroke="white" stroke-width="1.5"/>
<path fill-rule="evenodd" clip-rule="evenodd" d="M24 23.2285C23.4824 23.2285 23.0629 22.809 23.0629 22.2915L23.0629 22.1421C23.0629 21.6246 23.4824 21.205 24 21.205C24.5175 21.205 24.937 21.6246 24.937 22.1421L24.937 22.2915C24.937 22.809 24.5175 23.2285 24 23.2285Z" fill="white"/>
<path fill-rule="evenodd" clip-rule="evenodd" d="M24 28.5408C23.4824 28.5408 23.0629 28.1212 23.0629 27.6037L23.0629 27.4543C23.0629 26.9368 23.4824 26.5173 24 26.5173C24.5175 26.5173 24.937 26.9368 24.937 27.4543L24.937 27.6037C24.937 28.1212 24.5175 28.5408 24 28.5408Z" fill="white"/>
<path fill-rule="evenodd" clip-rule="evenodd" d="M24 33.4443C23.4824 33.4443 23.0629 33.0248 23.0629 32.5073L23.0629 32.3579C23.0629 31.8404 23.4824 31.4208 24 31.4208C24.5175 31.4208 24.937 31.8404 24.937 32.3579L24.937 32.5073C24.937 33.0248 24.5175 33.4443 24 33.4443Z" fill="white"/>
<rect x="0.5" y="0.5" width="47" height="47" rx="23.5" stroke="#2B3549"/>
</svg>
