<svg width="48" height="48" viewBox="0 0 48 48" fill="none" xmlns="http://www.w3.org/2000/svg">
<path d="M17.4052 30.7413H18.1552C18.1552 30.5307 18.0666 30.3297 17.9112 30.1876C17.7557 30.0456 17.5476 29.9754 17.3379 29.9943L17.4052 30.7413ZM16.6293 22.2416L16.6966 22.9885C17.0836 22.9537 17.3798 22.6291 17.3793 22.2407L16.6293 22.2416ZM16.6293 22.2242L15.8793 22.2242L15.8793 22.2251L16.6293 22.2242ZM30.2022 19.9099L29.4945 20.1584C29.5937 20.4408 29.8514 20.6372 30.15 20.658L30.2022 19.9099ZM29.819 30.7586L29.819 30.0086C29.4048 30.0086 29.069 30.3444 29.069 30.7586H29.819ZM29.819 30.7588V31.5088C30.2332 31.5088 30.569 31.173 30.569 30.7588H29.819ZM17.4052 30.7588H16.6552C16.6552 31.173 16.991 31.5088 17.4052 31.5088V30.7588ZM17.3379 29.9943C17.2324 30.0038 17.1255 30.0087 17.0172 30.0087V31.5087C17.1705 31.5087 17.3224 31.5018 17.4725 31.4882L17.3379 29.9943ZM17.0172 30.0087C15.0747 30.0087 13.5 28.4339 13.5 26.4914H12C12 29.2624 14.2463 31.5087 17.0172 31.5087V30.0087ZM13.5 26.4914C13.5 24.6571 14.9048 23.15 16.6966 22.9885L16.562 21.4946C14.004 21.7251 12 23.8738 12 26.4914H13.5ZM17.3793 22.2407L17.3793 22.2233L15.8793 22.2251L15.8793 22.2425L17.3793 22.2407ZM17.3793 22.2242C17.3793 18.782 20.1698 15.9915 23.6121 15.9915V14.4915C19.3414 14.4915 15.8793 17.9535 15.8793 22.2242H17.3793ZM23.6121 15.9915C26.3291 15.9915 28.6419 17.7304 29.4945 20.1584L30.9098 19.6614C29.8528 16.6513 26.9856 14.4915 23.6121 14.4915V15.9915ZM30.15 20.658C32.5804 20.8275 34.5 22.8537 34.5 25.3276H36C36 22.0602 33.4652 19.3855 30.2543 19.1617L30.15 20.658ZM34.5 25.3276C34.5 27.9128 32.4042 30.0086 29.819 30.0086L29.819 31.5086C33.2327 31.5086 36 28.7413 36 25.3276H34.5ZM29.069 30.7586V30.7588H30.569V30.7586H29.069ZM29.819 30.0088H17.4052V31.5088H29.819V30.0088ZM18.1552 30.7588V30.7413H16.6552V30.7588H18.1552Z" fill="white"/>
<circle cx="21" cy="24" r="1" fill="white"/>
<circle cx="24" cy="24" r="1" fill="white"/>
<circle cx="27" cy="24" r="1" fill="white"/>
<rect x="0.5" y="0.5" width="47" height="47" rx="23.5" stroke="#2B3549"/>
</svg>
