<svg width="116" height="116" viewBox="0 0 116 116" fill="none" xmlns="http://www.w3.org/2000/svg">
<path d="M43.7483 91.2257V74.5714H46.9797C51.2054 74.5714 53.2769 76.0629 53.2769 79.2943C53.2769 80.2886 52.6968 81.6971 51.8683 82.36C53.5254 82.8571 54.7683 84.7629 54.7683 86.5857C54.7683 90.1486 51.7026 91.3086 48.8026 91.3086H43.7483V91.2257ZM48.7197 89.0714C51.0397 89.0714 52.1997 88.2429 52.1997 86.3371C52.1997 84.1 49.8797 83.8514 48.3054 83.8514H46.3997V88.8229H48.7197V89.0714ZM47.6426 81.78C49.714 81.78 50.874 81.4486 50.874 79.2114C50.874 77.14 49.714 76.8086 47.6426 76.8086H46.3169V81.78H47.6426ZM84.6797 74.4886H87.414L92.1368 86.1714L96.694 74.4886H99.4283L92.1368 92.6343L84.6797 74.4057V74.4886ZM67.114 91.1429V74.5714H69.5997V88.9886H77.3054L77.1397 89.4857L76.3111 91.3086H67.114V91.1429ZM30.0769 91.1429H32.8111L24.6083 73.3286L16.4883 91.1429H19.2226L21.0454 87.0829H27.0111L27.674 85.7571L30.0769 91.1429ZM22.1226 84.7629L24.6083 78.9629L27.1769 84.7629H22.1226ZM58.2483 46.1514L59.0769 52.78H74.5711L58.3311 44.2457L42.2569 52.8629H57.5854L56.7569 59.9886L41.8426 53.0286L58.414 62.5571L74.7369 53.0286L58.2483 60.7343V46.2343V46.1514ZM60.734 41.5943L66.2026 37.4514L58.5797 24.2771L59.0769 42.5886L74.5711 52.2829L67.114 39.0257L73.5769 36.3743L74.9026 52.4486V33.3914L58.4968 24.0286L73.4111 34.3857L60.8997 41.6771L60.734 41.5943ZM55.514 41.5943L49.4654 39.1086L41.7597 52.3657L57.4197 42.5886L57.9169 24.36L50.294 37.5343L44.494 33.3086L57.9997 24.0286L41.5111 33.5571V52.6143L43.0854 34.3857L55.514 41.6771V41.5943Z" fill="white"/>
</svg>
