<svg width="116" height="116" viewBox="0 0 116 116" fill="none" xmlns="http://www.w3.org/2000/svg">
<path fill-rule="evenodd" clip-rule="evenodd" d="M23.7801 50.3772V46.4H27.7572V50.3772H23.7801ZM23.7801 68.6886V51.9515H27.7572V68.6886H23.7801ZM33.4744 68.6886H29.4144V51.9515H33.3087V55.0172C34.5515 53.1943 36.2915 51.5372 38.7772 51.5372L39.6887 51.62V55.5143H38.5287C36.7058 55.5143 33.5572 57.1715 33.5572 60.4857V68.7715L33.4744 68.6886ZM40.7658 68.6886V46.4H48.0572C49.8801 46.4 56.3429 46.4 56.3429 51.8686C56.3429 55.5972 53.3601 56.5915 51.8687 57.0886C53.6087 57.5857 56.8401 58.4143 56.8401 62.5572C56.8401 65.9543 54.2715 68.6057 48.5544 68.6057H40.8487V68.6886H40.7658ZM48.0572 55.5143C51.8687 55.5143 52.2001 53.2772 52.2001 52.5315C52.2001 49.7143 49.3001 49.7143 48.3887 49.7143H45.0744V55.5143H48.0572ZM45.0744 65.4572H47.7258C50.5429 65.4572 52.5315 64.6286 52.5315 62.1429C52.5315 60.5686 51.7029 58.8286 47.9744 58.8286H45.0744V65.4572ZM68.1087 68.7715L67.6944 67.0315C66.3466 68.3582 64.5313 69.1022 62.6401 69.1029C59.5744 69.1029 57.5029 67.1972 57.5029 64.4629C57.5029 62.8057 58.0829 60.7343 61.7287 59.4915L66.6172 57.8343C67.2801 57.5857 67.3629 57.5857 67.3629 57.0057V56.3429C67.3629 54.9343 66.0372 54.52 64.5458 54.52C62.3587 54.679 60.2614 55.4547 58.4972 56.7572V53.2772C59.5744 52.6143 61.6458 51.62 65.1258 51.62C70.2629 51.62 71.3401 54.1057 71.3401 57.42V68.6886H67.9429V68.7715H68.1087ZM63.8001 61.5629C62.1429 62.1429 61.5629 62.9715 61.5629 64.0486C61.5629 65.7057 63.0544 66.12 63.7172 66.12C64.3801 66.12 65.7887 65.8715 67.4458 64.2972V60.1543L66.3687 60.7343L63.8829 61.5629H63.8001ZM19.0572 68.6886L18.5601 66.9486C17.2123 68.2754 15.3971 69.0193 13.5058 69.02C10.5229 69.02 8.36865 67.1143 8.36865 64.38C8.36865 62.7229 9.03151 60.6515 12.6772 59.4086L17.4829 57.7515C18.1458 57.5029 18.3115 57.5029 18.3115 56.9229V56.3429C18.3115 54.9343 16.9858 54.52 15.4115 54.52C13.2244 54.679 11.1271 55.4547 9.36294 56.7572V53.2772C10.5229 52.6143 12.5115 51.62 15.9915 51.62C21.2115 51.62 22.2058 54.1057 22.2058 57.42V68.6886H18.9744V68.7715L19.0572 68.6886ZM14.7487 61.5629C13.0915 62.1429 12.5115 62.9715 12.5115 64.0486C12.5115 65.7057 13.9201 66.12 14.6658 66.12C15.3287 66.12 16.7372 65.8715 18.3115 64.2972V60.1543C18.0629 60.4029 17.9801 60.4029 17.3172 60.7343L14.7487 61.5629ZM72.9144 68.6886H76.8915V46.4H72.9144V68.7715V68.6886ZM80.2058 54.9343H77.7201V51.9515H80.2058V46.4H84.1829V51.9515H87.1658V54.9343H84.1829V63.3857C84.1829 64.6286 84.3487 65.7886 86.1715 65.7886L87.3315 65.6229V68.6057L85.5087 68.7715C81.0344 68.7715 80.1229 66.5343 80.1229 63.5515V54.9343H80.2058ZM88.8229 50.3772V46.4H92.8001V50.3772H88.8229ZM88.8229 68.6886V51.9515H92.8001V68.6886H88.8229ZM107.3 56.4257C106.472 55.7629 105.229 54.7686 102.992 54.7686C99.5944 54.7686 98.1858 57.5857 98.1858 60.4029C98.1858 61.5629 98.5172 66.0372 102.909 66.0372C105.229 66.0372 106.72 64.96 107.714 64.2143V67.7772C106.886 68.1915 105.063 69.1029 102.246 69.1029C96.5287 69.1029 94.2086 64.7943 94.2086 60.4029C94.2086 55.68 96.7772 51.62 102.494 51.62C105.229 51.62 106.637 52.4486 107.466 52.8629V56.4257H107.3Z" fill="white"/>
</svg>
