<svg width="116" height="116" viewBox="0 0 116 116" fill="none" xmlns="http://www.w3.org/2000/svg">
<path d="M93.1315 67.3629C93.6287 66.2857 93.9601 64.8772 93.9601 63.5515C93.9601 61.3972 92.9658 59.4086 91.3087 58.0829L89.983 57.1715H89.8173L89.983 57.0057C91.0601 56.1772 92.0544 54.52 92.0544 51.7029C92.0544 49.1343 91.2258 47.1457 89.5687 45.9029C87.6784 44.7566 85.4751 44.2348 83.2715 44.4115H75.4001C74.903 44.4115 74.5715 44.66 74.5715 45.1572V71.0086C74.5715 71.4229 74.903 71.8372 75.4001 71.8372H84.3487C87.2487 71.8372 89.4858 71.1743 90.9773 69.9315C91.8872 69.2565 92.6253 68.3765 93.1315 67.3629ZM76.8915 46.8143H82.9401C85.0944 46.8143 86.7515 47.1457 87.8287 47.8915C88.4087 48.3057 89.3201 49.2172 89.3201 51.5372C89.3201 55.68 86.1715 55.9286 85.0944 55.9286H76.8087V46.8143H76.8915ZM84.183 69.1857H76.8915V58.4972H85.0944C88.7401 58.4972 91.143 60.4857 91.143 63.4686C91.3087 64.8772 91.3087 69.1857 84.183 69.1857ZM67.2801 71.92H67.6115C67.943 71.7543 68.1915 71.4229 68.1915 71.0915V33.1429H65.7058V65.9543L48.6373 44.4115L47.9744 44.08H47.7258C47.3944 44.2457 47.063 44.5772 47.063 44.9086V82.8572H49.7144V50.0457L66.6173 71.5886C66.9487 71.7543 67.1973 71.92 67.4458 71.92H67.2801ZM39.0258 67.6943C41.5944 64.4629 42.0915 60.32 42.0915 58.2486C42.0915 56.4257 41.7601 51.8686 39.0258 48.3057C37.887 46.9655 36.4622 45.8976 34.8562 45.1807C33.2502 44.4637 31.5039 44.1159 29.7458 44.1629H22.2887C21.8744 44.1629 21.543 44.66 21.543 45.1572V71.0086C21.543 71.4229 21.8744 71.8372 22.3715 71.8372H29.8287C31.4858 71.8372 33.143 71.4229 34.6344 70.8429C36.4573 70.2629 37.783 69.02 39.0258 67.6943ZM29.9115 69.1857H24.1115V46.8143H29.9115C32.0658 46.8143 34.883 47.3943 37.0373 50.0457C39.3573 52.78 39.523 57.0057 39.523 58.2486C39.523 60.0715 39.1915 63.5515 37.0373 66.12C34.883 68.6886 32.0658 69.1857 29.9115 69.1857Z" fill="white"/>
</svg>
