<svg width="116" height="116" viewBox="0 0 116 116" fill="none" xmlns="http://www.w3.org/2000/svg">
<g clip-path="url(#clip0_125_375)">
<path fill-rule="evenodd" clip-rule="evenodd" d="M23.6971 48.3886H4.14286V48.4715L4.22571 48.72L4.47429 49.0515V49.3829L4.64 49.7143L4.72286 49.88L4.80571 50.1286L4.97143 50.5429L5.30286 50.9572V51.1229H22.7029V51.2057H22.8686L23.4486 51.8686L23.8629 52.2L23.9457 52.4486L24.4429 52.78L24.6914 53.2772L24.94 53.4429L25.52 54.2715L25.7686 54.6857L25.8514 54.9343L26.3486 55.5972L26.68 56.3429L26.9286 56.5915L27.0943 57.0886L27.26 57.42L27.5086 58.2486H9.52857L8.94857 57.7515L8.7 57.5029L7.29143 56.3429L7.12571 56.0115L6.87714 55.7629L6.54571 55.4315L6.29714 55.1L6.13143 54.8515L5.88286 54.4372L5.63429 54.1886L5.13714 53.5257L4.80571 53.0286L3.39714 50.2115L3.23143 49.9629L3.06571 49.1343L2.9 48.8029L2.73429 48.4715L2.98286 48.0572V47.8915L3.14857 47.56L3.31429 46.98H23.5314L24.1943 46.6486L24.7743 46.0686L25.6029 45.4057L26.7629 44.2457H4.72286L4.88857 43.8315L5.05429 43.6657L5.38571 43.2515L5.63429 42.7543H27.9229L28.0886 42.6715L28.2543 42.2572L28.42 42.0086L29.2486 40.6829L29.6629 39.9372H8.12L9.03143 39.1086L9.52857 38.6943L9.69429 38.4457H30.3257V38.28L30.5743 38.0315L30.6571 37.7829L30.74 37.5343L30.9886 37.0372L31.1543 36.6229V35.96L31.32 35.7943V35.6286H8.94857L8.61714 35.96L7.78857 36.54L7.37429 36.7886L6.62857 37.4515L5.88286 38.28L5.63429 38.6115L5.30286 38.86L4.88857 39.3572L4.22571 39.9372L3.97714 40.4343L3.39714 41.18L3.14857 41.5943L2.9 42.0086L2.56857 42.5057L2.32 42.8372L2.07143 43.3343L1.24286 44.9915L0.994286 45.4886L0.745714 45.9857L0.662857 46.4L0.248571 47.4772V47.8915L0 48.3886L0.165714 48.8029L0.248571 49.3829L0.662857 50.2943V50.7915L0.994286 51.2057L1.24286 51.62L1.40857 52.2L2.07143 53.4429L2.32 53.8572L2.56857 54.2715L3.14857 55.1L3.39714 55.5143L3.72857 55.9286L4.22571 56.7572L4.64 57.0886L4.88857 57.42L5.63429 58.2486L5.88286 58.58L6.29714 58.8286L6.62857 59.16L7.45714 59.8229L7.87143 60.1543L8.20286 60.4857L9.03143 61.0657H31.2371V60.6515L31.1543 60.4857V59.9057L30.9886 59.4086L30.6571 58.2486L30.4914 57.9172L29.9943 56.5086L29.7457 56.0115L29.4971 55.5143L29.3314 55.0172L28.9171 54.4372L28.6686 54.0229L27.5086 52.3657L27.0943 51.7857L26.0171 50.7086L25.52 50.1286L24.94 49.4657L24.2771 48.9686M52.4486 48.3886L48.3057 60.8172L48.14 61.3143L48.0571 61.8115L47.8914 62.1429L47.8086 62.64L47.56 62.9715V63.4686L47.3114 64.2143L47.2286 63.7172L47.0629 63.22V62.9715L46.8143 62.2257V61.9772L46.6486 61.7286V61.3143L46.4829 61.1486L46.4 60.8172L46.3171 60.4857L46.1514 59.9057L45.6543 58.3315L45.24 57.3372L44.9086 56.0115L44.4114 54.6029L43.9143 52.78L43.3343 50.8743L42.5886 48.5543V48.4715H36.2914L44.8257 73.9915H49.7971L58.58 48.4715M90.7286 62.9715L90.8943 63.0543H91.06L91.2257 63.1372L91.4743 63.3029L91.8886 63.6343L92.0543 63.7172L92.3029 63.9657L92.5514 64.5457L92.7171 64.6286V64.8772L92.9657 65.2915V65.4572L93.0486 65.7057V66.7L92.9657 66.7829V66.9486L92.8829 67.0315V67.1143L92.7171 67.5286V67.6115L92.3029 67.9429L92.22 68.1915H92.0543L91.9714 68.44L91.8886 68.5229L91.64 68.6058V68.6886H91.3086L91.2257 68.7715L91.06 68.9372L90.8114 68.7715L90.5629 68.9372H87V62.9715H90.6457H90.7286ZM89.4857 53.4429H89.8171L89.9829 53.5257H90.3971V53.6086H90.7286L90.8114 53.7743H91.06V53.94H91.3914L91.5571 54.1886L91.7229 54.2715L92.1371 54.6857L92.22 54.8515L92.3029 54.9343L92.5514 55.5143V55.68L92.7171 55.8457V55.9286L92.5514 56.1772V56.5086L92.3857 56.5915V56.7572L92.1371 57.0057L91.9714 57.3372L91.64 57.5857L91.4743 57.9172H91.3914L91.2257 58.0829L91.1429 58.1657L90.8943 58.2486H90.5629L90.48 58.3315H86.9171V53.5257H89.4029L89.4857 53.4429ZM81.2 73.7429H92.8829L94.7057 73.2457L95.12 73.08L95.4514 72.9143L96.1143 72.6657L96.3629 72.5L97.5229 71.5886L97.9371 71.0086L98.3514 70.4286L98.5171 70.0972L98.6829 69.8486L98.8486 69.4343L99.4286 67.1972V65.54L99.3457 65.2915V65.1257L99.18 64.7115V64.5457L99.0971 64.38L98.7657 63.5515V63.3029H98.6L98.4343 62.8886L98.3514 62.8057L98.2686 62.64L98.1029 62.4743V62.3086H97.9371L97.8543 62.06L97.7714 61.9772L97.6057 61.8943L97.5229 61.6457H97.3571L97.1914 61.48L97.0257 61.3143L96.5286 60.9H96.3629L96.1971 60.6515L95.9486 60.4857L95.7 60.4029L95.4514 60.32L95.2857 60.2372L95.8657 59.9057L96.28 59.5743L96.4457 59.4086L96.6943 59.2429L97.6886 58.2486V58L97.9371 57.8343L98.02 57.5857H98.1029L98.2686 57.3372V57.2543L98.4343 57.0886V56.9229L98.6 56.6743H98.6829V56.3429L98.7657 56.1772V55.9286L98.8486 55.7629L98.9314 55.5143V53.8572L98.7657 53.6086V53.1115L98.6 53.0286L98.4343 52.5315L98.3514 52.4486L98.2686 52.2829L98.1029 52.2L97.9371 51.7857L97.7714 51.62L97.6886 51.4543L97.6057 51.3715L97.5229 51.1229L96.6943 50.3772H96.5286L96.3629 50.1286V49.9629L95.4514 49.3829L93.96 48.6372H93.7943L93.0486 48.3057H92.8829L92.7171 48.2229H92.4686L92.3029 48.14H91.3914L90.8943 47.9743H81.2V73.66V73.7429ZM59.2429 48.3886V53.2772H64.6286L65.1257 53.36H66.3686V73.8257H72.0857V53.36H78.3829L79.9571 48.3886" fill="white"/>
</g>
<defs>
<clipPath id="clip0_125_375">
<rect width="116" height="116" fill="white"/>
</clipPath>
</defs>
</svg>
