<svg width="116" height="116" viewBox="0 0 116 116" fill="none" xmlns="http://www.w3.org/2000/svg">
<path d="M57.9998 91.1429C49.2098 91.1429 40.7797 87.6511 34.5643 81.4356C28.3488 75.2201 24.8569 66.7901 24.8569 58C24.8569 49.21 28.3488 40.78 34.5643 34.5645C40.7797 28.349 49.2098 24.8572 57.9998 24.8572C66.7898 24.8572 75.2198 28.349 81.4353 34.5645C87.6508 40.78 91.1426 49.21 91.1426 58C91.1426 66.7901 87.6508 75.2201 81.4353 81.4356C75.2198 87.6511 66.7898 91.1429 57.9998 91.1429ZM57.9998 26.5143C49.6493 26.5143 41.6407 29.8316 35.736 35.7363C29.8313 41.641 26.5141 49.6495 26.5141 58C26.5141 66.3506 29.8313 74.3591 35.736 80.2638C41.6407 86.1685 49.6493 89.4857 57.9998 89.4857C66.3503 89.4857 74.3588 86.1685 80.2636 80.2638C86.1683 74.3591 89.4855 66.3506 89.4855 58C89.4855 49.6495 86.1683 41.641 80.2636 35.7363C74.3588 29.8316 66.3503 26.5143 57.9998 26.5143ZM86.0055 67.4458H85.8398C85.8398 67.4458 85.6741 67.4457 85.6741 67.28C85.6741 67.28 86.8341 63.9657 86.8341 60.2372C86.8341 56.26 85.1769 53.6086 83.1055 53.6086C82.8012 53.596 82.4977 53.648 82.215 53.7613C81.9323 53.8745 81.6768 54.0464 81.4654 54.2657C81.254 54.4849 81.0914 54.7465 80.9885 55.0331C80.8856 55.3198 80.8447 55.625 80.8684 55.9286C80.8684 58.4143 83.9341 58.6629 83.9341 64.0486C83.9341 66.2858 83.4369 68.44 82.7741 70.6772C79.4598 82.1943 68.6884 87.4972 57.9998 87.4972C54.8133 87.5853 51.6383 87.0796 48.6369 86.0058V85.84L48.8026 85.6743C49.2998 85.84 52.1998 86.8343 55.9284 86.8343C59.9055 86.8343 62.3084 85.1772 62.3084 83.1058C62.3084 81.8629 61.3969 80.8686 60.0712 80.8686C57.6684 80.8686 57.3369 83.9343 52.0341 83.9343C49.7969 83.9343 47.7255 83.4372 45.3226 82.8572C33.8884 79.46 28.4198 68.7715 28.4198 58C28.4198 52.8629 29.8284 48.72 29.8284 48.5543H29.9941L30.1598 48.72C29.9941 49.2172 28.9998 52.0343 28.9998 55.7629C28.9998 59.74 30.6569 62.1429 32.7284 62.1429C33.8884 62.1429 34.9655 61.2315 34.9655 59.9058C34.9655 57.42 31.8998 57.1715 31.8998 51.7857C31.8998 49.5486 32.3969 47.3943 33.0598 44.9915C36.7884 33.8057 47.3941 28.5029 57.9998 28.42C62.8055 28.42 67.1141 29.8286 67.3627 29.9943V30.16C67.3627 30.3258 67.1969 30.3257 67.1969 30.3257C67.1969 30.3257 64.2969 29.1658 60.0712 29.1658C56.0941 29.1658 53.6912 30.8229 53.6912 33.06C53.6912 34.1372 54.6026 35.2972 55.9284 35.2972C58.3312 35.2972 58.6626 32.2315 63.9655 32.2315C66.2026 32.2315 68.2741 32.7286 70.6769 33.3086C82.1112 36.8715 87.4141 47.7257 87.4141 58.1657C87.5798 63.4686 86.0055 67.4458 86.0055 67.4458ZM70.2626 59.5743C67.1969 59.5743 64.7941 61.8115 64.7941 64.7115C64.7941 66.9486 66.2026 68.8543 67.9426 68.8543C68.6055 68.8543 69.2684 68.6058 69.2684 67.7772C69.2684 66.6172 67.6112 66.2858 67.7769 64.5457C67.7769 63.4686 68.9369 62.64 70.0969 62.64C72.3341 62.64 73.2455 64.7115 73.2455 66.9486C73.1627 70.2629 70.7598 72.7486 67.7769 72.7486C63.9655 72.7486 61.5627 69.02 61.5627 65.0429C61.5627 59.16 65.3741 56.84 67.3627 56.26C67.3627 56.26 72.6655 57.1715 72.4998 54.7686C72.4998 53.8572 70.8426 53.36 69.7655 53.36C68.4398 53.36 67.2798 53.6915 67.2798 53.6915C66.9562 53.5122 66.6767 53.263 66.4617 52.9619C66.2467 52.6609 66.1016 52.3157 66.0369 51.9515C69.7655 49.0515 72.4998 46.3172 72.4998 43.0857C72.4998 41.5115 71.3398 39.9372 69.1855 39.9372C65.5398 39.9372 62.6398 44.7429 62.6398 49.0515C62.6398 49.88 62.6398 50.46 62.8055 51.1229C60.4026 52.8629 58.6627 54.0229 55.3484 55.9286L55.7627 53.1943C56.8398 52.1172 58.2484 50.1286 58.2484 48.8857C58.2484 48.2229 57.9998 47.7257 57.1712 47.7257C55.4312 47.7257 53.9398 50.46 53.6912 52.3657C52.8626 53.36 51.2055 54.6029 49.7969 54.6029C48.6369 54.6029 48.3055 53.6915 48.1398 53.1943C51.7026 52.1172 55.9284 47.3115 55.9284 42.92C55.9284 42.0086 55.5969 40.1029 52.8626 40.1029C48.7198 40.1029 45.3226 46.1515 45.3226 50.9572C43.8312 50.9572 43.1684 49.3 43.1684 48.2229C43.1684 47.1458 43.6655 45.82 43.6655 45.4886C43.6655 45.1572 43.4998 44.66 42.8369 44.66C41.4284 44.66 40.5998 46.4829 40.5998 48.72C40.7655 51.62 42.7541 53.5258 45.3226 53.6915C45.5712 55.4315 47.2284 57.0058 49.1341 57.0058C50.2941 57.0058 51.8684 56.7572 52.8626 55.7629L52.5312 57.5029C48.4712 59.5743 45.5712 61.0658 42.8369 63.4686C40.7655 65.3743 39.5226 67.9429 39.5226 70.0143C39.5226 72.7486 41.2626 75.3172 44.8255 75.3172C48.9684 75.3172 52.2826 72.0029 53.8569 67.1143C54.6855 64.8772 54.7684 61.6457 55.0998 58.8286C59.2426 56.3429 61.3969 54.9343 63.4684 53.5257C63.7998 54.0229 63.9655 54.3543 64.4627 54.6029C62.4741 55.5972 57.8341 58.4972 57.8341 65.2086C57.8341 70.0143 61.0655 75.3172 67.3627 75.3172C72.6655 75.3172 76.1455 71.0086 76.1455 66.7829C76.4769 63.1372 74.2398 59.5743 70.2626 59.5743ZM44.9912 72.4172C43.4998 72.4172 42.7541 71.5886 42.7541 70.18C42.7541 66.2029 48.2226 62.4743 52.3655 60.4029C51.5369 66.0372 49.7969 72.2515 44.9084 72.4172H44.9912ZM48.0569 50.7915C48.0569 47.7257 51.1226 42.0086 52.8626 42.5886C55.0998 43.2515 51.1226 49.2172 48.0569 50.7915ZM65.4569 49.3829C65.4569 45.4886 67.9426 41.9258 69.2684 42.5886C70.9255 43.4172 68.1084 46.98 65.3741 49.3829H65.4569Z" fill="white"/>
</svg>
