<svg width="141" height="56" viewBox="0 0 141 56" fill="none" xmlns="http://www.w3.org/2000/svg">
<path fill-rule="evenodd" clip-rule="evenodd" d="M26.9317 20.635H4.70833V20.73L4.8025 21.0151L5.085 21.3952V21.7754L5.27333 22.1555L5.3675 22.3456L5.46167 22.6307L5.65 23.1058L6.02667 23.581V23.7711H25.8017V23.8661H25.99L26.6492 24.6263L27.12 25.0065L27.2142 25.2916L27.7792 25.6717L28.0617 26.2419L28.3442 26.432L29.0033 27.3823L29.2858 27.8575L29.38 28.1426L29.945 28.9028L30.3217 29.7581L30.6042 30.0432L30.7925 30.6134L30.9808 30.9935L31.2633 31.9438H10.8292L10.17 31.3736L9.8875 31.0886L8.28667 29.7581L8.09833 29.378L7.81583 29.0929L7.43917 28.7127L7.15667 28.3326L6.96833 28.0475L6.68583 27.5724L6.40333 27.2873L5.83833 26.527L5.46167 25.9568L3.86083 22.7257L3.6725 22.4406L3.48417 21.4903L3.29583 21.1102L3.1075 20.73L3.39 20.2549V20.0648L3.57833 19.6847L3.76667 19.0194H26.7433L27.4967 18.6393L28.1558 17.9741L29.0975 17.2138L30.4158 15.8834H5.3675L5.55583 15.4082L5.74417 15.2181L6.12083 14.743L6.40333 14.1728H31.7342L31.9225 14.0778L32.1108 13.6026L32.2992 13.3175L33.2408 11.797L33.7117 10.9417H9.22833L10.2642 9.99136L10.8292 9.5162L11.0175 9.2311H34.465V9.04104L34.7475 8.75594L34.8417 8.47084L34.9358 8.18574L35.2183 7.61555L35.4067 7.14039V6.38013L35.595 6.19007V6H10.17L9.79333 6.38013L8.85167 7.04535L8.38083 7.33045L7.53333 8.09071L6.68583 9.04104L6.40333 9.42116L6.02667 9.70626L5.55583 10.2765L4.8025 10.9417L4.52 11.5119L3.86083 12.3672L3.57833 12.8423L3.29583 13.3175L2.91917 13.8877L2.63667 14.2678L2.35417 14.838L1.4125 16.7387L1.13 17.3089L0.8475 17.879L0.753333 18.3542L0.2825 19.5896V20.0648L0 20.635L0.188333 21.1102L0.2825 21.7754L0.753333 22.8207V23.3909L1.13 23.8661L1.4125 24.3413L1.60083 25.0065L2.35417 26.432L2.63667 26.9071L2.91917 27.3823L3.57833 28.3326L3.86083 28.8078L4.2375 29.2829L4.8025 30.2333L5.27333 30.6134L5.55583 30.9935L6.40333 31.9438L6.68583 32.324L7.15667 32.6091L7.53333 32.9892L8.475 33.7495L8.94583 34.1296L9.3225 34.5097L10.2642 35.1749H35.5008V34.6998L35.4067 34.5097V33.8445L35.2183 33.2743L34.8417 31.9438L34.6533 31.5637L34.0883 29.9482L33.8058 29.378L33.5233 28.8078L33.335 28.2376L32.8642 27.5724L32.5817 27.0972L31.2633 25.1965L30.7925 24.5313L29.5683 23.2959L29.0033 22.6307L28.3442 21.8704L27.5908 21.3002M59.6075 20.635L54.8992 34.8898L54.7108 35.46L54.6167 36.0302L54.4283 36.4104L54.3342 36.9806L54.0517 37.3607V37.9309L53.7692 38.7862L53.675 38.216L53.4867 37.6458V37.3607L53.2042 36.5054V36.2203L53.0158 35.9352V35.46L52.8275 35.27L52.7333 34.8898L52.6392 34.5097L52.4508 33.8445L51.8858 32.0389L51.415 30.8985L51.0383 29.378L50.4733 27.7624L49.9083 25.6717L49.2492 23.486L48.4017 20.8251V20.73H41.245L50.9442 50H56.5942L66.5758 20.73M103.113 37.3607L103.301 37.4557H103.489L103.677 37.5508L103.96 37.7408L104.431 38.121L104.619 38.216L104.902 38.5011L105.184 39.1663L105.372 39.2613V39.5464L105.655 40.0216V40.2117L105.749 40.4968V41.6371L105.655 41.7322V41.9222L105.561 42.0173V42.1123L105.372 42.5875V42.6825L104.902 43.0626L104.808 43.3477H104.619L104.525 43.6328L104.431 43.7279L104.148 43.8229V43.9179H103.772L103.677 44.013L103.489 44.203L103.207 44.013L102.924 44.203H98.875V37.3607H103.018H103.113ZM101.7 26.432H102.077L102.265 26.527H102.736V26.622H103.113L103.207 26.8121H103.489V27.0022H103.866L104.054 27.2873L104.243 27.3823L104.713 27.8575L104.808 28.0475L104.902 28.1426L105.184 28.8078V28.9978L105.372 29.1879V29.2829L105.184 29.568V29.9482L104.996 30.0432V30.2333L104.713 30.5184L104.525 30.8985L104.148 31.1836L103.96 31.5637H103.866L103.677 31.7538L103.583 31.8488L103.301 31.9438H102.924L102.83 32.0389H98.7808V26.527H101.606L101.7 26.432ZM92.2833 49.7149H105.561L107.632 49.1447L108.103 48.9546L108.48 48.7646L109.233 48.4795L109.516 48.2894L110.834 47.2441L111.305 46.5788L111.776 45.9136L111.964 45.5335L112.152 45.2484L112.341 44.7732L113 42.2073V40.3067L112.906 40.0216V39.8315L112.717 39.3564V39.1663L112.623 38.9762L112.247 38.0259V37.7408H112.058L111.87 37.2657L111.776 37.1706L111.682 36.9806L111.493 36.7905V36.6004H111.305L111.211 36.3153L111.117 36.2203L110.928 36.1253L110.834 35.8402H110.646L110.458 35.6501L110.269 35.46L109.704 34.9849H109.516L109.327 34.6998L109.045 34.5097L108.762 34.4147L108.48 34.3197L108.292 34.2246L108.951 33.8445L109.422 33.4644L109.61 33.2743L109.892 33.0842L111.022 31.9438V31.6587L111.305 31.4687L111.399 31.1836H111.493L111.682 30.8985V30.8035L111.87 30.6134V30.4233L112.058 30.1382H112.152V29.7581L112.247 29.568V29.2829L112.341 29.0929L112.435 28.8078V26.9071L112.247 26.622V26.0518L112.058 25.9568L111.87 25.3866L111.776 25.2916L111.682 25.1015L111.493 25.0065L111.305 24.5313L111.117 24.3413L111.022 24.1512L110.928 24.0562L110.834 23.7711L109.892 22.9158H109.704L109.516 22.6307V22.4406L108.48 21.7754L106.785 20.9201H106.597L105.749 20.54H105.561L105.372 20.4449H105.09L104.902 20.3499H103.866L103.301 20.1598H92.2833V49.6199V49.7149ZM67.3292 20.635V26.2419H73.45L74.015 26.3369H75.4275V49.8099H81.925V26.3369H89.0817L90.8708 20.635" fill="white"/>
</svg>
