<svg width="141" height="56" viewBox="0 0 141 56" fill="none" xmlns="http://www.w3.org/2000/svg">
<path d="M22.3497 54.8502V41.256H24.999C28.4635 41.256 30.1618 42.4734 30.1618 45.1111C30.1618 45.9227 29.6863 47.0725 29.007 47.6135C30.3656 48.0193 31.3846 49.5749 31.3846 51.0628C31.3846 53.971 28.8711 54.9179 26.4935 54.9179H22.3497V54.8502ZM26.4256 53.0918C28.3277 53.0918 29.2787 52.4155 29.2787 50.8599C29.2787 49.0338 27.3766 48.8309 26.0859 48.8309H24.5235V52.8889H26.4256V53.0918ZM25.5425 47.1401C27.2408 47.1401 28.1918 46.8696 28.1918 45.0435C28.1918 43.3527 27.2408 43.0821 25.5425 43.0821H24.4555V47.1401H25.5425ZM55.9081 41.1884H58.1498L62.022 50.7246L65.7582 41.1884H68L62.022 56L55.9081 41.1208V41.1884ZM41.5065 54.7826V41.256H43.5445V53.0242H49.8621L49.7263 53.43L49.047 54.9179H41.5065V54.7826ZM11.1409 54.7826H13.3826L6.65734 40.2415L0 54.7826H2.24176L3.73626 51.4686H8.62737L9.17083 50.3865L11.1409 54.7826ZM4.61938 49.5749L6.65734 44.8406L8.76324 49.5749H4.61938ZM34.2378 18.058L34.9171 23.4686H47.6204L34.3057 16.5024L21.1269 23.5362H33.6943L33.015 29.3527L20.7872 23.6715L34.3736 31.4493L47.7562 23.6715L34.2378 29.9614V18.1256V18.058ZM36.2757 14.3382L40.7592 10.9565L34.5095 0.202898L34.9171 15.1498L47.6204 23.0628L41.5065 12.2415L46.8052 10.0773L47.8921 23.1981V7.64251L34.4416 0L46.6693 8.45411L36.4116 14.4058L36.2757 14.3382ZM31.996 14.3382L27.037 12.3092L20.7193 23.1304L33.5584 15.1498L33.966 0.270531L27.7163 11.0242L22.961 7.57488L34.034 0L20.5155 7.77778V23.3333L21.8062 8.45411L31.996 14.4058V14.3382Z" fill="white"/>
</svg>
