<svg width="1200" height="588" viewBox="0 0 1200 588" fill="none" xmlns="http://www.w3.org/2000/svg">
<rect width="1200" height="588" fill="#6C57FF"/>
<rect x="449.43" y="96.6309" width="106.082" height="52.4705" rx="6" fill="#B7F153"/>
<path d="M476.123 128.319V115.046H480.855C481.887 115.046 482.743 115.234 483.421 115.61C484.099 115.985 484.607 116.5 484.944 117.152C485.281 117.8 485.45 118.53 485.45 119.343C485.45 120.159 485.279 120.894 484.938 121.546C484.601 122.194 484.091 122.708 483.408 123.089C482.73 123.465 481.876 123.653 480.848 123.653H477.595V121.954H480.667C481.319 121.954 481.848 121.842 482.255 121.617C482.661 121.388 482.959 121.077 483.149 120.684C483.339 120.291 483.434 119.844 483.434 119.343C483.434 118.841 483.339 118.396 483.149 118.008C482.959 117.619 482.659 117.314 482.248 117.094C481.842 116.873 481.306 116.763 480.641 116.763H478.126V128.319H476.123ZM490.45 128.539C489.819 128.539 489.249 128.423 488.739 128.189C488.229 127.952 487.825 127.608 487.527 127.159C487.233 126.709 487.086 126.159 487.086 125.506C487.086 124.944 487.194 124.482 487.41 124.119C487.626 123.756 487.918 123.469 488.285 123.257C488.652 123.045 489.063 122.886 489.517 122.778C489.97 122.67 490.433 122.587 490.903 122.531C491.5 122.462 491.984 122.406 492.355 122.363C492.727 122.315 492.997 122.24 493.165 122.136C493.334 122.032 493.418 121.864 493.418 121.63V121.585C493.418 121.019 493.258 120.58 492.939 120.269C492.623 119.958 492.152 119.803 491.526 119.803C490.873 119.803 490.359 119.948 489.983 120.237C489.612 120.522 489.355 120.84 489.212 121.19L487.391 120.775C487.607 120.17 487.922 119.682 488.337 119.31C488.756 118.934 489.238 118.662 489.782 118.494C490.327 118.321 490.899 118.234 491.5 118.234C491.897 118.234 492.319 118.282 492.764 118.377C493.213 118.468 493.632 118.636 494.021 118.882C494.414 119.129 494.736 119.481 494.987 119.939C495.237 120.393 495.362 120.982 495.362 121.708V128.319H493.47V126.958H493.392C493.267 127.208 493.079 127.455 492.828 127.697C492.578 127.939 492.256 128.14 491.863 128.299C491.469 128.459 490.999 128.539 490.45 128.539ZM490.871 126.984C491.407 126.984 491.865 126.878 492.245 126.666C492.63 126.454 492.921 126.178 493.12 125.837C493.323 125.491 493.425 125.122 493.425 124.728V123.445C493.355 123.514 493.222 123.579 493.023 123.64C492.828 123.696 492.606 123.745 492.355 123.789C492.105 123.827 491.861 123.864 491.623 123.899C491.385 123.929 491.186 123.955 491.027 123.977C490.651 124.024 490.307 124.104 489.996 124.216C489.689 124.329 489.443 124.491 489.257 124.702C489.076 124.91 488.985 125.186 488.985 125.532C488.985 126.012 489.162 126.375 489.517 126.621C489.871 126.863 490.322 126.984 490.871 126.984ZM505.403 120.794L503.647 121.105C503.573 120.881 503.457 120.667 503.297 120.464C503.141 120.261 502.93 120.094 502.662 119.965C502.394 119.835 502.059 119.77 501.657 119.77C501.108 119.77 500.65 119.894 500.283 120.14C499.916 120.382 499.732 120.695 499.732 121.08C499.732 121.412 499.855 121.68 500.102 121.883C500.348 122.086 500.745 122.253 501.294 122.382L502.876 122.745C503.792 122.957 504.474 123.283 504.924 123.724C505.373 124.165 505.598 124.737 505.598 125.441C505.598 126.038 505.425 126.569 505.079 127.036C504.738 127.498 504.26 127.861 503.647 128.124C503.038 128.388 502.331 128.52 501.528 128.52C500.413 128.52 499.503 128.282 498.799 127.807C498.095 127.327 497.663 126.647 497.503 125.765L499.376 125.48C499.492 125.968 499.732 126.338 500.095 126.588C500.458 126.835 500.931 126.958 501.515 126.958C502.15 126.958 502.657 126.826 503.038 126.562C503.418 126.295 503.608 125.968 503.608 125.584C503.608 125.273 503.491 125.011 503.258 124.8C503.029 124.588 502.677 124.428 502.202 124.32L500.516 123.951C499.588 123.739 498.901 123.402 498.456 122.94C498.015 122.477 497.794 121.892 497.794 121.183C497.794 120.596 497.959 120.081 498.287 119.641C498.615 119.2 499.069 118.857 499.648 118.61C500.227 118.36 500.89 118.234 501.638 118.234C502.714 118.234 503.56 118.468 504.178 118.934C504.796 119.397 505.204 120.017 505.403 120.794ZM510.625 128.539C509.994 128.539 509.424 128.423 508.914 128.189C508.404 127.952 508 127.608 507.702 127.159C507.409 126.709 507.262 126.159 507.262 125.506C507.262 124.944 507.37 124.482 507.586 124.119C507.802 123.756 508.093 123.469 508.461 123.257C508.828 123.045 509.238 122.886 509.692 122.778C510.146 122.67 510.608 122.587 511.079 122.531C511.675 122.462 512.159 122.406 512.531 122.363C512.902 122.315 513.172 122.24 513.341 122.136C513.509 122.032 513.594 121.864 513.594 121.63V121.585C513.594 121.019 513.434 120.58 513.114 120.269C512.799 119.958 512.328 119.803 511.701 119.803C511.049 119.803 510.535 119.948 510.159 120.237C509.787 120.522 509.53 120.84 509.387 121.19L507.566 120.775C507.782 120.17 508.098 119.682 508.512 119.31C508.932 118.934 509.413 118.662 509.958 118.494C510.502 118.321 511.075 118.234 511.675 118.234C512.073 118.234 512.494 118.282 512.939 118.377C513.388 118.468 513.807 118.636 514.196 118.882C514.589 119.129 514.911 119.481 515.162 119.939C515.413 120.393 515.538 120.982 515.538 121.708V128.319H513.645V126.958H513.568C513.442 127.208 513.254 127.455 513.004 127.697C512.753 127.939 512.431 128.14 512.038 128.299C511.645 128.459 511.174 128.539 510.625 128.539ZM511.047 126.984C511.582 126.984 512.04 126.878 512.421 126.666C512.805 126.454 513.097 126.178 513.295 125.837C513.499 125.491 513.6 125.122 513.6 124.728V123.445C513.531 123.514 513.397 123.579 513.198 123.64C513.004 123.696 512.781 123.745 512.531 123.789C512.28 123.827 512.036 123.864 511.798 123.899C511.561 123.929 511.362 123.955 511.202 123.977C510.826 124.024 510.483 124.104 510.172 124.216C509.865 124.329 509.619 124.491 509.433 124.702C509.251 124.91 509.161 125.186 509.161 125.532C509.161 126.012 509.338 126.375 509.692 126.621C510.046 126.863 510.498 126.984 511.047 126.984ZM527.959 115.046V128.319H525.95V117.055H525.872L522.696 119.129V117.21L526.008 115.046H527.959Z" fill="white"/>
<rect x="449.43" y="96.6309" width="106.082" height="52.4705" rx="6" stroke="#84CE33" stroke-opacity="0.7" stroke-width="1.5"/>
<rect x="449.43" y="196.88" width="106.082" height="52.4705" rx="6" fill="#FFCA32"/>
<path d="M474.84 228.568V215.295H479.571C480.604 215.295 481.46 215.483 482.138 215.859C482.816 216.235 483.324 216.749 483.661 217.402C483.998 218.05 484.166 218.78 484.166 219.592C484.166 220.409 483.996 221.143 483.654 221.796C483.317 222.444 482.808 222.958 482.125 223.338C481.447 223.714 480.593 223.902 479.565 223.902H476.311V222.204H479.383C480.036 222.204 480.565 222.092 480.971 221.867C481.377 221.638 481.676 221.327 481.866 220.934C482.056 220.541 482.151 220.093 482.151 219.592C482.151 219.091 482.056 218.646 481.866 218.257C481.676 217.868 481.375 217.564 480.965 217.343C480.559 217.123 480.023 217.013 479.358 217.013H476.843V228.568H474.84ZM489.167 228.789C488.536 228.789 487.965 228.672 487.456 228.439C486.946 228.201 486.542 227.858 486.244 227.408C485.95 226.959 485.803 226.408 485.803 225.756C485.803 225.194 485.911 224.732 486.127 224.369C486.343 224.006 486.635 223.718 487.002 223.507C487.369 223.295 487.78 223.135 488.233 223.027C488.687 222.919 489.149 222.837 489.62 222.781C490.216 222.712 490.7 222.655 491.072 222.612C491.444 222.565 491.714 222.489 491.882 222.385C492.051 222.282 492.135 222.113 492.135 221.88V221.835C492.135 221.269 491.975 220.83 491.655 220.519C491.34 220.208 490.869 220.052 490.242 220.052C489.59 220.052 489.076 220.197 488.7 220.487C488.328 220.772 488.071 221.089 487.929 221.439L486.108 221.024C486.324 220.42 486.639 219.931 487.054 219.56C487.473 219.184 487.955 218.912 488.499 218.743C489.043 218.57 489.616 218.484 490.216 218.484C490.614 218.484 491.035 218.531 491.48 218.626C491.93 218.717 492.349 218.886 492.738 219.132C493.131 219.378 493.453 219.73 493.703 220.188C493.954 220.642 494.079 221.232 494.079 221.958V228.568H492.187V227.207H492.109C491.984 227.458 491.796 227.704 491.545 227.946C491.295 228.188 490.973 228.389 490.579 228.549C490.186 228.709 489.715 228.789 489.167 228.789ZM489.588 227.233C490.124 227.233 490.582 227.127 490.962 226.916C491.346 226.704 491.638 226.427 491.837 226.086C492.04 225.74 492.141 225.371 492.141 224.978V223.695C492.072 223.764 491.938 223.829 491.74 223.889C491.545 223.945 491.323 223.995 491.072 224.038C490.821 224.077 490.577 224.114 490.34 224.148C490.102 224.179 489.903 224.204 489.743 224.226C489.367 224.274 489.024 224.354 488.713 224.466C488.406 224.578 488.16 224.74 487.974 224.952C487.793 225.159 487.702 225.436 487.702 225.782C487.702 226.261 487.879 226.624 488.233 226.87C488.588 227.112 489.039 227.233 489.588 227.233ZM504.12 221.044L502.364 221.355C502.29 221.13 502.173 220.916 502.014 220.713C501.858 220.51 501.646 220.344 501.378 220.214C501.111 220.085 500.776 220.02 500.374 220.02C499.825 220.02 499.367 220.143 499 220.389C498.633 220.631 498.449 220.945 498.449 221.329C498.449 221.662 498.572 221.93 498.818 222.133C499.065 222.336 499.462 222.502 500.011 222.632L501.592 222.995C502.508 223.206 503.191 223.533 503.64 223.973C504.09 224.414 504.314 224.987 504.314 225.691C504.314 226.287 504.142 226.818 503.796 227.285C503.455 227.747 502.977 228.11 502.364 228.374C501.754 228.637 501.048 228.769 500.244 228.769C499.13 228.769 498.22 228.532 497.516 228.056C496.811 227.577 496.379 226.896 496.22 226.015L498.093 225.73C498.209 226.218 498.449 226.587 498.812 226.838C499.175 227.084 499.648 227.207 500.231 227.207C500.866 227.207 501.374 227.076 501.754 226.812C502.135 226.544 502.325 226.218 502.325 225.833C502.325 225.522 502.208 225.261 501.975 225.049C501.746 224.837 501.394 224.678 500.918 224.57L499.233 224.2C498.304 223.988 497.617 223.651 497.172 223.189C496.732 222.727 496.511 222.141 496.511 221.433C496.511 220.845 496.675 220.331 497.004 219.89C497.332 219.45 497.786 219.106 498.365 218.86C498.944 218.609 499.607 218.484 500.354 218.484C501.43 218.484 502.277 218.717 502.895 219.184C503.513 219.646 503.921 220.266 504.12 221.044ZM509.342 228.789C508.711 228.789 508.141 228.672 507.631 228.439C507.121 228.201 506.717 227.858 506.419 227.408C506.125 226.959 505.978 226.408 505.978 225.756C505.978 225.194 506.086 224.732 506.302 224.369C506.518 224.006 506.81 223.718 507.177 223.507C507.545 223.295 507.955 223.135 508.409 223.027C508.862 222.919 509.325 222.837 509.796 222.781C510.392 222.712 510.876 222.655 511.247 222.612C511.619 222.565 511.889 222.489 512.058 222.385C512.226 222.282 512.31 222.113 512.31 221.88V221.835C512.31 221.269 512.15 220.83 511.831 220.519C511.515 220.208 511.044 220.052 510.418 220.052C509.765 220.052 509.251 220.197 508.875 220.487C508.504 220.772 508.247 221.089 508.104 221.439L506.283 221.024C506.499 220.42 506.814 219.931 507.229 219.56C507.648 219.184 508.13 218.912 508.674 218.743C509.219 218.57 509.791 218.484 510.392 218.484C510.789 218.484 511.211 218.531 511.656 218.626C512.105 218.717 512.524 218.886 512.913 219.132C513.306 219.378 513.628 219.73 513.879 220.188C514.129 220.642 514.255 221.232 514.255 221.958V228.568H512.362V227.207H512.284C512.159 227.458 511.971 227.704 511.721 227.946C511.47 228.188 511.148 228.389 510.755 228.549C510.362 228.709 509.891 228.789 509.342 228.789ZM509.763 227.233C510.299 227.233 510.757 227.127 511.137 226.916C511.522 226.704 511.813 226.427 512.012 226.086C512.215 225.74 512.317 225.371 512.317 224.978V223.695C512.248 223.764 512.114 223.829 511.915 223.889C511.721 223.945 511.498 223.995 511.247 224.038C510.997 224.077 510.753 224.114 510.515 224.148C510.277 224.179 510.079 224.204 509.919 224.226C509.543 224.274 509.199 224.354 508.888 224.466C508.582 224.578 508.335 224.74 508.15 224.952C507.968 225.159 507.877 225.436 507.877 225.782C507.877 226.261 508.054 226.624 508.409 226.87C508.763 227.112 509.215 227.233 509.763 227.233ZM521.64 228.568V227.117L526.131 222.463C526.611 221.958 527.006 221.515 527.317 221.135C527.633 220.75 527.868 220.385 528.024 220.039C528.179 219.694 528.257 219.326 528.257 218.938C528.257 218.497 528.153 218.117 527.946 217.797C527.738 217.473 527.455 217.224 527.097 217.052C526.738 216.874 526.334 216.786 525.885 216.786C525.41 216.786 524.995 216.883 524.641 217.077C524.286 217.272 524.014 217.546 523.824 217.901C523.634 218.255 523.539 218.67 523.539 219.145H521.627C521.627 218.337 521.813 217.631 522.184 217.026C522.556 216.421 523.066 215.952 523.714 215.619C524.362 215.282 525.098 215.114 525.924 215.114C526.758 215.114 527.492 215.28 528.127 215.613C528.767 215.941 529.266 216.39 529.624 216.961C529.983 217.527 530.162 218.166 530.162 218.879C530.162 219.372 530.069 219.854 529.884 220.324C529.702 220.795 529.385 221.32 528.931 221.899C528.477 222.474 527.846 223.172 527.038 223.993L524.401 226.754V226.851H530.376V228.568H521.64Z" fill="white"/>
<rect x="449.43" y="196.88" width="106.082" height="52.4705" rx="6" stroke="#FF9800" stroke-opacity="0.7" stroke-width="1.5"/>
<rect x="449.43" y="296.912" width="106.082" height="52.4705" rx="6" fill="#EC7FD3"/>
<path d="M474.555 328.6V315.327H479.286C480.319 315.327 481.174 315.515 481.853 315.89C482.531 316.266 483.039 316.78 483.376 317.433C483.713 318.081 483.881 318.811 483.881 319.623C483.881 320.44 483.711 321.175 483.369 321.827C483.032 322.475 482.522 322.989 481.84 323.37C481.161 323.745 480.308 323.933 479.28 323.933H476.026V322.235H479.098C479.751 322.235 480.28 322.123 480.686 321.898C481.092 321.669 481.39 321.358 481.581 320.965C481.771 320.572 481.866 320.125 481.866 319.623C481.866 319.122 481.771 318.677 481.581 318.288C481.39 317.9 481.09 317.595 480.68 317.375C480.274 317.154 479.738 317.044 479.072 317.044H476.558V328.6H474.555ZM488.881 328.82C488.251 328.82 487.68 328.703 487.17 328.47C486.661 328.232 486.257 327.889 485.958 327.44C485.665 326.99 485.518 326.439 485.518 325.787C485.518 325.225 485.626 324.763 485.842 324.4C486.058 324.037 486.349 323.75 486.717 323.538C487.084 323.326 487.494 323.166 487.948 323.058C488.402 322.95 488.864 322.868 489.335 322.812C489.931 322.743 490.415 322.687 490.787 322.644C491.158 322.596 491.428 322.521 491.597 322.417C491.765 322.313 491.85 322.145 491.85 321.911V321.866C491.85 321.3 491.69 320.861 491.37 320.55C491.055 320.239 490.584 320.084 489.957 320.084C489.305 320.084 488.791 320.228 488.415 320.518C488.043 320.803 487.786 321.121 487.644 321.471L485.822 321.056C486.038 320.451 486.354 319.963 486.769 319.591C487.188 319.215 487.669 318.943 488.214 318.774C488.758 318.602 489.331 318.515 489.931 318.515C490.329 318.515 490.75 318.563 491.195 318.658C491.644 318.749 492.064 318.917 492.452 319.163C492.846 319.41 493.168 319.762 493.418 320.22C493.669 320.673 493.794 321.263 493.794 321.989V328.6H491.902V327.239H491.824C491.698 327.489 491.511 327.736 491.26 327.978C491.009 328.22 490.687 328.42 490.294 328.58C489.901 328.74 489.43 328.82 488.881 328.82ZM489.303 327.265C489.838 327.265 490.296 327.159 490.677 326.947C491.061 326.735 491.353 326.459 491.552 326.117C491.755 325.772 491.856 325.402 491.856 325.009V323.726C491.787 323.795 491.653 323.86 491.454 323.92C491.26 323.977 491.037 324.026 490.787 324.069C490.536 324.108 490.292 324.145 490.054 324.18C489.817 324.21 489.618 324.236 489.458 324.257C489.082 324.305 488.739 324.385 488.428 324.497C488.121 324.61 487.875 324.772 487.689 324.983C487.507 325.191 487.417 325.467 487.417 325.813C487.417 326.292 487.594 326.655 487.948 326.902C488.302 327.144 488.754 327.265 489.303 327.265ZM503.835 321.075L502.078 321.386C502.005 321.162 501.888 320.948 501.728 320.745C501.573 320.542 501.361 320.375 501.093 320.246C500.825 320.116 500.491 320.051 500.089 320.051C499.54 320.051 499.082 320.174 498.715 320.421C498.347 320.663 498.164 320.976 498.164 321.36C498.164 321.693 498.287 321.961 498.533 322.164C498.78 322.367 499.177 322.533 499.726 322.663L501.307 323.026C502.223 323.238 502.906 323.564 503.355 324.005C503.805 324.445 504.029 325.018 504.029 325.722C504.029 326.318 503.856 326.85 503.511 327.316C503.169 327.779 502.692 328.142 502.078 328.405C501.469 328.669 500.763 328.801 499.959 328.801C498.844 328.801 497.935 328.563 497.231 328.088C496.526 327.608 496.094 326.928 495.934 326.046L497.807 325.761C497.924 326.249 498.164 326.619 498.527 326.869C498.89 327.116 499.363 327.239 499.946 327.239C500.581 327.239 501.089 327.107 501.469 326.843C501.849 326.575 502.04 326.249 502.04 325.865C502.04 325.554 501.923 325.292 501.69 325.081C501.461 324.869 501.108 324.709 500.633 324.601L498.948 324.232C498.019 324.02 497.332 323.683 496.887 323.22C496.446 322.758 496.226 322.173 496.226 321.464C496.226 320.876 496.39 320.362 496.719 319.922C497.047 319.481 497.501 319.137 498.08 318.891C498.659 318.641 499.322 318.515 500.069 318.515C501.145 318.515 501.992 318.749 502.61 319.215C503.228 319.678 503.636 320.298 503.835 321.075ZM509.057 328.82C508.426 328.82 507.856 328.703 507.346 328.47C506.836 328.232 506.432 327.889 506.134 327.44C505.84 326.99 505.693 326.439 505.693 325.787C505.693 325.225 505.801 324.763 506.017 324.4C506.233 324.037 506.525 323.75 506.892 323.538C507.259 323.326 507.67 323.166 508.124 323.058C508.577 322.95 509.04 322.868 509.511 322.812C510.107 322.743 510.591 322.687 510.962 322.644C511.334 322.596 511.604 322.521 511.772 322.417C511.941 322.313 512.025 322.145 512.025 321.911V321.866C512.025 321.3 511.865 320.861 511.546 320.55C511.23 320.239 510.759 320.084 510.133 320.084C509.48 320.084 508.966 320.228 508.59 320.518C508.219 320.803 507.962 321.121 507.819 321.471L505.998 321.056C506.214 320.451 506.529 319.963 506.944 319.591C507.363 319.215 507.845 318.943 508.389 318.774C508.934 318.602 509.506 318.515 510.107 318.515C510.504 318.515 510.926 318.563 511.371 318.658C511.82 318.749 512.239 318.917 512.628 319.163C513.021 319.41 513.343 319.762 513.594 320.22C513.844 320.673 513.969 321.263 513.969 321.989V328.6H512.077V327.239H511.999C511.874 327.489 511.686 327.736 511.435 327.978C511.185 328.22 510.863 328.42 510.47 328.58C510.077 328.74 509.606 328.82 509.057 328.82ZM509.478 327.265C510.014 327.265 510.472 327.159 510.852 326.947C511.237 326.735 511.528 326.459 511.727 326.117C511.93 325.772 512.032 325.402 512.032 325.009V323.726C511.963 323.795 511.829 323.86 511.63 323.92C511.435 323.977 511.213 324.026 510.962 324.069C510.712 324.108 510.468 324.145 510.23 324.18C509.992 324.21 509.794 324.236 509.634 324.257C509.258 324.305 508.914 324.385 508.603 324.497C508.296 324.61 508.05 324.772 507.864 324.983C507.683 325.191 507.592 325.467 507.592 325.813C507.592 326.292 507.769 326.655 508.124 326.902C508.478 327.144 508.929 327.265 509.478 327.265ZM525.976 328.781C525.086 328.781 524.291 328.628 523.591 328.321C522.895 328.014 522.344 327.589 521.938 327.044C521.536 326.496 521.32 325.86 521.29 325.139H523.325C523.351 325.532 523.483 325.873 523.72 326.163C523.962 326.448 524.278 326.668 524.666 326.824C525.055 326.979 525.487 327.057 525.963 327.057C526.485 327.057 526.948 326.967 527.35 326.785C527.756 326.604 528.073 326.351 528.302 326.027C528.531 325.698 528.646 325.32 528.646 324.893C528.646 324.448 528.531 324.057 528.302 323.72C528.078 323.378 527.747 323.11 527.311 322.916C526.879 322.721 526.356 322.624 525.742 322.624H524.621V320.991H525.742C526.235 320.991 526.667 320.902 527.038 320.725C527.414 320.548 527.708 320.302 527.92 319.986C528.132 319.667 528.237 319.293 528.237 318.865C528.237 318.455 528.145 318.098 527.959 317.796C527.777 317.489 527.518 317.249 527.181 317.076C526.848 316.904 526.455 316.817 526.002 316.817C525.569 316.817 525.165 316.897 524.79 317.057C524.418 317.213 524.116 317.437 523.882 317.731C523.649 318.021 523.524 318.368 523.506 318.774H521.568C521.59 318.057 521.802 317.426 522.204 316.882C522.61 316.338 523.146 315.912 523.811 315.605C524.476 315.298 525.215 315.145 526.027 315.145C526.879 315.145 527.613 315.311 528.231 315.644C528.853 315.973 529.333 316.411 529.67 316.96C530.011 317.509 530.18 318.109 530.175 318.762C530.18 319.505 529.972 320.136 529.553 320.654C529.138 321.172 528.585 321.52 527.894 321.697V321.801C528.775 321.935 529.458 322.285 529.942 322.851C530.43 323.417 530.672 324.119 530.668 324.957C530.672 325.688 530.469 326.342 530.059 326.921C529.652 327.5 529.097 327.956 528.393 328.289C527.689 328.617 526.883 328.781 525.976 328.781Z" fill="white"/>
<rect x="449.43" y="296.912" width="106.082" height="52.4705" rx="6" stroke="#DA3FAE" stroke-opacity="0.7" stroke-width="1.5"/>
<rect x="449.43" y="446.384" width="106.082" height="52.4705" rx="6" fill="#9B8AE6"/>
<path d="M473.619 478.072V464.799H478.351C479.383 464.799 480.239 464.987 480.917 465.362C481.595 465.738 482.103 466.253 482.44 466.905C482.777 467.553 482.946 468.283 482.946 469.096C482.946 469.912 482.775 470.647 482.434 471.299C482.097 471.947 481.587 472.461 480.904 472.842C480.226 473.217 479.372 473.405 478.344 473.405H475.091V471.707H478.163C478.815 471.707 479.344 471.595 479.75 471.37C480.157 471.141 480.455 470.83 480.645 470.437C480.835 470.044 480.93 469.597 480.93 469.096C480.93 468.594 480.835 468.149 480.645 467.76C480.455 467.372 480.154 467.067 479.744 466.847C479.338 466.626 478.802 466.516 478.137 466.516H475.622V478.072H473.619ZM487.946 478.292C487.315 478.292 486.745 478.175 486.235 477.942C485.725 477.705 485.321 477.361 485.023 476.912C484.729 476.462 484.582 475.911 484.582 475.259C484.582 474.697 484.69 474.235 484.906 473.872C485.122 473.509 485.414 473.222 485.781 473.01C486.148 472.798 486.559 472.639 487.012 472.53C487.466 472.422 487.928 472.34 488.399 472.284C488.996 472.215 489.48 472.159 489.851 472.116C490.223 472.068 490.493 471.993 490.661 471.889C490.83 471.785 490.914 471.617 490.914 471.383V471.338C490.914 470.772 490.754 470.333 490.434 470.022C490.119 469.711 489.648 469.556 489.022 469.556C488.369 469.556 487.855 469.7 487.479 469.99C487.107 470.275 486.85 470.593 486.708 470.943L484.887 470.528C485.103 469.923 485.418 469.435 485.833 469.063C486.252 468.687 486.734 468.415 487.278 468.247C487.823 468.074 488.395 467.987 488.996 467.987C489.393 467.987 489.814 468.035 490.259 468.13C490.709 468.221 491.128 468.389 491.517 468.635C491.91 468.882 492.232 469.234 492.482 469.692C492.733 470.145 492.858 470.735 492.858 471.461V478.072H490.966V476.711H490.888C490.763 476.961 490.575 477.208 490.324 477.45C490.074 477.692 489.752 477.892 489.359 478.052C488.965 478.212 488.494 478.292 487.946 478.292ZM488.367 476.737C488.903 476.737 489.361 476.631 489.741 476.419C490.125 476.207 490.417 475.931 490.616 475.59C490.819 475.244 490.92 474.874 490.92 474.481V473.198C490.851 473.267 490.717 473.332 490.519 473.392C490.324 473.449 490.102 473.498 489.851 473.542C489.601 473.58 489.356 473.617 489.119 473.652C488.881 473.682 488.682 473.708 488.523 473.729C488.147 473.777 487.803 473.857 487.492 473.969C487.185 474.082 486.939 474.244 486.753 474.455C486.572 474.663 486.481 474.939 486.481 475.285C486.481 475.765 486.658 476.127 487.012 476.374C487.367 476.616 487.818 476.737 488.367 476.737ZM502.899 470.547L501.143 470.858C501.069 470.634 500.953 470.42 500.793 470.217C500.637 470.014 500.425 469.847 500.158 469.718C499.89 469.588 499.555 469.523 499.153 469.523C498.604 469.523 498.146 469.646 497.779 469.893C497.412 470.135 497.228 470.448 497.228 470.832C497.228 471.165 497.351 471.433 497.598 471.636C497.844 471.839 498.241 472.006 498.79 472.135L500.371 472.498C501.287 472.71 501.97 473.036 502.419 473.477C502.869 473.917 503.093 474.49 503.093 475.194C503.093 475.79 502.921 476.322 502.575 476.789C502.234 477.251 501.756 477.614 501.143 477.877C500.533 478.141 499.827 478.273 499.023 478.273C497.909 478.273 496.999 478.035 496.295 477.56C495.591 477.08 495.159 476.4 494.999 475.518L496.872 475.233C496.988 475.721 497.228 476.091 497.591 476.341C497.954 476.588 498.427 476.711 499.01 476.711C499.646 476.711 500.153 476.579 500.533 476.315C500.914 476.048 501.104 475.721 501.104 475.337C501.104 475.026 500.987 474.764 500.754 474.553C500.525 474.341 500.173 474.181 499.697 474.073L498.012 473.704C497.083 473.492 496.396 473.155 495.951 472.693C495.511 472.23 495.29 471.645 495.29 470.936C495.29 470.349 495.455 469.834 495.783 469.394C496.111 468.953 496.565 468.609 497.144 468.363C497.723 468.113 498.386 467.987 499.134 467.987C500.209 467.987 501.056 468.221 501.674 468.687C502.292 469.15 502.7 469.77 502.899 470.547ZM508.121 478.292C507.49 478.292 506.92 478.175 506.41 477.942C505.9 477.705 505.496 477.361 505.198 476.912C504.904 476.462 504.758 475.911 504.758 475.259C504.758 474.697 504.866 474.235 505.082 473.872C505.298 473.509 505.589 473.222 505.956 473.01C506.324 472.798 506.734 472.639 507.188 472.53C507.642 472.422 508.104 472.34 508.575 472.284C509.171 472.215 509.655 472.159 510.027 472.116C510.398 472.068 510.668 471.993 510.837 471.889C511.005 471.785 511.089 471.617 511.089 471.383V471.338C511.089 470.772 510.93 470.333 510.61 470.022C510.294 469.711 509.824 469.556 509.197 469.556C508.545 469.556 508.03 469.7 507.655 469.99C507.283 470.275 507.026 470.593 506.883 470.943L505.062 470.528C505.278 469.923 505.594 469.435 506.008 469.063C506.427 468.687 506.909 468.415 507.454 468.247C507.998 468.074 508.571 467.987 509.171 467.987C509.569 467.987 509.99 468.035 510.435 468.13C510.884 468.221 511.303 468.389 511.692 468.635C512.085 468.882 512.407 469.234 512.658 469.692C512.908 470.145 513.034 470.735 513.034 471.461V478.072H511.141V476.711H511.064C510.938 476.961 510.75 477.208 510.5 477.45C510.249 477.692 509.927 477.892 509.534 478.052C509.141 478.212 508.67 478.292 508.121 478.292ZM508.542 476.737C509.078 476.737 509.536 476.631 509.916 476.419C510.301 476.207 510.593 475.931 510.791 475.59C510.994 475.244 511.096 474.874 511.096 474.481V473.198C511.027 473.267 510.893 473.332 510.694 473.392C510.5 473.449 510.277 473.498 510.027 473.542C509.776 473.58 509.532 473.617 509.294 473.652C509.057 473.682 508.858 473.708 508.698 473.729C508.322 473.777 507.979 473.857 507.667 473.969C507.361 474.082 507.114 474.244 506.929 474.455C506.747 474.663 506.656 474.939 506.656 475.285C506.656 475.765 506.834 476.127 507.188 476.374C507.542 476.616 507.994 476.737 508.542 476.737ZM531.314 464.799V478.072H529.473L522.726 468.337H522.603V478.072H520.6V464.799H522.454L529.207 474.546H529.33V464.799H531.314Z" fill="white"/>
<rect x="449.43" y="446.384" width="106.082" height="52.4705" rx="6" stroke="#5E4ACF" stroke-opacity="0.7" stroke-width="1.5"/>
<rect x="487.398" y="386.677" width="31.5792" height="25.8759" rx="5.25" fill="white"/>
<path d="M500.369 403.595C500.102 403.595 499.872 403.5 499.681 403.311C499.492 403.12 499.397 402.89 499.397 402.623C499.397 402.358 499.492 402.131 499.681 401.942C499.872 401.753 500.102 401.659 500.369 401.659C500.629 401.659 500.855 401.753 501.05 401.942C501.244 402.131 501.341 402.358 501.341 402.623C501.341 402.801 501.296 402.964 501.204 403.113C501.115 403.259 500.997 403.376 500.851 403.465C500.705 403.552 500.545 403.595 500.369 403.595ZM503.225 403.595C502.958 403.595 502.728 403.5 502.536 403.311C502.347 403.12 502.253 402.89 502.253 402.623C502.253 402.358 502.347 402.131 502.536 401.942C502.728 401.753 502.958 401.659 503.225 401.659C503.484 401.659 503.711 401.753 503.905 401.942C504.1 402.131 504.197 402.358 504.197 402.623C504.197 402.801 504.151 402.964 504.059 403.113C503.97 403.259 503.853 403.376 503.707 403.465C503.561 403.552 503.4 403.595 503.225 403.595ZM506.085 403.595C505.817 403.595 505.588 403.5 505.396 403.311C505.207 403.12 505.113 402.89 505.113 402.623C505.113 402.358 505.207 402.131 505.396 401.942C505.588 401.753 505.817 401.659 506.085 401.659C506.344 401.659 506.571 401.753 506.765 401.942C506.96 402.131 507.057 402.358 507.057 402.623C507.057 402.801 507.011 402.964 506.919 403.113C506.83 403.259 506.713 403.376 506.567 403.465C506.421 403.552 506.26 403.595 506.085 403.595Z" fill="#597393"/>
<rect x="487.398" y="386.677" width="31.5792" height="25.8759" rx="5.25" stroke="#DAE4ED" stroke-width="1.5"/>
<rect x="903.773" y="459.69" width="32.9936" height="26.0949" rx="5.25" fill="white"/>
<path d="M917.451 476.608C917.184 476.608 916.954 476.513 916.763 476.324C916.574 476.132 916.479 475.903 916.479 475.635C916.479 475.371 916.574 475.144 916.763 474.955C916.954 474.766 917.184 474.671 917.451 474.671C917.711 474.671 917.937 474.766 918.132 474.955C918.326 475.144 918.423 475.371 918.423 475.635C918.423 475.814 918.378 475.977 918.286 476.125C918.197 476.271 918.079 476.389 917.933 476.478C917.787 476.564 917.627 476.608 917.451 476.608ZM920.307 476.608C920.04 476.608 919.81 476.513 919.618 476.324C919.429 476.132 919.335 475.903 919.335 475.635C919.335 475.371 919.429 475.144 919.618 474.955C919.81 474.766 920.04 474.671 920.307 474.671C920.566 474.671 920.793 474.766 920.988 474.955C921.182 475.144 921.279 475.371 921.279 475.635C921.279 475.814 921.233 475.977 921.141 476.125C921.052 476.271 920.935 476.389 920.789 476.478C920.643 476.564 920.483 476.608 920.307 476.608ZM923.167 476.608C922.899 476.608 922.67 476.513 922.478 476.324C922.289 476.132 922.195 475.903 922.195 475.635C922.195 475.371 922.289 475.144 922.478 474.955C922.67 474.766 922.899 474.671 923.167 474.671C923.426 474.671 923.653 474.766 923.847 474.955C924.042 475.144 924.139 475.371 924.139 475.635C924.139 475.814 924.093 475.977 924.001 476.125C923.912 476.271 923.795 476.389 923.649 476.478C923.503 476.564 923.342 476.608 923.167 476.608Z" fill="#597393"/>
<rect x="903.773" y="459.69" width="32.9936" height="26.0949" rx="5.25" stroke="#DAE4ED" stroke-width="1.5"/>
<rect x="903.625" y="110.037" width="32.9936" height="26.0949" rx="5.25" fill="white"/>
<path d="M917.303 126.955C917.036 126.955 916.806 126.86 916.614 126.671C916.425 126.479 916.331 126.25 916.331 125.983C916.331 125.718 916.425 125.491 916.614 125.302C916.806 125.113 917.036 125.018 917.303 125.018C917.562 125.018 917.789 125.113 917.983 125.302C918.178 125.491 918.275 125.718 918.275 125.983C918.275 126.161 918.229 126.324 918.137 126.473C918.048 126.618 917.931 126.736 917.785 126.825C917.639 126.911 917.478 126.955 917.303 126.955ZM920.159 126.955C919.891 126.955 919.662 126.86 919.47 126.671C919.281 126.479 919.186 126.25 919.186 125.983C919.186 125.718 919.281 125.491 919.47 125.302C919.662 125.113 919.891 125.018 920.159 125.018C920.418 125.018 920.645 125.113 920.839 125.302C921.034 125.491 921.131 125.718 921.131 125.983C921.131 126.161 921.085 126.324 920.993 126.473C920.904 126.618 920.786 126.736 920.641 126.825C920.495 126.911 920.334 126.955 920.159 126.955ZM923.018 126.955C922.751 126.955 922.521 126.86 922.33 126.671C922.141 126.479 922.046 126.25 922.046 125.983C922.046 125.718 922.141 125.491 922.33 125.302C922.521 125.113 922.751 125.018 923.018 125.018C923.278 125.018 923.504 125.113 923.699 125.302C923.893 125.491 923.99 125.718 923.99 125.983C923.99 126.161 923.945 126.324 923.853 126.473C923.764 126.618 923.646 126.736 923.5 126.825C923.355 126.911 923.194 126.955 923.018 126.955Z" fill="#597393"/>
<rect x="903.625" y="110.037" width="32.9936" height="26.0949" rx="5.25" stroke="#DAE4ED" stroke-width="1.5"/>
<rect x="903.625" y="210.068" width="32.9936" height="26.0949" rx="5.25" fill="white"/>
<path d="M917.303 226.986C917.036 226.986 916.806 226.891 916.614 226.702C916.425 226.511 916.331 226.281 916.331 226.014C916.331 225.749 916.425 225.522 916.614 225.333C916.806 225.144 917.036 225.05 917.303 225.05C917.562 225.05 917.789 225.144 917.983 225.333C918.178 225.522 918.275 225.749 918.275 226.014C918.275 226.192 918.229 226.355 918.137 226.504C918.048 226.65 917.931 226.767 917.785 226.856C917.639 226.943 917.478 226.986 917.303 226.986ZM920.159 226.986C919.891 226.986 919.662 226.891 919.47 226.702C919.281 226.511 919.186 226.281 919.186 226.014C919.186 225.749 919.281 225.522 919.47 225.333C919.662 225.144 919.891 225.05 920.159 225.05C920.418 225.05 920.645 225.144 920.839 225.333C921.034 225.522 921.131 225.749 921.131 226.014C921.131 226.192 921.085 226.355 920.993 226.504C920.904 226.65 920.786 226.767 920.641 226.856C920.495 226.943 920.334 226.986 920.159 226.986ZM923.018 226.986C922.751 226.986 922.521 226.891 922.33 226.702C922.141 226.511 922.046 226.281 922.046 226.014C922.046 225.749 922.141 225.522 922.33 225.333C922.521 225.144 922.751 225.05 923.018 225.05C923.278 225.05 923.504 225.144 923.699 225.333C923.893 225.522 923.99 225.749 923.99 226.014C923.99 226.192 923.945 226.355 923.853 226.504C923.764 226.65 923.646 226.767 923.5 226.856C923.355 226.943 923.194 226.986 923.018 226.986Z" fill="#597393"/>
<rect x="903.625" y="210.068" width="32.9936" height="26.0949" rx="5.25" stroke="#DAE4ED" stroke-width="1.5"/>
<rect x="903.625" y="310.1" width="32.9936" height="26.0949" rx="5.25" fill="white"/>
<path d="M917.303 327.018C917.036 327.018 916.806 326.923 916.614 326.734C916.425 326.542 916.331 326.313 916.331 326.045C916.331 325.781 916.425 325.554 916.614 325.365C916.806 325.176 917.036 325.081 917.303 325.081C917.562 325.081 917.789 325.176 917.983 325.365C918.178 325.554 918.275 325.781 918.275 326.045C918.275 326.224 918.229 326.387 918.137 326.536C918.048 326.681 917.931 326.799 917.785 326.888C917.639 326.974 917.478 327.018 917.303 327.018ZM920.159 327.018C919.891 327.018 919.662 326.923 919.47 326.734C919.281 326.542 919.186 326.313 919.186 326.045C919.186 325.781 919.281 325.554 919.47 325.365C919.662 325.176 919.891 325.081 920.159 325.081C920.418 325.081 920.645 325.176 920.839 325.365C921.034 325.554 921.131 325.781 921.131 326.045C921.131 326.224 921.085 326.387 920.993 326.536C920.904 326.681 920.786 326.799 920.641 326.888C920.495 326.974 920.334 327.018 920.159 327.018ZM923.018 327.018C922.751 327.018 922.521 326.923 922.33 326.734C922.141 326.542 922.046 326.313 922.046 326.045C922.046 325.781 922.141 325.554 922.33 325.365C922.521 325.176 922.751 325.081 923.018 325.081C923.278 325.081 923.504 325.176 923.699 325.365C923.893 325.554 923.99 325.781 923.99 326.045C923.99 326.224 923.945 326.387 923.853 326.536C923.764 326.681 923.646 326.799 923.5 326.888C923.355 326.974 923.194 327.018 923.018 327.018Z" fill="#597393"/>
<rect x="903.625" y="310.1" width="32.9936" height="26.0949" rx="5.25" stroke="#DAE4ED" stroke-width="1.5"/>
<path fill-rule="evenodd" clip-rule="evenodd" d="M1049.34 161.297V122.867L1083.84 103.754V142.117L1049.34 161.297Z" fill="#F2F7F9"/>
<path fill-rule="evenodd" clip-rule="evenodd" d="M1014.85 142.117V103.754L1049.35 122.867V161.297L1014.85 142.117Z" fill="#BFD4E4"/>
<path fill-rule="evenodd" clip-rule="evenodd" d="M1083.84 103.755L1049.34 122.867L1014.85 103.755L1049.34 84.5747L1083.84 103.755Z" fill="#DDEAF3"/>
<path fill-rule="evenodd" clip-rule="evenodd" d="M658.992 161.297V122.867L693.486 103.754V142.117L658.992 161.297Z" fill="#F2F7F9"/>
<path fill-rule="evenodd" clip-rule="evenodd" d="M624.5 142.117V103.754L658.994 122.867V161.297L624.5 142.117Z" fill="#BFD4E4"/>
<path fill-rule="evenodd" clip-rule="evenodd" d="M693.485 103.755L658.992 122.867L624.5 103.755L658.992 84.5747L693.485 103.755Z" fill="#DDEAF3"/>
<path fill-rule="evenodd" clip-rule="evenodd" d="M796.969 161.297V122.867L831.463 103.754V142.117L796.969 161.297Z" fill="#F2F7F9"/>
<path fill-rule="evenodd" clip-rule="evenodd" d="M762.477 142.117V103.754L796.97 122.867V161.297L762.477 142.117Z" fill="#BFD4E4"/>
<path fill-rule="evenodd" clip-rule="evenodd" d="M831.461 103.755L796.969 122.867L762.477 103.755L796.969 84.5747L831.461 103.755Z" fill="#DDEAF3"/>
<path d="M1005.08 123.084H948.078" stroke="#DAE4ED" stroke-width="1.71099"/>
<path d="M948.078 121.092C946.976 121.092 946.082 121.986 946.082 123.089C946.082 124.191 946.976 125.085 948.078 125.085C949.18 125.085 950.074 124.191 950.074 123.089C950.074 121.986 949.18 121.092 948.078 121.092Z" fill="white" stroke="#DAE4ED" stroke-width="1.71099"/>
<path d="M1002.51 125.039C1002.51 125.252 1002.74 125.39 1002.93 125.292L1006.74 123.343C1006.94 123.237 1006.94 122.941 1006.74 122.835L1002.93 120.885C1002.74 120.788 1002.51 120.926 1002.51 121.139V125.039Z" fill="white" stroke="#DAE4ED" stroke-width="1.71099"/>
<path d="M750.973 123.084H693.973" stroke="#DAE4ED" stroke-width="1.71099"/>
<path d="M693.973 121.092C692.87 121.092 691.976 121.986 691.976 123.089C691.976 124.191 692.87 125.085 693.973 125.085C695.075 125.085 695.969 124.191 695.969 123.089C695.969 121.986 695.075 121.092 693.973 121.092Z" fill="white" stroke="#DAE4ED" stroke-width="1.71099"/>
<path d="M748.406 125.039C748.406 125.252 748.632 125.39 748.821 125.292L752.63 123.343C752.837 123.237 752.837 122.941 752.63 122.835L748.821 120.885C748.632 120.788 748.406 120.926 748.406 121.139V125.039Z" fill="white" stroke="#DAE4ED" stroke-width="1.71099"/>
<path d="M613 123.084H556" stroke="#DAE4ED" stroke-width="1.71099"/>
<path d="M556 121.092C554.897 121.092 554.004 121.986 554.004 123.089C554.004 124.191 554.897 125.085 556 125.085C557.102 125.085 557.996 124.191 557.996 123.089C557.996 121.986 557.102 121.092 556 121.092Z" fill="white" stroke="#DAE4ED" stroke-width="1.71099"/>
<path d="M610.434 125.039C610.434 125.252 610.659 125.39 610.849 125.292L614.657 123.343C614.864 123.237 614.864 122.941 614.657 122.835L610.849 120.885C610.659 120.788 610.434 120.926 610.434 121.139V125.039Z" fill="white" stroke="#DAE4ED" stroke-width="1.71099"/>
<path d="M888.949 123.084H831.949" stroke="#DAE4ED" stroke-width="1.71099"/>
<path d="M831.949 121.092C830.847 121.092 829.953 121.986 829.953 123.088C829.953 124.191 830.847 125.084 831.949 125.084C833.052 125.084 833.945 124.191 833.945 123.088C833.945 121.986 833.052 121.092 831.949 121.092Z" fill="white" stroke="#DAE4ED" stroke-width="1.71099"/>
<path d="M886.383 125.038C886.383 125.252 886.608 125.389 886.798 125.292L890.606 123.343C890.813 123.237 890.813 122.941 890.606 122.835L886.798 120.885C886.608 120.788 886.383 120.926 886.383 121.139V125.038Z" fill="white" stroke="#DAE4ED" stroke-width="1.71099"/>
<path fill-rule="evenodd" clip-rule="evenodd" d="M1049.34 261.329V222.898L1083.84 203.785V242.148L1049.34 261.329Z" fill="#F2F7F9"/>
<path fill-rule="evenodd" clip-rule="evenodd" d="M1014.85 242.148V203.785L1049.35 222.898V261.329L1014.85 242.148Z" fill="#BFD4E4"/>
<path fill-rule="evenodd" clip-rule="evenodd" d="M1083.84 203.786L1049.34 222.898L1014.85 203.786L1049.34 184.606L1083.84 203.786Z" fill="#DDEAF3"/>
<path fill-rule="evenodd" clip-rule="evenodd" d="M658.992 261.329V222.898L693.486 203.785V242.148L658.992 261.329Z" fill="#F2F7F9"/>
<path fill-rule="evenodd" clip-rule="evenodd" d="M624.5 242.148V203.785L658.994 222.898V261.329L624.5 242.148Z" fill="#BFD4E4"/>
<path fill-rule="evenodd" clip-rule="evenodd" d="M693.485 203.786L658.992 222.898L624.5 203.786L658.992 184.606L693.485 203.786Z" fill="#DDEAF3"/>
<path fill-rule="evenodd" clip-rule="evenodd" d="M796.969 261.329V222.898L831.463 203.785V242.148L796.969 261.329Z" fill="#F2F7F9"/>
<path fill-rule="evenodd" clip-rule="evenodd" d="M762.477 242.148V203.785L796.97 222.898V261.329L762.477 242.148Z" fill="#BFD4E4"/>
<path fill-rule="evenodd" clip-rule="evenodd" d="M831.461 203.786L796.969 222.898L762.477 203.786L796.969 184.606L831.461 203.786Z" fill="#DDEAF3"/>
<path d="M1005.08 223.115H948.078" stroke="#DAE4ED" stroke-width="1.71099"/>
<path d="M948.078 221.123C946.976 221.123 946.082 222.017 946.082 223.12C946.082 224.222 946.976 225.116 948.078 225.116C949.18 225.116 950.074 224.222 950.074 223.12C950.074 222.017 949.18 221.123 948.078 221.123Z" fill="white" stroke="#DAE4ED" stroke-width="1.71099"/>
<path d="M1002.51 225.07C1002.51 225.283 1002.74 225.421 1002.93 225.324L1006.74 223.374C1006.94 223.268 1006.94 222.972 1006.74 222.866L1002.93 220.916C1002.74 220.819 1002.51 220.957 1002.51 221.17V225.07Z" fill="white" stroke="#DAE4ED" stroke-width="1.71099"/>
<path d="M750.973 223.115H693.973" stroke="#DAE4ED" stroke-width="1.71099"/>
<path d="M693.973 221.123C692.87 221.123 691.976 222.017 691.976 223.12C691.976 224.222 692.87 225.116 693.973 225.116C695.075 225.116 695.969 224.222 695.969 223.12C695.969 222.017 695.075 221.123 693.973 221.123Z" fill="white" stroke="#DAE4ED" stroke-width="1.71099"/>
<path d="M748.406 225.07C748.406 225.283 748.632 225.421 748.821 225.324L752.63 223.374C752.837 223.268 752.837 222.972 752.63 222.866L748.821 220.916C748.632 220.819 748.406 220.957 748.406 221.17V225.07Z" fill="white" stroke="#DAE4ED" stroke-width="1.71099"/>
<path d="M613 223.115H556" stroke="#DAE4ED" stroke-width="1.71099"/>
<path d="M556 221.123C554.897 221.123 554.004 222.017 554.004 223.12C554.004 224.222 554.897 225.116 556 225.116C557.102 225.116 557.996 224.222 557.996 223.12C557.996 222.017 557.102 221.123 556 221.123Z" fill="white" stroke="#DAE4ED" stroke-width="1.71099"/>
<path d="M610.434 225.07C610.434 225.283 610.659 225.421 610.849 225.324L614.657 223.374C614.864 223.268 614.864 222.972 614.657 222.866L610.849 220.916C610.659 220.819 610.434 220.957 610.434 221.17V225.07Z" fill="white" stroke="#DAE4ED" stroke-width="1.71099"/>
<path d="M888.949 223.115H831.949" stroke="#DAE4ED" stroke-width="1.71099"/>
<path d="M831.949 221.123C830.847 221.123 829.953 222.017 829.953 223.12C829.953 224.222 830.847 225.116 831.949 225.116C833.052 225.116 833.945 224.222 833.945 223.12C833.945 222.017 833.052 221.123 831.949 221.123Z" fill="white" stroke="#DAE4ED" stroke-width="1.71099"/>
<path d="M886.383 225.07C886.383 225.283 886.608 225.421 886.798 225.324L890.606 223.374C890.813 223.268 890.813 222.972 890.606 222.866L886.798 220.916C886.608 220.819 886.383 220.957 886.383 221.17V225.07Z" fill="white" stroke="#DAE4ED" stroke-width="1.71099"/>
<path fill-rule="evenodd" clip-rule="evenodd" d="M1049.34 361.36V322.929L1083.84 303.817V342.18L1049.34 361.36Z" fill="#F2F7F9"/>
<path fill-rule="evenodd" clip-rule="evenodd" d="M1014.85 342.18V303.817L1049.35 322.929V361.36L1014.85 342.18Z" fill="#BFD4E4"/>
<path fill-rule="evenodd" clip-rule="evenodd" d="M1083.84 303.817L1049.34 322.929L1014.85 303.817L1049.34 284.637L1083.84 303.817Z" fill="#DDEAF3"/>
<path fill-rule="evenodd" clip-rule="evenodd" d="M658.992 361.36V322.929L693.486 303.817V342.18L658.992 361.36Z" fill="#F2F7F9"/>
<path fill-rule="evenodd" clip-rule="evenodd" d="M624.5 342.18V303.817L658.994 322.929V361.36L624.5 342.18Z" fill="#BFD4E4"/>
<path fill-rule="evenodd" clip-rule="evenodd" d="M693.485 303.817L658.992 322.929L624.5 303.817L658.992 284.637L693.485 303.817Z" fill="#DDEAF3"/>
<path fill-rule="evenodd" clip-rule="evenodd" d="M796.969 361.36V322.929L831.463 303.817V342.18L796.969 361.36Z" fill="#F2F7F9"/>
<path fill-rule="evenodd" clip-rule="evenodd" d="M762.477 342.18V303.817L796.97 322.929V361.36L762.477 342.18Z" fill="#BFD4E4"/>
<path fill-rule="evenodd" clip-rule="evenodd" d="M831.461 303.817L796.969 322.929L762.477 303.817L796.969 284.637L831.461 303.817Z" fill="#DDEAF3"/>
<path d="M1005.08 323.147H948.078" stroke="#DAE4ED" stroke-width="1.71099"/>
<path d="M948.078 321.155C946.976 321.155 946.082 322.048 946.082 323.151C946.082 324.253 946.976 325.147 948.078 325.147C949.18 325.147 950.074 324.253 950.074 323.151C950.074 322.048 949.18 321.155 948.078 321.155Z" fill="white" stroke="#DAE4ED" stroke-width="1.71099"/>
<path d="M1002.51 325.101C1002.51 325.314 1002.74 325.452 1002.93 325.355L1006.74 323.405C1006.94 323.299 1006.94 323.003 1006.74 322.897L1002.93 320.948C1002.74 320.851 1002.51 320.988 1002.51 321.202V325.101Z" fill="white" stroke="#DAE4ED" stroke-width="1.71099"/>
<path d="M750.973 323.147H693.973" stroke="#DAE4ED" stroke-width="1.71099"/>
<path d="M693.973 321.155C692.87 321.155 691.976 322.048 691.976 323.151C691.976 324.253 692.87 325.147 693.973 325.147C695.075 325.147 695.969 324.253 695.969 323.151C695.969 322.048 695.075 321.155 693.973 321.155Z" fill="white" stroke="#DAE4ED" stroke-width="1.71099"/>
<path d="M748.406 325.101C748.406 325.314 748.632 325.452 748.821 325.355L752.63 323.405C752.837 323.299 752.837 323.003 752.63 322.897L748.821 320.948C748.632 320.851 748.406 320.988 748.406 321.202V325.101Z" fill="white" stroke="#DAE4ED" stroke-width="1.71099"/>
<path d="M613 323.147H556" stroke="#DAE4ED" stroke-width="1.71099"/>
<path d="M556 321.155C554.897 321.155 554.004 322.048 554.004 323.151C554.004 324.253 554.897 325.147 556 325.147C557.102 325.147 557.996 324.253 557.996 323.151C557.996 322.048 557.102 321.155 556 321.155Z" fill="white" stroke="#DAE4ED" stroke-width="1.71099"/>
<path d="M610.434 325.101C610.434 325.314 610.659 325.452 610.849 325.355L614.657 323.405C614.864 323.299 614.864 323.003 614.657 322.897L610.849 320.948C610.659 320.851 610.434 320.988 610.434 321.202V325.101Z" fill="white" stroke="#DAE4ED" stroke-width="1.71099"/>
<path d="M888.949 323.147H831.949" stroke="#DAE4ED" stroke-width="1.71099"/>
<path d="M831.949 321.155C830.847 321.155 829.953 322.049 829.953 323.151C829.953 324.253 830.847 325.147 831.949 325.147C833.052 325.147 833.945 324.253 833.945 323.151C833.945 322.049 833.052 321.155 831.949 321.155Z" fill="white" stroke="#DAE4ED" stroke-width="1.71099"/>
<path d="M886.383 325.101C886.383 325.314 886.608 325.452 886.798 325.355L890.606 323.405C890.813 323.299 890.813 323.004 890.606 322.898L886.798 320.948C886.608 320.851 886.383 320.989 886.383 321.202V325.101Z" fill="white" stroke="#DAE4ED" stroke-width="1.71099"/>
<path fill-rule="evenodd" clip-rule="evenodd" d="M1049.34 510.832V472.401L1083.84 453.289V491.651L1049.34 510.832Z" fill="#F2F7F9"/>
<path fill-rule="evenodd" clip-rule="evenodd" d="M1014.85 491.651V453.289L1049.35 472.401V510.832L1014.85 491.651Z" fill="#BFD4E4"/>
<path fill-rule="evenodd" clip-rule="evenodd" d="M1083.84 453.289L1049.34 472.401L1014.85 453.289L1049.34 434.109L1083.84 453.289Z" fill="#DDEAF3"/>
<path fill-rule="evenodd" clip-rule="evenodd" d="M658.992 510.832V472.401L693.486 453.289V491.651L658.992 510.832Z" fill="#F2F7F9"/>
<path fill-rule="evenodd" clip-rule="evenodd" d="M624.5 491.651V453.289L658.994 472.401V510.832L624.5 491.651Z" fill="#BFD4E4"/>
<path fill-rule="evenodd" clip-rule="evenodd" d="M693.485 453.289L658.992 472.401L624.5 453.289L658.992 434.109L693.485 453.289Z" fill="#DDEAF3"/>
<path fill-rule="evenodd" clip-rule="evenodd" d="M796.969 510.832V472.401L831.463 453.289V491.651L796.969 510.832Z" fill="#F2F7F9"/>
<path fill-rule="evenodd" clip-rule="evenodd" d="M762.477 491.651V453.289L796.97 472.401V510.832L762.477 491.651Z" fill="#BFD4E4"/>
<path fill-rule="evenodd" clip-rule="evenodd" d="M831.461 453.289L796.969 472.401L762.477 453.289L796.969 434.109L831.461 453.289Z" fill="#DDEAF3"/>
<path d="M1005.08 472.619H948.078" stroke="#DAE4ED" stroke-width="1.71099"/>
<path d="M948.078 470.627C946.976 470.627 946.082 471.521 946.082 472.623C946.082 473.726 946.976 474.619 948.078 474.619C949.18 474.619 950.074 473.726 950.074 472.623C950.074 471.521 949.18 470.627 948.078 470.627Z" fill="white" stroke="#DAE4ED" stroke-width="1.71099"/>
<path d="M1002.51 474.573C1002.51 474.787 1002.74 474.924 1002.93 474.827L1006.74 472.878C1006.94 472.772 1006.94 472.476 1006.74 472.37L1002.93 470.42C1002.74 470.323 1002.51 470.461 1002.51 470.674V474.573Z" fill="white" stroke="#DAE4ED" stroke-width="1.71099"/>
<path d="M750.973 472.619H693.973" stroke="#DAE4ED" stroke-width="1.71099"/>
<path d="M693.973 470.627C692.87 470.627 691.976 471.521 691.976 472.623C691.976 473.726 692.87 474.619 693.973 474.619C695.075 474.619 695.969 473.726 695.969 472.623C695.969 471.521 695.075 470.627 693.973 470.627Z" fill="white" stroke="#DAE4ED" stroke-width="1.71099"/>
<path d="M748.406 474.573C748.406 474.787 748.632 474.924 748.821 474.827L752.63 472.878C752.837 472.772 752.837 472.476 752.63 472.37L748.821 470.42C748.632 470.323 748.406 470.461 748.406 470.674V474.573Z" fill="white" stroke="#DAE4ED" stroke-width="1.71099"/>
<path d="M613 472.619H556" stroke="#DAE4ED" stroke-width="1.71099"/>
<path d="M556 470.627C554.897 470.627 554.004 471.521 554.004 472.623C554.004 473.726 554.897 474.619 556 474.619C557.102 474.619 557.996 473.726 557.996 472.623C557.996 471.521 557.102 470.627 556 470.627Z" fill="white" stroke="#DAE4ED" stroke-width="1.71099"/>
<path d="M610.434 474.573C610.434 474.787 610.659 474.924 610.849 474.827L614.657 472.878C614.864 472.772 614.864 472.476 614.657 472.37L610.849 470.42C610.659 470.323 610.434 470.461 610.434 470.674V474.573Z" fill="white" stroke="#DAE4ED" stroke-width="1.71099"/>
<path d="M888.949 472.619H831.949" stroke="#DAE4ED" stroke-width="1.71099"/>
<path d="M831.949 470.627C830.847 470.627 829.953 471.521 829.953 472.623C829.953 473.726 830.847 474.619 831.949 474.619C833.052 474.619 833.945 473.726 833.945 472.623C833.945 471.521 833.052 470.627 831.949 470.627Z" fill="white" stroke="#DAE4ED" stroke-width="1.71099"/>
<path d="M886.383 474.573C886.383 474.787 886.608 474.924 886.798 474.827L890.606 472.878C890.813 472.772 890.813 472.476 890.606 472.37L886.798 470.42C886.608 470.323 886.383 470.461 886.383 470.674V474.573Z" fill="white" stroke="#DAE4ED" stroke-width="1.71099"/>
<rect x="305.73" y="386.77" width="31.3132" height="26.6253" rx="5.25" fill="white"/>
<path d="M318.568 403.688C318.301 403.688 318.072 403.594 317.88 403.405C317.691 403.213 317.596 402.984 317.596 402.716C317.596 402.452 317.691 402.225 317.88 402.036C318.072 401.847 318.301 401.752 318.568 401.752C318.828 401.752 319.055 401.847 319.249 402.036C319.443 402.225 319.541 402.452 319.541 402.716C319.541 402.894 319.495 403.058 319.403 403.206C319.314 403.352 319.196 403.47 319.051 403.559C318.905 403.645 318.744 403.688 318.568 403.688ZM321.424 403.688C321.157 403.688 320.927 403.594 320.736 403.405C320.547 403.213 320.452 402.984 320.452 402.716C320.452 402.452 320.547 402.225 320.736 402.036C320.927 401.847 321.157 401.752 321.424 401.752C321.683 401.752 321.91 401.847 322.105 402.036C322.299 402.225 322.396 402.452 322.396 402.716C322.396 402.894 322.35 403.058 322.259 403.206C322.17 403.352 322.052 403.47 321.906 403.559C321.76 403.645 321.6 403.688 321.424 403.688ZM324.284 403.688C324.017 403.688 323.787 403.594 323.595 403.405C323.406 403.213 323.312 402.984 323.312 402.716C323.312 402.452 323.406 402.225 323.595 402.036C323.787 401.847 324.017 401.752 324.284 401.752C324.543 401.752 324.77 401.847 324.964 402.036C325.159 402.225 325.256 402.452 325.256 402.716C325.256 402.894 325.21 403.058 325.118 403.206C325.029 403.352 324.912 403.47 324.766 403.559C324.62 403.645 324.459 403.688 324.284 403.688Z" fill="#597393"/>
<rect x="305.73" y="386.77" width="31.3132" height="26.6253" rx="5.25" stroke="#DAE4ED" stroke-width="1.5"/>
<path fill-rule="evenodd" clip-rule="evenodd" d="M320.949 188.132V124.081L378.439 92.2263V156.164L320.949 188.132Z" fill="#F2F7F9"/>
<path fill-rule="evenodd" clip-rule="evenodd" d="M263.461 156.164V92.2263L320.95 124.081V188.132L263.461 156.164Z" fill="#BFD4E4"/>
<path fill-rule="evenodd" clip-rule="evenodd" d="M378.435 92.2275L320.948 124.081L263.461 92.2275L320.948 60.261L378.435 92.2275Z" fill="#DDEAF3"/>
<path fill-rule="evenodd" clip-rule="evenodd" d="M320.949 351.018V286.967L378.439 255.113V319.051L320.949 351.018Z" fill="#F2F7F9"/>
<path fill-rule="evenodd" clip-rule="evenodd" d="M263.461 319.051V255.113L320.95 286.967V351.018L263.461 319.051Z" fill="#BFD4E4"/>
<path fill-rule="evenodd" clip-rule="evenodd" d="M378.435 255.114L320.948 286.967L263.461 255.114L320.948 223.147L378.435 255.114Z" fill="#DDEAF3"/>
<path fill-rule="evenodd" clip-rule="evenodd" d="M320.949 587.492V523.441L378.439 491.586V555.524L320.949 587.492Z" fill="#F2F7F9"/>
<path fill-rule="evenodd" clip-rule="evenodd" d="M263.461 555.524V491.586L320.95 523.441V587.492L263.461 555.524Z" fill="#BFD4E4"/>
<path fill-rule="evenodd" clip-rule="evenodd" d="M378.435 491.587L320.948 523.441L263.461 491.587L320.948 459.621L378.435 491.587Z" fill="#DDEAF3"/>
<path d="M320.946 188.64V211.64" stroke="#DAE4ED" stroke-width="1.71099"/>
<path d="M322.899 209.074C323.112 209.074 323.25 209.299 323.153 209.489L321.203 213.297C321.097 213.504 320.802 213.504 320.696 213.297L318.746 209.489C318.649 209.299 318.787 209.074 319 209.074H322.899Z" fill="white" stroke="#DAE4ED" stroke-width="1.71099"/>
<path d="M318.953 188.64C318.953 187.538 319.847 186.644 320.949 186.644C322.052 186.644 322.945 187.538 322.945 188.64C322.945 189.743 322.052 190.636 320.949 190.636C319.847 190.636 318.953 189.743 318.953 188.64Z" fill="white" stroke="#DAE4ED" stroke-width="1.71099"/>
<path d="M320.946 351.527V374.527" stroke="#DAE4ED" stroke-width="1.71099"/>
<path d="M322.899 371.96C323.112 371.96 323.25 372.185 323.153 372.375L321.203 376.183C321.097 376.39 320.802 376.39 320.696 376.183L318.746 372.375C318.649 372.185 318.787 371.96 319 371.96H322.899Z" fill="white" stroke="#DAE4ED" stroke-width="1.71099"/>
<path d="M318.953 351.527C318.953 350.424 319.847 349.53 320.949 349.53C322.052 349.53 322.945 350.424 322.945 351.527C322.945 352.629 322.052 353.523 320.949 353.523C319.847 353.523 318.953 352.629 318.953 351.527Z" fill="white" stroke="#DAE4ED" stroke-width="1.71099"/>
<path d="M320.946 425.113V448.113" stroke="#DAE4ED" stroke-width="1.71099"/>
<path d="M322.899 445.546C323.112 445.546 323.25 445.772 323.153 445.962L321.203 449.77C321.097 449.977 320.802 449.977 320.696 449.77L318.746 445.962C318.649 445.772 318.787 445.546 319 445.546H322.899Z" fill="white" stroke="#DAE4ED" stroke-width="1.71099"/>
<path d="M318.953 425.113C318.953 424.01 319.847 423.117 320.949 423.117C322.052 423.117 322.945 424.01 322.945 425.113C322.945 426.215 322.052 427.109 320.949 427.109C319.847 427.109 318.953 426.215 318.953 425.113Z" fill="white" stroke="#DAE4ED" stroke-width="1.71099"/>
<rect x="230.031" width="183.647" height="27.3759" rx="6" fill="#32C5FF"/>
<path d="M242.722 17.5627V9.26702H245.995C246.624 9.26702 247.161 9.38719 247.603 9.62753C248.046 9.86517 248.384 10.196 248.616 10.6199C248.851 11.0412 248.968 11.5273 248.968 12.0782C248.968 12.6291 248.85 13.1151 248.612 13.5364C248.374 13.9577 248.03 14.2858 247.579 14.5207C247.131 14.7556 246.588 14.8731 245.951 14.8731H243.865V13.4675H245.667C246.005 13.4675 246.283 13.4095 246.502 13.2934C246.723 13.1745 246.888 13.0112 246.996 12.8032C247.106 12.5926 247.162 12.3509 247.162 12.0782C247.162 11.8027 247.106 11.5624 246.996 11.3572C246.888 11.1492 246.723 10.9885 246.502 10.8751C246.28 10.759 245.999 10.7009 245.659 10.7009H244.476V17.5627H242.722ZM250.922 17.5627H249.042L251.906 9.26702H254.166L257.026 17.5627H255.147L253.069 11.1627H253.004L250.922 17.5627ZM250.804 14.302H255.244V15.6711H250.804V14.302ZM262.678 11.6529C262.645 11.3261 262.506 11.0723 262.26 10.8913C262.015 10.7104 261.681 10.6199 261.26 10.6199C260.974 10.6199 260.732 10.6604 260.535 10.7415C260.338 10.8198 260.187 10.9291 260.081 11.0696C259.979 11.21 259.927 11.3693 259.927 11.5475C259.922 11.6961 259.953 11.8257 260.02 11.9364C260.091 12.0471 260.187 12.143 260.308 12.224C260.43 12.3023 260.57 12.3712 260.729 12.4306C260.889 12.4873 261.059 12.5359 261.24 12.5764L261.985 12.7546C262.347 12.8356 262.679 12.9437 262.981 13.0787C263.284 13.2137 263.546 13.3798 263.767 13.5769C263.989 13.774 264.16 14.0063 264.282 14.2736C264.406 14.541 264.469 14.8475 264.472 15.1931C264.469 15.7008 264.34 16.141 264.083 16.5136C263.829 16.8836 263.462 17.1712 262.981 17.3764C262.504 17.5789 261.927 17.6802 261.252 17.6802C260.582 17.6802 259.999 17.5776 259.502 17.3724C259.008 17.1671 258.622 16.8633 258.344 16.461C258.068 16.0559 257.924 15.555 257.91 14.9582H259.607C259.626 15.2363 259.706 15.4686 259.846 15.6549C259.989 15.8385 260.18 15.9776 260.417 16.0721C260.658 16.1639 260.929 16.2098 261.232 16.2098C261.529 16.2098 261.787 16.1666 262.005 16.0802C262.227 15.9938 262.398 15.8736 262.52 15.7197C262.641 15.5658 262.702 15.3889 262.702 15.1891C262.702 15.0027 262.647 14.8461 262.536 14.7192C262.428 14.5923 262.269 14.4843 262.058 14.3951C261.85 14.306 261.595 14.225 261.292 14.1521L260.389 13.9253C259.69 13.7551 259.137 13.4891 258.732 13.1273C258.327 12.7654 258.126 12.278 258.129 11.665C258.126 11.1627 258.26 10.7239 258.53 10.3485C258.803 9.97318 259.177 9.68019 259.652 9.46955C260.127 9.25892 260.667 9.1536 261.272 9.1536C261.888 9.1536 262.425 9.25892 262.884 9.46955C263.346 9.68019 263.705 9.97318 263.962 10.3485C264.218 10.7239 264.351 11.1587 264.359 11.6529H262.678ZM273.314 12.1713H271.539C271.507 11.9418 271.441 11.7379 271.341 11.5597C271.241 11.3788 271.113 11.2248 270.956 11.0979C270.799 10.971 270.619 10.8738 270.413 10.8063C270.211 10.7388 269.991 10.705 269.753 10.705C269.324 10.705 268.95 10.8117 268.631 11.025C268.312 11.2356 268.065 11.5435 267.89 11.9485C267.714 12.3509 267.626 12.8397 267.626 13.4149C267.626 14.0063 267.714 14.5032 267.89 14.9055C268.068 15.3079 268.316 15.6117 268.635 15.8169C268.954 16.0221 269.322 16.1248 269.741 16.1248C269.976 16.1248 270.193 16.0937 270.393 16.0316C270.596 15.9695 270.775 15.879 270.932 15.7602C271.088 15.6387 271.218 15.4915 271.321 15.3187C271.426 15.1459 271.499 14.9487 271.539 14.7273L273.314 14.7354C273.268 15.1162 273.153 15.4834 272.969 15.8372C272.788 16.1882 272.544 16.5028 272.236 16.781C271.931 17.0564 271.566 17.2751 271.142 17.4372C270.721 17.5965 270.245 17.6762 269.713 17.6762C268.973 17.6762 268.311 17.5087 267.728 17.1739C267.147 16.839 266.688 16.3543 266.351 15.7197C266.016 15.0851 265.848 14.3168 265.848 13.4149C265.848 12.5102 266.018 11.7406 266.359 11.106C266.699 10.4714 267.161 9.98803 267.744 9.65588C268.327 9.32103 268.983 9.1536 269.713 9.1536C270.193 9.1536 270.639 9.22111 271.049 9.35613C271.462 9.49116 271.828 9.68829 272.147 9.94753C272.466 10.2041 272.725 10.5187 272.925 10.8913C273.127 11.264 273.257 11.6907 273.314 12.1713ZM276.187 17.5627H274.308L277.172 9.26702H279.432L282.292 17.5627H280.412L278.334 11.1627H278.269L276.187 17.5627ZM276.07 14.302H280.509V15.6711H276.07V14.302ZM283.632 17.5627V9.26702H285.386V16.1167H288.943V17.5627H283.632ZM297.443 12.1713H295.669C295.636 11.9418 295.57 11.7379 295.47 11.5597C295.37 11.3788 295.242 11.2248 295.086 11.0979C294.929 10.971 294.748 10.8738 294.543 10.8063C294.34 10.7388 294.12 10.705 293.883 10.705C293.453 10.705 293.079 10.8117 292.761 11.025C292.442 11.2356 292.195 11.5435 292.019 11.9485C291.844 12.3509 291.756 12.8397 291.756 13.4149C291.756 14.0063 291.844 14.5032 292.019 14.9055C292.197 15.3079 292.446 15.6117 292.765 15.8169C293.083 16.0221 293.452 16.1248 293.87 16.1248C294.105 16.1248 294.323 16.0937 294.523 16.0316C294.725 15.9695 294.905 15.879 295.061 15.7602C295.218 15.6387 295.348 15.4915 295.45 15.3187C295.555 15.1459 295.628 14.9487 295.669 14.7273L297.443 14.7354C297.397 15.1162 297.282 15.4834 297.099 15.8372C296.918 16.1882 296.673 16.5028 296.366 16.781C296.06 17.0564 295.696 17.2751 295.272 17.4372C294.851 17.5965 294.374 17.6762 293.842 17.6762C293.102 17.6762 292.441 17.5087 291.857 17.1739C291.277 16.839 290.818 16.3543 290.48 15.7197C290.145 15.0851 289.978 14.3168 289.978 13.4149C289.978 12.5102 290.148 11.7406 290.488 11.106C290.828 10.4714 291.29 9.98803 291.873 9.65588C292.457 9.32103 293.113 9.1536 293.842 9.1536C294.323 9.1536 294.768 9.22111 295.179 9.35613C295.592 9.49116 295.958 9.68829 296.276 9.94753C296.595 10.2041 296.854 10.5187 297.054 10.8913C297.257 11.264 297.386 11.6907 297.443 12.1713ZM306.666 13.4149C306.666 14.3195 306.495 15.0891 306.152 15.7238C305.812 16.3584 305.347 16.8431 304.758 17.1779C304.172 17.5101 303.514 17.6762 302.782 17.6762C302.045 17.6762 301.383 17.5087 300.797 17.1739C300.211 16.839 299.748 16.3543 299.408 15.7197C299.067 15.0851 298.897 14.3168 298.897 13.4149C298.897 12.5102 299.067 11.7406 299.408 11.106C299.748 10.4714 300.211 9.98803 300.797 9.65588C301.383 9.32103 302.045 9.1536 302.782 9.1536C303.514 9.1536 304.172 9.32103 304.758 9.65588C305.347 9.98803 305.812 10.4714 306.152 11.106C306.495 11.7406 306.666 12.5102 306.666 13.4149ZM304.888 13.4149C304.888 12.8289 304.8 12.3347 304.625 11.9323C304.452 11.53 304.208 11.2248 303.892 11.0169C303.576 10.809 303.206 10.705 302.782 10.705C302.358 10.705 301.988 10.809 301.672 11.0169C301.356 11.2248 301.11 11.53 300.935 11.9323C300.762 12.3347 300.675 12.8289 300.675 13.4149C300.675 14.0009 300.762 14.4951 300.935 14.8974C301.11 15.2998 301.356 15.6049 301.672 15.8129C301.988 16.0208 302.358 16.1248 302.782 16.1248C303.206 16.1248 303.576 16.0208 303.892 15.8129C304.208 15.6049 304.452 15.2998 304.625 14.8974C304.8 14.4951 304.888 14.0009 304.888 13.4149ZM310.062 9.26702V17.5627H308.308V9.26702H310.062ZM318.786 9.26702V17.5627H317.271L313.662 12.3415H313.601V17.5627H311.847V9.26702H313.386L316.967 14.4843H317.04V9.26702H318.786ZM323.559 17.5627V9.26702H326.881C327.491 9.26702 328 9.35748 328.408 9.53841C328.816 9.71934 329.122 9.97048 329.327 10.2918C329.533 10.6105 329.635 10.9777 329.635 11.3936C329.635 11.7177 329.57 12.0026 329.441 12.2483C329.311 12.4913 329.133 12.6912 328.906 12.8478C328.682 13.0017 328.425 13.1111 328.136 13.1759V13.2569C328.452 13.2704 328.748 13.3595 329.024 13.5242C329.302 13.689 329.527 13.9199 329.7 14.2169C329.873 14.5113 329.959 14.8623 329.959 15.2701C329.959 15.7102 329.85 16.1032 329.631 16.4488C329.415 16.7918 329.095 17.0632 328.671 17.263C328.247 17.4628 327.725 17.5627 327.104 17.5627H323.559ZM325.313 16.1288H326.743C327.232 16.1288 327.588 16.0357 327.812 15.8493C328.037 15.6603 328.149 15.4092 328.149 15.0959C328.149 14.8664 328.093 14.6638 327.983 14.4883C327.872 14.3128 327.714 14.1751 327.509 14.0751C327.306 13.9752 327.064 13.9253 326.784 13.9253H325.313V16.1288ZM325.313 12.7384H326.613C326.854 12.7384 327.067 12.6966 327.253 12.6129C327.442 12.5264 327.591 12.4049 327.699 12.2483C327.81 12.0917 327.865 11.904 327.865 11.6853C327.865 11.3855 327.758 11.1438 327.545 10.9602C327.334 10.7766 327.035 10.6847 326.646 10.6847H325.313V12.7384ZM331.443 17.5627V9.26702H333.197V16.1167H336.753V17.5627H331.443ZM345.557 13.4149C345.557 14.3195 345.386 15.0891 345.043 15.7238C344.702 16.3584 344.238 16.8431 343.649 17.1779C343.063 17.5101 342.404 17.6762 341.673 17.6762C340.935 17.6762 340.274 17.5087 339.688 17.1739C339.102 16.839 338.639 16.3543 338.298 15.7197C337.958 15.0851 337.788 14.3168 337.788 13.4149C337.788 12.5102 337.958 11.7406 338.298 11.106C338.639 10.4714 339.102 9.98803 339.688 9.65588C340.274 9.32103 340.935 9.1536 341.673 9.1536C342.404 9.1536 343.063 9.32103 343.649 9.65588C344.238 9.98803 344.702 10.4714 345.043 11.106C345.386 11.7406 345.557 12.5102 345.557 13.4149ZM343.779 13.4149C343.779 12.8289 343.691 12.3347 343.516 11.9323C343.343 11.53 343.098 11.2248 342.782 11.0169C342.466 10.809 342.096 10.705 341.673 10.705C341.249 10.705 340.879 10.809 340.563 11.0169C340.247 11.2248 340.001 11.53 339.825 11.9323C339.653 12.3347 339.566 12.8289 339.566 13.4149C339.566 14.0009 339.653 14.4951 339.825 14.8974C340.001 15.2998 340.247 15.6049 340.563 15.8129C340.879 16.0208 341.249 16.1248 341.673 16.1248C342.096 16.1248 342.466 16.0208 342.782 15.8129C343.098 15.6049 343.343 15.2998 343.516 14.8974C343.691 14.4951 343.779 14.0009 343.779 13.4149ZM354.518 12.1713H352.744C352.711 11.9418 352.645 11.7379 352.545 11.5597C352.445 11.3788 352.317 11.2248 352.161 11.0979C352.004 10.971 351.823 10.8738 351.618 10.8063C351.415 10.7388 351.195 10.705 350.958 10.705C350.528 10.705 350.154 10.8117 349.835 11.025C349.517 11.2356 349.27 11.5435 349.094 11.9485C348.919 12.3509 348.831 12.8397 348.831 13.4149C348.831 14.0063 348.919 14.5032 349.094 14.9055C349.272 15.3079 349.521 15.6117 349.84 15.8169C350.158 16.0221 350.527 16.1248 350.945 16.1248C351.18 16.1248 351.398 16.0937 351.598 16.0316C351.8 15.9695 351.98 15.879 352.136 15.7602C352.293 15.6387 352.423 15.4915 352.525 15.3187C352.63 15.1459 352.703 14.9487 352.744 14.7273L354.518 14.7354C354.472 15.1162 354.357 15.4834 354.174 15.8372C353.993 16.1882 353.748 16.5028 353.441 16.781C353.135 17.0564 352.771 17.2751 352.347 17.4372C351.926 17.5965 351.449 17.6762 350.917 17.6762C350.177 17.6762 349.515 17.5087 348.932 17.1739C348.352 16.839 347.893 16.3543 347.555 15.7197C347.22 15.0851 347.053 14.3168 347.053 13.4149C347.053 12.5102 347.223 11.7406 347.563 11.106C347.903 10.4714 348.365 9.98803 348.948 9.65588C349.532 9.32103 350.188 9.1536 350.917 9.1536C351.398 9.1536 351.843 9.22111 352.254 9.35613C352.667 9.49116 353.033 9.68829 353.351 9.94753C353.67 10.2041 353.929 10.5187 354.129 10.8913C354.332 11.264 354.461 11.6907 354.518 12.1713ZM356.118 17.5627V9.26702H357.872V12.9248H357.981L360.967 9.26702H363.069L359.99 12.9815L363.105 17.5627H361.007L358.735 14.1521L357.872 15.2053V17.5627H356.118ZM371.176 12.1713H369.402C369.37 11.9418 369.303 11.7379 369.204 11.5597C369.104 11.3788 368.975 11.2248 368.819 11.0979C368.662 10.971 368.481 10.8738 368.276 10.8063C368.073 10.7388 367.853 10.705 367.616 10.705C367.186 10.705 366.812 10.8117 366.494 11.025C366.175 11.2356 365.928 11.5435 365.752 11.9485C365.577 12.3509 365.489 12.8397 365.489 13.4149C365.489 14.0063 365.577 14.5032 365.752 14.9055C365.931 15.3079 366.179 15.6117 366.498 15.8169C366.816 16.0221 367.185 16.1248 367.603 16.1248C367.838 16.1248 368.056 16.0937 368.256 16.0316C368.458 15.9695 368.638 15.879 368.794 15.7602C368.951 15.6387 369.081 15.4915 369.183 15.3187C369.289 15.1459 369.361 14.9487 369.402 14.7273L371.176 14.7354C371.13 15.1162 371.015 15.4834 370.832 15.8372C370.651 16.1882 370.407 16.5028 370.099 16.781C369.794 17.0564 369.429 17.2751 369.005 17.4372C368.584 17.5965 368.107 17.6762 367.575 17.6762C366.835 17.6762 366.174 17.5087 365.59 17.1739C365.01 16.839 364.551 16.3543 364.213 15.7197C363.878 15.0851 363.711 14.3168 363.711 13.4149C363.711 12.5102 363.881 11.7406 364.221 11.106C364.561 10.4714 365.023 9.98803 365.607 9.65588C366.19 9.32103 366.846 9.1536 367.575 9.1536C368.056 9.1536 368.501 9.22111 368.912 9.35613C369.325 9.49116 369.691 9.68829 370.01 9.94753C370.328 10.2041 370.587 10.5187 370.787 10.8913C370.99 11.264 371.119 11.6907 371.176 12.1713ZM372.776 17.5627V9.26702H374.53V12.6898H378.091V9.26702H379.84V17.5627H378.091V14.1359H374.53V17.5627H372.776ZM383.059 17.5627H381.179L384.043 9.26702H386.303L389.163 17.5627H387.283L385.205 11.1627H385.141L383.059 17.5627ZM382.941 14.302H387.381V15.6711H382.941V14.302ZM392.258 9.26702V17.5627H390.504V9.26702H392.258ZM400.982 9.26702V17.5627H399.467L395.857 12.3415H395.797V17.5627H394.043V9.26702H395.582L399.163 14.4843H399.236V9.26702H400.982Z" fill="white"/>
<rect x="230.781" y="0.75" width="182.147" height="25.8759" rx="5.25" stroke="#0998FF" stroke-opacity="0.7" stroke-width="1.5"/>
<rect x="754.965" y="33.9753" width="139.161" height="27.3759" rx="6" fill="#32C5FF"/>
<path d="M767.299 51.5381V43.2424H772.889V44.6884H769.053V46.6652H772.601V48.1112H769.053V50.092H772.905V51.5381H767.299ZM774.625 43.2424H776.788L779.073 48.8161H779.17L781.455 43.2424H783.618V51.5381H781.916V46.1386H781.847L779.701 51.4976H778.542L776.395 46.1183H776.326V51.5381H774.625V43.2424ZM785.405 51.5381V43.2424H788.726C789.337 43.2424 789.846 43.3328 790.253 43.5138C790.661 43.6947 790.968 43.9458 791.173 44.2672C791.378 44.5858 791.481 44.9531 791.481 45.369C791.481 45.693 791.416 45.9779 791.286 46.2236C791.157 46.4667 790.979 46.6665 790.752 46.8231C790.528 46.9771 790.271 47.0864 789.982 47.1512V47.2322C790.298 47.2458 790.594 47.3349 790.869 47.4996C791.147 47.6643 791.373 47.8952 791.546 48.1923C791.718 48.4866 791.805 48.8377 791.805 49.2454C791.805 49.6856 791.696 50.0785 791.477 50.4242C791.261 50.7671 790.941 51.0385 790.517 51.2383C790.093 51.4382 789.57 51.5381 788.949 51.5381H785.405ZM787.159 50.1042H788.589C789.077 50.1042 789.434 50.011 789.658 49.8247C789.882 49.6356 789.994 49.3845 789.994 49.0712C789.994 48.8417 789.939 48.6392 789.828 48.4636C789.717 48.2881 789.559 48.1504 789.354 48.0505C789.152 47.9506 788.91 47.9006 788.629 47.9006H787.159V50.1042ZM787.159 46.7138H788.459C788.699 46.7138 788.913 46.6719 789.099 46.5882C789.288 46.5018 789.437 46.3803 789.545 46.2236C789.655 46.067 789.711 45.8793 789.711 45.6606C789.711 45.3608 789.604 45.1192 789.391 44.9355C789.18 44.7519 788.88 44.6601 788.491 44.6601H787.159V46.7138ZM793.288 51.5381V43.2424H798.878V44.6884H795.042V46.6652H798.591V48.1112H795.042V50.092H798.894V51.5381H793.288ZM803.556 51.5381H800.615V43.2424H803.58C804.414 43.2424 805.133 43.4084 805.735 43.7406C806.337 44.07 806.8 44.544 807.124 45.1624C807.451 45.7808 807.614 46.5207 807.614 47.3821C807.614 48.2463 807.451 48.9889 807.124 49.61C806.8 50.2311 806.334 50.7077 805.727 51.0399C805.122 51.372 804.398 51.5381 803.556 51.5381ZM802.369 50.0353H803.483C804.001 50.0353 804.437 49.9435 804.791 49.7599C805.148 49.5735 805.415 49.2859 805.593 48.8971C805.774 48.5055 805.865 48.0005 805.865 47.3821C805.865 46.7691 805.774 46.2682 805.593 45.8793C805.415 45.4905 805.149 45.2042 804.795 45.0206C804.441 44.837 804.005 44.7452 803.487 44.7452H802.369V50.0353ZM812.197 51.5381H809.256V43.2424H812.221C813.055 43.2424 813.774 43.4084 814.376 43.7406C814.978 44.07 815.441 44.544 815.765 45.1624C816.092 45.7808 816.255 46.5207 816.255 47.3821C816.255 48.2463 816.092 48.9889 815.765 49.61C815.441 50.2311 814.975 50.7077 814.368 51.0399C813.763 51.372 813.039 51.5381 812.197 51.5381ZM811.01 50.0353H812.124C812.642 50.0353 813.078 49.9435 813.432 49.7599C813.789 49.5735 814.056 49.2859 814.234 48.8971C814.415 48.5055 814.505 48.0005 814.505 47.3821C814.505 46.7691 814.415 46.2682 814.234 45.8793C814.056 45.4905 813.79 45.2042 813.436 45.0206C813.082 44.837 812.646 44.7452 812.128 44.7452H811.01V50.0353ZM817.897 51.5381V43.2424H823.487V44.6884H819.651V46.6652H823.199V48.1112H819.651V50.092H823.503V51.5381H817.897ZM828.164 51.5381H825.223V43.2424H828.188C829.023 43.2424 829.741 43.4084 830.343 43.7406C830.946 44.07 831.409 44.544 831.733 45.1624C832.059 45.7808 832.223 46.5207 832.223 47.3821C832.223 48.2463 832.059 48.9889 831.733 49.61C831.409 50.2311 830.943 50.7077 830.335 51.0399C829.73 51.372 829.007 51.5381 828.164 51.5381ZM826.977 50.0353H828.091C828.61 50.0353 829.046 49.9435 829.4 49.7599C829.756 49.5735 830.023 49.2859 830.202 48.8971C830.383 48.5055 830.473 48.0005 830.473 47.3821C830.473 46.7691 830.383 46.2682 830.202 45.8793C830.023 45.4905 829.757 45.2042 829.404 45.0206C829.05 44.837 828.614 44.7452 828.095 44.7452H826.977V50.0353ZM844.166 46.1467H842.392C842.359 45.9171 842.293 45.7133 842.193 45.535C842.093 45.3541 841.965 45.2002 841.809 45.0733C841.652 44.9463 841.471 44.8491 841.266 44.7816C841.063 44.7141 840.843 44.6803 840.606 44.6803C840.176 44.6803 839.802 44.787 839.483 45.0003C839.165 45.211 838.918 45.5188 838.742 45.9239C838.567 46.3263 838.479 46.815 838.479 47.3902C838.479 47.9816 838.567 48.4785 838.742 48.8809C838.92 49.2832 839.169 49.587 839.488 49.7923C839.806 49.9975 840.175 50.1001 840.593 50.1001C840.828 50.1001 841.046 50.0691 841.246 50.0069C841.448 49.9448 841.628 49.8544 841.784 49.7355C841.941 49.614 842.07 49.4669 842.173 49.294C842.278 49.1212 842.351 48.9241 842.392 48.7026L844.166 48.7107C844.12 49.0915 844.005 49.4588 843.822 49.8125C843.641 50.1636 843.396 50.4782 843.089 50.7563C842.783 51.0318 842.419 51.2505 841.995 51.4125C841.574 51.5718 841.097 51.6515 840.565 51.6515C839.825 51.6515 839.163 51.4841 838.58 51.1492C838 50.8144 837.541 50.3296 837.203 49.695C836.868 49.0604 836.701 48.2922 836.701 47.3902C836.701 46.4856 836.871 45.716 837.211 45.0814C837.551 44.4468 838.013 43.9634 838.596 43.6312C839.18 43.2964 839.836 43.1289 840.565 43.1289C841.046 43.1289 841.491 43.1965 841.902 43.3315C842.315 43.4665 842.681 43.6636 842.999 43.9229C843.318 44.1794 843.577 44.494 843.777 44.8667C843.98 45.2393 844.109 45.666 844.166 46.1467ZM845.766 51.5381V43.2424H847.52V46.6652H851.08V43.2424H852.83V51.5381H851.08V48.1112H847.52V51.5381H845.766ZM856.048 51.5381H854.169L857.033 43.2424H859.293L862.153 51.5381H860.273L858.195 45.1381H858.13L856.048 51.5381ZM855.931 48.2773H860.37V49.6464H855.931V48.2773ZM865.247 43.2424V51.5381H863.493V43.2424H865.247ZM873.971 43.2424V51.5381H872.456L868.847 46.3168H868.787V51.5381H867.033V43.2424H868.572L872.153 48.4596H872.226V43.2424H873.971ZM880.263 45.6282C880.231 45.3014 880.091 45.0476 879.846 44.8667C879.6 44.6857 879.266 44.5953 878.845 44.5953C878.559 44.5953 878.317 44.6358 878.12 44.7168C877.923 44.7951 877.772 44.9045 877.666 45.0449C877.564 45.1853 877.513 45.3446 877.513 45.5229C877.507 45.6714 877.538 45.801 877.606 45.9117C877.676 46.0225 877.772 46.1183 877.893 46.1993C878.015 46.2776 878.155 46.3465 878.315 46.4059C878.474 46.4626 878.644 46.5112 878.825 46.5517L879.57 46.73C879.932 46.811 880.264 46.919 880.567 47.054C880.869 47.189 881.131 47.3551 881.353 47.5522C881.574 47.7494 881.745 47.9816 881.867 48.249C881.991 48.5163 882.055 48.8228 882.057 49.1685C882.055 49.6761 881.925 50.1163 881.669 50.489C881.415 50.8589 881.047 51.1465 880.567 51.3518C880.089 51.5543 879.512 51.6556 878.837 51.6556C878.167 51.6556 877.584 51.5529 877.087 51.3477C876.593 51.1425 876.207 50.8387 875.929 50.4363C875.653 50.0312 875.509 49.5303 875.495 48.9335H877.193C877.211 49.2117 877.291 49.4439 877.432 49.6302C877.575 49.8139 877.765 49.9529 878.003 50.0474C878.243 50.1393 878.514 50.1852 878.817 50.1852C879.114 50.1852 879.372 50.142 879.591 50.0555C879.812 49.9691 879.983 49.849 880.105 49.695C880.226 49.5411 880.287 49.3642 880.287 49.1644C880.287 48.9781 880.232 48.8215 880.121 48.6945C880.013 48.5676 879.854 48.4596 879.643 48.3705C879.435 48.2814 879.18 48.2004 878.878 48.1274L877.974 47.9006C877.275 47.7305 876.723 47.4645 876.318 47.1026C875.913 46.7408 875.711 46.2533 875.714 45.6403C875.711 45.1381 875.845 44.6992 876.115 44.3239C876.388 43.9485 876.762 43.6555 877.237 43.4449C877.712 43.2343 878.252 43.1289 878.857 43.1289C879.473 43.1289 880.01 43.2343 880.47 43.4449C880.931 43.6555 881.29 43.9485 881.547 44.3239C881.804 44.6992 881.936 45.134 881.944 45.6282H880.263Z" fill="white"/>
<rect x="755.715" y="34.7253" width="137.661" height="25.8759" rx="5.25" stroke="#0998FF" stroke-opacity="0.7" stroke-width="1.5"/>
<rect x="463.328" y="33.9753" width="93.1328" height="27.5949" rx="6" fill="#32C5FF"/>
<path d="M487.238 45.6282C487.206 45.3014 487.067 45.0476 486.821 44.8667C486.575 44.6857 486.242 44.5953 485.82 44.5953C485.534 44.5953 485.292 44.6358 485.095 44.7168C484.898 44.7951 484.747 44.9045 484.642 45.0449C484.539 45.1853 484.488 45.3446 484.488 45.5229C484.482 45.6714 484.513 45.801 484.581 45.9117C484.651 46.0225 484.747 46.1183 484.868 46.1993C484.99 46.2776 485.13 46.3465 485.29 46.4059C485.449 46.4626 485.619 46.5112 485.8 46.5517L486.545 46.73C486.907 46.811 487.239 46.919 487.542 47.054C487.844 47.189 488.106 47.3551 488.328 47.5522C488.549 47.7494 488.721 47.9816 488.842 48.249C488.966 48.5163 489.03 48.8228 489.032 49.1685C489.03 49.6761 488.9 50.1163 488.644 50.489C488.39 50.8589 488.022 51.1465 487.542 51.3518C487.064 51.5543 486.487 51.6556 485.812 51.6556C485.142 51.6556 484.559 51.5529 484.062 51.3477C483.568 51.1425 483.182 50.8387 482.904 50.4363C482.628 50.0312 482.484 49.5303 482.47 48.9335H484.168C484.187 49.2117 484.266 49.4439 484.407 49.6302C484.55 49.8139 484.74 49.9529 484.978 50.0474C485.218 50.1393 485.489 50.1852 485.792 50.1852C486.089 50.1852 486.347 50.142 486.566 50.0555C486.787 49.9691 486.958 49.849 487.08 49.695C487.202 49.5411 487.262 49.3642 487.262 49.1644C487.262 48.9781 487.207 48.8215 487.096 48.6945C486.988 48.5676 486.829 48.4596 486.618 48.3705C486.41 48.2814 486.155 48.2004 485.853 48.1274L484.949 47.9006C484.25 47.7305 483.698 47.4645 483.293 47.1026C482.888 46.7408 482.686 46.2533 482.689 45.6403C482.686 45.1381 482.82 44.6992 483.09 44.3239C483.363 43.9485 483.737 43.6555 484.212 43.4449C484.687 43.2343 485.228 43.1289 485.832 43.1289C486.448 43.1289 486.985 43.2343 487.445 43.4449C487.906 43.6555 488.266 43.9485 488.522 44.3239C488.779 44.6992 488.911 45.134 488.919 45.6282H487.238ZM491.795 51.5381H489.915L492.779 43.2424H495.039L497.899 51.5381H496.02L493.942 45.1381H493.877L491.795 51.5381ZM491.677 48.2773H496.117V49.6464H491.677V48.2773ZM499.24 51.5381V43.2424H504.733V44.6884H500.994V46.6652H504.368V48.1112H500.994V51.5381H499.24ZM506.255 51.5381V43.2424H511.844V44.6884H508.008V46.6652H511.557V48.1112H508.008V50.092H511.861V51.5381H506.255ZM513.581 51.5381V43.2424H516.903C517.513 43.2424 518.022 43.3328 518.43 43.5138C518.837 43.6947 519.144 43.9458 519.349 44.2672C519.554 44.5858 519.657 44.9531 519.657 45.369C519.657 45.693 519.592 45.9779 519.463 46.2236C519.333 46.4667 519.155 46.6665 518.928 46.8231C518.704 46.9771 518.447 47.0864 518.158 47.1512V47.2322C518.474 47.2458 518.77 47.3349 519.045 47.4996C519.324 47.6643 519.549 47.8952 519.722 48.1923C519.895 48.4866 519.981 48.8377 519.981 49.2454C519.981 49.6856 519.872 50.0785 519.653 50.4242C519.437 50.7671 519.117 51.0385 518.693 51.2383C518.269 51.4382 517.746 51.5381 517.125 51.5381H513.581ZM515.335 50.1042H516.765C517.254 50.1042 517.61 50.011 517.834 49.8247C518.058 49.6356 518.17 49.3845 518.17 49.0712C518.17 48.8417 518.115 48.6392 518.004 48.4636C517.894 48.2881 517.736 48.1504 517.53 48.0505C517.328 47.9506 517.086 47.9006 516.805 47.9006H515.335V50.1042ZM515.335 46.7138H516.635C516.876 46.7138 517.089 46.6719 517.275 46.5882C517.464 46.5018 517.613 46.3803 517.721 46.2236C517.832 46.067 517.887 45.8793 517.887 45.6606C517.887 45.3608 517.78 45.1192 517.567 44.9355C517.356 44.7519 517.056 44.6601 516.668 44.6601H515.335V46.7138ZM529.088 47.3902C529.088 48.2949 528.916 49.0645 528.573 49.6991C528.233 50.3337 527.769 50.8184 527.18 51.1533C526.594 51.4854 525.935 51.6515 525.203 51.6515C524.466 51.6515 523.804 51.4841 523.218 51.1492C522.632 50.8144 522.169 50.3296 521.829 49.695C521.489 49.0604 521.319 48.2922 521.319 47.3902C521.319 46.4856 521.489 45.716 521.829 45.0814C522.169 44.4468 522.632 43.9634 523.218 43.6312C523.804 43.2964 524.466 43.1289 525.203 43.1289C525.935 43.1289 526.594 43.2964 527.18 43.6312C527.769 43.9634 528.233 44.4468 528.573 45.0814C528.916 45.716 529.088 46.4856 529.088 47.3902ZM527.31 47.3902C527.31 46.8042 527.222 46.3101 527.046 45.9077C526.873 45.5053 526.629 45.2002 526.313 44.9922C525.997 44.7843 525.627 44.6803 525.203 44.6803C524.779 44.6803 524.409 44.7843 524.093 44.9922C523.777 45.2002 523.532 45.5053 523.356 45.9077C523.183 46.3101 523.097 46.8042 523.097 47.3902C523.097 47.9762 523.183 48.4704 523.356 48.8728C523.532 49.2751 523.777 49.5803 524.093 49.7882C524.409 49.9961 524.779 50.1001 525.203 50.1001C525.627 50.1001 525.997 49.9961 526.313 49.7882C526.629 49.5803 526.873 49.2751 527.046 48.8728C527.222 48.4704 527.31 47.9762 527.31 47.3902ZM531.984 43.2424L533.657 46.0697H533.722L535.403 43.2424H537.383L534.852 47.3902L537.44 51.5381H535.423L533.722 48.7067H533.657L531.956 51.5381H529.947L532.543 47.3902L529.995 43.2424H531.984Z" fill="white"/>
<rect x="464.078" y="34.7253" width="91.6328" height="26.0949" rx="5.25" stroke="#0998FF" stroke-opacity="0.7" stroke-width="1.5"/>
<rect x="116" y="155.867" width="68.8132" height="28.1253" rx="6" fill="#32C5FF"/>
<path d="M128.288 165.134H130.451L132.736 170.707H132.833L135.118 165.134H137.281V173.429H135.58V168.03H135.511L133.364 173.389H132.205L130.059 168.01H129.99V173.429H128.288V165.134ZM140.822 165.134V173.429H139.068V165.134H140.822ZM149.546 165.134V173.429H148.031L144.422 168.208H144.361V173.429H142.607V165.134H144.147L147.727 170.351H147.8V165.134H149.546ZM151.337 173.429V165.134H156.927V166.58H153.091V168.557H156.64V170.003H153.091V171.983H156.943V173.429H151.337ZM158.664 173.429V165.134H161.937C162.563 165.134 163.098 165.246 163.541 165.47C163.986 165.691 164.325 166.006 164.558 166.414C164.793 166.819 164.91 167.295 164.91 167.844C164.91 168.394 164.791 168.868 164.554 169.265C164.316 169.66 163.972 169.962 163.521 170.173C163.072 170.383 162.53 170.489 161.892 170.489H159.701V169.079H161.609C161.944 169.079 162.222 169.033 162.443 168.941C162.665 168.85 162.829 168.712 162.937 168.528C163.048 168.345 163.103 168.116 163.103 167.844C163.103 167.568 163.048 167.336 162.937 167.147C162.829 166.958 162.663 166.815 162.439 166.718C162.218 166.618 161.938 166.568 161.601 166.568H160.418V173.429H158.664ZM163.144 169.654L165.206 173.429H163.269L161.252 169.654H163.144ZM170.992 167.52C170.96 167.193 170.82 166.939 170.575 166.758C170.329 166.577 169.995 166.487 169.574 166.487C169.288 166.487 169.046 166.527 168.849 166.608C168.652 166.686 168.501 166.796 168.395 166.936C168.293 167.077 168.242 167.236 168.242 167.414C168.236 167.563 168.267 167.692 168.335 167.803C168.405 167.914 168.501 168.01 168.622 168.091C168.744 168.169 168.884 168.238 169.044 168.297C169.203 168.354 169.373 168.403 169.554 168.443L170.299 168.621C170.661 168.702 170.993 168.81 171.296 168.945C171.598 169.08 171.86 169.246 172.082 169.444C172.303 169.641 172.474 169.873 172.596 170.14C172.72 170.408 172.784 170.714 172.786 171.06C172.784 171.567 172.654 172.008 172.398 172.38C172.144 172.75 171.776 173.038 171.296 173.243C170.818 173.446 170.241 173.547 169.566 173.547C168.896 173.547 168.313 173.444 167.816 173.239C167.322 173.034 166.936 172.73 166.658 172.328C166.382 171.923 166.238 171.422 166.224 170.825H167.922C167.94 171.103 168.02 171.335 168.161 171.522C168.304 171.705 168.494 171.844 168.732 171.939C168.972 172.031 169.243 172.077 169.546 172.077C169.843 172.077 170.101 172.033 170.32 171.947C170.541 171.86 170.712 171.74 170.834 171.586C170.955 171.432 171.016 171.256 171.016 171.056C171.016 170.869 170.961 170.713 170.85 170.586C170.742 170.459 170.583 170.351 170.372 170.262C170.164 170.173 169.909 170.092 169.607 170.019L168.703 169.792C168.004 169.622 167.452 169.356 167.047 168.994C166.642 168.632 166.44 168.145 166.443 167.532C166.44 167.029 166.574 166.591 166.844 166.215C167.117 165.84 167.491 165.547 167.966 165.336C168.441 165.126 168.981 165.02 169.586 165.02C170.202 165.02 170.739 165.126 171.199 165.336C171.66 165.547 172.019 165.84 172.276 166.215C172.533 166.591 172.665 167.025 172.673 167.52H170.992Z" fill="white"/>
<rect x="116.75" y="156.617" width="67.3132" height="26.6253" rx="5.25" stroke="#0998FF" stroke-opacity="0.7" stroke-width="1.5"/>
<path fill-rule="evenodd" clip-rule="evenodd" d="M132.961 284.643C132.961 294.798 141.203 303.04 151.358 303.04C161.512 303.04 169.754 294.798 169.754 284.643C169.754 274.488 161.512 266.246 151.358 266.246C141.203 266.246 132.961 274.488 132.961 284.643ZM156.876 277.284C156.876 280.338 154.411 282.803 151.357 282.803C148.303 282.803 145.838 280.338 145.838 277.284C145.838 274.23 148.303 271.765 151.357 271.765C154.411 271.765 156.876 274.23 156.876 277.284ZM140.322 291.965C140.377 288.304 147.68 286.299 151.36 286.299C155.021 286.299 162.342 288.304 162.398 291.965C160.025 295.534 155.959 297.888 151.36 297.888C146.761 297.888 142.695 295.534 140.322 291.965Z" fill="#BFD4E4"/>
<path fill-rule="evenodd" clip-rule="evenodd" d="M132.961 344.432C132.961 354.587 141.203 362.829 151.358 362.829C161.512 362.829 169.754 354.587 169.754 344.432C169.754 334.277 161.512 326.035 151.358 326.035C141.203 326.035 132.961 334.277 132.961 344.432ZM156.876 337.073C156.876 340.127 154.411 342.592 151.357 342.592C148.303 342.592 145.838 340.127 145.838 337.073C145.838 334.019 148.303 331.554 151.357 331.554C154.411 331.554 156.876 334.019 156.876 337.073ZM140.322 351.754C140.377 348.093 147.68 346.088 151.36 346.088C155.021 346.088 162.342 348.093 162.398 351.754C160.025 355.323 155.959 357.677 151.36 357.677C146.761 357.677 142.695 355.323 140.322 351.754Z" fill="#BFD4E4"/>
<path fill-rule="evenodd" clip-rule="evenodd" d="M132.961 454.811C132.961 464.966 141.203 473.208 151.358 473.208C161.512 473.208 169.754 464.966 169.754 454.811C169.754 444.656 161.512 436.415 151.358 436.415C141.203 436.415 132.961 444.656 132.961 454.811ZM156.876 447.453C156.876 450.507 154.411 452.972 151.357 452.972C148.303 452.972 145.838 450.507 145.838 447.453C145.838 444.399 148.303 441.934 151.357 441.934C154.411 441.934 156.876 444.399 156.876 447.453ZM140.322 462.133C140.377 458.472 147.68 456.467 151.36 456.467C155.021 456.467 162.342 458.472 162.398 462.133C160.025 465.702 155.959 468.057 151.36 468.057C146.761 468.057 142.695 465.702 140.322 462.133Z" fill="#BFD4E4"/>
<path fill-rule="evenodd" clip-rule="evenodd" d="M132.961 224.854C132.961 235.009 141.203 243.251 151.358 243.251C161.512 243.251 169.754 235.009 169.754 224.854C169.754 214.699 161.512 206.457 151.358 206.457C141.203 206.457 132.961 214.699 132.961 224.854ZM156.876 217.495C156.876 220.549 154.411 223.014 151.357 223.014C148.303 223.014 145.838 220.549 145.838 217.495C145.838 214.441 148.303 211.976 151.357 211.976C154.411 211.976 156.876 214.441 156.876 217.495ZM140.322 232.176C140.377 228.515 147.68 226.51 151.36 226.51C155.021 226.51 162.342 228.515 162.398 232.176C160.025 235.745 155.959 238.099 151.36 238.099C146.761 238.099 142.695 235.745 140.322 232.176Z" fill="#BFD4E4"/>
<rect x="136.145" y="386.574" width="31.3132" height="26.6253" rx="5.25" fill="white"/>
<path d="M148.983 403.492C148.715 403.492 148.486 403.398 148.294 403.209C148.105 403.017 148.01 402.787 148.01 402.52C148.01 402.255 148.105 402.029 148.294 401.839C148.486 401.65 148.715 401.556 148.983 401.556C149.242 401.556 149.469 401.65 149.663 401.839C149.857 402.029 149.955 402.255 149.955 402.52C149.955 402.698 149.909 402.862 149.817 403.01C149.728 403.156 149.61 403.273 149.465 403.363C149.319 403.449 149.158 403.492 148.983 403.492ZM151.838 403.492C151.571 403.492 151.341 403.398 151.15 403.209C150.961 403.017 150.866 402.787 150.866 402.52C150.866 402.255 150.961 402.029 151.15 401.839C151.341 401.65 151.571 401.556 151.838 401.556C152.097 401.556 152.324 401.65 152.519 401.839C152.713 402.029 152.81 402.255 152.81 402.52C152.81 402.698 152.764 402.862 152.673 403.01C152.584 403.156 152.466 403.273 152.32 403.363C152.174 403.449 152.014 403.492 151.838 403.492ZM154.698 403.492C154.431 403.492 154.201 403.398 154.009 403.209C153.82 403.017 153.726 402.787 153.726 402.52C153.726 402.255 153.82 402.029 154.009 401.839C154.201 401.65 154.431 401.556 154.698 401.556C154.957 401.556 155.184 401.65 155.379 401.839C155.573 402.029 155.67 402.255 155.67 402.52C155.67 402.698 155.624 402.862 155.532 403.01C155.443 403.156 155.326 403.273 155.18 403.363C155.034 403.449 154.874 403.492 154.698 403.492Z" fill="#597393"/>
<rect x="136.145" y="386.574" width="31.3132" height="26.6253" rx="5.25" stroke="#DAE4ED" stroke-width="1.5"/>
<path d="M391.18 288.708H437.18" stroke="#DAE4ED" stroke-width="1.71099"/>
<path d="M434.613 290.654C434.613 290.867 434.839 291.005 435.028 290.908L438.837 288.958C439.044 288.852 439.044 288.556 438.837 288.45L435.028 286.501C434.839 286.404 434.613 286.541 434.613 286.755V290.654Z" fill="white" stroke="#DAE4ED" stroke-width="1.71099"/>
<path d="M391.18 286.708C390.077 286.708 389.183 287.601 389.183 288.704C389.183 289.806 390.077 290.7 391.18 290.7C392.282 290.7 393.176 289.806 393.176 288.704C393.176 287.601 392.282 286.708 391.18 286.708Z" fill="white" stroke="#DAE4ED" stroke-width="1.71099"/>
<path d="M194.477 288.708H240.477" stroke="#DAE4ED" stroke-width="1.71099"/>
<path d="M237.91 290.654C237.91 290.867 238.136 291.005 238.325 290.908L242.133 288.958C242.34 288.852 242.34 288.556 242.133 288.45L238.325 286.501C238.136 286.404 237.91 286.541 237.91 286.755V290.654Z" fill="white" stroke="#DAE4ED" stroke-width="1.71099"/>
<path d="M194.476 286.708C193.374 286.708 192.48 287.601 192.48 288.704C192.48 289.806 193.374 290.7 194.476 290.7C195.579 290.7 196.473 289.806 196.473 288.704C196.473 287.601 195.579 286.708 194.476 286.708Z" fill="white" stroke="#DAE4ED" stroke-width="1.71099"/>
</svg>
