<svg width="32" height="32" viewBox="0 0 32 32" fill="none" xmlns="http://www.w3.org/2000/svg">
<path d="M10.856 23.5031L7.58533 26.2525C7.46689 26.352 7.32249 26.4157 7.1691 26.436C7.01571 26.4563 6.85971 26.4324 6.71945 26.3671C6.5792 26.3017 6.46051 26.1977 6.37734 26.0672C6.29418 25.9368 6.25 25.7853 6.25 25.6305V9.5C6.25 9.28451 6.3356 9.07785 6.48798 8.92548C6.64035 8.7731 6.84701 8.6875 7.0625 8.6875H24.9375C25.153 8.6875 25.3597 8.7731 25.512 8.92548C25.6644 9.07785 25.75 9.28451 25.75 9.5V22.5C25.75 22.7155 25.6644 22.9222 25.512 23.0745C25.3597 23.2269 25.153 23.3125 24.9375 23.3125H11.3788C11.1875 23.3125 11.0024 23.38 10.856 23.5031Z" stroke="white" stroke-width="2" stroke-linecap="round" stroke-linejoin="round"/>
<path d="M16 17.2188C16.6731 17.2188 17.2188 16.6731 17.2188 16C17.2188 15.3269 16.6731 14.7812 16 14.7812C15.3269 14.7812 14.7812 15.3269 14.7812 16C14.7812 16.6731 15.3269 17.2188 16 17.2188Z" fill="white"/>
<path d="M11.125 17.2188C11.7981 17.2188 12.3438 16.6731 12.3438 16C12.3438 15.3269 11.7981 14.7812 11.125 14.7812C10.4519 14.7812 9.90625 15.3269 9.90625 16C9.90625 16.6731 10.4519 17.2188 11.125 17.2188Z" fill="white"/>
<path d="M20.875 17.2188C21.5481 17.2188 22.0938 16.6731 22.0938 16C22.0938 15.3269 21.5481 14.7812 20.875 14.7812C20.2019 14.7812 19.6562 15.3269 19.6562 16C19.6562 16.6731 20.2019 17.2188 20.875 17.2188Z" fill="white"/>
</svg>
