<svg width="588" height="384" viewBox="0 0 588 384" fill="none" xmlns="http://www.w3.org/2000/svg">
<rect x="103" y="1" width="178" height="178" rx="89" fill="white"/>
<rect x="103" y="1" width="178" height="178" rx="89" stroke="#7987A4" stroke-width="2" stroke-dasharray="4 4"/>
<rect x="118" y="16" width="148" height="148" rx="74" fill="#7987A4"/>
<path d="M183.25 97C189.532 97 194.625 91.9072 194.625 85.625C194.625 79.3428 189.532 74.25 183.25 74.25C176.968 74.25 171.875 79.3428 171.875 85.625C171.875 91.9072 176.968 97 183.25 97Z" stroke="white" stroke-width="3" stroke-miterlimit="10"/>
<path d="M197.997 74.6744C199.562 74.2336 201.202 74.1331 202.809 74.3799C204.416 74.6266 205.951 75.2148 207.311 76.1047C208.671 76.9947 209.825 78.1658 210.694 79.5392C211.564 80.9126 212.129 82.4563 212.351 84.0665C212.574 85.6766 212.449 87.3158 211.985 88.8735C211.52 90.4313 210.728 91.8714 209.66 93.097C208.592 94.3227 207.274 95.3052 205.795 95.9786C204.316 96.652 202.709 97.0005 201.084 97.0007" stroke="white" stroke-width="3" stroke-linecap="round" stroke-linejoin="round"/>
<path d="M167.5 105.181C169.277 102.654 171.635 100.591 174.376 99.1673C177.118 97.7435 180.161 97.0001 183.25 97C186.339 96.9999 189.383 97.743 192.124 99.1666C194.866 100.59 197.224 102.652 199.001 105.179" stroke="white" stroke-width="3" stroke-linecap="round" stroke-linejoin="round"/>
<path d="M201.083 97C204.172 96.9978 207.217 97.74 209.958 99.1637C212.7 100.588 215.058 102.651 216.833 105.179" stroke="white" stroke-width="3" stroke-linecap="round" stroke-linejoin="round"/>
<rect x="206" y="205" width="178" height="178" rx="89" fill="white"/>
<rect x="206" y="205" width="178" height="178" rx="89" stroke="#7987A4" stroke-width="2" stroke-dasharray="4 4"/>
<rect x="223" y="222" width="144" height="144" rx="72" fill="#7987A4"/>
<path d="M281.92 285.248V302H278.56V291.104L274.072 302H271.528L267.016 291.104V302H263.656V285.248H267.472L272.8 297.704L278.128 285.248H281.92ZM294.626 285.248V287.96H287.642V292.256H292.994V294.92H287.642V302H284.282V285.248H294.626ZM301.905 285.248C303.665 285.248 305.209 285.592 306.537 286.28C307.881 286.968 308.913 287.952 309.633 289.232C310.369 290.496 310.737 291.968 310.737 293.648C310.737 295.328 310.369 296.8 309.633 298.064C308.913 299.312 307.881 300.28 306.537 300.968C305.209 301.656 303.665 302 301.905 302H296.049V285.248H301.905ZM301.785 299.144C303.545 299.144 304.905 298.664 305.865 297.704C306.825 296.744 307.305 295.392 307.305 293.648C307.305 291.904 306.825 290.544 305.865 289.568C304.905 288.576 303.545 288.08 301.785 288.08H299.409V299.144H301.785ZM327.34 285.248L321.196 302H317.116L310.972 285.248H314.572L319.18 298.568L323.764 285.248H327.34Z" fill="white"/>
<rect x="223" y="222" width="144" height="144" rx="72" stroke="url(#paint0_linear_708_5941)" stroke-width="4"/>
<rect x="1" y="205" width="178" height="178" rx="89" fill="white"/>
<rect x="1" y="205" width="178" height="178" rx="89" stroke="#7987A4" stroke-width="2" stroke-dasharray="4 4"/>
<rect x="16" y="220" width="148" height="148" rx="74" fill="#7987A4"/>
<path d="M73.4395 286.037C73.8333 285.206 74.2926 284.418 74.8176 283.653L74.7301 277.965C74.7301 277.44 74.9489 276.937 75.3645 276.587C77.3989 274.881 79.7176 273.503 82.277 272.584C82.7801 272.409 83.327 272.453 83.7645 272.737L88.6426 275.668C89.5614 275.603 90.4801 275.603 91.3989 275.668L96.277 272.737C96.7364 272.475 97.2833 272.409 97.7864 272.584C100.28 273.481 102.621 274.815 104.699 276.565C105.093 276.893 105.333 277.418 105.311 277.943L105.224 283.631C105.749 284.397 106.208 285.184 106.602 286.015L111.568 288.772C112.027 289.034 112.355 289.472 112.443 289.997C112.902 292.6 112.924 295.312 112.443 297.959C112.355 298.484 112.027 298.922 111.568 299.184L106.602 301.94C106.208 302.772 105.749 303.559 105.224 304.325L105.311 310.012C105.311 310.537 105.093 311.04 104.677 311.39C102.643 313.097 100.324 314.475 97.7645 315.393C97.2614 315.568 96.7145 315.525 96.277 315.24L91.3989 312.309C90.4801 312.375 89.5614 312.375 88.6426 312.309L83.7645 315.24C83.3051 315.503 82.7583 315.568 82.2551 315.393C79.7614 314.497 77.4208 313.162 75.3426 311.412C74.9489 311.084 74.7083 310.559 74.7301 310.034L74.8176 304.347C74.2926 303.581 73.8333 302.793 73.4395 301.962L68.4739 299.206C68.0145 298.943 67.6864 298.506 67.5989 297.981C67.1395 295.378 67.1176 292.665 67.5989 290.018C67.6864 289.493 68.0145 289.056 68.4739 288.793L73.4395 286.037Z" stroke="white" stroke-width="3" stroke-miterlimit="10" stroke-linecap="round" stroke-linejoin="round"/>
<path d="M90 304.5C95.799 304.5 100.5 299.799 100.5 294C100.5 288.201 95.799 283.5 90 283.5C84.201 283.5 79.5 288.201 79.5 294C79.5 299.799 84.201 304.5 90 304.5Z" stroke="white" stroke-width="3" stroke-miterlimit="10" stroke-linecap="round" stroke-linejoin="round"/>
<rect x="409" y="205" width="178" height="178" rx="89" fill="white"/>
<rect x="409" y="205" width="178" height="178" rx="89" stroke="#7987A4" stroke-width="2" stroke-dasharray="4 4"/>
<rect x="424" y="220" width="148" height="148" rx="74" fill="#7987A4"/>
<path d="M481.44 286.037C481.833 285.206 482.293 284.418 482.818 283.653L482.73 277.965C482.73 277.44 482.949 276.937 483.365 276.587C485.399 274.881 487.718 273.503 490.277 272.584C490.78 272.409 491.327 272.453 491.765 272.737L496.643 275.668C497.561 275.603 498.48 275.603 499.399 275.668L504.277 272.737C504.736 272.475 505.283 272.409 505.786 272.584C508.28 273.481 510.621 274.815 512.699 276.565C513.093 276.893 513.333 277.418 513.311 277.943L513.224 283.631C513.749 284.397 514.208 285.184 514.602 286.015L519.568 288.772C520.027 289.034 520.355 289.472 520.443 289.997C520.902 292.6 520.924 295.312 520.443 297.959C520.355 298.484 520.027 298.922 519.568 299.184L514.602 301.94C514.208 302.772 513.749 303.559 513.224 304.325L513.311 310.012C513.311 310.537 513.093 311.04 512.677 311.39C510.643 313.097 508.324 314.475 505.764 315.393C505.261 315.568 504.714 315.525 504.277 315.24L499.399 312.309C498.48 312.375 497.561 312.375 496.643 312.309L491.765 315.24C491.305 315.503 490.758 315.568 490.255 315.393C487.761 314.497 485.421 313.162 483.343 311.412C482.949 311.084 482.708 310.559 482.73 310.034L482.818 304.347C482.293 303.581 481.833 302.793 481.44 301.962L476.474 299.206C476.015 298.943 475.686 298.506 475.599 297.981C475.14 295.378 475.118 292.665 475.599 290.018C475.686 289.493 476.015 289.056 476.474 288.793L481.44 286.037Z" stroke="white" stroke-width="3" stroke-miterlimit="10" stroke-linecap="round" stroke-linejoin="round"/>
<path d="M498 304.5C503.799 304.5 508.5 299.799 508.5 294C508.5 288.201 503.799 283.5 498 283.5C492.201 283.5 487.5 288.201 487.5 294C487.5 299.799 492.201 304.5 498 304.5Z" stroke="white" stroke-width="3" stroke-miterlimit="10" stroke-linecap="round" stroke-linejoin="round"/>
<rect x="307" y="1" width="178" height="178" rx="89" fill="white"/>
<rect x="307" y="1" width="178" height="178" rx="89" stroke="#7987A4" stroke-width="2" stroke-dasharray="4 4"/>
<rect x="322" y="16" width="148" height="148" rx="74" fill="#7987A4"/>
<path d="M396 111C407.598 111 417 101.598 417 90C417 78.402 407.598 69 396 69C384.402 69 375 78.402 375 90C375 101.598 384.402 111 396 111Z" stroke="white" stroke-width="3" stroke-linecap="round" stroke-linejoin="round"/>
<path d="M414.848 99.2692L402.973 91.9654C402.765 91.8374 402.533 91.7544 402.29 91.7218L397.299 91.0489C396.924 90.9984 396.543 91.0706 396.213 91.2549C395.882 91.4391 395.62 91.7254 395.467 92.0708L392.47 98.7948C392.331 99.1075 392.286 99.4543 392.342 99.792C392.397 100.13 392.551 100.444 392.783 100.695L396.896 105.143C397.082 105.345 397.219 105.588 397.294 105.852C397.369 106.116 397.381 106.394 397.329 106.664L396.491 110.994" stroke="white" stroke-width="3" stroke-linecap="round" stroke-linejoin="round"/>
<path d="M382.208 74.1641L380.251 78.7906C380.077 79.2031 380.067 79.6668 380.225 80.0862L382.738 86.7949C382.841 87.0696 383.011 87.314 383.234 87.5057C383.456 87.6974 383.722 87.8301 384.009 87.8918L388.697 88.8993C388.957 88.9552 389.201 89.0697 389.41 89.2341C389.619 89.3984 389.788 89.6083 389.904 89.8478L390.737 91.5676C390.88 91.8636 391.104 92.1132 391.382 92.2878C391.661 92.4625 391.983 92.5551 392.312 92.5551H395.25" stroke="white" stroke-width="3" stroke-linecap="round" stroke-linejoin="round"/>
<path d="M401.35 69.6895L403.392 73.3466C403.585 73.6923 403.655 74.0933 403.59 74.484C403.526 74.8747 403.331 75.232 403.037 75.4976L397.151 80.8214C397.051 80.9118 396.941 80.9903 396.823 81.0554L394.145 82.5343C393.886 82.6773 393.595 82.7523 393.299 82.7523H388.63C388.285 82.7523 387.949 82.8539 387.662 83.0444C387.375 83.2348 387.151 83.5056 387.017 83.823L385.195 88.1473" stroke="white" stroke-width="3" stroke-linecap="round" stroke-linejoin="round"/>
<defs>
<linearGradient id="paint0_linear_708_5941" x1="357.82" y1="233.214" x2="241.132" y2="261.256" gradientUnits="userSpaceOnUse">
<stop stop-color="#FF5366"/>
<stop offset="1" stop-color="#6C57FF"/>
</linearGradient>
</defs>
</svg>
