<svg width="1862" height="1047" viewBox="0 0 1862 1047" fill="none" xmlns="http://www.w3.org/2000/svg">
<g opacity="0.12">
<path d="M930.167 0.508515V523.961C670.636 519.561 438.208 488.873 270.645 441.88C186.805 418.368 119.232 390.782 72.631 360.384C26.0082 329.971 0.5 296.83 0.5 262.235C0.5 227.64 26.0082 194.498 72.631 164.086C119.232 133.688 186.805 106.102 270.645 82.5892C438.208 35.597 670.636 4.90847 930.167 0.508515Z" stroke="#010C21"/>
<path d="M931.168 524.977V1046.49C1190.7 1042.11 1423.13 1011.53 1590.69 964.714C1674.53 941.288 1742.1 913.804 1788.7 883.518C1835.33 853.218 1860.83 820.199 1860.83 785.734C1860.83 751.269 1835.33 718.25 1788.7 687.95C1742.1 657.664 1674.53 630.18 1590.69 606.755C1423.13 559.936 1190.7 529.361 931.168 524.977Z" stroke="#010C21"/>
</g>
</svg>
