<svg width="24" height="24" viewBox="0 0 24 24" fill="none" xmlns="http://www.w3.org/2000/svg">
<path d="M21.0168 15.1369C19.6948 18.0444 16.7653 20.0504 13.3733 20.0388C8.74399 20.023 5.0128 16.2662 5.02862 11.6369C5.04022 8.2449 7.06619 5.32914 9.98266 4.0271C9.49905 5.08145 9.22841 6.2432 9.22422 7.46986C9.20844 12.0885 12.9396 15.8559 17.5689 15.8718C18.7956 15.8759 19.9591 15.6133 21.0168 15.1369Z" fill="#7987A4"/>
<circle cx="3.54956" cy="5.50512" r="0.5" transform="rotate(0.195808 3.54956 5.50512)" fill="#7987A4"/>
<circle cx="14.0478" cy="6.04101" r="1" transform="rotate(0.195808 14.0478 6.04101)" fill="#7987A4"/>
<circle cx="18.5325" cy="10.5564" r="0.5" transform="rotate(0.195808 18.5325 10.5564)" fill="#7987A4"/>
<circle cx="3.00683" cy="18.0034" r="1" transform="rotate(0.195808 3.00683 18.0034)" fill="#7987A4"/>
</svg>
