<svg width="48" height="48" viewBox="0 0 48 48" fill="none" xmlns="http://www.w3.org/2000/svg">
<path d="M23.68 33.36C21.7655 33.36 19.8939 32.7923 18.3021 31.7286C16.7102 30.665 15.4695 29.1532 14.7368 27.3844C14.0042 25.6156 13.8125 23.6693 14.186 21.7915C14.5595 19.9138 15.4814 18.189 16.8352 16.8352C18.189 15.4814 19.9138 14.5595 21.7915 14.186C23.6693 13.8125 25.6156 14.0042 27.3844 14.7368C29.1532 15.4695 30.665 16.7102 31.7286 18.3021C32.7923 19.8939 33.36 21.7655 33.36 23.68L23.68 23.68L23.68 33.36Z" stroke="#010C21" stroke-width="1.5" stroke-miterlimit="10" stroke-linecap="round" stroke-linejoin="round"/>
<path d="M36 26.32C36 28.8873 34.9801 31.3494 33.1648 33.1648C31.3494 34.9801 28.8873 36 26.32 36L26.32 26.32L36 26.32Z" stroke="#010C21" stroke-width="1.5" stroke-miterlimit="10" stroke-linecap="round" stroke-linejoin="round"/>
<rect x="0.5" y="0.5" width="47" height="47" rx="23.5" stroke="#7987A4"/>
</svg>
