<svg width="28" height="28" viewBox="0 0 28 28" fill="none" xmlns="http://www.w3.org/2000/svg">
<circle cx="14" cy="14" r="13.5" stroke="#2B3549"/>
<path d="M11.4787 19.1058V11.0521H8.9737V19.1058H11.4787ZM10.2127 9.97471C11.0208 9.97471 11.6673 9.30132 11.6673 8.49326C11.6673 7.71213 11.0208 7.06567 10.2127 7.06567C9.43161 7.06567 8.78516 7.71213 8.78516 8.49326C8.78516 9.30132 9.43161 9.97471 10.2127 9.97471ZM20.8523 19.1058V14.6884C20.8523 12.5336 20.3674 10.8636 17.8355 10.8636C16.6234 10.8636 15.8153 11.537 15.4652 12.1565H15.4382V11.0521H13.041V19.1058H15.546V15.1194C15.546 14.0689 15.7345 13.0723 17.0274 13.0723C18.3203 13.0723 18.3473 14.2575 18.3473 15.2002V19.1058H20.8523Z" fill="white"/>
</svg>
