<svg width="234" height="88" viewBox="0 0 234 88" fill="none" xmlns="http://www.w3.org/2000/svg">
<path d="M75.6008 32.2832C71.0207 32.2832 65.9079 34.0498 64.8365 39.8647C64.7223 40.4823 65.1309 40.7771 65.5254 40.8673L70.2196 41.4308C70.6542 41.4087 70.9486 40.9355 71.0327 40.4904C71.4333 38.4892 73.0775 37.5448 74.9139 37.5448C75.9052 37.5448 77.0187 37.8856 77.6055 38.798C78.2784 39.8146 78.2303 41.1962 78.2303 42.3692V43.059C75.4406 43.3798 71.7677 43.5743 69.1562 44.7513C66.1422 46.0928 64.0254 48.8218 64.0254 52.8342C64.0254 57.9754 67.1716 60.542 71.223 60.542C74.6435 60.542 76.5341 59.738 79.1716 56.9708C80.0468 58.2742 80.3271 58.8657 81.9253 60.2292C82.1019 60.3301 82.306 60.3725 82.5082 60.3501C82.7104 60.3278 82.9003 60.2419 83.0508 60.1049V60.1671C84.012 59.2888 85.7604 57.6927 86.7437 56.8465C87.1362 56.5177 87.0501 55.9763 86.7437 55.5311C85.8645 54.2839 84.9293 53.2773 84.9293 50.9573V43.2495C84.9293 39.9851 85.2056 36.9753 82.8645 34.7275C81.016 32.9088 77.9399 32.2832 75.6008 32.2832V32.2832ZM138.685 32.2832C134.103 32.2832 128.994 34.0498 127.921 39.8647C127.806 40.4823 128.213 40.7771 128.609 40.8673L133.304 41.4308C133.738 41.4087 134.035 40.9355 134.117 40.4904C134.519 38.4892 136.162 37.5448 137.998 37.5448C138.991 37.5448 140.103 37.8856 140.69 38.798C141.361 39.8146 141.252 41.1962 141.252 42.3692V43.059C138.463 43.3798 134.854 43.5743 132.24 44.7513C129.224 46.0928 127.109 48.8218 127.109 52.8342C127.109 57.9754 130.258 60.542 134.307 60.542C137.724 60.542 139.614 59.738 142.256 56.9708C143.129 58.2742 143.411 58.8657 145.009 60.2292C145.37 60.4217 145.816 60.4017 146.135 60.1049V60.1671C147.096 59.2888 148.844 57.6927 149.828 56.8465C150.218 56.5177 150.128 55.9763 149.828 55.5311C148.949 54.2839 148.013 53.2773 148.013 50.9573V43.2495C148.013 39.9851 148.224 36.9753 145.887 34.7275C144.036 32.9088 141.024 32.2832 138.685 32.2832V32.2832ZM103.2 32.5338C100.24 32.5338 98.0447 34.0297 96.8792 37.234H96.8171V33.9134C96.8012 33.6857 96.7037 33.4714 96.5425 33.31C96.3814 33.1487 96.1673 33.051 95.9399 33.0351H91.4339C91.186 33.0388 90.9492 33.139 90.7738 33.3146C90.5984 33.4902 90.4983 33.7273 90.4947 33.9756V59.353C90.516 59.5787 90.6153 59.7898 90.7754 59.9501C90.9355 60.1104 91.1464 60.2099 91.3719 60.2312H96.1903C96.4386 60.2286 96.676 60.1287 96.8515 59.9529C97.0271 59.7771 97.1269 59.5394 97.1295 59.2908V45.8181C97.1295 42.8805 96.9873 38.8622 100.446 38.8622C103.861 38.8622 103.388 42.9908 103.388 45.8181V59.2908C103.388 59.77 103.778 60.1991 104.265 60.2312H109.083C109.332 60.2286 109.569 60.1287 109.745 59.9529C109.92 59.7771 110.02 59.5394 110.023 59.2908V45.8181C110.023 44.3764 109.965 42.277 110.461 40.9937C110.956 39.7103 112.172 38.8642 113.341 38.8642C114.735 38.8642 115.798 39.3514 116.157 41.0578C116.381 42.0724 116.281 44.7533 116.281 45.8201V59.2928C116.281 59.772 116.672 60.2012 117.158 60.2332H121.977C122.225 60.2306 122.462 60.1307 122.638 59.9549C122.814 59.7791 122.913 59.5414 122.916 59.2928V43.2515C122.916 40.5264 123.19 37.4325 121.664 35.293C120.316 33.372 118.114 32.5359 116.095 32.5359C113.263 32.5359 110.63 34.0317 109.462 37.236C108.112 34.0317 106.21 32.5338 103.2 32.5338V32.5338ZM185.123 32.5338C178.16 32.5338 174.296 38.6636 174.296 46.57C174.296 54.4223 178.118 60.7305 185.123 60.7305C191.862 60.7305 196.138 54.5666 196.138 46.8187C196.138 38.812 192.264 32.5338 185.123 32.5338ZM212.595 32.5338C209.269 32.5338 207.369 34.2001 206.025 37.6711H205.963V33.7851C205.877 33.3921 205.506 33.1194 205.085 33.0953H200.642C200.412 33.0901 200.189 33.1706 200.015 33.321C199.842 33.4715 199.73 33.6812 199.702 33.9094V59.2868C199.707 59.5243 199.799 59.7517 199.961 59.9253C200.123 60.099 200.343 60.2065 200.579 60.2272H205.336C205.584 60.2236 205.821 60.1233 205.996 59.9478C206.171 59.7722 206.271 59.5351 206.275 59.2868V45.6276C206.275 43.9152 206.419 42.3532 207.088 40.8032C207.629 39.574 208.672 38.798 209.842 38.798C213.162 38.798 212.846 42.8504 212.846 45.6276V59.4131C212.877 59.629 212.981 59.8277 213.14 59.9759C213.3 60.1241 213.506 60.2128 213.723 60.2272H218.541C219.014 60.2272 219.425 59.8663 219.481 59.4131V43.4339C219.481 40.9776 219.487 37.5648 218.229 35.5376C216.881 33.35 214.748 32.5338 212.595 32.5338ZM154.768 32.973C154.28 32.973 153.893 33.362 153.891 33.9134V37.5468C153.893 38.0902 154.268 38.4832 154.768 38.4872H163.029L153.579 52.4612C153.002 53.3615 152.954 54.3822 152.954 54.9677V58.6652C152.954 59.1986 153.533 59.7781 154.079 59.4793C159.465 56.5357 165.919 56.7964 170.79 59.4171C171.381 59.74 171.979 59.1344 171.979 58.603V54.717C171.966 54.4305 171.878 54.1526 171.724 53.9106C171.57 53.6687 171.356 53.4711 171.102 53.3375C168.338 51.7454 165.13 51.2581 162.09 51.3323L170.289 39.3013C171.048 38.2205 171.473 37.5688 171.479 37.0455V33.9134C171.479 33.374 171.11 32.973 170.601 32.973H154.768V32.973ZM185.123 37.7353C186.649 37.7353 187.774 38.417 188.315 40.1796C188.94 42.2108 189.004 44.7473 189.004 46.8848C189.004 50.1412 188.852 55.5311 185.123 55.5311C181.352 55.5311 181.368 48.8579 181.368 45.7559C181.368 42.6619 181.574 37.7353 185.123 37.7353V37.7353ZM78.1662 47.0092V48.0739C78.1662 50.0009 78.2363 51.623 77.2891 53.3375C76.5241 54.7311 75.3225 55.5933 73.9727 55.5933C72.1302 55.5933 71.0307 54.0974 71.0307 51.9599C71.0327 47.745 74.6896 47.0092 78.1662 47.0092V47.0092ZM141.25 47.0092V48.0739C141.25 50.0009 141.32 51.623 140.373 53.3375C139.608 54.7311 138.413 55.5933 137.057 55.5933C135.212 55.5933 134.115 54.0974 134.115 51.9599C134.117 47.745 137.77 47.0092 141.25 47.0092V47.0092Z" fill="#010C21"/>
<path d="M172.48 61.0449V64.6783H174.921V61.0449H172.48ZM101.698 61.6705V87.5492H103.951V85.2313C104.431 86.1496 104.978 86.8374 105.641 87.2986C106.302 87.7598 107.061 87.9884 107.894 87.9884C109.548 87.9884 110.976 87.1422 112.212 85.4197C113.447 83.6973 114.09 81.2009 114.09 78.0247C114.09 75.9453 113.824 74.2229 113.277 72.7611C112.73 71.3034 111.999 70.2186 111.086 69.5027C110.173 68.7869 109.136 68.3758 108.02 68.3758C107.245 68.3676 106.484 68.5849 105.829 69.0014C105.178 69.4185 104.652 70.0983 104.139 70.9444V61.6705H101.698ZM124.855 67.7502C123.156 67.7502 121.808 68.2535 120.849 69.2541C119.89 70.2527 119.409 71.542 119.409 73.1401C119.409 74.0685 119.618 74.8525 119.972 75.5844C120.326 76.3163 120.837 76.9038 121.474 77.3389C122.115 77.774 123.393 78.3455 125.291 78.9671C126.605 79.3902 127.39 79.7511 127.732 80.0319C128.229 80.4429 128.483 80.9823 128.483 81.7242C128.483 82.5824 128.187 83.2983 127.606 83.8537C127.027 84.4131 126.222 84.6678 125.165 84.6678C124.108 84.6678 123.236 84.371 122.6 83.7274C121.963 83.0837 121.618 82.1052 121.474 80.7818L119.033 81.2831C119.583 85.3034 121.586 87.3006 125.041 87.2986C126.883 87.2986 128.293 86.7752 129.359 85.6704C130.424 84.5655 130.985 83.0737 130.985 81.2831C130.985 80.3166 130.814 79.4784 130.484 78.7766C130.154 78.0748 129.699 77.5555 129.106 77.1484C128.511 76.7434 127.186 76.202 125.163 75.5202C123.693 75.0049 122.832 74.6279 122.535 74.3933C122.037 73.9963 121.784 73.4549 121.784 72.7651C121.784 72.0593 122.017 71.4618 122.535 71.0106C123.054 70.5594 123.853 70.3208 124.915 70.3208C126.781 70.3208 127.824 71.3475 128.043 73.3907L130.422 73.0138C130.258 71.7204 129.975 70.6998 129.545 70.006C129.114 69.3122 128.477 68.7267 127.666 68.3137C126.857 67.9026 125.926 67.7502 124.855 67.7502ZM139.812 67.7502C137.856 67.7502 136.206 68.5563 134.93 70.2567C133.654 71.957 133.051 74.4194 133.051 77.6517C133.051 80.7657 133.666 83.206 134.93 84.8583C136.194 86.5085 137.832 87.3026 139.875 87.3026C141.499 87.3026 142.845 86.8153 143.942 85.7987C145.041 84.7821 145.838 83.2862 146.257 81.2871L143.754 80.848C143.035 83.4086 141.709 84.6658 139.873 84.6698C138.703 84.6698 137.748 84.1725 136.931 83.1038C136.114 82.033 135.651 80.4449 135.553 78.3415H146.317V77.4632C146.317 74.3011 145.688 71.927 144.439 70.2567C143.193 68.5864 141.677 67.7502 139.812 67.7502ZM154.644 67.7502C154.059 67.7502 153.549 67.9487 153.08 68.3758C152.612 68.8029 152.079 69.6892 151.516 71.0066V68.1232H149.325V86.8594H151.766V77.0863C151.766 75.7227 151.895 74.4114 152.205 73.2002C152.381 72.5065 152.714 71.959 153.144 71.5721C153.575 71.1851 154.065 71.0086 154.584 71.0086C155.159 71.0086 155.73 71.2392 156.336 71.6984L157.15 68.7528C156.296 68.071 155.461 67.7502 154.644 67.7502ZM184.558 67.7502C182.626 67.7502 181.033 68.5643 179.802 70.1945C178.574 71.8227 177.923 74.269 177.923 77.5254C177.923 80.7557 178.58 83.204 179.802 84.8563C181.021 86.5065 182.547 87.3006 184.432 87.3006C185.988 87.3006 187.326 86.7211 188.437 85.5461C189.549 84.371 190.226 82.6426 190.502 80.4088L188.123 80.0319C187.947 81.63 187.53 82.7789 186.871 83.5409C186.212 84.2989 185.419 84.6678 184.492 84.6678C183.31 84.6678 182.305 84.1164 181.55 82.9754C180.795 81.8345 180.425 80.0098 180.425 77.4612C180.425 74.9909 180.823 73.2083 181.614 72.0713C182.405 70.9344 183.413 70.3168 184.618 70.3168C185.423 70.3168 186.11 70.6296 186.683 71.2572C187.26 71.8828 187.642 72.8774 187.873 74.1407L190.252 73.6394C189.965 71.6663 189.332 70.1765 188.311 69.1899C187.29 68.2014 186.05 67.7502 184.558 67.7502ZM198.515 67.7502C196.558 67.7502 194.908 68.5563 193.632 70.2567C192.357 71.957 191.754 74.4194 191.754 77.6517C191.754 80.7657 192.369 83.206 193.632 84.8583C194.898 86.5085 196.534 87.3026 198.577 87.3026C200.197 87.3026 201.545 86.8153 202.644 85.7987C203.742 84.7821 204.539 83.2862 204.959 81.2871L202.456 80.848C201.737 83.4086 200.469 84.6658 198.639 84.6698C197.469 84.6698 196.452 84.1725 195.635 83.1038C194.818 82.033 194.357 80.4449 194.257 78.3415H205.021V77.4632C205.021 74.3011 204.393 71.927 203.143 70.2567C201.901 68.5864 200.381 67.7502 198.515 67.7502ZM212.972 67.7502C211.27 67.7502 209.926 68.2535 208.967 69.2541C208.005 70.2527 207.527 71.542 207.527 73.1401C207.527 74.0685 207.673 74.8525 208.027 75.5844C208.38 76.3143 208.889 76.9038 209.529 77.3389C210.166 77.774 211.45 78.3455 213.346 78.9671C214.656 79.3902 215.507 79.7511 215.85 80.0319C216.346 80.4429 216.601 80.9823 216.601 81.7242C216.601 82.5824 216.304 83.2983 215.724 83.8537C215.147 84.4131 214.34 84.6678 213.282 84.6678C212.223 84.6678 211.354 84.371 210.717 83.7274C210.08 83.0837 209.67 82.1052 209.527 80.7818L207.086 81.2831C207.637 85.3034 209.636 87.3006 213.094 87.2986C214.939 87.2986 216.409 86.7752 217.476 85.6704C218.543 84.5655 219.102 83.0737 219.102 81.2831C219.102 80.3166 218.932 79.4784 218.602 78.7766C218.271 78.0748 217.756 77.5555 217.162 77.1484C216.569 76.7434 215.303 76.202 213.28 75.5202C211.81 75.0049 210.887 74.6279 210.589 74.3933C210.09 73.9963 209.838 73.4549 209.838 72.7651C209.838 72.0593 210.132 71.4618 210.651 71.0106C211.17 70.5594 211.973 70.3208 213.03 70.3208C214.897 70.3208 215.94 71.3475 216.158 73.3907L218.537 73.0138C218.371 71.7204 218.093 70.6998 217.66 70.006C217.201 69.2802 216.551 68.6947 215.782 68.3137C214.979 67.9026 214.041 67.7502 212.972 67.7502ZM157.148 68.1252L162.593 86.8615H164.908L170.353 68.1252H167.85L164.658 79.5927C164.271 80.9783 163.931 82.1754 163.718 83.1639C163.452 81.9187 163.198 80.6113 162.841 79.3421L159.713 68.1252H157.148ZM172.48 68.1252V86.8615H174.921V68.1252H172.48ZM92.249 68.3758C90.3125 68.3758 88.7544 69.2461 87.4927 70.9444C86.229 72.6448 85.5521 75.1072 85.5521 78.3395C85.5521 81.4535 86.1769 83.8316 87.4306 85.4819C88.6843 87.1322 90.3525 87.9884 92.3752 87.9884C93.9813 87.9884 95.2931 87.4389 96.3805 86.4223C97.466 85.4057 98.217 83.9098 98.6336 81.9107L96.1923 81.5337C95.4814 84.0943 94.1896 85.3516 92.3752 85.3556C91.2157 85.3556 90.2424 84.8583 89.4333 83.7895C88.6242 82.7188 88.1536 81.1307 88.0555 79.0273H98.6936L98.7557 78.149C98.7557 74.9868 98.1149 72.5506 96.8772 70.8803C95.6396 69.21 94.0935 68.3758 92.249 68.3758ZM64.7744 68.8149L69.1563 87.5512H71.7217L74.6015 73.1381L75.1022 76.3343L77.4173 87.5512H79.9206L84.3645 68.8149H82.0494L79.6082 79.6549L78.7951 83.2882L78.0441 79.6549L75.9173 68.8149H73.4139L71.1609 79.7812L70.4099 83.6672L69.5328 79.6569L67.2798 68.8169H64.7744V68.8149ZM139.748 70.3188C140.964 70.3188 141.965 70.9083 142.752 72.0733C143.293 72.8714 143.644 74.0865 143.754 75.7067H135.681C135.757 74.0625 136.222 72.7932 136.995 71.8207C137.768 70.8482 138.657 70.3188 139.748 70.3188ZM198.453 70.3188C199.664 70.3188 200.67 70.9083 201.457 72.0733C201.997 72.8714 202.348 74.0865 202.458 75.7067H194.385C194.461 74.0625 194.926 72.7932 195.699 71.8207C196.47 70.8522 197.359 70.3188 198.453 70.3188ZM92.249 71.0086C93.4506 71.0086 94.4159 71.5981 95.191 72.7631C95.7257 73.5612 96.0822 74.7763 96.1923 76.3965H88.2437C88.3198 74.7522 88.7263 73.4208 89.4954 72.4483C90.2584 71.4778 91.1656 71.0086 92.249 71.0086ZM107.77 71.0086C108.855 71.0086 109.778 71.6122 110.523 72.7631C111.268 73.9161 111.587 75.6927 111.587 78.153C111.587 80.5492 111.234 82.3358 110.461 83.5429C109.688 84.75 108.767 85.3596 107.77 85.3596C107.037 85.3596 106.37 85.1129 105.767 84.6076C105.162 84.1023 104.72 83.3785 104.389 82.414C104.059 81.4495 103.889 79.9657 103.889 78.0267C103.889 75.7428 104.295 74.0324 105.078 72.8253C105.861 71.6182 106.772 71.0086 107.77 71.0086Z" fill="#010C21"/>
<path d="M29.6956 51.1435L20.3712 55.1538L29.0067 58.8514L39.02 55.1538L29.6956 51.1435V51.1435ZM15.6769 56.1564L15.3645 74.2029L29.0067 80.2184V61.4821L15.6769 56.1564V56.1564ZM43.7143 56.1564L31.3858 60.8565V78.5261L43.7143 73.5131V56.1564V56.1564ZM58.4219 0.0117188L49.0334 4.02205L57.733 7.71958L67.7463 4.02205L58.4219 0.0117188V0.0117188ZM45.4045 5.33945V23.386L57.0441 26.7707L57.4206 10.3524L45.4045 5.33945ZM71.4392 6.34203L60.4246 11.0421V28.7758L71.4392 23.7629V6.34203V6.34203ZM14.3311 25.4112L5.00668 29.4215L13.6422 33.119L23.6555 29.4215L14.3311 25.4112V25.4112ZM0.312417 30.4241L0 48.4706L13.6422 54.4861V35.7498L0.312417 30.4241V30.4241ZM28.3498 30.4241L16.0214 35.1242V52.7937L28.3498 47.7808V30.4241V30.4241ZM44.3712 24.7455L35.0467 28.7558L43.6822 32.4533L53.6956 28.7558L44.3712 24.7455V24.7455ZM30.3525 29.7584L30.04 47.8049L43.6822 53.8204V35.0861L30.3525 29.7584V29.7584ZM58.3898 29.7584L46.0614 34.4585V52.128L58.3898 47.1151V29.7584ZM87.763 0.0117188L78.4386 4.02205L87.0741 7.71958L97.0874 4.02205L87.763 0.0117188V0.0117188ZM73.7443 5.02464L73.4319 23.0711L87.0741 29.0866V10.3524L73.7443 5.02464V5.02464ZM101.782 5.02464L89.4533 9.72475V27.3943L101.782 22.3814V5.02464V5.02464Z" fill="#F7A80D"/>
</svg>
