<svg width="310" height="88" viewBox="0 0 310 88" fill="none" xmlns="http://www.w3.org/2000/svg">
<path d="M58.1918 0.0216522L26.7875 27.2496L0 75.3413H24.1573L58.1918 0.0216522ZM62.3682 6.39133L48.9672 44.1599L74.6598 76.4416L24.8099 85.0064H106.506L62.3682 6.39133Z" fill="white"/>
<path d="M148.859 39.6182H143.764V19.9205C143.764 18.3058 143.865 16.3341 144.067 13.9971H143.982C143.663 15.3272 143.383 16.2818 143.139 16.8642L133.901 39.6182H130.361L121.1 17.0346C120.841 16.3701 120.568 15.3576 120.28 13.9996H120.195C120.311 15.2171 120.368 17.2046 120.368 19.9636V39.6182H115.619V9.18009H122.85L130.988 29.4515C131.606 31.0078 132.01 32.1695 132.196 32.9324H132.303C132.836 31.333 133.267 30.1435 133.598 29.3653L141.888 9.18009H148.86L148.858 39.6182H148.859ZM158.422 13.3184C157.602 13.3184 156.899 13.0577 156.318 12.5336C155.734 12.0101 155.443 11.3441 155.443 10.538C155.443 9.732 155.734 9.05936 156.318 8.52064C156.901 7.98395 157.602 7.71409 158.422 7.71409C159.27 7.71409 159.991 7.98395 160.581 8.52064C161.17 9.05936 161.467 9.72946 161.467 10.538C161.467 11.301 161.17 11.9564 160.581 12.5012C159.989 13.047 159.27 13.3184 158.422 13.3184ZM160.903 39.6182H155.897V17.8818H160.903V39.6182H160.903ZM183.289 38.6204C181.52 39.6248 179.424 40.127 177.007 40.127C173.726 40.127 171.078 39.1186 169.063 37.1032C167.049 35.0878 166.041 32.4733 166.041 29.2598C166.041 25.6795 167.124 22.8043 169.289 20.6312C171.455 18.459 174.35 17.3725 177.978 17.3725C179.992 17.3725 181.769 17.7194 183.309 18.4139V22.9981C181.767 21.8669 180.128 21.2997 178.388 21.2997C176.273 21.2997 174.539 22.0048 173.186 23.412C171.834 24.8197 171.156 26.6626 171.156 28.9407C171.156 31.191 171.792 32.9669 173.066 34.2686C174.339 35.5707 176.048 36.2215 178.193 36.2215C179.992 36.2215 181.688 35.5925 183.286 34.3335L183.289 38.6204ZM201.095 22.5735C200.49 22.1058 199.62 21.8735 198.483 21.8735C197.001 21.8735 195.762 22.5304 194.77 23.8472C193.777 25.1621 193.279 26.9532 193.279 29.2167V39.6182H188.271V17.8818H193.279V22.3604H193.365C193.854 20.832 194.605 19.64 195.62 18.7842C196.634 17.9289 197.768 17.4998 199.02 17.4998C199.927 17.4998 200.618 17.6357 201.093 17.9031L201.095 22.5735ZM214.479 40.127C211.068 40.127 208.346 39.112 206.308 37.0814C204.271 35.0513 203.252 32.3587 203.252 29.0057C203.252 25.3538 204.313 22.5025 206.437 20.4506C208.561 18.3987 211.419 17.3725 215.018 17.3725C218.472 17.3725 221.162 18.3708 223.091 20.3664C225.02 22.3625 225.982 25.1276 225.982 28.6648C225.982 32.133 224.943 34.9092 222.863 36.9951C220.785 39.0841 217.99 40.127 214.479 40.127ZM214.716 21.2997C212.758 21.2997 211.211 21.9724 210.076 23.3151C208.938 24.6599 208.37 26.5134 208.37 28.8758C208.37 31.1539 208.946 32.9476 210.097 34.2559C211.248 35.5641 212.789 36.219 214.718 36.219C216.691 36.219 218.205 35.5748 219.262 34.2883C220.318 32.9994 220.848 31.1671 220.848 28.7896C220.848 26.3993 220.32 24.5523 219.262 23.2502C218.203 21.9506 216.688 21.2997 214.716 21.2997ZM229.719 38.9395V34.3766C231.591 35.7777 233.655 36.4777 235.913 36.4777C238.936 36.4777 240.446 35.6007 240.446 33.846C240.446 33.3504 240.317 32.9304 240.058 32.5829C239.799 32.2359 239.451 31.928 239.01 31.6607C238.569 31.3934 238.052 31.1519 237.456 30.9389C236.858 30.7253 236.193 30.4859 235.459 30.2165C234.619 29.8938 233.801 29.518 233.009 29.0914C232.281 28.6947 231.679 28.2468 231.196 27.7446C230.721 27.2544 230.351 26.6728 230.107 26.0351C229.862 25.3995 229.741 24.6553 229.741 23.8067C229.741 22.7592 229.993 21.8364 230.497 21.037C231.001 20.237 231.676 19.5649 232.525 19.0216C233.375 18.4763 234.337 18.0669 235.418 17.791C236.511 17.5132 237.635 17.3742 238.763 17.377C240.805 17.377 242.633 17.6809 244.245 18.2886V22.5973C242.69 21.5498 240.906 21.0258 238.892 21.0258C238.258 21.0258 237.686 21.0907 237.176 21.2155C236.665 21.3429 236.229 21.5199 235.869 21.7461C235.51 21.9724 235.229 22.2438 235.028 22.5628C234.827 22.8763 234.722 23.241 234.725 23.6129C234.725 24.0801 234.826 24.4768 235.028 24.8024C235.229 25.1276 235.527 25.4142 235.924 25.6623C236.319 25.9103 236.794 26.1365 237.349 26.341C237.903 26.5459 238.539 26.7701 239.26 27.0096C240.132 27.356 240.985 27.7459 241.818 28.1778C242.574 28.574 243.218 29.0224 243.751 29.5246C244.276 30.015 244.694 30.6077 244.981 31.266C245.268 31.9235 245.413 32.7062 245.413 33.6111C245.413 34.715 245.154 35.6757 244.635 36.4975C244.117 37.3188 243.425 37.9975 242.564 38.5342C241.7 39.0729 240.702 39.4716 239.574 39.7324C238.442 39.9956 237.252 40.125 236.001 40.125C233.581 40.127 231.488 39.7323 229.719 38.9395ZM259.982 40.127C256.572 40.127 253.847 39.112 251.811 37.0814C249.774 35.0513 248.757 32.3587 248.757 29.0057C248.757 25.3538 249.818 22.5025 251.942 20.4506C254.064 18.3987 256.924 17.3725 260.521 17.3725C263.976 17.3725 266.665 18.3708 268.594 20.3664C270.523 22.3625 271.487 25.1276 271.487 28.6648C271.487 32.133 270.448 34.9092 268.368 36.9951C266.288 39.0841 263.491 40.127 259.982 40.127ZM260.219 21.2997C258.261 21.2997 256.714 21.9724 255.576 23.3151C254.439 24.6599 253.871 26.5134 253.871 28.8758C253.871 31.1539 254.448 32.9476 255.598 34.2559C256.749 35.5641 258.29 36.219 260.219 36.219C262.189 36.219 263.704 35.5748 264.763 34.2883C265.821 32.9994 266.349 31.1671 266.349 28.7896C266.349 26.3993 265.821 24.5523 264.763 23.2502C263.704 21.9506 262.189 21.2997 260.219 21.2997ZM289.101 11.4516C288.426 11.0702 287.655 10.8784 286.791 10.8784C284.358 10.8784 283.143 12.2298 283.143 14.9325V17.8833H288.281V21.7461H283.165V39.6182H278.157V21.7461H274.38V17.8833H278.157V14.3593C278.157 12.0664 278.92 10.2601 280.445 8.9366C281.971 7.61263 283.878 6.95116 286.166 6.95116C287.405 6.95116 288.382 7.08508 289.101 7.35443V11.4516ZM303.541 39.3854C302.564 39.8663 301.275 40.1077 299.677 40.1077C295.389 40.1077 293.246 38.0837 293.246 34.0383V21.7482H289.555V17.8858H293.246V12.8547L298.254 11.4542V17.8858H303.543V21.7482H298.254V32.6149C298.254 33.9018 298.491 34.822 298.967 35.3739C299.443 35.9258 300.233 36.2018 301.341 36.2018C302.189 36.2018 302.923 35.9623 303.541 35.4794V39.3854Z" fill="white"/>
<path d="M144.668 80.0139H138.998L136.195 72.214H123.941L121.247 80.0139H115.596L127.264 49.374H133.087L144.668 80.0139H144.668ZM134.825 68.0703L130.503 55.8483C130.373 55.449 130.234 54.8092 130.09 53.9258H130.004C129.874 54.7377 129.729 55.3796 129.569 55.8483L125.289 68.0703H134.825ZM164.832 60.2071L152.816 76.1454H164.788V80.0139H145.753V78.1547L158.03 62.0014H146.927V58.1329H164.832V60.2071ZM188.494 80.0139H183.454V76.5513H183.368C181.905 79.2005 179.631 80.5261 176.546 80.5261C171.288 80.5261 168.658 77.4214 168.658 71.2096V58.1329H173.7V70.6975C173.7 74.6293 175.242 76.5947 178.329 76.5947C179.82 76.5947 181.047 76.0545 182.011 74.972C182.975 73.8894 183.456 72.4724 183.456 70.7194V58.1329H188.498L188.494 80.0139ZM207.985 62.8562C207.376 62.3854 206.5 62.1515 205.355 62.1515C203.864 62.1515 202.617 62.8128 201.617 64.1384C200.618 65.462 200.117 67.265 200.117 69.5434V80.0139H195.077V58.1334H200.117V62.6417H200.203C200.695 61.1032 201.452 59.9032 202.473 59.0418C203.495 58.1809 204.636 57.7489 205.895 57.7489C206.807 57.7489 207.504 57.8857 207.98 58.1548L207.985 62.8562H207.985ZM230.431 70.4197H215.263C215.321 72.4418 215.954 74.0017 217.165 75.0996C218.374 76.1954 220.036 76.7444 222.152 76.7444C224.528 76.7444 226.708 76.0458 228.691 74.6508V78.6449C226.664 79.899 223.983 80.5261 220.652 80.5261C217.377 80.5261 214.811 79.5324 212.949 77.545C211.086 75.5576 210.158 72.763 210.158 69.1594C210.158 65.7551 211.181 62.9798 213.234 60.8362C215.283 58.6925 217.829 57.6207 220.872 57.6207C223.915 57.6207 226.266 58.5822 227.933 60.5042C229.598 62.4268 230.432 65.0974 230.432 68.5171L230.43 70.4197H230.431ZM225.563 66.9157C225.541 65.1346 225.122 63.7498 224.282 62.7607C223.441 61.7716 222.283 61.2768 220.804 61.2768C219.357 61.2768 218.128 61.7977 217.122 62.8368C216.116 63.8759 215.496 65.2368 215.264 66.9178H225.563V66.9157Z" fill="white"/>
</svg>
