<svg width="32" height="32" viewBox="0 0 32 32" fill="none" xmlns="http://www.w3.org/2000/svg">
<path d="M7.2069 26.3216H8.2069C8.2069 26.0408 8.08882 25.7729 7.88153 25.5835C7.67423 25.394 7.39683 25.3004 7.11714 25.3256L7.2069 26.3216ZM6.17244 14.9887L6.26219 15.9847C6.77807 15.9382 7.17307 15.5054 7.17244 14.9875L6.17244 14.9887ZM6.17241 14.9655L5.17241 14.9655L5.17241 14.9667L6.17241 14.9655ZM24.2696 11.8798L23.3261 12.2111C23.4583 12.5877 23.8019 12.8496 24.2 12.8774L24.2696 11.8798ZM7.2069 26.3448H6.2069C6.2069 26.8971 6.65461 27.3448 7.2069 27.3448V26.3448ZM7.11714 25.3256C6.97659 25.3383 6.83401 25.3448 6.68966 25.3448V27.3448C6.89402 27.3448 7.09649 27.3356 7.29665 27.3176L7.11714 25.3256ZM6.68966 25.3448C4.09963 25.3448 2 23.2452 2 20.6552H0C0 24.3497 2.99506 27.3448 6.68966 27.3448V25.3448ZM2 20.6552C2 18.2094 3.873 16.1999 6.26219 15.9847L6.0827 13.9927C2.67202 14.3001 0 17.165 0 20.6552H2ZM7.17244 14.9875L7.17241 14.9643L5.17241 14.9667L5.17244 14.9899L7.17244 14.9875ZM7.17241 14.9655C7.17241 10.3758 10.8931 6.65515 15.4828 6.65515V4.65515C9.78851 4.65515 5.17241 9.27125 5.17241 14.9655H7.17241ZM15.4828 6.65515C19.1055 6.65515 22.1892 8.97381 23.3261 12.2111L25.2131 11.5485C23.8037 7.53502 19.9808 4.65515 15.4828 4.65515V6.65515ZM24.2 12.8774C27.4406 13.1033 30 15.8049 30 19.1034H32C32 14.7469 28.6203 11.1807 24.3391 10.8822L24.2 12.8774ZM30 19.1034C30 22.5504 27.2056 25.3448 23.7586 25.3448V27.3448C28.3102 27.3448 32 23.655 32 19.1034H30ZM23.7586 25.3448H7.2069V27.3448H23.7586V25.3448ZM8.2069 26.3448V26.3216H6.2069V26.3448H8.2069Z" fill="white"/>
</svg>
