<svg width="32" height="32" viewBox="0 0 32 32" fill="none" xmlns="http://www.w3.org/2000/svg">
<path d="M10.3101 14.92C10.2269 14.8111 10.117 14.7254 9.99108 14.6714C9.86513 14.6174 9.72736 14.5969 9.59113 14.6118C9.45491 14.6267 9.32484 14.6765 9.21353 14.7565C9.10222 14.8365 9.01345 14.9438 8.95581 15.0682L2.08719 28.8102C2.02445 28.9353 1.9947 29.0743 2.00077 29.2141C2.00684 29.354 2.04853 29.4899 2.12188 29.6091C2.19522 29.7283 2.29779 29.8267 2.41986 29.8951C2.54192 29.9635 2.67943 29.9995 2.81933 29.9998H12.3838C12.5386 30.0028 12.6909 29.9602 12.8218 29.8774C12.9527 29.7947 13.0564 29.6753 13.1201 29.5341C15.1812 25.3006 13.9327 18.7937 10.3101 14.92V14.92Z" stroke="white" stroke-width="2" stroke-linecap="round" stroke-linejoin="round"/>
<path d="M15.3506 2.43967C13.6383 5.0747 12.6404 8.10986 12.4549 11.2472C12.2695 14.3845 12.9027 17.5162 14.2925 20.3347L18.9266 29.5342C18.9942 29.6708 19.0985 29.786 19.2278 29.8668C19.3571 29.9475 19.5063 29.9907 19.6588 29.9914H29.2232C29.3573 29.9803 29.4868 29.9374 29.601 29.8663C29.7152 29.7952 29.8108 29.6979 29.8799 29.5824C29.949 29.4669 29.9896 29.3367 29.9983 29.2024C30.007 29.0681 29.9836 28.9337 29.93 28.8102L16.7471 2.43967C16.684 2.308 16.5849 2.19686 16.4614 2.11907C16.3378 2.04128 16.1948 2 16.0488 2C15.9029 2 15.7598 2.04128 15.6363 2.11907C15.5127 2.19686 15.4137 2.308 15.3506 2.43967V2.43967Z" stroke="white" stroke-width="2" stroke-linecap="round" stroke-linejoin="round"/>
</svg>
