<svg width="32" height="32" viewBox="0 0 32 32" fill="none" xmlns="http://www.w3.org/2000/svg">
<path d="M1 5.10718C1 4.55489 1.44772 4.10718 2 4.10718H30C30.5523 4.10718 31 4.55489 31 5.10718V24.9254C31 25.4776 30.5523 25.9254 30 25.9254H21.1987C20.9266 25.9254 20.6662 26.0363 20.4776 26.2325L16.7211 30.1424C16.3276 30.5519 15.6724 30.5519 15.2789 30.1424L11.5224 26.2325C11.3338 26.0363 11.0734 25.9254 10.8013 25.9254H2C1.44772 25.9254 1 25.4776 1 24.9254V5.10718Z" stroke="white" stroke-width="2" stroke-linecap="round" stroke-linejoin="round"/>
<path d="M11.1789 10.8804L7.27559 14.1424C6.79727 14.5421 6.79727 15.2773 7.27559 15.677L11.1789 18.939" stroke="white" stroke-width="2" stroke-linecap="round" stroke-linejoin="round"/>
<path d="M20.8216 18.939L24.7249 15.677C25.2032 15.2772 25.2032 14.542 24.7249 14.1423L20.8216 10.8803" stroke="white" stroke-width="2" stroke-linecap="round" stroke-linejoin="round"/>
<path d="M18.4926 9.12493L13.5069 21.5898" stroke="white" stroke-width="2" stroke-linecap="round" stroke-linejoin="round"/>
</svg>
