<svg width="868" height="1031" viewBox="0 0 868 1031" fill="none" xmlns="http://www.w3.org/2000/svg">
<g opacity="0.32">
<path d="M102.43 368.736C104.485 358.714 106.973 348.8 109.886 339.021L272.777 135.582C281.682 130.601 290.812 126.006 300.142 121.809L102.43 368.736Z" fill="url(#paint0_linear_602_6007)"/>
<path d="M95.9143 417.68C96.4024 409.914 97.1434 402.185 98.134 394.504L324.347 111.981C331.625 109.335 339.005 106.922 346.476 104.747L95.9143 417.68Z" fill="url(#paint1_linear_602_6007)"/>
<path d="M95.6952 458.762C95.3518 452.148 95.1917 445.545 95.2128 438.961L367.089 99.4085C373.509 97.9479 379.987 96.6603 386.516 95.5489L95.6952 458.762Z" fill="url(#paint2_linear_602_6007)"/>
<path d="M99.4011 494.938C98.9537 492.019 98.5414 489.093 98.1645 486.159C97.7874 483.224 97.4467 480.29 97.1423 477.356L404.977 92.8946C407.906 92.5501 410.844 92.2408 413.79 91.9669C416.735 91.6931 419.681 91.4554 422.627 91.2536L99.4011 494.938Z" fill="url(#paint3_linear_602_6007)"/>
<path d="M105.938 527.585C104.629 522.304 103.436 516.991 102.361 511.648L439.58 90.4876C445.028 90.3679 450.474 90.37 455.913 90.4925L105.938 527.585Z" fill="url(#paint4_linear_602_6007)"/>
<path d="M114.695 557.455C113.052 552.615 111.508 547.74 110.066 542.832L471.694 91.1866C476.798 91.5207 481.893 91.9606 486.975 92.5054L114.695 557.455Z" fill="url(#paint5_linear_602_6007)"/>
<path d="M125.292 585.025C123.367 580.554 121.53 576.046 119.781 571.504L501.796 94.3961C506.611 95.1089 511.412 95.916 516.195 96.8165L125.292 585.025Z" fill="url(#paint6_linear_602_6007)"/>
<path d="M137.477 610.616C135.305 606.467 133.212 602.279 131.199 598.053L530.2 99.7311C534.764 100.772 539.308 101.898 543.832 103.11L137.477 610.616Z" fill="url(#paint7_linear_602_6007)"/>
<path d="M151.071 634.445C148.679 630.583 146.357 626.681 144.107 622.74L557.112 106.928C561.45 108.261 565.765 109.674 570.057 111.164L151.071 634.445Z" fill="url(#paint8_linear_602_6007)"/>
<path d="M165.952 656.666C163.355 653.069 160.823 649.429 158.357 645.748L582.68 115.801C586.811 117.403 590.916 119.077 594.995 120.825L165.952 656.666Z" fill="url(#paint9_linear_602_6007)"/>
<path d="M182.031 677.394C179.242 674.043 176.513 670.649 173.846 667.212L607.011 126.222C610.948 128.073 614.858 129.993 618.736 131.981L182.031 677.394Z" fill="url(#paint10_linear_602_6007)"/>
<path d="M199.244 696.701C196.271 693.587 193.356 690.426 190.498 687.22L630.177 138.095C633.93 140.183 637.652 142.336 641.341 144.555L199.244 696.701Z" fill="url(#paint11_linear_602_6007)"/>
<path d="M217.553 714.644C214.403 711.757 211.306 708.823 208.264 705.841L652.232 151.358C655.807 153.675 659.348 156.055 662.853 158.498L217.553 714.644Z" fill="url(#paint12_linear_602_6007)"/>
<path d="M236.932 731.248C233.607 728.586 230.333 725.873 227.109 723.112L673.206 165.971C676.606 168.512 679.969 171.114 683.294 173.776L236.932 731.248Z" fill="url(#paint13_linear_602_6007)"/>
<path d="M239.481 156.762L123.272 301.9C135.504 273.191 151.627 246.083 171.422 221.36C191.217 196.638 214.143 174.977 239.481 156.762Z" fill="url(#paint14_linear_602_6007)"/>
</g>
<g opacity="0.32">
<path d="M765.268 661.811C763.213 671.833 760.726 681.748 757.813 691.526L594.921 894.965C586.017 899.946 576.886 904.541 567.556 908.738L765.268 661.811Z" fill="url(#paint15_linear_602_6007)"/>
<path d="M771.784 612.868C771.296 620.633 770.555 628.363 769.564 636.043L543.352 918.566C536.073 921.212 528.693 923.625 521.222 925.8L771.784 612.868Z" fill="url(#paint16_linear_602_6007)"/>
<path d="M772.003 571.785C772.346 578.399 772.507 585.002 772.486 591.586L500.609 931.139C494.189 932.599 487.711 933.887 481.182 934.998L772.003 571.785Z" fill="url(#paint17_linear_602_6007)"/>
<path d="M768.297 535.609C768.745 538.528 769.157 541.454 769.534 544.388C769.911 547.323 770.252 550.258 770.556 553.191L462.722 937.653C459.793 937.997 456.854 938.306 453.908 938.58C450.963 938.854 448.017 939.092 445.071 939.294L768.297 535.609Z" fill="url(#paint18_linear_602_6007)"/>
<path d="M761.761 502.963C763.07 508.243 764.263 513.556 765.337 518.899L428.119 940.06C422.67 940.179 417.224 940.177 411.786 940.055L761.761 502.963Z" fill="url(#paint19_linear_602_6007)"/>
<path d="M753.004 473.092C754.646 477.932 756.19 482.808 757.632 487.715L396.004 939.361C390.9 939.026 385.805 938.586 380.723 938.042L753.004 473.092Z" fill="url(#paint20_linear_602_6007)"/>
<path d="M742.407 445.522C744.331 449.993 746.169 454.501 747.917 459.044L365.902 936.151C361.087 935.438 356.287 934.631 351.503 933.731L742.407 445.522Z" fill="url(#paint21_linear_602_6007)"/>
<path d="M730.222 419.931C732.393 424.08 734.486 428.268 736.5 432.494L337.498 930.816C332.935 929.775 328.39 928.649 323.866 927.437L730.222 419.931Z" fill="url(#paint22_linear_602_6007)"/>
<path d="M716.627 396.102C719.02 399.964 721.342 403.866 723.592 407.807L310.586 923.619C306.249 922.286 301.933 920.873 297.642 919.383L716.627 396.102Z" fill="url(#paint23_linear_602_6007)"/>
<path d="M701.747 373.881C704.344 377.478 706.876 381.118 709.341 384.799L285.019 914.746C280.888 913.145 276.782 911.47 272.704 909.722L701.747 373.881Z" fill="url(#paint24_linear_602_6007)"/>
<path d="M685.668 353.153C688.457 356.504 691.185 359.898 693.852 363.335L260.687 904.325C256.75 902.474 252.841 900.554 248.962 898.566L685.668 353.153Z" fill="url(#paint25_linear_602_6007)"/>
<path d="M668.455 333.846C671.427 336.961 674.342 340.121 677.201 343.327L237.521 892.453C233.768 890.364 230.047 888.211 226.357 885.992L668.455 333.846Z" fill="url(#paint26_linear_602_6007)"/>
<path d="M650.146 315.904C653.295 318.79 656.392 321.724 659.435 324.706L215.466 879.189C211.891 876.872 208.35 874.492 204.845 872.05L650.146 315.904Z" fill="url(#paint27_linear_602_6007)"/>
<path d="M194.492 864.576C191.092 862.035 187.729 859.433 184.405 856.771L630.767 299.299C634.091 301.961 637.366 304.674 640.589 307.435L194.492 864.576Z" fill="url(#paint28_linear_602_6007)"/>
<path d="M628.217 873.785L744.427 728.648C732.194 757.357 716.072 784.464 696.277 809.187C676.481 833.91 653.556 855.57 628.217 873.785Z" fill="url(#paint29_linear_602_6007)"/>
</g>
<defs>
<linearGradient id="paint0_linear_602_6007" x1="171.422" y1="221.361" x2="485.343" y2="467.703" gradientUnits="userSpaceOnUse">
<stop stop-color="white" stop-opacity="0.9"/>
<stop offset="1" stop-color="white" stop-opacity="0"/>
</linearGradient>
<linearGradient id="paint1_linear_602_6007" x1="171.422" y1="221.361" x2="485.343" y2="467.703" gradientUnits="userSpaceOnUse">
<stop stop-color="white" stop-opacity="0.9"/>
<stop offset="1" stop-color="white" stop-opacity="0"/>
</linearGradient>
<linearGradient id="paint2_linear_602_6007" x1="171.422" y1="221.361" x2="485.343" y2="467.703" gradientUnits="userSpaceOnUse">
<stop stop-color="white" stop-opacity="0.9"/>
<stop offset="1" stop-color="white" stop-opacity="0"/>
</linearGradient>
<linearGradient id="paint3_linear_602_6007" x1="171.422" y1="221.361" x2="485.343" y2="467.703" gradientUnits="userSpaceOnUse">
<stop stop-color="white" stop-opacity="0.9"/>
<stop offset="1" stop-color="white" stop-opacity="0"/>
</linearGradient>
<linearGradient id="paint4_linear_602_6007" x1="171.422" y1="221.361" x2="485.343" y2="467.703" gradientUnits="userSpaceOnUse">
<stop stop-color="white" stop-opacity="0.9"/>
<stop offset="1" stop-color="white" stop-opacity="0"/>
</linearGradient>
<linearGradient id="paint5_linear_602_6007" x1="171.422" y1="221.361" x2="485.343" y2="467.703" gradientUnits="userSpaceOnUse">
<stop stop-color="white" stop-opacity="0.9"/>
<stop offset="1" stop-color="white" stop-opacity="0"/>
</linearGradient>
<linearGradient id="paint6_linear_602_6007" x1="171.422" y1="221.361" x2="485.343" y2="467.703" gradientUnits="userSpaceOnUse">
<stop stop-color="white" stop-opacity="0.9"/>
<stop offset="1" stop-color="white" stop-opacity="0"/>
</linearGradient>
<linearGradient id="paint7_linear_602_6007" x1="171.422" y1="221.361" x2="485.343" y2="467.703" gradientUnits="userSpaceOnUse">
<stop stop-color="white" stop-opacity="0.9"/>
<stop offset="1" stop-color="white" stop-opacity="0"/>
</linearGradient>
<linearGradient id="paint8_linear_602_6007" x1="171.422" y1="221.361" x2="485.343" y2="467.703" gradientUnits="userSpaceOnUse">
<stop stop-color="white" stop-opacity="0.9"/>
<stop offset="1" stop-color="white" stop-opacity="0"/>
</linearGradient>
<linearGradient id="paint9_linear_602_6007" x1="171.422" y1="221.361" x2="485.343" y2="467.703" gradientUnits="userSpaceOnUse">
<stop stop-color="white" stop-opacity="0.9"/>
<stop offset="1" stop-color="white" stop-opacity="0"/>
</linearGradient>
<linearGradient id="paint10_linear_602_6007" x1="171.422" y1="221.361" x2="485.343" y2="467.703" gradientUnits="userSpaceOnUse">
<stop stop-color="white" stop-opacity="0.9"/>
<stop offset="1" stop-color="white" stop-opacity="0"/>
</linearGradient>
<linearGradient id="paint11_linear_602_6007" x1="171.422" y1="221.361" x2="485.343" y2="467.703" gradientUnits="userSpaceOnUse">
<stop stop-color="white" stop-opacity="0.9"/>
<stop offset="1" stop-color="white" stop-opacity="0"/>
</linearGradient>
<linearGradient id="paint12_linear_602_6007" x1="171.422" y1="221.361" x2="485.343" y2="467.703" gradientUnits="userSpaceOnUse">
<stop stop-color="white" stop-opacity="0.9"/>
<stop offset="1" stop-color="white" stop-opacity="0"/>
</linearGradient>
<linearGradient id="paint13_linear_602_6007" x1="171.422" y1="221.361" x2="485.343" y2="467.703" gradientUnits="userSpaceOnUse">
<stop stop-color="white" stop-opacity="0.9"/>
<stop offset="1" stop-color="white" stop-opacity="0"/>
</linearGradient>
<linearGradient id="paint14_linear_602_6007" x1="171.422" y1="221.361" x2="485.343" y2="467.703" gradientUnits="userSpaceOnUse">
<stop stop-color="white" stop-opacity="0.9"/>
<stop offset="1" stop-color="white" stop-opacity="0"/>
</linearGradient>
<linearGradient id="paint15_linear_602_6007" x1="696.277" y1="809.187" x2="382.356" y2="562.845" gradientUnits="userSpaceOnUse">
<stop stop-color="white" stop-opacity="0.9"/>
<stop offset="1" stop-color="white" stop-opacity="0"/>
</linearGradient>
<linearGradient id="paint16_linear_602_6007" x1="696.277" y1="809.187" x2="382.356" y2="562.845" gradientUnits="userSpaceOnUse">
<stop stop-color="white" stop-opacity="0.9"/>
<stop offset="1" stop-color="white" stop-opacity="0"/>
</linearGradient>
<linearGradient id="paint17_linear_602_6007" x1="696.277" y1="809.187" x2="382.356" y2="562.845" gradientUnits="userSpaceOnUse">
<stop stop-color="white" stop-opacity="0.9"/>
<stop offset="1" stop-color="white" stop-opacity="0"/>
</linearGradient>
<linearGradient id="paint18_linear_602_6007" x1="696.277" y1="809.187" x2="382.356" y2="562.845" gradientUnits="userSpaceOnUse">
<stop stop-color="white" stop-opacity="0.9"/>
<stop offset="1" stop-color="white" stop-opacity="0"/>
</linearGradient>
<linearGradient id="paint19_linear_602_6007" x1="696.277" y1="809.187" x2="382.356" y2="562.845" gradientUnits="userSpaceOnUse">
<stop stop-color="white" stop-opacity="0.9"/>
<stop offset="1" stop-color="white" stop-opacity="0"/>
</linearGradient>
<linearGradient id="paint20_linear_602_6007" x1="696.277" y1="809.187" x2="382.356" y2="562.845" gradientUnits="userSpaceOnUse">
<stop stop-color="white" stop-opacity="0.9"/>
<stop offset="1" stop-color="white" stop-opacity="0"/>
</linearGradient>
<linearGradient id="paint21_linear_602_6007" x1="696.277" y1="809.187" x2="382.356" y2="562.845" gradientUnits="userSpaceOnUse">
<stop stop-color="white" stop-opacity="0.9"/>
<stop offset="1" stop-color="white" stop-opacity="0"/>
</linearGradient>
<linearGradient id="paint22_linear_602_6007" x1="696.277" y1="809.187" x2="382.356" y2="562.845" gradientUnits="userSpaceOnUse">
<stop stop-color="white" stop-opacity="0.9"/>
<stop offset="1" stop-color="white" stop-opacity="0"/>
</linearGradient>
<linearGradient id="paint23_linear_602_6007" x1="696.277" y1="809.187" x2="382.356" y2="562.845" gradientUnits="userSpaceOnUse">
<stop stop-color="white" stop-opacity="0.9"/>
<stop offset="1" stop-color="white" stop-opacity="0"/>
</linearGradient>
<linearGradient id="paint24_linear_602_6007" x1="696.277" y1="809.187" x2="382.356" y2="562.845" gradientUnits="userSpaceOnUse">
<stop stop-color="white" stop-opacity="0.9"/>
<stop offset="1" stop-color="white" stop-opacity="0"/>
</linearGradient>
<linearGradient id="paint25_linear_602_6007" x1="696.277" y1="809.187" x2="382.356" y2="562.845" gradientUnits="userSpaceOnUse">
<stop stop-color="white" stop-opacity="0.9"/>
<stop offset="1" stop-color="white" stop-opacity="0"/>
</linearGradient>
<linearGradient id="paint26_linear_602_6007" x1="696.277" y1="809.187" x2="382.356" y2="562.845" gradientUnits="userSpaceOnUse">
<stop stop-color="white" stop-opacity="0.9"/>
<stop offset="1" stop-color="white" stop-opacity="0"/>
</linearGradient>
<linearGradient id="paint27_linear_602_6007" x1="696.277" y1="809.187" x2="382.356" y2="562.845" gradientUnits="userSpaceOnUse">
<stop stop-color="white" stop-opacity="0.9"/>
<stop offset="1" stop-color="white" stop-opacity="0"/>
</linearGradient>
<linearGradient id="paint28_linear_602_6007" x1="696.277" y1="809.187" x2="382.356" y2="562.845" gradientUnits="userSpaceOnUse">
<stop stop-color="white" stop-opacity="0.9"/>
<stop offset="1" stop-color="white" stop-opacity="0"/>
</linearGradient>
<linearGradient id="paint29_linear_602_6007" x1="696.277" y1="809.187" x2="382.356" y2="562.845" gradientUnits="userSpaceOnUse">
<stop stop-color="white" stop-opacity="0.9"/>
<stop offset="1" stop-color="white" stop-opacity="0"/>
</linearGradient>
</defs>
</svg>
