<svg width="32" height="32" viewBox="0 0 32 32" fill="none" xmlns="http://www.w3.org/2000/svg">
<path d="M6.53714 11.4498C6.76214 10.9748 7.02464 10.5248 7.32464 10.0873L7.27464 6.83735C7.27464 6.53735 7.39964 6.24985 7.63714 6.04985C8.79964 5.07485 10.1246 4.28735 11.5871 3.76235C11.8746 3.66235 12.1871 3.68735 12.4371 3.84985L15.2246 5.52485C15.7496 5.48735 16.2746 5.48735 16.7996 5.52485L19.5871 3.84985C19.8496 3.69985 20.1621 3.66235 20.4496 3.76235C21.8746 4.27485 23.2121 5.03735 24.3996 6.03735C24.6246 6.22485 24.7621 6.52485 24.7496 6.82485L24.6996 10.0748C24.9996 10.5123 25.2621 10.9623 25.4871 11.4373L28.3246 13.0123C28.5871 13.1623 28.7746 13.4123 28.8246 13.7123C29.0871 15.1998 29.0996 16.7498 28.8246 18.2623C28.7746 18.5623 28.5871 18.8123 28.3246 18.9623L25.4871 20.5373C25.2621 21.0123 24.9996 21.4623 24.6996 21.8998L24.7496 25.1498C24.7496 25.4498 24.6246 25.7373 24.3871 25.9373C23.2246 26.9123 21.8996 27.6998 20.4371 28.2248C20.1496 28.3248 19.8371 28.2998 19.5871 28.1373L16.7996 26.4623C16.2746 26.4998 15.7496 26.4998 15.2246 26.4623L12.4371 28.1373C12.1746 28.2873 11.8621 28.3248 11.5746 28.2248C10.1496 27.7123 8.81214 26.9498 7.62464 25.9498C7.39964 25.7623 7.26214 25.4623 7.27464 25.1623L7.32464 21.9123C7.02464 21.4748 6.76214 21.0248 6.53714 20.5498L3.69964 18.9748C3.43714 18.8248 3.24964 18.5748 3.19964 18.2748C2.93714 16.7873 2.92464 15.2373 3.19964 13.7248C3.24964 13.4248 3.43714 13.1748 3.69964 13.0248L6.53714 11.4498Z" stroke="white" stroke-width="2" stroke-miterlimit="10" stroke-linecap="round" stroke-linejoin="round"/>
<path d="M16 21C18.7614 21 21 18.7614 21 16C21 13.2386 18.7614 11 16 11C13.2386 11 11 13.2386 11 16C11 18.7614 13.2386 21 16 21Z" stroke="white" stroke-width="2" stroke-miterlimit="10" stroke-linecap="round" stroke-linejoin="round"/>
</svg>
