<svg width="384" height="421" viewBox="0 0 384 421" fill="none" xmlns="http://www.w3.org/2000/svg">
<rect x="102.5" y="138.5" width="179" height="179" rx="89.5" stroke="#7987A4" stroke-dasharray="4 4"/>
<rect x="38.5" y="74.5" width="307" height="307" rx="153.5" stroke="#7987A4" stroke-dasharray="4 4"/>
<rect x="103" y="1" width="178" height="178" rx="89" fill="white"/>
<rect x="103" y="1" width="178" height="178" rx="89" stroke="#BCC5D7" stroke-width="2"/>
<rect x="118" y="16" width="148" height="148" rx="74" fill="#7987A4"/>
<path d="M183.25 97C189.532 97 194.625 91.9072 194.625 85.625C194.625 79.3428 189.532 74.25 183.25 74.25C176.968 74.25 171.875 79.3428 171.875 85.625C171.875 91.9072 176.968 97 183.25 97Z" stroke="white" stroke-width="3" stroke-miterlimit="10"/>
<path d="M197.997 74.6734C199.562 74.2326 201.202 74.1322 202.809 74.3789C204.416 74.6256 205.951 75.2138 207.311 76.1038C208.671 76.9937 209.825 78.1648 210.694 79.5382C211.564 80.9116 212.129 82.4553 212.351 84.0655C212.574 85.6756 212.449 87.3148 211.985 88.8725C211.52 90.4303 210.728 91.8705 209.66 93.0961C208.592 94.3217 207.274 95.3043 205.795 95.9776C204.316 96.651 202.709 96.9995 201.084 96.9997" stroke="white" stroke-width="3" stroke-linecap="round" stroke-linejoin="round"/>
<path d="M167.5 105.181C169.277 102.654 171.635 100.591 174.376 99.1673C177.118 97.7435 180.161 97.0001 183.25 97C186.339 96.9999 189.383 97.743 192.124 99.1666C194.866 100.59 197.224 102.652 199.001 105.179" stroke="white" stroke-width="3" stroke-linecap="round" stroke-linejoin="round"/>
<path d="M201.083 97C204.172 96.9978 207.217 97.74 209.958 99.1637C212.7 100.588 215.058 102.651 216.833 105.179" stroke="white" stroke-width="3" stroke-linecap="round" stroke-linejoin="round"/>
<rect x="1" y="242" width="178" height="178" rx="89" fill="white"/>
<rect x="1" y="242" width="178" height="178" rx="89" stroke="#BCC5D7" stroke-width="2"/>
<rect x="16" y="257" width="148" height="148" rx="74" fill="#7987A4"/>
<path d="M73.4395 323.037C73.8333 322.206 74.2926 321.418 74.8176 320.653L74.7301 314.965C74.7301 314.44 74.9489 313.937 75.3645 313.587C77.3989 311.881 79.7176 310.503 82.277 309.584C82.7801 309.409 83.327 309.453 83.7645 309.737L88.6426 312.668C89.5614 312.603 90.4801 312.603 91.3989 312.668L96.277 309.737C96.7364 309.475 97.2833 309.409 97.7864 309.584C100.28 310.481 102.621 311.815 104.699 313.565C105.093 313.893 105.333 314.418 105.311 314.943L105.224 320.631C105.749 321.397 106.208 322.184 106.602 323.015L111.568 325.772C112.027 326.034 112.355 326.472 112.443 326.997C112.902 329.6 112.924 332.312 112.443 334.959C112.355 335.484 112.027 335.922 111.568 336.184L106.602 338.94C106.208 339.772 105.749 340.559 105.224 341.325L105.311 347.012C105.311 347.537 105.093 348.04 104.677 348.39C102.643 350.097 100.324 351.475 97.7645 352.393C97.2614 352.568 96.7145 352.525 96.277 352.24L91.3989 349.309C90.4801 349.375 89.5614 349.375 88.6426 349.309L83.7645 352.24C83.3051 352.503 82.7583 352.568 82.2551 352.393C79.7614 351.497 77.4208 350.162 75.3426 348.412C74.9489 348.084 74.7083 347.559 74.7301 347.034L74.8176 341.347C74.2926 340.581 73.8333 339.793 73.4395 338.962L68.4739 336.206C68.0145 335.943 67.6864 335.506 67.5989 334.981C67.1395 332.378 67.1176 329.665 67.5989 327.018C67.6864 326.493 68.0145 326.056 68.4739 325.793L73.4395 323.037Z" stroke="white" stroke-width="3" stroke-miterlimit="10" stroke-linecap="round" stroke-linejoin="round"/>
<path d="M90 341.5C95.799 341.5 100.5 336.799 100.5 331C100.5 325.201 95.799 320.5 90 320.5C84.201 320.5 79.5 325.201 79.5 331C79.5 336.799 84.201 341.5 90 341.5Z" stroke="white" stroke-width="3" stroke-miterlimit="10" stroke-linecap="round" stroke-linejoin="round"/>
<rect x="205" y="242" width="178" height="178" rx="89" fill="white"/>
<rect x="205" y="242" width="178" height="178" rx="89" stroke="#BCC5D7" stroke-width="2"/>
<rect x="220" y="257" width="148" height="148" rx="74" fill="#7987A4"/>
<path d="M294 352C305.598 352 315 342.598 315 331C315 319.402 305.598 310 294 310C282.402 310 273 319.402 273 331C273 342.598 282.402 352 294 352Z" stroke="white" stroke-width="3" stroke-linecap="round" stroke-linejoin="round"/>
<path d="M312.848 340.269L300.973 332.965C300.765 332.837 300.533 332.754 300.29 332.722L295.299 332.049C294.924 331.998 294.543 332.071 294.213 332.255C293.882 332.439 293.62 332.725 293.467 333.071L290.47 339.795C290.331 340.108 290.286 340.454 290.342 340.792C290.397 341.13 290.551 341.444 290.783 341.695L294.896 346.143C295.082 346.345 295.219 346.588 295.294 346.852C295.369 347.116 295.381 347.394 295.329 347.664L294.491 351.994" stroke="white" stroke-width="3" stroke-linecap="round" stroke-linejoin="round"/>
<path d="M280.208 315.164L278.251 319.791C278.077 320.203 278.067 320.667 278.225 321.086L280.738 327.795C280.841 328.07 281.011 328.314 281.234 328.506C281.456 328.697 281.722 328.83 282.009 328.892L286.697 329.899C286.957 329.955 287.201 330.07 287.41 330.234C287.619 330.398 287.788 330.608 287.904 330.848L288.737 332.568C288.88 332.864 289.104 333.113 289.382 333.288C289.661 333.462 289.983 333.555 290.312 333.555H293.25" stroke="white" stroke-width="3" stroke-linecap="round" stroke-linejoin="round"/>
<path d="M299.35 310.688L301.392 314.346C301.585 314.691 301.655 315.092 301.59 315.483C301.526 315.874 301.331 316.231 301.037 316.497L295.151 321.82C295.051 321.911 294.941 321.989 294.823 322.054L292.145 323.533C291.886 323.676 291.595 323.751 291.299 323.751H286.63C286.285 323.751 285.949 323.853 285.662 324.043C285.375 324.234 285.151 324.505 285.017 324.822L283.195 329.146" stroke="white" stroke-width="3" stroke-linecap="round" stroke-linejoin="round"/>
<path d="M191.889 228.043C169.063 227.659 151 222.647 151 216.521C151 210.395 169.063 205.384 191.889 205V228.043Z" fill="url(#paint0_linear_732_5942)"/>
<path d="M191.888 251C214.714 250.618 232.777 245.625 232.777 239.522C232.777 233.418 214.714 228.425 191.888 228.043V251Z" fill="url(#paint1_linear_732_5942)"/>
<path d="M372.354 396.597V403.668H365.282" stroke="#010C21" stroke-width="1.5" stroke-linecap="round" stroke-linejoin="round"/>
<path d="M375.889 400.132V407.203H368.818" stroke="#010C21" stroke-width="1.5" stroke-linecap="round" stroke-linejoin="round"/>
<path d="M364.597 254.96H371.668V262.031" stroke="#010C21" stroke-width="1.5" stroke-linecap="round" stroke-linejoin="round"/>
<path d="M368.132 251.425H375.203V258.496" stroke="#010C21" stroke-width="1.5" stroke-linecap="round" stroke-linejoin="round"/>
<path d="M18.3965 405.395L11.5664 403.564L13.3965 396.734" stroke="#010C21" stroke-width="1.5" stroke-linecap="round" stroke-linejoin="round"/>
<path d="M14.0664 407.895L7.23628 406.064L9.06641 399.234" stroke="#010C21" stroke-width="1.5" stroke-linecap="round" stroke-linejoin="round"/>
<path d="M12.7109 261.895L10.8808 255.064L17.7109 253.234" stroke="#010C21" stroke-width="1.5" stroke-linecap="round" stroke-linejoin="round"/>
<path d="M8.38086 259.395L6.55073 252.564L13.3809 250.734" stroke="#010C21" stroke-width="1.5" stroke-linecap="round" stroke-linejoin="round"/>
<path d="M302.813 59.3135L307.813 64.3135L302.813 69.3135" stroke="#010C21" stroke-width="1.5" stroke-linecap="round" stroke-linejoin="round"/>
<path d="M307.813 59.3135L312.813 64.3135L307.813 69.3135" stroke="#010C21" stroke-width="1.5" stroke-linecap="round" stroke-linejoin="round"/>
<path d="M86.5 69L81.5 64L86.5 59" stroke="#010C21" stroke-width="1.5" stroke-linecap="round" stroke-linejoin="round"/>
<path d="M81.5 69L76.5 64L81.5 59" stroke="#010C21" stroke-width="1.5" stroke-linecap="round" stroke-linejoin="round"/>
<defs>
<linearGradient id="paint0_linear_732_5942" x1="188.8" y1="207.057" x2="159.947" y2="219.361" gradientUnits="userSpaceOnUse">
<stop stop-color="#FF5366"/>
<stop offset="1" stop-color="#6C57FF"/>
</linearGradient>
<linearGradient id="paint1_linear_732_5942" x1="194.977" y1="230.093" x2="223.797" y2="242.428" gradientUnits="userSpaceOnUse">
<stop stop-color="#FF5366"/>
<stop offset="1" stop-color="#6C57FF"/>
</linearGradient>
</defs>
</svg>
