<svg width="180" height="196" viewBox="0 0 180 196" fill="none" xmlns="http://www.w3.org/2000/svg">
<path d="M13 183.5L8 188.5L3 183.5" stroke="white" stroke-width="1.5" stroke-linecap="round" stroke-linejoin="round"/>
<path d="M13 188.5L8 193.5L3 188.5" stroke="white" stroke-width="1.5" stroke-linecap="round" stroke-linejoin="round"/>
<path d="M177 183.5L172 188.5L167 183.5" stroke="white" stroke-width="1.5" stroke-linecap="round" stroke-linejoin="round"/>
<path d="M177 188.5L172 193.5L167 188.5" stroke="white" stroke-width="1.5" stroke-linecap="round" stroke-linejoin="round"/>
<rect x="1" y="1" width="178" height="178" rx="89" fill="#010C21"/>
<rect x="1" y="1" width="178" height="178" rx="89" stroke="#7987A4" stroke-width="2"/>
<rect x="16" y="16" width="148" height="148" rx="74" fill="#2B3549"/>
<path d="M90 111C101.598 111 111 101.598 111 90C111 78.402 101.598 69 90 69C78.402 69 69 78.402 69 90C69 101.598 78.402 111 90 111Z" stroke="white" stroke-width="3" stroke-linecap="round" stroke-linejoin="round"/>
<path d="M108.848 99.2692L96.9734 91.9654C96.7652 91.8374 96.5325 91.7544 96.2903 91.7218L91.2988 91.0489C90.9239 90.9984 90.5428 91.0706 90.2125 91.2549C89.8822 91.4391 89.6205 91.7254 89.4665 92.0708L86.4699 98.7948C86.3306 99.1075 86.286 99.4543 86.3417 99.792C86.3974 100.13 86.551 100.444 86.7834 100.695L90.8959 105.143C91.0823 105.345 91.2187 105.588 91.2939 105.852C91.3692 106.116 91.3812 106.394 91.329 106.664L90.4914 110.994" stroke="white" stroke-width="3" stroke-linecap="round" stroke-linejoin="round"/>
<path d="M76.208 74.1636L74.2515 78.7901C74.077 79.2026 74.0674 79.6663 74.2245 80.0857L76.7382 86.7944C76.8411 87.0691 77.0114 87.3135 77.2335 87.5052C77.4556 87.6969 77.7224 87.8297 78.0092 87.8913L82.697 88.8988C82.9571 88.9548 83.201 89.0692 83.4103 89.2336C83.6195 89.3979 83.7885 89.6078 83.9044 89.8473L84.7369 91.5671C84.8802 91.8631 85.1039 92.1127 85.3825 92.2873C85.6611 92.462 85.9832 92.5546 86.3121 92.5546H89.2504" stroke="white" stroke-width="3" stroke-linecap="round" stroke-linejoin="round"/>
<path d="M95.3498 69.6887L97.3916 73.3459C97.5846 73.6916 97.6547 74.0926 97.5903 74.4833C97.526 74.8739 97.3311 75.2313 97.0374 75.4969L91.1507 80.8207C91.0507 80.9111 90.9407 80.9896 90.8228 81.0547L88.1449 82.5335C87.8859 82.6766 87.5948 82.7516 87.2989 82.7516H82.6296C82.2853 82.7516 81.9486 82.8532 81.6618 83.0436C81.3749 83.2341 81.1506 83.5049 81.0169 83.8222L79.1953 88.1466" stroke="white" stroke-width="3" stroke-linecap="round" stroke-linejoin="round"/>
</svg>
