<svg width="48" height="48" viewBox="0 0 48 48" fill="none" xmlns="http://www.w3.org/2000/svg">
<path d="M17.4052 30.741H18.1552C18.1552 30.5304 18.0666 30.3295 17.9112 30.1874C17.7557 30.0453 17.5476 29.9751 17.3379 29.9941L17.4052 30.741ZM16.6293 22.2413L16.6966 22.9883C17.0836 22.9534 17.3798 22.6289 17.3793 22.2404L16.6293 22.2413ZM16.6293 22.224L15.8793 22.224L15.8793 22.2249L16.6293 22.224ZM30.2022 19.9096L29.4945 20.1581C29.5937 20.4406 29.8514 20.637 30.15 20.6578L30.2022 19.9096ZM29.819 30.7584L29.819 30.0084C29.4048 30.0084 29.069 30.3442 29.069 30.7584H29.819ZM29.819 30.7585V31.5085C30.2332 31.5085 30.569 31.1728 30.569 30.7585H29.819ZM17.4052 30.7585H16.6552C16.6552 31.1728 16.991 31.5085 17.4052 31.5085V30.7585ZM17.3379 29.9941C17.2324 30.0036 17.1255 30.0084 17.0172 30.0084V31.5084C17.1705 31.5084 17.3224 31.5015 17.4725 31.488L17.3379 29.9941ZM17.0172 30.0084C15.0747 30.0084 13.5 28.4337 13.5 26.4912H12C12 29.2621 14.2463 31.5084 17.0172 31.5084V30.0084ZM13.5 26.4912C13.5 24.6568 14.9048 23.1498 16.6966 22.9883L16.562 21.4944C14.004 21.7249 12 23.8736 12 26.4912H13.5ZM17.3793 22.2404L17.3793 22.2231L15.8793 22.2249L15.8793 22.2422L17.3793 22.2404ZM17.3793 22.224C17.3793 18.7817 20.1698 15.9912 23.6121 15.9912V14.4912C19.3414 14.4912 15.8793 17.9533 15.8793 22.224H17.3793ZM23.6121 15.9912C26.3291 15.9912 28.6419 17.7302 29.4945 20.1581L30.9098 19.6611C29.8528 16.6511 26.9856 14.4912 23.6121 14.4912V15.9912ZM30.15 20.6578C32.5804 20.8272 34.5 22.8534 34.5 25.3273H36C36 22.06 33.4652 19.3853 30.2543 19.1614L30.15 20.6578ZM34.5 25.3273C34.5 27.9126 32.4042 30.0084 29.819 30.0084L29.819 31.5084C33.2327 31.5084 36 28.741 36 25.3273H34.5ZM29.069 30.7584V30.7585H30.569V30.7584H29.069ZM29.819 30.0085H17.4052V31.5085H29.819V30.0085ZM18.1552 30.7585V30.741H16.6552V30.7585H18.1552Z" fill="#010C21"/>
<circle cx="21" cy="24" r="1" fill="#010C21"/>
<circle cx="24" cy="24" r="1" fill="#010C21"/>
<circle cx="27" cy="24" r="1" fill="#010C21"/>
<rect x="0.5" y="0.5" width="47" height="47" rx="23.5" stroke="#7987A4"/>
</svg>
