<svg width="28" height="28" viewBox="0 0 28 28" fill="none" xmlns="http://www.w3.org/2000/svg">
<circle cx="14" cy="14" r="13.5" stroke="#2B3549"/>
<path d="M19.6558 11.5627C20.1813 11.1686 20.6543 10.6956 21.0222 10.1438C20.5492 10.354 19.9974 10.5116 19.4456 10.5642C20.0237 10.2226 20.4441 9.69706 20.6543 9.04014C20.1288 9.35546 19.5244 9.59195 18.92 9.72334C18.3945 9.17152 17.685 8.8562 16.8967 8.8562C15.3727 8.8562 14.1377 10.0912 14.1377 11.6153C14.1377 11.8255 14.1639 12.0357 14.2165 12.2459C11.9304 12.1145 9.88081 11.0109 8.51442 9.35546C8.27792 9.74961 8.14654 10.2226 8.14654 10.7481C8.14654 11.6941 8.61952 12.535 9.38155 13.0342C8.93484 13.0079 8.48814 12.9028 8.12026 12.6926V12.7189C8.12026 14.059 9.06623 15.1626 10.3275 15.4254C10.1173 15.478 9.85453 15.5305 9.61804 15.5305C9.4341 15.5305 9.27644 15.5042 9.09251 15.478C9.4341 16.5816 10.4589 17.3699 11.6676 17.3962C10.7217 18.1319 9.53921 18.5786 8.25165 18.5786C8.01516 18.5786 7.80494 18.5523 7.59473 18.5261C8.80346 19.3144 10.2487 19.7611 11.8253 19.7611C16.8967 19.7611 19.6558 15.5831 19.6558 11.9306C19.6558 11.7992 19.6558 11.6941 19.6558 11.5627Z" fill="white"/>
</svg>
