<svg width="24" height="16" viewBox="0 0 24 16" fill="none" xmlns="http://www.w3.org/2000/svg">
<g clip-path="url(#clip0_1703_17477)">
<rect width="24" height="16" rx="2" fill="white"/>
<path fill-rule="evenodd" clip-rule="evenodd" d="M0 0H10.2857V7.46667H0V0Z" fill="#1A47B8"/>
<path fill-rule="evenodd" clip-rule="evenodd" d="M10.2857 0V1.06667H24V0H10.2857ZM10.2857 2.13333V3.2H24V2.13333H10.2857ZM10.2857 4.26667V5.33333H24V4.26667H10.2857ZM10.2857 6.4V7.46667H24V6.4H10.2857ZM0 8.53333V9.6H24V8.53333H0ZM0 10.6667V11.7333H24V10.6667H0ZM0 12.8V13.8667H24V12.8H0ZM0 14.9333V16H24V14.9333H0Z" fill="#F93939"/>
<path fill-rule="evenodd" clip-rule="evenodd" d="M1.14258 1.06689V2.13356H2.28544V1.06689H1.14258ZM3.42829 1.06689V2.13356H4.57115V1.06689H3.42829ZM5.71401 1.06689V2.13356H6.85686V1.06689H5.71401ZM7.99972 1.06689V2.13356H9.14258V1.06689H7.99972ZM6.85686 2.13356V3.20023H7.99972V2.13356H6.85686ZM4.57115 2.13356V3.20023H5.71401V2.13356H4.57115ZM2.28544 2.13356V3.20023H3.42829V2.13356H2.28544ZM1.14258 3.20023V4.26689H2.28544V3.20023H1.14258ZM3.42829 3.20023V4.26689H4.57115V3.20023H3.42829ZM5.71401 3.20023V4.26689H6.85686V3.20023H5.71401ZM7.99972 3.20023V4.26689H9.14258V3.20023H7.99972ZM1.14258 5.33356V6.40023H2.28544V5.33356H1.14258ZM3.42829 5.33356V6.40023H4.57115V5.33356H3.42829ZM5.71401 5.33356V6.40023H6.85686V5.33356H5.71401ZM7.99972 5.33356V6.40023H9.14258V5.33356H7.99972ZM6.85686 4.26689V5.33356H7.99972V4.26689H6.85686ZM4.57115 4.26689V5.33356H5.71401V4.26689H4.57115ZM2.28544 4.26689V5.33356H3.42829V4.26689H2.28544Z" fill="white"/>
</g>
<defs>
<clipPath id="clip0_1703_17477">
<rect width="24" height="16" rx="2" fill="white"/>
</clipPath>
</defs>
</svg>
