<svg width="141" height="56" viewBox="0 0 141 56" fill="none" xmlns="http://www.w3.org/2000/svg">
<path d="M87.7131 35.0326C88.1762 34.6792 88.4077 34.0902 88.4077 33.619V27.7293C87.25 27.4937 86.2081 27.4937 85.1661 27.4937L81.693 27.6115V33.5013C81.693 34.0902 81.8087 34.6792 82.3876 35.0326H77.7567C78.3356 34.6792 78.5671 34.0902 78.5671 33.619V20.4261C78.5671 19.8371 78.2198 19.2481 77.8725 18.8947H82.3876C82.0403 19.3659 81.693 19.8371 81.693 20.4261V25.9624L85.1661 26.198L88.4077 25.9624V20.4261C88.4077 19.8371 88.0604 19.2481 87.7131 18.8947H92.2282C91.6493 19.3659 91.5336 19.8371 91.5336 20.4261V33.619C91.5336 34.0902 91.6493 34.797 92.2282 35.0326H87.5973H87.7131ZM72.6628 31.381C72.6628 28.4361 65.4849 27.6115 65.4849 22.7819C65.4849 19.8371 68.1477 18.7769 70.6946 18.7769C71.9681 18.7769 73.2416 18.8947 74.5151 19.3659L74.7466 22.4286C74.052 21.015 72.7785 20.1905 71.1577 20.0727C70 20.0727 68.8423 20.6617 68.8423 21.9574C68.8423 25.02 76.0201 25.9624 76.0201 30.4386C76.0201 33.7368 73.1258 35.1504 70.2316 35.1504C68.6107 35.1504 66.7584 34.6792 65.2534 33.9724L65.1376 32.3233C65.1376 31.4987 65.2534 30.792 65.4849 30.203C65.7693 31.2178 66.3804 32.106 67.22 32.7254C68.0597 33.3448 69.0794 33.6595 70.1158 33.619C71.2735 33.7368 72.547 32.7945 72.7785 31.4987L72.547 31.381H72.6628ZM58.1913 35.0326C58.7701 34.9148 59.1175 34.0902 59.1175 33.619V20.4261C59.1175 19.8371 58.7701 19.2481 58.1913 18.8947H63.0537C62.5906 19.3659 62.1275 19.8371 62.1275 20.4261V33.619C62.1275 34.0902 62.5906 34.797 63.0537 35.0326H58.1913ZM47.4245 35.0326C48.0034 34.6792 48.1191 34.0902 48.1191 33.619V20.7794H44.646L42.099 21.1328L43.2567 18.7769H54.7181C55.6443 18.7769 56.5705 18.7769 57.4967 18.5414C57.0336 19.7193 55.9916 20.4261 54.9497 20.6617H51.1292V33.3835C51.1292 33.9724 51.4765 34.5614 51.9396 34.9148H47.4245V35.0326ZM36.8893 35.0326C37.4681 34.9148 37.8154 34.0902 37.8154 33.619V20.4261C37.8154 19.8371 37.4681 19.2481 36.8893 18.8947H41.7517C41.2886 19.3659 40.8255 19.8371 40.8255 20.4261V33.619C40.8255 34.0902 41.2886 34.797 41.7517 35.0326H36.8893ZM33.6477 35.2682C32.8373 35.2682 32.3742 35.2682 31.7953 34.9148C30.6376 34.5614 29.2483 32.3233 28.6695 31.1454C27.5117 29.7318 26.8171 27.4937 24.849 27.4937V33.619C24.849 34.0902 25.0805 34.797 25.5436 35.0326H20.9128C21.3758 34.6792 21.6074 34.0902 21.6074 33.619V20.4261C21.6074 19.8371 21.3758 19.2481 20.797 18.8947H26.5856C29.2483 18.8947 32.1426 20.0727 32.1426 23.0175C32.1426 25.609 30.1745 26.9048 27.7433 26.9048C31.1007 26.9048 33.0688 34.6792 36.542 34.6792C35.6249 35.068 34.6412 35.2682 33.6477 35.2682ZM25.5436 20.4261H24.849V25.9624H25.5436C27.0487 26.198 28.4379 25.02 28.6695 23.3709V23.0175C28.6695 21.1328 27.5117 20.4261 25.5436 20.4261ZM12.1141 27.4937H10.6091V33.3835C11.4195 33.619 12.1141 33.619 12.9245 33.619C14.4295 33.619 16.1661 33.0301 16.1661 30.4386C16.1661 27.8471 14.0822 27.4937 12.1141 27.4937ZM11.5352 20.4261H10.6091V25.9624H11.4195C13.156 25.9624 15.0084 25.3734 15.0084 23.2531C14.8926 20.8972 13.6191 20.4261 11.5352 20.4261ZM6.78859 35.0326C7.25168 34.6792 7.48322 34.0902 7.48322 33.619V20.4261C7.48322 19.8371 7.25168 19.2481 6.78859 18.8947H12.5772C15.2399 18.8947 18.0185 20.0727 18.0185 23.3709C17.9311 24.2079 17.5792 24.9934 17.0155 25.6094C16.4518 26.2254 15.7069 26.6386 14.8926 26.787C17.2081 26.787 19.2919 27.9649 19.2919 30.6742C19.2919 34.3258 15.5872 35.2682 13.0403 35.2682L6.55705 35.0326H6.78859ZM90.8389 52.1128C90.8389 49.1679 83.8926 48.4612 83.8926 43.6316C83.8926 40.5689 86.6711 39.5088 89.2181 39.5088C90.4916 39.5088 91.7651 39.7444 93.0386 40.0977L93.2701 43.1604C92.5755 41.7469 91.302 41.0401 89.5654 40.8045C88.4077 40.8045 87.25 41.3935 87.25 42.6892C87.25 45.8697 94.3121 46.6942 94.3121 51.1704C94.3121 54.4687 91.6493 55.8822 88.6393 55.8822C87.0185 55.8822 85.1661 55.411 83.7768 54.7043L83.5453 53.0551L83.7768 51.1704C84.1778 52.099 84.8217 52.8978 85.6383 53.4794C86.455 54.061 87.413 54.4032 88.4077 54.4687C89.797 54.7043 90.8389 53.9975 90.8389 52.1128ZM82.156 41.5113L78.4513 48.2256V54.3509C78.4513 54.9398 78.6829 55.5288 79.0302 55.7644H74.3993C74.8624 55.411 75.2097 54.9398 75.094 54.3509V48.2256L72.0839 42.807C71.6208 42.5714 70.4631 40.2155 68.7265 40.2155L71.505 39.8622C73.1258 39.8622 73.8205 39.9799 74.7466 41.5113L77.8725 46.2231C78.2198 45.9875 80.4195 41.6291 80.4195 41.6291C80.5352 41.2757 80.7668 40.9223 80.7668 40.4511C80.7668 40.4511 80.7668 40.2155 80.4195 40.2155H83.6611C83.0822 40.3333 82.5034 40.9223 82.0403 41.6291L82.156 41.5113ZM67.8003 55.7644C68.1477 55.6466 68.1477 55.411 68.1477 55.2932L68.0319 54.7043C68.0319 54.7043 66.8742 51.1704 66.5268 50.5815H60.854L59.2332 54.7043L58.8859 55.411C58.8859 55.6466 59.2332 55.7644 59.2332 55.7644H55.9916C56.3389 55.6466 56.6862 55.0576 57.1493 54.7043L62.3591 41.0401L62.5906 40.8045C62.5893 40.6083 62.5345 40.4163 62.4323 40.25C62.3301 40.0836 62.1845 39.9493 62.0117 39.8622H65.8322L71.1577 54.7043C71.3893 55.2932 71.8523 55.6466 72.3154 55.8822H67.6846L67.8003 55.7644ZM63.8641 42.807L61.5487 48.9323C62.1275 49.1679 62.9379 49.1679 63.6326 49.1679C64.3272 49.1679 65.2534 49.1679 65.948 48.9323L63.8641 42.807ZM58.0755 41.3935L53.4446 55.7644C53.0973 55.7644 52.75 55.7644 52.2869 55.411C51.7222 54.4411 51.2566 53.4149 50.8977 52.3484L48.698 46.6942L45.4564 55.6466H43.8356L38.3943 41.1579C38.1741 40.5685 37.7666 40.071 37.2366 39.7444H41.9832L41.6359 40.2155C41.6359 40.4511 41.6359 40.5689 41.8675 40.8045L45.3406 50.4637L48.9295 39.7444L52.9815 50.1103L56.2232 40.6867L56.4547 40.2155C56.4547 40.1218 56.4181 40.0319 56.353 39.9657C56.2878 39.8994 56.1995 39.8622 56.1074 39.8622H59.1175C58.5668 40.2184 58.1569 40.7605 57.9597 41.3935H58.0755ZM38.6258 56C38.047 56 37.3524 56 36.7735 55.7644C35.6158 55.411 34.2265 53.0551 33.5319 51.8772C32.6057 50.4637 31.5638 48.2256 29.4799 48.2256V54.3509C29.4799 54.9398 29.7114 55.5288 30.2903 55.7644H25.3121C25.7752 55.411 26.0067 54.9398 26.0067 54.3509V41.1579C26.0067 40.8045 25.7752 39.98 25.3121 39.98H31.1007C33.6477 39.98 36.542 40.8045 36.542 43.985C36.542 46.2231 34.8054 47.8722 32.6057 47.8722C35.8473 47.99 38.047 55.6466 41.2886 55.6466C40.3624 56 39.4362 56 38.3943 56H38.6258ZM30.2903 41.1579H29.4799V46.6942H30.2903C31.6795 46.9298 33.1846 45.8697 33.3003 44.3383V43.7494C33.3003 41.8647 32.1426 41.1579 30.2903 41.1579ZM17.9027 55.7644C18.4815 55.6466 18.8289 54.9398 18.8289 54.3509V41.1579C18.8289 40.5689 18.4815 39.98 17.9027 39.98H22.9966C22.4178 39.98 22.0705 40.5689 22.0705 41.1579V54.3509C22.0705 54.9398 22.4178 55.5288 22.9966 55.7644H18.0185H17.9027ZM8.4094 42.807L6.09396 48.9323C6.78859 49.1679 7.59899 49.1679 8.29362 49.1679C9.2198 49.1679 9.91443 49.1679 10.8406 48.9323L8.52517 42.807H8.4094ZM12.8087 55.7644C13.0403 55.6466 13.156 55.411 13.156 55.2932L13.0403 54.7043L11.5352 50.5815H5.63087L4.01007 54.7043L3.66275 55.411C3.66275 55.6466 4.01007 55.7644 4.01007 55.7644H1C1.57886 55.411 1.92617 55.0576 2.15772 54.7043L7.13591 41.0401C7.13591 41.0401 7.36745 41.0401 7.36745 40.8045C7.36611 40.6083 7.3113 40.4163 7.2091 40.25C7.1069 40.0836 6.96133 39.9493 6.78859 39.8622H10.8406L16.0503 54.7043C16.1661 55.2932 16.745 55.6466 17.0923 55.8822H12.693L12.8087 55.7644ZM132.285 9.35338C128.829 11.9668 125.004 14.032 120.94 15.4787C118.369 16.4242 115.783 17.3274 113.183 18.188L105.658 20.5439C111.446 22.4286 117.235 23.7243 123.139 24.6667C126.265 23.4887 129.159 22.3108 131.938 20.6617C133.817 19.7657 135.569 18.6167 137.148 17.2456C138.074 16.7744 138.653 15.5965 138.884 14.6541L139 14.183V13.594L138.884 13.2406C138.884 13.1228 138.884 12.8872 138.653 12.6516C138.421 12.0627 138.305 11.7093 137.727 11.3559C136.779 10.5155 135.677 9.8749 134.485 9.47118L132.517 9L132.285 9.35338Z" fill="white"/>
<path d="M140 13C140 12.7689 140 12.6533 139.77 12.6533C139.77 12.3066 139.656 12.3066 139.426 11.8443L138.737 11.0353L137.819 10.2263C136.358 9.5068 134.817 8.9637 133.228 8.60828L127.49 8.26157C126.686 8.26157 120.833 8.26157 119.455 8.49271L102.469 8.60828C88.2641 9.25117 74.0315 8.39902 60.0024 6.06571C55.4115 5.14114 50.591 4.101 46 2.59857L109.355 0.0559949C115.253 -0.107011 121.156 0.0859543 127.031 0.633852C128.408 0.749424 129.9 1.21171 131.162 1.78957C132.769 2.25185 134.376 3.17643 135.524 4.56328L135.983 5.14114L136.901 6.41243C137.705 7.56814 138.164 8.72386 138.737 9.764L139.311 10.9197L139.656 11.7287C139.77 12.0754 139.77 12.6533 140 12.8844V13Z" fill="white"/>
</svg>
