<svg width="141" height="56" viewBox="0 0 141 56" fill="none" xmlns="http://www.w3.org/2000/svg">
<path d="M81.0618 38.5467C81.6247 37.3333 82 35.7467 82 34.2533C82 31.8267 80.8741 29.5867 78.9977 28.0933L77.4966 27.0667H77.3089L77.4966 26.88C78.7162 25.9467 79.8421 24.08 79.8421 20.9067C79.8421 18.0133 78.9039 15.7733 77.0275 14.3733C74.887 13.0821 72.3922 12.4943 69.897 12.6933H60.984C60.4211 12.6933 60.0458 12.9733 60.0458 13.5333V42.6533C60.0458 43.12 60.4211 43.5867 60.984 43.5867H71.1167C74.4005 43.5867 76.9336 42.84 78.6224 41.44C79.6528 40.6797 80.4885 39.6884 81.0618 38.5467ZM62.6728 15.4H69.5217C71.9611 15.4 73.8375 15.7733 75.0572 16.6133C75.714 17.08 76.746 18.1067 76.746 20.72C76.746 25.3867 73.1808 25.6667 71.9611 25.6667H62.5789V15.4H62.6728ZM70.9291 40.6H62.6728V28.56H71.9611C76.0892 28.56 78.8101 30.8 78.8101 34.16C78.9977 35.7467 78.9977 40.6 70.9291 40.6ZM51.7895 43.68H52.1648C52.54 43.4933 52.8215 43.12 52.8215 42.7467V0H50.0069V36.96L30.6796 12.6933L29.9291 12.32H29.6476C29.2723 12.5067 28.897 12.88 28.897 13.2533V56H31.8993V19.04L51.0389 43.3067C51.4142 43.4933 51.6957 43.68 51.9771 43.68H51.7895ZM19.7963 38.92C22.7048 35.28 23.2677 30.6133 23.2677 28.28C23.2677 26.2267 22.8924 21.0933 19.7963 17.08C18.5068 15.5703 16.8934 14.3674 15.0749 13.5598C13.2565 12.7522 11.2791 12.3604 9.28833 12.4133H0.844393C0.375286 12.4133 0 12.9733 0 13.5333V42.6533C0 43.12 0.375286 43.5867 0.938215 43.5867H9.38215C11.2586 43.5867 13.135 43.12 14.8238 42.4667C16.8879 41.8133 18.389 40.4133 19.7963 38.92ZM9.47597 40.6H2.90847V15.4H9.47597C11.9153 15.4 15.1053 16.0533 17.5446 19.04C20.1716 22.12 20.3593 26.88 20.3593 28.28C20.3593 30.3333 19.984 34.2533 17.5446 37.1467C15.1053 40.04 11.9153 40.6 9.47597 40.6Z" fill="white"/>
</svg>
